G04 FreePCB version 1.334*
G04 c:\jag\pcb\jagwave\CAM\bottom_solder_mask.grb*
G04  layer *
G04 Scale: 100 percent, Rotated: No, Reflected: No *
%FSLAX24Y24*%
%MOIN*%
%LNTop*%
%ADD10R,0.074803X0.074803*%
%ADD11C,0.074803*%
%ADD12C,0.145669*%
%ADD13C,0.075748*%
%ADD14C,0.144748*%
%ADD15C,0.053748*%
%ADD16C,0.015748*%
G90*
G70D02*

G04 Step and Repeat for panelization *

G04 -------------- Draw Parts, Pads, Traces, Vias and Text (positive)*
%LPD*%
G04 Draw part J0*
G36*
G01X31542Y384D02*
G01X31542Y3562D01*
G01X32000Y3562D01*
G01X32000Y384D01*
G01X31542Y384D01*
G37*
G36*
G01X30952Y384D02*
G01X30952Y3562D01*
G01X31410Y3562D01*
G01X31410Y384D01*
G01X30952Y384D01*
G37*
G36*
G01X30362Y1004D02*
G01X30362Y3562D01*
G01X30820Y3562D01*
G01X30820Y1004D01*
G01X30362Y1004D01*
G37*
G36*
G01X29772Y384D02*
G01X29772Y3562D01*
G01X30230Y3562D01*
G01X30230Y384D01*
G01X29772Y384D01*
G37*
G36*
G01X29182Y1004D02*
G01X29182Y3562D01*
G01X29640Y3562D01*
G01X29640Y1004D01*
G01X29182Y1004D01*
G37*
G36*
G01X28592Y1004D02*
G01X28592Y3562D01*
G01X29050Y3562D01*
G01X29050Y1004D01*
G01X28592Y1004D01*
G37*
G36*
G01X28002Y1004D02*
G01X28002Y3562D01*
G01X28460Y3562D01*
G01X28460Y1004D01*
G01X28002Y1004D01*
G37*
G36*
G01X27412Y1004D02*
G01X27412Y3562D01*
G01X27870Y3562D01*
G01X27870Y1004D01*
G01X27412Y1004D01*
G37*
G36*
G01X26822Y1004D02*
G01X26822Y3562D01*
G01X27280Y3562D01*
G01X27280Y1004D01*
G01X26822Y1004D01*
G37*
G36*
G01X26232Y1004D02*
G01X26232Y3562D01*
G01X26690Y3562D01*
G01X26690Y1004D01*
G01X26232Y1004D01*
G37*
G36*
G01X25642Y1004D02*
G01X25642Y3562D01*
G01X26100Y3562D01*
G01X26100Y1004D01*
G01X25642Y1004D01*
G37*
G36*
G01X25052Y1004D02*
G01X25052Y3562D01*
G01X25510Y3562D01*
G01X25510Y1004D01*
G01X25052Y1004D01*
G37*
G36*
G01X24462Y1004D02*
G01X24462Y3562D01*
G01X24920Y3562D01*
G01X24920Y1004D01*
G01X24462Y1004D01*
G37*
G36*
G01X23872Y1004D02*
G01X23872Y3562D01*
G01X24330Y3562D01*
G01X24330Y1004D01*
G01X23872Y1004D01*
G37*
G36*
G01X23282Y1004D02*
G01X23282Y3562D01*
G01X23740Y3562D01*
G01X23740Y1004D01*
G01X23282Y1004D01*
G37*
G36*
G01X22692Y1004D02*
G01X22692Y3562D01*
G01X23150Y3562D01*
G01X23150Y1004D01*
G01X22692Y1004D01*
G37*
G36*
G01X22102Y1004D02*
G01X22102Y3562D01*
G01X22560Y3562D01*
G01X22560Y1004D01*
G01X22102Y1004D01*
G37*
G36*
G01X21512Y384D02*
G01X21512Y3562D01*
G01X21970Y3562D01*
G01X21970Y384D01*
G01X21512Y384D01*
G37*
G36*
G01X20922Y384D02*
G01X20922Y3562D01*
G01X21380Y3562D01*
G01X21380Y384D01*
G01X20922Y384D01*
G37*
G36*
G01X20332Y384D02*
G01X20332Y3562D01*
G01X20790Y3562D01*
G01X20790Y384D01*
G01X20332Y384D01*
G37*
G36*
G01X19742Y384D02*
G01X19742Y3562D01*
G01X20200Y3562D01*
G01X20200Y384D01*
G01X19742Y384D01*
G37*
G36*
G01X19152Y1004D02*
G01X19152Y3562D01*
G01X19610Y3562D01*
G01X19610Y1004D01*
G01X19152Y1004D01*
G37*
G36*
G01X18562Y384D02*
G01X18562Y3562D01*
G01X19020Y3562D01*
G01X19020Y384D01*
G01X18562Y384D01*
G37*
G36*
G01X17972Y1004D02*
G01X17972Y3562D01*
G01X18430Y3562D01*
G01X18430Y1004D01*
G01X17972Y1004D01*
G37*
G36*
G01X17382Y1004D02*
G01X17382Y3562D01*
G01X17840Y3562D01*
G01X17840Y1004D01*
G01X17382Y1004D01*
G37*
G36*
G01X16792Y384D02*
G01X16792Y3562D01*
G01X17250Y3562D01*
G01X17250Y384D01*
G01X16792Y384D01*
G37*
G36*
G01X16202Y1004D02*
G01X16202Y3562D01*
G01X16660Y3562D01*
G01X16660Y1004D01*
G01X16202Y1004D01*
G37*
G36*
G01X15612Y1004D02*
G01X15612Y3562D01*
G01X16070Y3562D01*
G01X16070Y1004D01*
G01X15612Y1004D01*
G37*
G36*
G01X15022Y1004D02*
G01X15022Y3562D01*
G01X15480Y3562D01*
G01X15480Y1004D01*
G01X15022Y1004D01*
G37*
G36*
G01X14432Y1004D02*
G01X14432Y3562D01*
G01X14890Y3562D01*
G01X14890Y1004D01*
G01X14432Y1004D01*
G37*
G36*
G01X13842Y384D02*
G01X13842Y3562D01*
G01X14300Y3562D01*
G01X14300Y384D01*
G01X13842Y384D01*
G37*
G36*
G01X13252Y1004D02*
G01X13252Y3562D01*
G01X13710Y3562D01*
G01X13710Y1004D01*
G01X13252Y1004D01*
G37*
G36*
G01X12662Y1004D02*
G01X12662Y3562D01*
G01X13120Y3562D01*
G01X13120Y1004D01*
G01X12662Y1004D01*
G37*
G36*
G01X12072Y1004D02*
G01X12072Y3562D01*
G01X12530Y3562D01*
G01X12530Y1004D01*
G01X12072Y1004D01*
G37*
G36*
G01X11482Y1004D02*
G01X11482Y3562D01*
G01X11940Y3562D01*
G01X11940Y1004D01*
G01X11482Y1004D01*
G37*
G36*
G01X10892Y1004D02*
G01X10892Y3562D01*
G01X11350Y3562D01*
G01X11350Y1004D01*
G01X10892Y1004D01*
G37*
G36*
G01X10302Y1004D02*
G01X10302Y3562D01*
G01X10760Y3562D01*
G01X10760Y1004D01*
G01X10302Y1004D01*
G37*
G36*
G01X9712Y1004D02*
G01X9712Y3562D01*
G01X10170Y3562D01*
G01X10170Y1004D01*
G01X9712Y1004D01*
G37*
G36*
G01X9122Y1004D02*
G01X9122Y3562D01*
G01X9580Y3562D01*
G01X9580Y1004D01*
G01X9122Y1004D01*
G37*
G36*
G01X8532Y1004D02*
G01X8532Y3562D01*
G01X8990Y3562D01*
G01X8990Y1004D01*
G01X8532Y1004D01*
G37*
G36*
G01X6762Y384D02*
G01X6762Y3562D01*
G01X7220Y3562D01*
G01X7220Y384D01*
G01X6762Y384D01*
G37*
G36*
G01X6172Y1004D02*
G01X6172Y3562D01*
G01X6630Y3562D01*
G01X6630Y1004D01*
G01X6172Y1004D01*
G37*
G36*
G01X5582Y384D02*
G01X5582Y3562D01*
G01X6040Y3562D01*
G01X6040Y384D01*
G01X5582Y384D01*
G37*
G36*
G01X4992Y1004D02*
G01X4992Y3562D01*
G01X5450Y3562D01*
G01X5450Y1004D01*
G01X4992Y1004D01*
G37*
G36*
G01X4402Y384D02*
G01X4402Y3562D01*
G01X4860Y3562D01*
G01X4860Y384D01*
G01X4402Y384D01*
G37*
G36*
G01X3812Y1004D02*
G01X3812Y3562D01*
G01X4270Y3562D01*
G01X4270Y1004D01*
G01X3812Y1004D01*
G37*
G36*
G01X3222Y1004D02*
G01X3222Y3562D01*
G01X3680Y3562D01*
G01X3680Y1004D01*
G01X3222Y1004D01*
G37*
G36*
G01X2632Y1004D02*
G01X2632Y3562D01*
G01X3090Y3562D01*
G01X3090Y1004D01*
G01X2632Y1004D01*
G37*
G36*
G01X2042Y1004D02*
G01X2042Y3562D01*
G01X2500Y3562D01*
G01X2500Y1004D01*
G01X2042Y1004D01*
G37*
G36*
G01X1452Y1004D02*
G01X1452Y3562D01*
G01X1910Y3562D01*
G01X1910Y1004D01*
G01X1452Y1004D01*
G37*
G36*
G01X862Y384D02*
G01X862Y3562D01*
G01X1320Y3562D01*
G01X1320Y384D01*
G01X862Y384D01*
G37*
G36*
G01X272Y384D02*
G01X272Y3562D01*
G01X730Y3562D01*
G01X730Y384D01*
G01X272Y384D01*
G37*
G04 Draw part C1*
G04 Draw part C2*
G04 Draw part C3*
G04 Draw part C4*
G04 Draw part C5*
G04 Draw part C6*
G04 Draw part C7*
G04 Draw part C8*
G04 Draw part C9*
G04 Draw part C10*
G04 Draw part C11*
G04 Draw part U1*
G04 Draw part X1*
G04 Draw part C18*
G04 Draw part C19*
G04 Draw part R1*
G04 Draw part C12*
G04 Draw part C13*
G04 Draw part U2*
G04 Draw part U3*
G04 Draw part U4*
G04 Draw part L1*
G04 Draw part J1*
G54D10*
G01X5118Y12598D03*
G54D11*
G01X4133Y12598D03*
G01X3346Y12598D03*
G01X2362Y12598D03*
G54D12*
G01X6326Y13665D03*
G01X1153Y13665D03*
G04 Draw part J2*
G54D10*
G01X29921Y12598D03*
G54D11*
G01X28937Y12598D03*
G01X28149Y12598D03*
G01X27165Y12598D03*
G54D12*
G01X31129Y13665D03*
G01X25956Y13665D03*
G04 Draw part J3*
G04 Draw part J4*
G54D13*
G01X24330Y13385D03*
G01X23330Y13385D03*
G01X22330Y13385D03*
G01X21330Y13385D03*
G01X20330Y13385D03*
G01X19330Y13385D03*
G04 Draw part C17*
G04 Draw part M1*
G54D14*
G01X1181Y11338D03*
G04 Draw part M2*
G01X31102Y11338D03*
G04 Draw part C16*
G04 Draw part C15*
G04 Draw part C20*
G04 Draw part R2*
G04 Draw part C14*
G04 Draw part TP1*

G04 Draw traces*
G54D15*
G01X22440Y8267D03*
G01X7165Y8346D03*
G01X24960Y6929D03*
G01X8582Y8976D03*
G01X24645Y5984D03*
G01X12204Y7322D03*
G01X10787Y6062D03*
G01X7795Y4409D03*
G01X4527Y10905D03*
G01X21811Y3779D03*
G01X23149Y8582D03*
G01X6850Y7559D03*
G01X22440Y8897D03*
G01X6535Y8346D03*
G01X10472Y4566D03*
G01X24330Y6929D03*
G01X8897Y8582D03*
G01X26929Y7952D03*
G01X17244Y12362D03*
G01X7401Y12913D03*
G01X23149Y9212D03*
G01X6220Y7559D03*
G01X15118Y6456D03*
G01X21496Y4724D03*
G01X5905Y8346D03*
G01X22440Y9527D03*
G01X4566Y5118D03*
G01X944Y7322D03*
G01X2677Y7165D03*
G01X5433Y4015D03*
G01X14645Y6456D03*
G01X20393Y4724D03*
G01X16850Y7559D03*
G01X16535Y13070D03*
G01X25590Y8818D03*
G01X27007Y9685D03*
G01X25590Y10314D03*
G01X20078Y11102D03*
G01X24133Y12519D03*
G01X17086Y10787D03*
G01X21259Y10708D03*
G01X27007Y6929D03*
G01X551Y5511D03*
G01X9291Y8976D03*
G01X27007Y8464D03*
G01X11456Y8110D03*
G01X11456Y7440D03*
G01X20944Y5669D03*
G01X14488Y7716D03*
G01X20000Y7401D03*
G01X2677Y6614D03*
G01X9291Y5118D03*
G01X14566Y4488D03*
G01X26062Y4212D03*
G01X24094Y3937D03*
G01X31496Y3937D03*
G01X6496Y10551D03*
G01X6496Y11692D03*
G01X27244Y11299D03*
G01X26633Y5708D03*
G01X29173Y9133D03*
G01X29724Y3937D03*
G01X6102Y3937D03*
G01X787Y3937D03*
G01X28503Y6771D03*
G01X28503Y5511D03*
G01X19881Y5748D03*
G01X17637Y8818D03*
G01X12598Y3858D03*
G01X12283Y8976D03*
G01X15039Y12362D03*
G01X5944Y11692D03*
G01X5944Y10551D03*
G01X3858Y9842D03*
G01X3385Y11417D03*
G01X12755Y12125D03*
G01X16062Y13070D03*
G01X25984Y8582D03*
G01X29133Y4960D03*
G01X28031Y4488D03*
G01X23385Y5669D03*
G01X16141Y7401D03*
G01X27007Y10157D03*
G01X3622Y6062D03*
G01X20866Y4724D03*
G01X25984Y10078D03*
G01X24409Y7795D03*
G01X7716Y10866D03*
G01X2834Y5118D03*
G01X15748Y7716D03*
G01X15590Y9133D03*
G01X17716Y7244D03*
G01X25905Y5984D03*
G01X12834Y7322D03*
G01X19212Y7244D03*
G01X4094Y5590D03*
G01X3779Y3858D03*
G01X25590Y6929D03*
G01X8267Y8582D03*
G01X25275Y5984D03*
G01X12519Y7716D03*
G01X25314Y12007D03*
G01X15433Y10787D03*
G01X16141Y4094D03*
G01X10787Y8110D03*
G01X10787Y7440D03*
G01X20629Y7401D03*
G01X19212Y5748D03*
G01X28503Y9153D03*
G01X24488Y4212D03*
G01X12952Y8976D03*
G01X5039Y10157D03*
G01X23149Y7952D03*
G01X7480Y7559D03*
G01X16850Y7086D03*

G04 Draw Text*
G54D16*

G04 Draw solder mask cutouts*
G36*
G01X0Y3484D02*
G01X0Y0D01*
G01X32283Y0D01*
G01X32283Y3484D01*
G01X0Y3484D01*
G37*
G01X0Y3484D02*
G01X0Y0D01*
G01X32283Y0D01*
G01X32283Y3484D01*
G01X0Y3484D01*
M00*
M02*
