;Holesize 1 =   39.0 PLATED MILS
;Holesize 2 =   90.0 PLATED MILS
;Holesize 3 =   20.0 PLATED MILS
M48
INCH
T01C0.039
T02C0.090
T03C0.020
%
G05
G90
T01
X005118Y012598
X004133Y012598
X003346Y012598
X002362Y012598
X029921Y012598
X028937Y012598
X028149Y012598
X027165Y012598
X024330Y013385
X023330Y013385
X022330Y013385
X021330Y013385
X020330Y013385
X019330Y013385
T02
X006326Y013665
X001153Y013665
X031129Y013665
X025956Y013665
X001181Y011338
X031102Y011338
T03
X022440Y008267
X007165Y008346
X024960Y006929
X008582Y008976
X024645Y005984
X012204Y007322
X010787Y006062
X007795Y004409
X004527Y010905
X021811Y003779
X023149Y008582
X006850Y007559
X022440Y008897
X006535Y008346
X010472Y004566
X024330Y006929
X008897Y008582
X026929Y007952
X017244Y012362
X007401Y012913
X023149Y009212
X006220Y007559
X015118Y006456
X021496Y004724
X005905Y008346
X022440Y009527
X004566Y005118
X000944Y007322
X002677Y007165
X005433Y004015
X014645Y006456
X020393Y004724
X016850Y007559
X016535Y013070
X025590Y008818
X027007Y009685
X025590Y010314
X020078Y011102
X024133Y012519
X017086Y010787
X021259Y010708
X027007Y006929
X000551Y005511
X009291Y008976
X027007Y008464
X011456Y008110
X011456Y007440
X020944Y005669
X014488Y007716
X020000Y007401
X002677Y006614
X009291Y005118
X014566Y004488
X026062Y004212
X024094Y003937
X031496Y003937
X006496Y010551
X006496Y011692
X027244Y011299
X026633Y005708
X029173Y009133
X029724Y003937
X006102Y003937
X000787Y003937
X028503Y006771
X028503Y005511
X019881Y005748
X017637Y008818
X012598Y003858
X012283Y008976
X015039Y012362
X005944Y011692
X005944Y010551
X003858Y009842
X003385Y011417
X012755Y012125
X016062Y013070
X025984Y008582
X029133Y004960
X028031Y004488
X023385Y005669
X016141Y007401
X027007Y010157
X003622Y006062
X020866Y004724
X025984Y010078
X024409Y007795
X007716Y010866
X002834Y005118
X015748Y007716
X015590Y009133
X017716Y007244
X025905Y005984
X012834Y007322
X019212Y007244
X004094Y005590
X003779Y003858
X025590Y006929
X008267Y008582
X025275Y005984
X012519Y007716
X025314Y012007
X015433Y010787
X016141Y004094
X010787Y008110
X010787Y007440
X020629Y007401
X019212Y005748
X028503Y009153
X024488Y004212
X012952Y008976
X005039Y010157
X023149Y007952
X007480Y007559
X016850Y007086
M30
