G04 FreePCB version 1.340*
G04 c:\jag\pcb\jagwave\CAM\bottom_paste_mask.grb*
G04  layer *
G04 Scale: 100 percent, Rotated: No, Reflected: No *
%FSLAX24Y24*%
%MOIN*%
%LNTop*%
G90*
G70D02*

G04 Step and Repeat for panelization *

G04 -------------- Draw Parts, Pads, Traces, Vias and Text (positive)*
%LPD*%
G04 Draw part J0*
G36*
G01X31621Y463D02*
G01X31621Y3483D01*
G01X31921Y3483D01*
G01X31921Y463D01*
G01X31621Y463D01*
G37*
G36*
G01X31031Y463D02*
G01X31031Y3483D01*
G01X31331Y3483D01*
G01X31331Y463D01*
G01X31031Y463D01*
G37*
G36*
G01X30441Y1083D02*
G01X30441Y3483D01*
G01X30741Y3483D01*
G01X30741Y1083D01*
G01X30441Y1083D01*
G37*
G36*
G01X29851Y463D02*
G01X29851Y3483D01*
G01X30151Y3483D01*
G01X30151Y463D01*
G01X29851Y463D01*
G37*
G36*
G01X29261Y1083D02*
G01X29261Y3483D01*
G01X29561Y3483D01*
G01X29561Y1083D01*
G01X29261Y1083D01*
G37*
G36*
G01X28671Y1083D02*
G01X28671Y3483D01*
G01X28971Y3483D01*
G01X28971Y1083D01*
G01X28671Y1083D01*
G37*
G36*
G01X28081Y1083D02*
G01X28081Y3483D01*
G01X28381Y3483D01*
G01X28381Y1083D01*
G01X28081Y1083D01*
G37*
G36*
G01X27491Y1083D02*
G01X27491Y3483D01*
G01X27791Y3483D01*
G01X27791Y1083D01*
G01X27491Y1083D01*
G37*
G36*
G01X26901Y1083D02*
G01X26901Y3483D01*
G01X27201Y3483D01*
G01X27201Y1083D01*
G01X26901Y1083D01*
G37*
G36*
G01X26311Y1083D02*
G01X26311Y3483D01*
G01X26611Y3483D01*
G01X26611Y1083D01*
G01X26311Y1083D01*
G37*
G36*
G01X25721Y1083D02*
G01X25721Y3483D01*
G01X26021Y3483D01*
G01X26021Y1083D01*
G01X25721Y1083D01*
G37*
G36*
G01X25131Y1083D02*
G01X25131Y3483D01*
G01X25431Y3483D01*
G01X25431Y1083D01*
G01X25131Y1083D01*
G37*
G36*
G01X24541Y1083D02*
G01X24541Y3483D01*
G01X24841Y3483D01*
G01X24841Y1083D01*
G01X24541Y1083D01*
G37*
G36*
G01X23951Y1083D02*
G01X23951Y3483D01*
G01X24251Y3483D01*
G01X24251Y1083D01*
G01X23951Y1083D01*
G37*
G36*
G01X23361Y1083D02*
G01X23361Y3483D01*
G01X23661Y3483D01*
G01X23661Y1083D01*
G01X23361Y1083D01*
G37*
G36*
G01X22771Y1083D02*
G01X22771Y3483D01*
G01X23071Y3483D01*
G01X23071Y1083D01*
G01X22771Y1083D01*
G37*
G36*
G01X22181Y1083D02*
G01X22181Y3483D01*
G01X22481Y3483D01*
G01X22481Y1083D01*
G01X22181Y1083D01*
G37*
G36*
G01X21591Y463D02*
G01X21591Y3483D01*
G01X21891Y3483D01*
G01X21891Y463D01*
G01X21591Y463D01*
G37*
G36*
G01X21001Y463D02*
G01X21001Y3483D01*
G01X21301Y3483D01*
G01X21301Y463D01*
G01X21001Y463D01*
G37*
G36*
G01X20411Y463D02*
G01X20411Y3483D01*
G01X20711Y3483D01*
G01X20711Y463D01*
G01X20411Y463D01*
G37*
G36*
G01X19821Y463D02*
G01X19821Y3483D01*
G01X20121Y3483D01*
G01X20121Y463D01*
G01X19821Y463D01*
G37*
G36*
G01X19231Y1083D02*
G01X19231Y3483D01*
G01X19531Y3483D01*
G01X19531Y1083D01*
G01X19231Y1083D01*
G37*
G36*
G01X18641Y463D02*
G01X18641Y3483D01*
G01X18941Y3483D01*
G01X18941Y463D01*
G01X18641Y463D01*
G37*
G36*
G01X18051Y1083D02*
G01X18051Y3483D01*
G01X18351Y3483D01*
G01X18351Y1083D01*
G01X18051Y1083D01*
G37*
G36*
G01X17461Y1083D02*
G01X17461Y3483D01*
G01X17761Y3483D01*
G01X17761Y1083D01*
G01X17461Y1083D01*
G37*
G36*
G01X16871Y463D02*
G01X16871Y3483D01*
G01X17171Y3483D01*
G01X17171Y463D01*
G01X16871Y463D01*
G37*
G36*
G01X16281Y1083D02*
G01X16281Y3483D01*
G01X16581Y3483D01*
G01X16581Y1083D01*
G01X16281Y1083D01*
G37*
G36*
G01X15691Y1083D02*
G01X15691Y3483D01*
G01X15991Y3483D01*
G01X15991Y1083D01*
G01X15691Y1083D01*
G37*
G36*
G01X15101Y1083D02*
G01X15101Y3483D01*
G01X15401Y3483D01*
G01X15401Y1083D01*
G01X15101Y1083D01*
G37*
G36*
G01X14511Y1083D02*
G01X14511Y3483D01*
G01X14811Y3483D01*
G01X14811Y1083D01*
G01X14511Y1083D01*
G37*
G36*
G01X13921Y463D02*
G01X13921Y3483D01*
G01X14221Y3483D01*
G01X14221Y463D01*
G01X13921Y463D01*
G37*
G36*
G01X13331Y1083D02*
G01X13331Y3483D01*
G01X13631Y3483D01*
G01X13631Y1083D01*
G01X13331Y1083D01*
G37*
G36*
G01X12741Y1083D02*
G01X12741Y3483D01*
G01X13041Y3483D01*
G01X13041Y1083D01*
G01X12741Y1083D01*
G37*
G36*
G01X12151Y1083D02*
G01X12151Y3483D01*
G01X12451Y3483D01*
G01X12451Y1083D01*
G01X12151Y1083D01*
G37*
G36*
G01X11561Y1083D02*
G01X11561Y3483D01*
G01X11861Y3483D01*
G01X11861Y1083D01*
G01X11561Y1083D01*
G37*
G36*
G01X10971Y1083D02*
G01X10971Y3483D01*
G01X11271Y3483D01*
G01X11271Y1083D01*
G01X10971Y1083D01*
G37*
G36*
G01X10381Y1083D02*
G01X10381Y3483D01*
G01X10681Y3483D01*
G01X10681Y1083D01*
G01X10381Y1083D01*
G37*
G36*
G01X9791Y1083D02*
G01X9791Y3483D01*
G01X10091Y3483D01*
G01X10091Y1083D01*
G01X9791Y1083D01*
G37*
G36*
G01X9201Y1083D02*
G01X9201Y3483D01*
G01X9501Y3483D01*
G01X9501Y1083D01*
G01X9201Y1083D01*
G37*
G36*
G01X8611Y1083D02*
G01X8611Y3483D01*
G01X8911Y3483D01*
G01X8911Y1083D01*
G01X8611Y1083D01*
G37*
G36*
G01X6841Y463D02*
G01X6841Y3483D01*
G01X7141Y3483D01*
G01X7141Y463D01*
G01X6841Y463D01*
G37*
G36*
G01X6251Y1083D02*
G01X6251Y3483D01*
G01X6551Y3483D01*
G01X6551Y1083D01*
G01X6251Y1083D01*
G37*
G36*
G01X5661Y463D02*
G01X5661Y3483D01*
G01X5961Y3483D01*
G01X5961Y463D01*
G01X5661Y463D01*
G37*
G36*
G01X5071Y1083D02*
G01X5071Y3483D01*
G01X5371Y3483D01*
G01X5371Y1083D01*
G01X5071Y1083D01*
G37*
G36*
G01X4481Y463D02*
G01X4481Y3483D01*
G01X4781Y3483D01*
G01X4781Y463D01*
G01X4481Y463D01*
G37*
G36*
G01X3891Y1083D02*
G01X3891Y3483D01*
G01X4191Y3483D01*
G01X4191Y1083D01*
G01X3891Y1083D01*
G37*
G36*
G01X3301Y1083D02*
G01X3301Y3483D01*
G01X3601Y3483D01*
G01X3601Y1083D01*
G01X3301Y1083D01*
G37*
G36*
G01X2711Y1083D02*
G01X2711Y3483D01*
G01X3011Y3483D01*
G01X3011Y1083D01*
G01X2711Y1083D01*
G37*
G36*
G01X2121Y1083D02*
G01X2121Y3483D01*
G01X2421Y3483D01*
G01X2421Y1083D01*
G01X2121Y1083D01*
G37*
G36*
G01X1531Y1083D02*
G01X1531Y3483D01*
G01X1831Y3483D01*
G01X1831Y1083D01*
G01X1531Y1083D01*
G37*
G36*
G01X941Y463D02*
G01X941Y3483D01*
G01X1241Y3483D01*
G01X1241Y463D01*
G01X941Y463D01*
G37*
G36*
G01X351Y463D02*
G01X351Y3483D01*
G01X651Y3483D01*
G01X651Y463D01*
G01X351Y463D01*
G37*
G04 Draw part C1*
G04 Draw part C2*
G04 Draw part C3*
G04 Draw part C4*
G04 Draw part C5*
G04 Draw part C6*
G04 Draw part C7*
G04 Draw part C8*
G04 Draw part C9*
G04 Draw part C10*
G04 Draw part C11*
G04 Draw part U1*
G04 Draw part X1*
G04 Draw part C18*
G04 Draw part C19*
G04 Draw part R1*
G04 Draw part C12*
G04 Draw part C13*
G04 Draw part U2*
G04 Draw part U3*
G04 Draw part U4*
G04 Draw part L1*
G04 Draw part J1*
G04 Draw part J2*
G04 Draw part J3*
G04 Draw part J4*
G04 Draw part C17*
G04 Draw part M1*
G04 Draw part M2*
G04 Draw part C16*
G04 Draw part C15*
G04 Draw part C20*
G04 Draw part R2*
G04 Draw part C14*
G04 Draw part TP1*

G04 Draw traces*

G04 Draw Text*
M00*
M02*
