G04 FreePCB version 1.340*
G04 c:\jag\pcb\jagwave\CAM\top_copper.grb*
G04 top copper layer *
G04 Scale: 100 percent, Rotated: No, Reflected: No *
%FSLAX24Y24*%
%MOIN*%
%LNTop*%
%ADD10R,0.059055X0.059055*%
%ADD11C,0.059055*%
%ADD12C,0.129921*%
%ADD13C,0.060000*%
%ADD14C,0.129000*%
%ADD15C,0.047244*%
%ADD16C,0.007874*%
%ADD17C,0.038000*%
%ADD18C,0.017000*%
%ADD19C,0.030000*%
%ADD20C,0.011000*%
%ADD21C,0.020000*%
%ADD22C,0.032000*%
%ADD23C,0.015000*%
G90*
G70D02*

G04 Step and Repeat for panelization *

G04 -------------- Draw Parts, Pads, Traces, Vias and Text (positive)*
%LPD*%
G04 Draw part J0*
G36*
G01X351Y1083D02*
G01X351Y3483D01*
G01X651Y3483D01*
G01X651Y1083D01*
G01X351Y1083D01*
G37*
G36*
G01X941Y1083D02*
G01X941Y3483D01*
G01X1241Y3483D01*
G01X1241Y1083D01*
G01X941Y1083D01*
G37*
G36*
G01X1531Y1083D02*
G01X1531Y3483D01*
G01X1831Y3483D01*
G01X1831Y1083D01*
G01X1531Y1083D01*
G37*
G36*
G01X2121Y1083D02*
G01X2121Y3483D01*
G01X2421Y3483D01*
G01X2421Y1083D01*
G01X2121Y1083D01*
G37*
G36*
G01X2711Y1083D02*
G01X2711Y3483D01*
G01X3011Y3483D01*
G01X3011Y1083D01*
G01X2711Y1083D01*
G37*
G36*
G01X3301Y1083D02*
G01X3301Y3483D01*
G01X3601Y3483D01*
G01X3601Y1083D01*
G01X3301Y1083D01*
G37*
G36*
G01X3891Y1083D02*
G01X3891Y3483D01*
G01X4191Y3483D01*
G01X4191Y1083D01*
G01X3891Y1083D01*
G37*
G36*
G01X4481Y1083D02*
G01X4481Y3483D01*
G01X4781Y3483D01*
G01X4781Y1083D01*
G01X4481Y1083D01*
G37*
G36*
G01X5071Y1083D02*
G01X5071Y3483D01*
G01X5371Y3483D01*
G01X5371Y1083D01*
G01X5071Y1083D01*
G37*
G36*
G01X5661Y1083D02*
G01X5661Y3483D01*
G01X5961Y3483D01*
G01X5961Y1083D01*
G01X5661Y1083D01*
G37*
G36*
G01X6251Y1083D02*
G01X6251Y3483D01*
G01X6551Y3483D01*
G01X6551Y1083D01*
G01X6251Y1083D01*
G37*
G36*
G01X6841Y1083D02*
G01X6841Y3483D01*
G01X7141Y3483D01*
G01X7141Y1083D01*
G01X6841Y1083D01*
G37*
G36*
G01X8611Y1083D02*
G01X8611Y3483D01*
G01X8911Y3483D01*
G01X8911Y1083D01*
G01X8611Y1083D01*
G37*
G36*
G01X9201Y1083D02*
G01X9201Y3483D01*
G01X9501Y3483D01*
G01X9501Y1083D01*
G01X9201Y1083D01*
G37*
G36*
G01X9791Y1083D02*
G01X9791Y3483D01*
G01X10091Y3483D01*
G01X10091Y1083D01*
G01X9791Y1083D01*
G37*
G36*
G01X10381Y1083D02*
G01X10381Y3483D01*
G01X10681Y3483D01*
G01X10681Y1083D01*
G01X10381Y1083D01*
G37*
G36*
G01X10971Y1083D02*
G01X10971Y3483D01*
G01X11271Y3483D01*
G01X11271Y1083D01*
G01X10971Y1083D01*
G37*
G36*
G01X11561Y1083D02*
G01X11561Y3483D01*
G01X11861Y3483D01*
G01X11861Y1083D01*
G01X11561Y1083D01*
G37*
G36*
G01X12151Y463D02*
G01X12151Y3483D01*
G01X12451Y3483D01*
G01X12451Y463D01*
G01X12151Y463D01*
G37*
G36*
G01X12741Y1083D02*
G01X12741Y3483D01*
G01X13041Y3483D01*
G01X13041Y1083D01*
G01X12741Y1083D01*
G37*
G36*
G01X13331Y1083D02*
G01X13331Y3483D01*
G01X13631Y3483D01*
G01X13631Y1083D01*
G01X13331Y1083D01*
G37*
G36*
G01X13921Y1083D02*
G01X13921Y3483D01*
G01X14221Y3483D01*
G01X14221Y1083D01*
G01X13921Y1083D01*
G37*
G36*
G01X14511Y1083D02*
G01X14511Y3483D01*
G01X14811Y3483D01*
G01X14811Y1083D01*
G01X14511Y1083D01*
G37*
G36*
G01X15101Y1083D02*
G01X15101Y3483D01*
G01X15401Y3483D01*
G01X15401Y1083D01*
G01X15101Y1083D01*
G37*
G36*
G01X15691Y1083D02*
G01X15691Y3483D01*
G01X15991Y3483D01*
G01X15991Y1083D01*
G01X15691Y1083D01*
G37*
G36*
G01X16281Y1083D02*
G01X16281Y3483D01*
G01X16581Y3483D01*
G01X16581Y1083D01*
G01X16281Y1083D01*
G37*
G36*
G01X16871Y1083D02*
G01X16871Y3483D01*
G01X17171Y3483D01*
G01X17171Y1083D01*
G01X16871Y1083D01*
G37*
G36*
G01X17461Y1083D02*
G01X17461Y3483D01*
G01X17761Y3483D01*
G01X17761Y1083D01*
G01X17461Y1083D01*
G37*
G36*
G01X18051Y1083D02*
G01X18051Y3483D01*
G01X18351Y3483D01*
G01X18351Y1083D01*
G01X18051Y1083D01*
G37*
G36*
G01X18641Y1083D02*
G01X18641Y3483D01*
G01X18941Y3483D01*
G01X18941Y1083D01*
G01X18641Y1083D01*
G37*
G36*
G01X19231Y1083D02*
G01X19231Y3483D01*
G01X19531Y3483D01*
G01X19531Y1083D01*
G01X19231Y1083D01*
G37*
G36*
G01X19821Y1083D02*
G01X19821Y3483D01*
G01X20121Y3483D01*
G01X20121Y1083D01*
G01X19821Y1083D01*
G37*
G36*
G01X20411Y1083D02*
G01X20411Y3483D01*
G01X20711Y3483D01*
G01X20711Y1083D01*
G01X20411Y1083D01*
G37*
G36*
G01X21001Y1083D02*
G01X21001Y3483D01*
G01X21301Y3483D01*
G01X21301Y1083D01*
G01X21001Y1083D01*
G37*
G36*
G01X21591Y1083D02*
G01X21591Y3483D01*
G01X21891Y3483D01*
G01X21891Y1083D01*
G01X21591Y1083D01*
G37*
G36*
G01X22181Y463D02*
G01X22181Y3483D01*
G01X22481Y3483D01*
G01X22481Y463D01*
G01X22181Y463D01*
G37*
G36*
G01X22771Y1083D02*
G01X22771Y3483D01*
G01X23071Y3483D01*
G01X23071Y1083D01*
G01X22771Y1083D01*
G37*
G36*
G01X23361Y1083D02*
G01X23361Y3483D01*
G01X23661Y3483D01*
G01X23661Y1083D01*
G01X23361Y1083D01*
G37*
G36*
G01X23951Y1083D02*
G01X23951Y3483D01*
G01X24251Y3483D01*
G01X24251Y1083D01*
G01X23951Y1083D01*
G37*
G36*
G01X24541Y1083D02*
G01X24541Y3483D01*
G01X24841Y3483D01*
G01X24841Y1083D01*
G01X24541Y1083D01*
G37*
G36*
G01X25131Y1083D02*
G01X25131Y3483D01*
G01X25431Y3483D01*
G01X25431Y1083D01*
G01X25131Y1083D01*
G37*
G36*
G01X25721Y1083D02*
G01X25721Y3483D01*
G01X26021Y3483D01*
G01X26021Y1083D01*
G01X25721Y1083D01*
G37*
G36*
G01X26311Y1083D02*
G01X26311Y3483D01*
G01X26611Y3483D01*
G01X26611Y1083D01*
G01X26311Y1083D01*
G37*
G36*
G01X26901Y1083D02*
G01X26901Y3483D01*
G01X27201Y3483D01*
G01X27201Y1083D01*
G01X26901Y1083D01*
G37*
G36*
G01X27491Y1083D02*
G01X27491Y3483D01*
G01X27791Y3483D01*
G01X27791Y1083D01*
G01X27491Y1083D01*
G37*
G36*
G01X28081Y1083D02*
G01X28081Y3483D01*
G01X28381Y3483D01*
G01X28381Y1083D01*
G01X28081Y1083D01*
G37*
G36*
G01X28671Y1083D02*
G01X28671Y3483D01*
G01X28971Y3483D01*
G01X28971Y1083D01*
G01X28671Y1083D01*
G37*
G36*
G01X29261Y1083D02*
G01X29261Y3483D01*
G01X29561Y3483D01*
G01X29561Y1083D01*
G01X29261Y1083D01*
G37*
G36*
G01X29851Y1083D02*
G01X29851Y3483D01*
G01X30151Y3483D01*
G01X30151Y1083D01*
G01X29851Y1083D01*
G37*
G36*
G01X30441Y1083D02*
G01X30441Y3483D01*
G01X30741Y3483D01*
G01X30741Y1083D01*
G01X30441Y1083D01*
G37*
G36*
G01X31031Y1083D02*
G01X31031Y3483D01*
G01X31331Y3483D01*
G01X31331Y1083D01*
G01X31031Y1083D01*
G37*
G36*
G01X31621Y1083D02*
G01X31621Y3483D01*
G01X31921Y3483D01*
G01X31921Y1083D01*
G01X31621Y1083D01*
G37*
G04 Draw part C1*
G36*
G01X23917Y11771D02*
G01X23917Y12244D01*
G01X24350Y12244D01*
G01X24350Y11771D01*
G01X23917Y11771D01*
G37*
G36*
G01X24586Y11771D02*
G01X24586Y12244D01*
G01X25019Y12244D01*
G01X25019Y11771D01*
G01X24586Y11771D01*
G37*
G04 Draw part C2*
G36*
G01X28287Y9409D02*
G01X28287Y9881D01*
G01X28720Y9881D01*
G01X28720Y9409D01*
G01X28287Y9409D01*
G37*
G36*
G01X28956Y9409D02*
G01X28956Y9881D01*
G01X29389Y9881D01*
G01X29389Y9409D01*
G01X28956Y9409D01*
G37*
G04 Draw part C3*
G36*
G01X28287Y8346D02*
G01X28287Y8818D01*
G01X28720Y8818D01*
G01X28720Y8346D01*
G01X28287Y8346D01*
G37*
G36*
G01X28956Y8346D02*
G01X28956Y8818D01*
G01X29389Y8818D01*
G01X29389Y8346D01*
G01X28956Y8346D01*
G37*
G04 Draw part C4*
G36*
G01X24744Y3937D02*
G01X24744Y4409D01*
G01X25177Y4409D01*
G01X25177Y3937D01*
G01X24744Y3937D01*
G37*
G36*
G01X25413Y3937D02*
G01X25413Y4409D01*
G01X25846Y4409D01*
G01X25846Y3937D01*
G01X25413Y3937D01*
G37*
G04 Draw part C5*
G36*
G01X19783Y7716D02*
G01X19783Y8188D01*
G01X20216Y8188D01*
G01X20216Y7716D01*
G01X19783Y7716D01*
G37*
G36*
G01X20452Y7716D02*
G01X20452Y8188D01*
G01X20885Y8188D01*
G01X20885Y7716D01*
G01X20452Y7716D01*
G37*
G04 Draw part C6*
G36*
G01X15688Y10472D02*
G01X15688Y10944D01*
G01X16122Y10944D01*
G01X16122Y10472D01*
G01X15688Y10472D01*
G37*
G36*
G01X16358Y10472D02*
G01X16358Y10944D01*
G01X16791Y10944D01*
G01X16791Y10472D01*
G01X16358Y10472D01*
G37*
G04 Draw part C7*
G36*
G01X18996Y6062D02*
G01X18996Y6535D01*
G01X19429Y6535D01*
G01X19429Y6062D01*
G01X18996Y6062D01*
G37*
G36*
G01X19665Y6062D02*
G01X19665Y6535D01*
G01X20098Y6535D01*
G01X20098Y6062D01*
G01X19665Y6062D01*
G37*
G04 Draw part C8*
G36*
G01X14822Y4094D02*
G01X14822Y4566D01*
G01X15255Y4566D01*
G01X15255Y4094D01*
G01X14822Y4094D01*
G37*
G36*
G01X15492Y4094D02*
G01X15492Y4566D01*
G01X15925Y4566D01*
G01X15925Y4094D01*
G01X15492Y4094D01*
G37*
G04 Draw part C9*
G36*
G01X12066Y8188D02*
G01X12066Y8661D01*
G01X12500Y8661D01*
G01X12500Y8188D01*
G01X12066Y8188D01*
G37*
G36*
G01X12736Y8188D02*
G01X12736Y8661D01*
G01X13169Y8661D01*
G01X13169Y8188D01*
G01X12736Y8188D01*
G37*
G04 Draw part C10*
G36*
G01X10570Y8425D02*
G01X10570Y8897D01*
G01X11003Y8897D01*
G01X11003Y8425D01*
G01X10570Y8425D01*
G37*
G36*
G01X11240Y8425D02*
G01X11240Y8897D01*
G01X11673Y8897D01*
G01X11673Y8425D01*
G01X11240Y8425D01*
G37*
G04 Draw part C11*
G36*
G01X10570Y6692D02*
G01X10570Y7165D01*
G01X11003Y7165D01*
G01X11003Y6692D01*
G01X10570Y6692D01*
G37*
G36*
G01X11240Y6692D02*
G01X11240Y7165D01*
G01X11673Y7165D01*
G01X11673Y6692D01*
G01X11240Y6692D01*
G37*
G04 Draw part U1*
G36*
G01X27303Y5649D02*
G01X27303Y5767D01*
G01X27893Y5767D01*
G01X27893Y5649D01*
G01X27303Y5649D01*
G37*
G36*
G01X27303Y5846D02*
G01X27303Y5964D01*
G01X27893Y5964D01*
G01X27893Y5846D01*
G01X27303Y5846D01*
G37*
G36*
G01X27303Y6043D02*
G01X27303Y6161D01*
G01X27893Y6161D01*
G01X27893Y6043D01*
G01X27303Y6043D01*
G37*
G36*
G01X27303Y6240D02*
G01X27303Y6358D01*
G01X27893Y6358D01*
G01X27893Y6240D01*
G01X27303Y6240D01*
G37*
G36*
G01X27303Y6437D02*
G01X27303Y6555D01*
G01X27893Y6555D01*
G01X27893Y6437D01*
G01X27303Y6437D01*
G37*
G36*
G01X27303Y6633D02*
G01X27303Y6751D01*
G01X27893Y6751D01*
G01X27893Y6633D01*
G01X27303Y6633D01*
G37*
G36*
G01X27303Y6830D02*
G01X27303Y6948D01*
G01X27893Y6948D01*
G01X27893Y6830D01*
G01X27303Y6830D01*
G37*
G36*
G01X27303Y7027D02*
G01X27303Y7145D01*
G01X27893Y7145D01*
G01X27893Y7027D01*
G01X27303Y7027D01*
G37*
G36*
G01X27303Y7224D02*
G01X27303Y7342D01*
G01X27893Y7342D01*
G01X27893Y7224D01*
G01X27303Y7224D01*
G37*
G36*
G01X27303Y7421D02*
G01X27303Y7539D01*
G01X27893Y7539D01*
G01X27893Y7421D01*
G01X27303Y7421D01*
G37*
G36*
G01X27303Y7618D02*
G01X27303Y7736D01*
G01X27893Y7736D01*
G01X27893Y7618D01*
G01X27303Y7618D01*
G37*
G36*
G01X27303Y7814D02*
G01X27303Y7933D01*
G01X27893Y7933D01*
G01X27893Y7814D01*
G01X27303Y7814D01*
G37*
G36*
G01X27303Y8011D02*
G01X27303Y8129D01*
G01X27893Y8129D01*
G01X27893Y8011D01*
G01X27303Y8011D01*
G37*
G36*
G01X27303Y8208D02*
G01X27303Y8326D01*
G01X27893Y8326D01*
G01X27893Y8208D01*
G01X27303Y8208D01*
G37*
G36*
G01X27303Y8405D02*
G01X27303Y8523D01*
G01X27893Y8523D01*
G01X27893Y8405D01*
G01X27303Y8405D01*
G37*
G36*
G01X27303Y8602D02*
G01X27303Y8720D01*
G01X27893Y8720D01*
G01X27893Y8602D01*
G01X27303Y8602D01*
G37*
G36*
G01X27303Y8799D02*
G01X27303Y8917D01*
G01X27893Y8917D01*
G01X27893Y8799D01*
G01X27303Y8799D01*
G37*
G36*
G01X27303Y8996D02*
G01X27303Y9114D01*
G01X27893Y9114D01*
G01X27893Y8996D01*
G01X27303Y8996D01*
G37*
G36*
G01X27303Y9192D02*
G01X27303Y9311D01*
G01X27893Y9311D01*
G01X27893Y9192D01*
G01X27303Y9192D01*
G37*
G36*
G01X27303Y9389D02*
G01X27303Y9507D01*
G01X27893Y9507D01*
G01X27893Y9389D01*
G01X27303Y9389D01*
G37*
G36*
G01X27303Y9586D02*
G01X27303Y9704D01*
G01X27893Y9704D01*
G01X27893Y9586D01*
G01X27303Y9586D01*
G37*
G36*
G01X27303Y9783D02*
G01X27303Y9901D01*
G01X27893Y9901D01*
G01X27893Y9783D01*
G01X27303Y9783D01*
G37*
G36*
G01X27303Y9980D02*
G01X27303Y10098D01*
G01X27893Y10098D01*
G01X27893Y9980D01*
G01X27303Y9980D01*
G37*
G36*
G01X27303Y10177D02*
G01X27303Y10295D01*
G01X27893Y10295D01*
G01X27893Y10177D01*
G01X27303Y10177D01*
G37*
G36*
G01X27303Y10374D02*
G01X27303Y10492D01*
G01X27893Y10492D01*
G01X27893Y10374D01*
G01X27303Y10374D01*
G37*
G36*
G01X26870Y10807D02*
G01X26870Y11397D01*
G01X26988Y11397D01*
G01X26988Y10807D01*
G01X26870Y10807D01*
G37*
G36*
G01X26673Y10807D02*
G01X26673Y11397D01*
G01X26791Y11397D01*
G01X26791Y10807D01*
G01X26673Y10807D01*
G37*
G36*
G01X26476Y10807D02*
G01X26476Y11397D01*
G01X26594Y11397D01*
G01X26594Y10807D01*
G01X26476Y10807D01*
G37*
G36*
G01X26279Y10807D02*
G01X26279Y11397D01*
G01X26397Y11397D01*
G01X26397Y10807D01*
G01X26279Y10807D01*
G37*
G36*
G01X26082Y10807D02*
G01X26082Y11397D01*
G01X26200Y11397D01*
G01X26200Y10807D01*
G01X26082Y10807D01*
G37*
G36*
G01X25885Y10807D02*
G01X25885Y11397D01*
G01X26003Y11397D01*
G01X26003Y10807D01*
G01X25885Y10807D01*
G37*
G36*
G01X25688Y10807D02*
G01X25688Y11397D01*
G01X25807Y11397D01*
G01X25807Y10807D01*
G01X25688Y10807D01*
G37*
G36*
G01X25492Y10807D02*
G01X25492Y11397D01*
G01X25610Y11397D01*
G01X25610Y10807D01*
G01X25492Y10807D01*
G37*
G36*
G01X25295Y10807D02*
G01X25295Y11397D01*
G01X25413Y11397D01*
G01X25413Y10807D01*
G01X25295Y10807D01*
G37*
G36*
G01X25098Y10807D02*
G01X25098Y11397D01*
G01X25216Y11397D01*
G01X25216Y10807D01*
G01X25098Y10807D01*
G37*
G36*
G01X24901Y10807D02*
G01X24901Y11397D01*
G01X25019Y11397D01*
G01X25019Y10807D01*
G01X24901Y10807D01*
G37*
G36*
G01X24704Y10807D02*
G01X24704Y11397D01*
G01X24822Y11397D01*
G01X24822Y10807D01*
G01X24704Y10807D01*
G37*
G36*
G01X24507Y10807D02*
G01X24507Y11397D01*
G01X24625Y11397D01*
G01X24625Y10807D01*
G01X24507Y10807D01*
G37*
G36*
G01X24311Y10807D02*
G01X24311Y11397D01*
G01X24429Y11397D01*
G01X24429Y10807D01*
G01X24311Y10807D01*
G37*
G36*
G01X24114Y10807D02*
G01X24114Y11397D01*
G01X24232Y11397D01*
G01X24232Y10807D01*
G01X24114Y10807D01*
G37*
G36*
G01X23917Y10807D02*
G01X23917Y11397D01*
G01X24035Y11397D01*
G01X24035Y10807D01*
G01X23917Y10807D01*
G37*
G36*
G01X23720Y10807D02*
G01X23720Y11397D01*
G01X23838Y11397D01*
G01X23838Y10807D01*
G01X23720Y10807D01*
G37*
G36*
G01X23523Y10807D02*
G01X23523Y11397D01*
G01X23641Y11397D01*
G01X23641Y10807D01*
G01X23523Y10807D01*
G37*
G36*
G01X23326Y10807D02*
G01X23326Y11397D01*
G01X23444Y11397D01*
G01X23444Y10807D01*
G01X23326Y10807D01*
G37*
G36*
G01X23129Y10807D02*
G01X23129Y11397D01*
G01X23248Y11397D01*
G01X23248Y10807D01*
G01X23129Y10807D01*
G37*
G36*
G01X22933Y10807D02*
G01X22933Y11397D01*
G01X23051Y11397D01*
G01X23051Y10807D01*
G01X22933Y10807D01*
G37*
G36*
G01X22736Y10807D02*
G01X22736Y11397D01*
G01X22854Y11397D01*
G01X22854Y10807D01*
G01X22736Y10807D01*
G37*
G36*
G01X22539Y10807D02*
G01X22539Y11397D01*
G01X22657Y11397D01*
G01X22657Y10807D01*
G01X22539Y10807D01*
G37*
G36*
G01X22342Y10807D02*
G01X22342Y11397D01*
G01X22460Y11397D01*
G01X22460Y10807D01*
G01X22342Y10807D01*
G37*
G36*
G01X22145Y10807D02*
G01X22145Y11397D01*
G01X22263Y11397D01*
G01X22263Y10807D01*
G01X22145Y10807D01*
G37*
G36*
G01X21240Y10374D02*
G01X21240Y10492D01*
G01X21830Y10492D01*
G01X21830Y10374D01*
G01X21240Y10374D01*
G37*
G36*
G01X21240Y10177D02*
G01X21240Y10295D01*
G01X21830Y10295D01*
G01X21830Y10177D01*
G01X21240Y10177D01*
G37*
G36*
G01X21240Y9980D02*
G01X21240Y10098D01*
G01X21830Y10098D01*
G01X21830Y9980D01*
G01X21240Y9980D01*
G37*
G36*
G01X21240Y9783D02*
G01X21240Y9901D01*
G01X21830Y9901D01*
G01X21830Y9783D01*
G01X21240Y9783D01*
G37*
G36*
G01X21240Y9586D02*
G01X21240Y9704D01*
G01X21830Y9704D01*
G01X21830Y9586D01*
G01X21240Y9586D01*
G37*
G36*
G01X21240Y9389D02*
G01X21240Y9507D01*
G01X21830Y9507D01*
G01X21830Y9389D01*
G01X21240Y9389D01*
G37*
G36*
G01X21240Y9192D02*
G01X21240Y9311D01*
G01X21830Y9311D01*
G01X21830Y9192D01*
G01X21240Y9192D01*
G37*
G36*
G01X21240Y8996D02*
G01X21240Y9114D01*
G01X21830Y9114D01*
G01X21830Y8996D01*
G01X21240Y8996D01*
G37*
G36*
G01X21240Y8799D02*
G01X21240Y8917D01*
G01X21830Y8917D01*
G01X21830Y8799D01*
G01X21240Y8799D01*
G37*
G36*
G01X21240Y8602D02*
G01X21240Y8720D01*
G01X21830Y8720D01*
G01X21830Y8602D01*
G01X21240Y8602D01*
G37*
G36*
G01X21240Y8405D02*
G01X21240Y8523D01*
G01X21830Y8523D01*
G01X21830Y8405D01*
G01X21240Y8405D01*
G37*
G36*
G01X21240Y8208D02*
G01X21240Y8326D01*
G01X21830Y8326D01*
G01X21830Y8208D01*
G01X21240Y8208D01*
G37*
G36*
G01X21240Y8011D02*
G01X21240Y8129D01*
G01X21830Y8129D01*
G01X21830Y8011D01*
G01X21240Y8011D01*
G37*
G36*
G01X21240Y7814D02*
G01X21240Y7933D01*
G01X21830Y7933D01*
G01X21830Y7814D01*
G01X21240Y7814D01*
G37*
G36*
G01X21240Y7618D02*
G01X21240Y7736D01*
G01X21830Y7736D01*
G01X21830Y7618D01*
G01X21240Y7618D01*
G37*
G36*
G01X21240Y7421D02*
G01X21240Y7539D01*
G01X21830Y7539D01*
G01X21830Y7421D01*
G01X21240Y7421D01*
G37*
G36*
G01X21240Y7224D02*
G01X21240Y7342D01*
G01X21830Y7342D01*
G01X21830Y7224D01*
G01X21240Y7224D01*
G37*
G36*
G01X21240Y7027D02*
G01X21240Y7145D01*
G01X21830Y7145D01*
G01X21830Y7027D01*
G01X21240Y7027D01*
G37*
G36*
G01X21240Y6830D02*
G01X21240Y6948D01*
G01X21830Y6948D01*
G01X21830Y6830D01*
G01X21240Y6830D01*
G37*
G36*
G01X21240Y6633D02*
G01X21240Y6751D01*
G01X21830Y6751D01*
G01X21830Y6633D01*
G01X21240Y6633D01*
G37*
G36*
G01X21240Y6437D02*
G01X21240Y6555D01*
G01X21830Y6555D01*
G01X21830Y6437D01*
G01X21240Y6437D01*
G37*
G36*
G01X21240Y6240D02*
G01X21240Y6358D01*
G01X21830Y6358D01*
G01X21830Y6240D01*
G01X21240Y6240D01*
G37*
G36*
G01X21240Y6043D02*
G01X21240Y6161D01*
G01X21830Y6161D01*
G01X21830Y6043D01*
G01X21240Y6043D01*
G37*
G36*
G01X21240Y5846D02*
G01X21240Y5964D01*
G01X21830Y5964D01*
G01X21830Y5846D01*
G01X21240Y5846D01*
G37*
G36*
G01X21240Y5649D02*
G01X21240Y5767D01*
G01X21830Y5767D01*
G01X21830Y5649D01*
G01X21240Y5649D01*
G37*
G36*
G01X22145Y4744D02*
G01X22145Y5334D01*
G01X22263Y5334D01*
G01X22263Y4744D01*
G01X22145Y4744D01*
G37*
G36*
G01X22342Y4744D02*
G01X22342Y5334D01*
G01X22460Y5334D01*
G01X22460Y4744D01*
G01X22342Y4744D01*
G37*
G36*
G01X22539Y4744D02*
G01X22539Y5334D01*
G01X22657Y5334D01*
G01X22657Y4744D01*
G01X22539Y4744D01*
G37*
G36*
G01X22736Y4744D02*
G01X22736Y5334D01*
G01X22854Y5334D01*
G01X22854Y4744D01*
G01X22736Y4744D01*
G37*
G36*
G01X22933Y4744D02*
G01X22933Y5334D01*
G01X23051Y5334D01*
G01X23051Y4744D01*
G01X22933Y4744D01*
G37*
G36*
G01X23129Y4744D02*
G01X23129Y5334D01*
G01X23248Y5334D01*
G01X23248Y4744D01*
G01X23129Y4744D01*
G37*
G36*
G01X23326Y4744D02*
G01X23326Y5334D01*
G01X23444Y5334D01*
G01X23444Y4744D01*
G01X23326Y4744D01*
G37*
G36*
G01X23523Y4744D02*
G01X23523Y5334D01*
G01X23641Y5334D01*
G01X23641Y4744D01*
G01X23523Y4744D01*
G37*
G36*
G01X23720Y4744D02*
G01X23720Y5334D01*
G01X23838Y5334D01*
G01X23838Y4744D01*
G01X23720Y4744D01*
G37*
G36*
G01X23917Y4744D02*
G01X23917Y5334D01*
G01X24035Y5334D01*
G01X24035Y4744D01*
G01X23917Y4744D01*
G37*
G36*
G01X24114Y4744D02*
G01X24114Y5334D01*
G01X24232Y5334D01*
G01X24232Y4744D01*
G01X24114Y4744D01*
G37*
G36*
G01X24311Y4744D02*
G01X24311Y5334D01*
G01X24429Y5334D01*
G01X24429Y4744D01*
G01X24311Y4744D01*
G37*
G36*
G01X24507Y4744D02*
G01X24507Y5334D01*
G01X24625Y5334D01*
G01X24625Y4744D01*
G01X24507Y4744D01*
G37*
G36*
G01X24704Y4744D02*
G01X24704Y5334D01*
G01X24822Y5334D01*
G01X24822Y4744D01*
G01X24704Y4744D01*
G37*
G36*
G01X24901Y4744D02*
G01X24901Y5334D01*
G01X25019Y5334D01*
G01X25019Y4744D01*
G01X24901Y4744D01*
G37*
G36*
G01X25098Y4744D02*
G01X25098Y5334D01*
G01X25216Y5334D01*
G01X25216Y4744D01*
G01X25098Y4744D01*
G37*
G36*
G01X25295Y4744D02*
G01X25295Y5334D01*
G01X25413Y5334D01*
G01X25413Y4744D01*
G01X25295Y4744D01*
G37*
G36*
G01X25492Y4744D02*
G01X25492Y5334D01*
G01X25610Y5334D01*
G01X25610Y4744D01*
G01X25492Y4744D01*
G37*
G36*
G01X25688Y4744D02*
G01X25688Y5334D01*
G01X25807Y5334D01*
G01X25807Y4744D01*
G01X25688Y4744D01*
G37*
G36*
G01X25885Y4744D02*
G01X25885Y5334D01*
G01X26003Y5334D01*
G01X26003Y4744D01*
G01X25885Y4744D01*
G37*
G36*
G01X26082Y4744D02*
G01X26082Y5334D01*
G01X26200Y5334D01*
G01X26200Y4744D01*
G01X26082Y4744D01*
G37*
G36*
G01X26279Y4744D02*
G01X26279Y5334D01*
G01X26397Y5334D01*
G01X26397Y4744D01*
G01X26279Y4744D01*
G37*
G36*
G01X26476Y4744D02*
G01X26476Y5334D01*
G01X26594Y5334D01*
G01X26594Y4744D01*
G01X26476Y4744D01*
G37*
G36*
G01X26673Y4744D02*
G01X26673Y5334D01*
G01X26791Y5334D01*
G01X26791Y4744D01*
G01X26673Y4744D01*
G37*
G36*
G01X26870Y4744D02*
G01X26870Y5334D01*
G01X26988Y5334D01*
G01X26988Y4744D01*
G01X26870Y4744D01*
G37*
G04 Draw part X1*
G36*
G01X30314Y7972D02*
G01X30314Y10137D01*
G01X31102Y10137D01*
G01X31102Y7972D01*
G01X30314Y7972D01*
G37*
G36*
G01X30314Y4625D02*
G01X30314Y6791D01*
G01X31102Y6791D01*
G01X31102Y4625D01*
G01X30314Y4625D01*
G37*
G04 Draw part C18*
G36*
G01X28287Y7086D02*
G01X28287Y7559D01*
G01X28720Y7559D01*
G01X28720Y7086D01*
G01X28287Y7086D01*
G37*
G36*
G01X28956Y7086D02*
G01X28956Y7559D01*
G01X29389Y7559D01*
G01X29389Y7086D01*
G01X28956Y7086D01*
G37*
G04 Draw part C19*
G36*
G01X28287Y5826D02*
G01X28287Y6299D01*
G01X28720Y6299D01*
G01X28720Y5826D01*
G01X28287Y5826D01*
G37*
G36*
G01X28956Y5826D02*
G01X28956Y6299D01*
G01X29389Y6299D01*
G01X29389Y5826D01*
G01X28956Y5826D01*
G37*
G04 Draw part R1*
G36*
G01X28287Y10551D02*
G01X28287Y11023D01*
G01X28720Y11023D01*
G01X28720Y10551D01*
G01X28287Y10551D01*
G37*
G36*
G01X28956Y10551D02*
G01X28956Y11023D01*
G01X29389Y11023D01*
G01X29389Y10551D01*
G01X28956Y10551D01*
G37*
G04 Draw part C12*
G36*
G01X3641Y10118D02*
G01X3641Y10590D01*
G01X4074Y10590D01*
G01X4074Y10118D01*
G01X3641Y10118D01*
G37*
G36*
G01X4311Y10118D02*
G01X4311Y10590D01*
G01X4744Y10590D01*
G01X4744Y10118D01*
G01X4311Y10118D01*
G37*
G04 Draw part C13*
G36*
G01X3641Y11181D02*
G01X3641Y11653D01*
G01X4074Y11653D01*
G01X4074Y11181D01*
G01X3641Y11181D01*
G37*
G36*
G01X4311Y11181D02*
G01X4311Y11653D01*
G01X4744Y11653D01*
G01X4744Y11181D01*
G01X4311Y11181D01*
G37*
G04 Draw part U2*
G36*
G01X18070Y6043D02*
G01X18070Y6161D01*
G01X18661Y6161D01*
G01X18661Y6043D01*
G01X18070Y6043D01*
G37*
G36*
G01X18070Y6240D02*
G01X18070Y6358D01*
G01X18661Y6358D01*
G01X18661Y6240D01*
G01X18070Y6240D01*
G37*
G36*
G01X18070Y6437D02*
G01X18070Y6555D01*
G01X18661Y6555D01*
G01X18661Y6437D01*
G01X18070Y6437D01*
G37*
G36*
G01X18070Y6633D02*
G01X18070Y6751D01*
G01X18661Y6751D01*
G01X18661Y6633D01*
G01X18070Y6633D01*
G37*
G36*
G01X18070Y6830D02*
G01X18070Y6948D01*
G01X18661Y6948D01*
G01X18661Y6830D01*
G01X18070Y6830D01*
G37*
G36*
G01X18070Y7027D02*
G01X18070Y7145D01*
G01X18661Y7145D01*
G01X18661Y7027D01*
G01X18070Y7027D01*
G37*
G36*
G01X18070Y7224D02*
G01X18070Y7342D01*
G01X18661Y7342D01*
G01X18661Y7224D01*
G01X18070Y7224D01*
G37*
G36*
G01X18070Y7421D02*
G01X18070Y7539D01*
G01X18661Y7539D01*
G01X18661Y7421D01*
G01X18070Y7421D01*
G37*
G36*
G01X18070Y7618D02*
G01X18070Y7736D01*
G01X18661Y7736D01*
G01X18661Y7618D01*
G01X18070Y7618D01*
G37*
G36*
G01X18070Y7814D02*
G01X18070Y7933D01*
G01X18661Y7933D01*
G01X18661Y7814D01*
G01X18070Y7814D01*
G37*
G36*
G01X18070Y8011D02*
G01X18070Y8129D01*
G01X18661Y8129D01*
G01X18661Y8011D01*
G01X18070Y8011D01*
G37*
G36*
G01X18070Y8208D02*
G01X18070Y8326D01*
G01X18661Y8326D01*
G01X18661Y8208D01*
G01X18070Y8208D01*
G37*
G36*
G01X18070Y8405D02*
G01X18070Y8523D01*
G01X18661Y8523D01*
G01X18661Y8405D01*
G01X18070Y8405D01*
G37*
G36*
G01X18070Y8602D02*
G01X18070Y8720D01*
G01X18661Y8720D01*
G01X18661Y8602D01*
G01X18070Y8602D01*
G37*
G36*
G01X18070Y8799D02*
G01X18070Y8917D01*
G01X18661Y8917D01*
G01X18661Y8799D01*
G01X18070Y8799D01*
G37*
G36*
G01X18070Y8996D02*
G01X18070Y9114D01*
G01X18661Y9114D01*
G01X18661Y8996D01*
G01X18070Y8996D01*
G37*
G36*
G01X17539Y9527D02*
G01X17539Y10118D01*
G01X17657Y10118D01*
G01X17657Y9527D01*
G01X17539Y9527D01*
G37*
G36*
G01X17342Y9527D02*
G01X17342Y10118D01*
G01X17460Y10118D01*
G01X17460Y9527D01*
G01X17342Y9527D01*
G37*
G36*
G01X17145Y9527D02*
G01X17145Y10118D01*
G01X17263Y10118D01*
G01X17263Y9527D01*
G01X17145Y9527D01*
G37*
G36*
G01X16948Y9527D02*
G01X16948Y10118D01*
G01X17066Y10118D01*
G01X17066Y9527D01*
G01X16948Y9527D01*
G37*
G36*
G01X16751Y9527D02*
G01X16751Y10118D01*
G01X16870Y10118D01*
G01X16870Y9527D01*
G01X16751Y9527D01*
G37*
G36*
G01X16555Y9527D02*
G01X16555Y10118D01*
G01X16673Y10118D01*
G01X16673Y9527D01*
G01X16555Y9527D01*
G37*
G36*
G01X16358Y9527D02*
G01X16358Y10118D01*
G01X16476Y10118D01*
G01X16476Y9527D01*
G01X16358Y9527D01*
G37*
G36*
G01X16161Y9527D02*
G01X16161Y10118D01*
G01X16279Y10118D01*
G01X16279Y9527D01*
G01X16161Y9527D01*
G37*
G36*
G01X15964Y9527D02*
G01X15964Y10118D01*
G01X16082Y10118D01*
G01X16082Y9527D01*
G01X15964Y9527D01*
G37*
G36*
G01X15767Y9527D02*
G01X15767Y10118D01*
G01X15885Y10118D01*
G01X15885Y9527D01*
G01X15767Y9527D01*
G37*
G36*
G01X15570Y9527D02*
G01X15570Y10118D01*
G01X15688Y10118D01*
G01X15688Y9527D01*
G01X15570Y9527D01*
G37*
G36*
G01X15374Y9527D02*
G01X15374Y10118D01*
G01X15492Y10118D01*
G01X15492Y9527D01*
G01X15374Y9527D01*
G37*
G36*
G01X15177Y9527D02*
G01X15177Y10118D01*
G01X15295Y10118D01*
G01X15295Y9527D01*
G01X15177Y9527D01*
G37*
G36*
G01X14980Y9527D02*
G01X14980Y10118D01*
G01X15098Y10118D01*
G01X15098Y9527D01*
G01X14980Y9527D01*
G37*
G36*
G01X14783Y9527D02*
G01X14783Y10118D01*
G01X14901Y10118D01*
G01X14901Y9527D01*
G01X14783Y9527D01*
G37*
G36*
G01X14586Y9527D02*
G01X14586Y10118D01*
G01X14704Y10118D01*
G01X14704Y9527D01*
G01X14586Y9527D01*
G37*
G36*
G01X13582Y8996D02*
G01X13582Y9114D01*
G01X14173Y9114D01*
G01X14173Y8996D01*
G01X13582Y8996D01*
G37*
G36*
G01X13582Y8799D02*
G01X13582Y8917D01*
G01X14173Y8917D01*
G01X14173Y8799D01*
G01X13582Y8799D01*
G37*
G36*
G01X13582Y8602D02*
G01X13582Y8720D01*
G01X14173Y8720D01*
G01X14173Y8602D01*
G01X13582Y8602D01*
G37*
G36*
G01X13582Y8405D02*
G01X13582Y8523D01*
G01X14173Y8523D01*
G01X14173Y8405D01*
G01X13582Y8405D01*
G37*
G36*
G01X13582Y8208D02*
G01X13582Y8326D01*
G01X14173Y8326D01*
G01X14173Y8208D01*
G01X13582Y8208D01*
G37*
G36*
G01X13582Y8011D02*
G01X13582Y8129D01*
G01X14173Y8129D01*
G01X14173Y8011D01*
G01X13582Y8011D01*
G37*
G36*
G01X13582Y7814D02*
G01X13582Y7933D01*
G01X14173Y7933D01*
G01X14173Y7814D01*
G01X13582Y7814D01*
G37*
G36*
G01X13582Y7618D02*
G01X13582Y7736D01*
G01X14173Y7736D01*
G01X14173Y7618D01*
G01X13582Y7618D01*
G37*
G36*
G01X13582Y7421D02*
G01X13582Y7539D01*
G01X14173Y7539D01*
G01X14173Y7421D01*
G01X13582Y7421D01*
G37*
G36*
G01X13582Y7224D02*
G01X13582Y7342D01*
G01X14173Y7342D01*
G01X14173Y7224D01*
G01X13582Y7224D01*
G37*
G36*
G01X13582Y7027D02*
G01X13582Y7145D01*
G01X14173Y7145D01*
G01X14173Y7027D01*
G01X13582Y7027D01*
G37*
G36*
G01X13582Y6830D02*
G01X13582Y6948D01*
G01X14173Y6948D01*
G01X14173Y6830D01*
G01X13582Y6830D01*
G37*
G36*
G01X13582Y6633D02*
G01X13582Y6751D01*
G01X14173Y6751D01*
G01X14173Y6633D01*
G01X13582Y6633D01*
G37*
G36*
G01X13582Y6437D02*
G01X13582Y6555D01*
G01X14173Y6555D01*
G01X14173Y6437D01*
G01X13582Y6437D01*
G37*
G36*
G01X13582Y6240D02*
G01X13582Y6358D01*
G01X14173Y6358D01*
G01X14173Y6240D01*
G01X13582Y6240D01*
G37*
G36*
G01X13582Y6043D02*
G01X13582Y6161D01*
G01X14173Y6161D01*
G01X14173Y6043D01*
G01X13582Y6043D01*
G37*
G36*
G01X14586Y5039D02*
G01X14586Y5629D01*
G01X14704Y5629D01*
G01X14704Y5039D01*
G01X14586Y5039D01*
G37*
G36*
G01X14783Y5039D02*
G01X14783Y5629D01*
G01X14901Y5629D01*
G01X14901Y5039D01*
G01X14783Y5039D01*
G37*
G36*
G01X14980Y5039D02*
G01X14980Y5629D01*
G01X15098Y5629D01*
G01X15098Y5039D01*
G01X14980Y5039D01*
G37*
G36*
G01X15177Y5039D02*
G01X15177Y5629D01*
G01X15295Y5629D01*
G01X15295Y5039D01*
G01X15177Y5039D01*
G37*
G36*
G01X15374Y5039D02*
G01X15374Y5629D01*
G01X15492Y5629D01*
G01X15492Y5039D01*
G01X15374Y5039D01*
G37*
G36*
G01X15570Y5039D02*
G01X15570Y5629D01*
G01X15688Y5629D01*
G01X15688Y5039D01*
G01X15570Y5039D01*
G37*
G36*
G01X15767Y5039D02*
G01X15767Y5629D01*
G01X15885Y5629D01*
G01X15885Y5039D01*
G01X15767Y5039D01*
G37*
G36*
G01X15964Y5039D02*
G01X15964Y5629D01*
G01X16082Y5629D01*
G01X16082Y5039D01*
G01X15964Y5039D01*
G37*
G36*
G01X16161Y5039D02*
G01X16161Y5629D01*
G01X16279Y5629D01*
G01X16279Y5039D01*
G01X16161Y5039D01*
G37*
G36*
G01X16358Y5039D02*
G01X16358Y5629D01*
G01X16476Y5629D01*
G01X16476Y5039D01*
G01X16358Y5039D01*
G37*
G36*
G01X16555Y5039D02*
G01X16555Y5629D01*
G01X16673Y5629D01*
G01X16673Y5039D01*
G01X16555Y5039D01*
G37*
G36*
G01X16751Y5039D02*
G01X16751Y5629D01*
G01X16870Y5629D01*
G01X16870Y5039D01*
G01X16751Y5039D01*
G37*
G36*
G01X16948Y5039D02*
G01X16948Y5629D01*
G01X17066Y5629D01*
G01X17066Y5039D01*
G01X16948Y5039D01*
G37*
G36*
G01X17145Y5039D02*
G01X17145Y5629D01*
G01X17263Y5629D01*
G01X17263Y5039D01*
G01X17145Y5039D01*
G37*
G36*
G01X17342Y5039D02*
G01X17342Y5629D01*
G01X17460Y5629D01*
G01X17460Y5039D01*
G01X17342Y5039D01*
G37*
G36*
G01X17539Y5039D02*
G01X17539Y5629D01*
G01X17657Y5629D01*
G01X17657Y5039D01*
G01X17539Y5039D01*
G37*
G04 Draw part U3*
G36*
G01X1761Y8996D02*
G01X1761Y9114D01*
G01X2332Y9114D01*
G01X2332Y8996D01*
G01X1761Y8996D01*
G37*
G36*
G01X1761Y8799D02*
G01X1761Y8917D01*
G01X2332Y8917D01*
G01X2332Y8799D01*
G01X1761Y8799D01*
G37*
G36*
G01X1761Y8602D02*
G01X1761Y8720D01*
G01X2332Y8720D01*
G01X2332Y8602D01*
G01X1761Y8602D01*
G37*
G36*
G01X1761Y8405D02*
G01X1761Y8523D01*
G01X2332Y8523D01*
G01X2332Y8405D01*
G01X1761Y8405D01*
G37*
G36*
G01X1761Y8208D02*
G01X1761Y8326D01*
G01X2332Y8326D01*
G01X2332Y8208D01*
G01X1761Y8208D01*
G37*
G36*
G01X1761Y8011D02*
G01X1761Y8129D01*
G01X2332Y8129D01*
G01X2332Y8011D01*
G01X1761Y8011D01*
G37*
G36*
G01X1761Y7814D02*
G01X1761Y7933D01*
G01X2332Y7933D01*
G01X2332Y7814D01*
G01X1761Y7814D01*
G37*
G36*
G01X1761Y7618D02*
G01X1761Y7736D01*
G01X2332Y7736D01*
G01X2332Y7618D01*
G01X1761Y7618D01*
G37*
G36*
G01X1761Y7421D02*
G01X1761Y7539D01*
G01X2332Y7539D01*
G01X2332Y7421D01*
G01X1761Y7421D01*
G37*
G36*
G01X1761Y7224D02*
G01X1761Y7342D01*
G01X2332Y7342D01*
G01X2332Y7224D01*
G01X1761Y7224D01*
G37*
G36*
G01X1761Y7027D02*
G01X1761Y7145D01*
G01X2332Y7145D01*
G01X2332Y7027D01*
G01X1761Y7027D01*
G37*
G36*
G01X1761Y6830D02*
G01X1761Y6948D01*
G01X2332Y6948D01*
G01X2332Y6830D01*
G01X1761Y6830D01*
G37*
G36*
G01X1761Y6633D02*
G01X1761Y6751D01*
G01X2332Y6751D01*
G01X2332Y6633D01*
G01X1761Y6633D01*
G37*
G36*
G01X1761Y6437D02*
G01X1761Y6555D01*
G01X2332Y6555D01*
G01X2332Y6437D01*
G01X1761Y6437D01*
G37*
G36*
G01X1761Y6240D02*
G01X1761Y6358D01*
G01X2332Y6358D01*
G01X2332Y6240D01*
G01X1761Y6240D01*
G37*
G36*
G01X1761Y6043D02*
G01X1761Y6161D01*
G01X2332Y6161D01*
G01X2332Y6043D01*
G01X1761Y6043D01*
G37*
G36*
G01X1761Y5846D02*
G01X1761Y5964D01*
G01X2332Y5964D01*
G01X2332Y5846D01*
G01X1761Y5846D01*
G37*
G36*
G01X1761Y5649D02*
G01X1761Y5767D01*
G01X2332Y5767D01*
G01X2332Y5649D01*
G01X1761Y5649D01*
G37*
G36*
G01X1761Y5452D02*
G01X1761Y5570D01*
G01X2332Y5570D01*
G01X2332Y5452D01*
G01X1761Y5452D01*
G37*
G36*
G01X1761Y5255D02*
G01X1761Y5374D01*
G01X2332Y5374D01*
G01X2332Y5255D01*
G01X1761Y5255D01*
G37*
G36*
G01X1761Y5059D02*
G01X1761Y5177D01*
G01X2332Y5177D01*
G01X2332Y5059D01*
G01X1761Y5059D01*
G37*
G36*
G01X1761Y4862D02*
G01X1761Y4980D01*
G01X2332Y4980D01*
G01X2332Y4862D01*
G01X1761Y4862D01*
G37*
G36*
G01X1761Y4665D02*
G01X1761Y4783D01*
G01X2332Y4783D01*
G01X2332Y4665D01*
G01X1761Y4665D01*
G37*
G36*
G01X1761Y4468D02*
G01X1761Y4586D01*
G01X2332Y4586D01*
G01X2332Y4468D01*
G01X1761Y4468D01*
G37*
G36*
G01X9596Y4468D02*
G01X9596Y4586D01*
G01X10167Y4586D01*
G01X10167Y4468D01*
G01X9596Y4468D01*
G37*
G36*
G01X9596Y4665D02*
G01X9596Y4783D01*
G01X10167Y4783D01*
G01X10167Y4665D01*
G01X9596Y4665D01*
G37*
G36*
G01X9596Y4862D02*
G01X9596Y4980D01*
G01X10167Y4980D01*
G01X10167Y4862D01*
G01X9596Y4862D01*
G37*
G36*
G01X9596Y5059D02*
G01X9596Y5177D01*
G01X10167Y5177D01*
G01X10167Y5059D01*
G01X9596Y5059D01*
G37*
G36*
G01X9596Y5255D02*
G01X9596Y5374D01*
G01X10167Y5374D01*
G01X10167Y5255D01*
G01X9596Y5255D01*
G37*
G36*
G01X9596Y5452D02*
G01X9596Y5570D01*
G01X10167Y5570D01*
G01X10167Y5452D01*
G01X9596Y5452D01*
G37*
G36*
G01X9596Y5649D02*
G01X9596Y5767D01*
G01X10167Y5767D01*
G01X10167Y5649D01*
G01X9596Y5649D01*
G37*
G36*
G01X9596Y5846D02*
G01X9596Y5964D01*
G01X10167Y5964D01*
G01X10167Y5846D01*
G01X9596Y5846D01*
G37*
G36*
G01X9596Y6043D02*
G01X9596Y6161D01*
G01X10167Y6161D01*
G01X10167Y6043D01*
G01X9596Y6043D01*
G37*
G36*
G01X9596Y6240D02*
G01X9596Y6358D01*
G01X10167Y6358D01*
G01X10167Y6240D01*
G01X9596Y6240D01*
G37*
G36*
G01X9596Y6437D02*
G01X9596Y6555D01*
G01X10167Y6555D01*
G01X10167Y6437D01*
G01X9596Y6437D01*
G37*
G36*
G01X9596Y6633D02*
G01X9596Y6751D01*
G01X10167Y6751D01*
G01X10167Y6633D01*
G01X9596Y6633D01*
G37*
G36*
G01X9596Y6830D02*
G01X9596Y6948D01*
G01X10167Y6948D01*
G01X10167Y6830D01*
G01X9596Y6830D01*
G37*
G36*
G01X9596Y7027D02*
G01X9596Y7145D01*
G01X10167Y7145D01*
G01X10167Y7027D01*
G01X9596Y7027D01*
G37*
G36*
G01X9596Y7224D02*
G01X9596Y7342D01*
G01X10167Y7342D01*
G01X10167Y7224D01*
G01X9596Y7224D01*
G37*
G36*
G01X9596Y7421D02*
G01X9596Y7539D01*
G01X10167Y7539D01*
G01X10167Y7421D01*
G01X9596Y7421D01*
G37*
G36*
G01X9596Y7618D02*
G01X9596Y7736D01*
G01X10167Y7736D01*
G01X10167Y7618D01*
G01X9596Y7618D01*
G37*
G36*
G01X9596Y7814D02*
G01X9596Y7933D01*
G01X10167Y7933D01*
G01X10167Y7814D01*
G01X9596Y7814D01*
G37*
G36*
G01X9596Y8011D02*
G01X9596Y8129D01*
G01X10167Y8129D01*
G01X10167Y8011D01*
G01X9596Y8011D01*
G37*
G36*
G01X9596Y8208D02*
G01X9596Y8326D01*
G01X10167Y8326D01*
G01X10167Y8208D01*
G01X9596Y8208D01*
G37*
G36*
G01X9596Y8405D02*
G01X9596Y8523D01*
G01X10167Y8523D01*
G01X10167Y8405D01*
G01X9596Y8405D01*
G37*
G36*
G01X9596Y8602D02*
G01X9596Y8720D01*
G01X10167Y8720D01*
G01X10167Y8602D01*
G01X9596Y8602D01*
G37*
G36*
G01X9596Y8799D02*
G01X9596Y8917D01*
G01X10167Y8917D01*
G01X10167Y8799D01*
G01X9596Y8799D01*
G37*
G36*
G01X9596Y8996D02*
G01X9596Y9114D01*
G01X10167Y9114D01*
G01X10167Y8996D01*
G01X9596Y8996D01*
G37*
G04 Draw part U4*
G36*
G01X5078Y11407D02*
G01X5078Y11584D01*
G01X5629Y11584D01*
G01X5629Y11407D01*
G01X5078Y11407D01*
G37*
G36*
G01X5078Y11151D02*
G01X5078Y11328D01*
G01X5629Y11328D01*
G01X5629Y11151D01*
G01X5078Y11151D01*
G37*
G36*
G01X5078Y10895D02*
G01X5078Y11072D01*
G01X5629Y11072D01*
G01X5629Y10895D01*
G01X5078Y10895D01*
G37*
G36*
G01X5078Y10639D02*
G01X5078Y10816D01*
G01X5629Y10816D01*
G01X5629Y10639D01*
G01X5078Y10639D01*
G37*
G36*
G01X6811Y10639D02*
G01X6811Y10816D01*
G01X7362Y10816D01*
G01X7362Y10639D01*
G01X6811Y10639D01*
G37*
G36*
G01X6811Y10895D02*
G01X6811Y11072D01*
G01X7362Y11072D01*
G01X7362Y10895D01*
G01X6811Y10895D01*
G37*
G36*
G01X6811Y11151D02*
G01X6811Y11328D01*
G01X7362Y11328D01*
G01X7362Y11151D01*
G01X6811Y11151D01*
G37*
G36*
G01X6811Y11407D02*
G01X6811Y11584D01*
G01X7362Y11584D01*
G01X7362Y11407D01*
G01X6811Y11407D01*
G37*
G36*
G01X5856Y10748D02*
G01X5856Y11476D01*
G01X6584Y11476D01*
G01X6584Y10748D01*
G01X5856Y10748D01*
G37*
G04 Draw part L1*
G36*
G01X7716Y12657D02*
G01X7716Y13169D01*
G01X8346Y13169D01*
G01X8346Y12657D01*
G01X7716Y12657D01*
G37*
G36*
G01X7716Y11909D02*
G01X7716Y12421D01*
G01X8346Y12421D01*
G01X8346Y11909D01*
G01X7716Y11909D01*
G37*
G04 Draw part J1*
G54D10*
G01X5118Y12598D03*
G54D11*
G01X4133Y12598D03*
G01X3346Y12598D03*
G01X2362Y12598D03*
G54D12*
G01X6326Y13665D03*
G01X1153Y13665D03*
G04 Draw part J2*
G54D10*
G01X29921Y12598D03*
G54D11*
G01X28937Y12598D03*
G01X28149Y12598D03*
G01X27165Y12598D03*
G54D12*
G01X31129Y13665D03*
G01X25956Y13665D03*
G04 Draw part J3*
G36*
G01X16673Y11860D02*
G01X16673Y12746D01*
G01X16870Y12746D01*
G01X16870Y11860D01*
G01X16673Y11860D01*
G37*
G36*
G01X16358Y11860D02*
G01X16358Y12746D01*
G01X16555Y12746D01*
G01X16555Y11860D01*
G01X16358Y11860D01*
G37*
G36*
G01X16043Y11860D02*
G01X16043Y12746D01*
G01X16240Y12746D01*
G01X16240Y11860D01*
G01X16043Y11860D01*
G37*
G36*
G01X15728Y11860D02*
G01X15728Y12746D01*
G01X15925Y12746D01*
G01X15925Y11860D01*
G01X15728Y11860D01*
G37*
G36*
G01X15413Y11860D02*
G01X15413Y12746D01*
G01X15610Y12746D01*
G01X15610Y11860D01*
G01X15413Y11860D01*
G37*
G36*
G01X17677Y11751D02*
G01X17677Y12854D01*
G01X18484Y12854D01*
G01X18484Y11751D01*
G01X17677Y11751D01*
G37*
G36*
G01X13799Y11751D02*
G01X13799Y12854D01*
G01X14606Y12854D01*
G01X14606Y11751D01*
G01X13799Y11751D01*
G37*
G36*
G01X17677Y13326D02*
G01X17677Y14429D01*
G01X18484Y14429D01*
G01X18484Y13326D01*
G01X17677Y13326D01*
G37*
G36*
G01X13799Y13326D02*
G01X13799Y14429D01*
G01X14606Y14429D01*
G01X14606Y13326D01*
G01X13799Y13326D01*
G37*
G04 Draw part J4*
G54D13*
G01X24330Y13385D03*
G01X23330Y13385D03*
G01X22330Y13385D03*
G01X21330Y13385D03*
G01X20330Y13385D03*
G01X19330Y13385D03*
G04 Draw part C17*
G36*
G01X8887Y11811D02*
G01X8887Y12440D01*
G01X10127Y12440D01*
G01X10127Y11811D01*
G01X8887Y11811D01*
G37*
G36*
G01X10816Y11811D02*
G01X10816Y12440D01*
G01X12057Y12440D01*
G01X12057Y11811D01*
G01X10816Y11811D01*
G37*
G04 Draw part M1*
G54D14*
G01X1181Y11338D03*
G04 Draw part M2*
G01X31102Y11338D03*
G04 Draw part C16*
G36*
G01X22125Y3848D02*
G01X22125Y4340D01*
G01X22834Y4340D01*
G01X22834Y3848D01*
G01X22125Y3848D01*
G37*
G36*
G01X23149Y3848D02*
G01X23149Y4340D01*
G01X23858Y4340D01*
G01X23858Y3848D01*
G01X23149Y3848D01*
G37*
G04 Draw part C15*
G36*
G01X5433Y9596D02*
G01X5433Y10088D01*
G01X6141Y10088D01*
G01X6141Y9596D01*
G01X5433Y9596D01*
G37*
G36*
G01X6456Y9596D02*
G01X6456Y10088D01*
G01X7165Y10088D01*
G01X7165Y9596D01*
G01X6456Y9596D01*
G37*
G04 Draw part C20*
G36*
G01X12440Y13208D02*
G01X12440Y13720D01*
G01X13070Y13720D01*
G01X13070Y13208D01*
G01X12440Y13208D01*
G37*
G36*
G01X12440Y12460D02*
G01X12440Y12972D01*
G01X13070Y12972D01*
G01X13070Y12460D01*
G01X12440Y12460D01*
G37*
G04 Draw part R2*
G36*
G01X2125Y10492D02*
G01X2125Y10925D01*
G01X2598Y10925D01*
G01X2598Y10492D01*
G01X2125Y10492D01*
G37*
G36*
G01X2125Y11161D02*
G01X2125Y11594D01*
G01X2598Y11594D01*
G01X2598Y11161D01*
G01X2125Y11161D01*
G37*
G04 Draw part C14*
G36*
G01X708Y5728D02*
G01X708Y6240D01*
G01X1338Y6240D01*
G01X1338Y5728D01*
G01X708Y5728D01*
G37*
G36*
G01X708Y6476D02*
G01X708Y6988D01*
G01X1338Y6988D01*
G01X1338Y6476D01*
G01X708Y6476D01*
G37*
G04 Draw part TP1*
G54D15*
G01X2913Y10000D03*

G04 Draw traces*
G54D16*
G01X2047Y6299D02*
G01X1968Y6299D01*
G01X1968Y6299D02*
G01X2440Y6299D01*
G01X2440Y6299D02*
G01X4330Y4409D01*
G01X4330Y4409D02*
G01X6141Y4409D01*
G01X6141Y4409D02*
G01X6456Y4094D01*
G01X6456Y4094D02*
G01X6456Y2834D01*
G01X6456Y2834D02*
G01X6401Y2283D01*
G01X17007Y5334D02*
G01X17007Y4960D01*
G01X17007Y4960D02*
G01X17007Y5039D01*
G01X17007Y5039D02*
G01X17007Y4881D01*
G01X17007Y4881D02*
G01X17716Y4173D01*
G01X17716Y4173D02*
G01X19055Y4173D01*
G01X19055Y4173D02*
G01X19921Y3307D01*
G01X19921Y3307D02*
G01X19971Y2283D01*
G01X16417Y5334D02*
G01X16417Y4763D01*
G01X16417Y4763D02*
G01X17480Y3700D01*
G01X17480Y3700D02*
G01X18110Y3700D01*
G01X18110Y3700D02*
G01X18201Y3609D01*
G01X18201Y3609D02*
G01X18201Y2283D01*
G01X21535Y8661D02*
G01X21496Y8661D01*
G01X21496Y8661D02*
G01X21968Y8661D01*
G01X21968Y8661D02*
G01X22362Y8267D01*
G01X22362Y8267D02*
G01X22440Y8267D01*
G01X22440Y8267D02*
G01X22362Y8267D01*
G01X22362Y8267D02*
G01X22440Y8267D01*
G54D17*
G01X22440Y8267D03*
G01X7165Y8346D03*
G54D16*
G01X7165Y8346D02*
G01X7165Y7244D01*
G01X7165Y7244D02*
G01X7716Y6692D01*
G01X7716Y6692D02*
G01X9921Y6692D01*
G01X9921Y6692D02*
G01X9881Y6692D01*
G01X18366Y7677D02*
G01X18858Y7677D01*
G01X18858Y7677D02*
G01X19842Y8661D01*
G01X19842Y8661D02*
G01X21574Y8661D01*
G01X21574Y8661D02*
G01X21535Y8661D01*
G01X25157Y5039D02*
G01X25157Y5551D01*
G01X25157Y5551D02*
G01X24960Y5748D01*
G01X24960Y5748D02*
G01X24960Y6929D01*
G54D17*
G01X24960Y6929D03*
G01X8582Y8976D03*
G54D16*
G01X8582Y8976D02*
G01X8582Y8425D01*
G01X8582Y8425D02*
G01X8740Y8267D01*
G01X8740Y8267D02*
G01X9881Y8267D01*
G01X9881Y8267D02*
G01X8740Y8267D01*
G01X8740Y8267D02*
G01X8582Y8425D01*
G01X8582Y8425D02*
G01X8582Y9212D01*
G01X8582Y9212D02*
G01X8818Y9448D01*
G01X8818Y9448D02*
G01X13385Y9448D01*
G01X13385Y9448D02*
G01X13464Y9370D01*
G01X13464Y9370D02*
G01X13464Y8897D01*
G01X13464Y8897D02*
G01X13503Y8858D01*
G01X13503Y8858D02*
G01X13877Y8858D01*
G01X24960Y5039D02*
G01X24960Y5433D01*
G01X24960Y5433D02*
G01X24645Y5748D01*
G01X24645Y5748D02*
G01X24645Y5984D01*
G54D17*
G01X24645Y5984D03*
G01X12204Y7322D03*
G54D16*
G01X12204Y7322D02*
G01X12125Y7322D01*
G01X12125Y7322D02*
G01X12125Y7874D01*
G01X12125Y7874D02*
G01X12283Y8031D01*
G01X12283Y8031D02*
G01X13307Y8031D01*
G01X13307Y8031D02*
G01X13346Y8070D01*
G01X13346Y8070D02*
G01X13877Y8070D01*
G01X9881Y5708D02*
G01X12007Y5708D01*
G01X12007Y5708D02*
G01X12125Y5826D01*
G01X12125Y5826D02*
G01X12125Y7874D01*
G01X12125Y7874D02*
G01X12283Y8031D01*
G01X12283Y8031D02*
G01X13307Y8031D01*
G01X13307Y8031D02*
G01X13346Y8070D01*
G01X13346Y8070D02*
G01X13877Y8070D01*
G01X9881Y9055D02*
G01X11811Y9055D01*
G01X11811Y9055D02*
G01X11889Y8976D01*
G01X11889Y8976D02*
G01X11889Y6141D01*
G01X11889Y6141D02*
G01X11811Y6062D01*
G01X11811Y6062D02*
G01X10787Y6062D01*
G54D17*
G01X10787Y6062D03*
G01X7795Y4409D03*
G54D16*
G01X7795Y4409D02*
G01X8031Y4409D01*
G01X8031Y4409D02*
G01X8761Y3679D01*
G01X8761Y3679D02*
G01X8761Y2283D01*
G01X17204Y5334D02*
G01X17204Y4921D01*
G01X17204Y4921D02*
G01X17795Y4330D01*
G01X17795Y4330D02*
G01X19133Y4330D01*
G01X19133Y4330D02*
G01X19842Y3622D01*
G01X19842Y3622D02*
G01X20472Y3622D01*
G01X20472Y3622D02*
G01X20561Y3532D01*
G01X20561Y3532D02*
G01X20561Y2283D01*
G01X16220Y5334D02*
G01X16220Y4724D01*
G01X16220Y4724D02*
G01X17637Y3307D01*
G01X17637Y3307D02*
G01X17611Y2283D01*
G54D18*
G01X5354Y11240D02*
G01X4468Y11240D01*
G54D16*
G01X4468Y11240D02*
G01X4448Y11259D01*
G01X4448Y11259D02*
G01X4527Y11417D01*
G54D17*
G01X4527Y10905D03*
G01X4527Y10905D02*
G01X4527Y11377D01*
G54D16*
G01X4527Y11377D02*
G01X4527Y11417D01*
G01X22480Y4094D02*
G01X22598Y4094D01*
G54D17*
G01X22598Y4094D02*
G01X22125Y4094D01*
G01X22125Y4094D02*
G01X21811Y3779D01*
G01X21811Y3779D03*
G54D16*
G01X22480Y4094D02*
G01X22283Y4015D01*
G54D19*
G01X22283Y4015D02*
G01X22331Y3967D01*
G01X22331Y3967D02*
G01X22331Y1973D01*
G54D16*
G01X21535Y8858D02*
G01X22007Y8858D01*
G01X22007Y8858D02*
G01X22283Y8582D01*
G01X22283Y8582D02*
G01X22519Y8582D01*
G01X22519Y8582D02*
G01X22440Y8582D01*
G01X22440Y8582D02*
G01X23149Y8582D01*
G54D17*
G01X23149Y8582D03*
G01X6850Y7559D03*
G54D16*
G01X6850Y7559D02*
G01X6850Y7244D01*
G01X6850Y7244D02*
G01X7598Y6496D01*
G01X7598Y6496D02*
G01X9881Y6496D01*
G01X18366Y7874D02*
G01X18818Y7874D01*
G01X18818Y7874D02*
G01X19803Y8858D01*
G01X19803Y8858D02*
G01X21535Y8858D01*
G01X18366Y9055D02*
G01X18425Y9055D01*
G01X18425Y9055D02*
G01X19015Y9645D01*
G01X19015Y9645D02*
G01X21535Y9645D01*
G01X2047Y9055D02*
G01X3070Y9055D01*
G01X3070Y9055D02*
G01X3937Y8188D01*
G01X3937Y8188D02*
G01X3937Y6692D01*
G01X3937Y6692D02*
G01X5748Y4881D01*
G01X5748Y4881D02*
G01X8031Y4881D01*
G01X8031Y4881D02*
G01X9291Y3622D01*
G01X9291Y3622D02*
G01X9842Y3622D01*
G01X9842Y3622D02*
G01X9941Y3522D01*
G01X9941Y3522D02*
G01X9941Y2283D01*
G01X17401Y5334D02*
G01X17401Y4960D01*
G01X17401Y4960D02*
G01X17874Y4488D01*
G01X17874Y4488D02*
G01X19212Y4488D01*
G01X19212Y4488D02*
G01X19921Y3779D01*
G01X19921Y3779D02*
G01X20944Y3779D01*
G01X20944Y3779D02*
G01X21151Y3572D01*
G01X21151Y3572D02*
G01X21151Y2283D01*
G01X15039Y5334D02*
G01X15039Y5748D01*
G01X15039Y5748D02*
G01X14960Y5826D01*
G01X14960Y5826D02*
G01X14488Y5826D01*
G01X14488Y5826D02*
G01X13937Y5275D01*
G01X13937Y5275D02*
G01X13937Y4173D01*
G01X13937Y4173D02*
G01X14488Y3622D01*
G01X14488Y3622D02*
G01X15196Y3622D01*
G01X15196Y3622D02*
G01X15251Y3567D01*
G01X15251Y3567D02*
G01X15251Y2283D01*
G01X21535Y9055D02*
G01X22125Y9055D01*
G01X22125Y9055D02*
G01X22283Y8897D01*
G01X22283Y8897D02*
G01X22440Y8897D01*
G54D17*
G01X22440Y8897D03*
G01X6535Y8346D03*
G54D16*
G01X6535Y8346D02*
G01X6535Y7244D01*
G01X6535Y7244D02*
G01X7480Y6299D01*
G01X7480Y6299D02*
G01X9921Y6299D01*
G01X9921Y6299D02*
G01X9881Y6299D01*
G01X18366Y8070D02*
G01X18779Y8070D01*
G01X18779Y8070D02*
G01X19763Y9055D01*
G01X19763Y9055D02*
G01X21535Y9055D01*
G01X9881Y4527D02*
G01X10354Y4527D01*
G01X10354Y4527D02*
G01X10472Y4566D01*
G54D17*
G01X10472Y4566D03*
G54D16*
G01X24763Y5039D02*
G01X24763Y5393D01*
G01X24763Y5393D02*
G01X24330Y5826D01*
G01X24330Y5826D02*
G01X24330Y6929D01*
G54D17*
G01X24330Y6929D03*
G01X8897Y8582D03*
G54D16*
G01X8897Y8582D02*
G01X9015Y8464D01*
G01X9015Y8464D02*
G01X9881Y8464D01*
G01X9881Y8464D02*
G01X9015Y8464D01*
G01X9015Y8464D02*
G01X8897Y8582D01*
G01X8897Y8582D02*
G01X8897Y9212D01*
G01X8897Y9212D02*
G01X8976Y9291D01*
G01X8976Y9291D02*
G01X13228Y9291D01*
G01X13228Y9291D02*
G01X13307Y9212D01*
G01X13307Y9212D02*
G01X13307Y8818D01*
G01X13307Y8818D02*
G01X13464Y8661D01*
G01X13464Y8661D02*
G01X13877Y8661D01*
G01X2047Y7283D02*
G01X1692Y7283D01*
G01X1692Y7283D02*
G01X1614Y7362D01*
G01X1614Y7362D02*
G01X1614Y8110D01*
G01X1614Y8110D02*
G01X1456Y8267D01*
G01X1456Y8267D02*
G01X1456Y9251D01*
G01X1456Y9251D02*
G01X1653Y9448D01*
G01X1653Y9448D02*
G01X3149Y9448D01*
G01X3149Y9448D02*
G01X4251Y8346D01*
G01X4251Y8346D02*
G01X4251Y6850D01*
G01X4251Y6850D02*
G01X5905Y5196D01*
G01X5905Y5196D02*
G01X8188Y5196D01*
G01X8188Y5196D02*
G01X9448Y3937D01*
G01X9448Y3937D02*
G01X10787Y3937D01*
G01X10787Y3937D02*
G01X11121Y3602D01*
G01X11121Y3602D02*
G01X11121Y2283D01*
G01X2047Y8267D02*
G01X2086Y8267D01*
G01X2086Y8267D02*
G01X1692Y8267D01*
G01X1692Y8267D02*
G01X1614Y8346D01*
G01X1614Y8346D02*
G01X1614Y9173D01*
G01X1614Y9173D02*
G01X1732Y9291D01*
G01X1732Y9291D02*
G01X3070Y9291D01*
G01X3070Y9291D02*
G01X4094Y8267D01*
G01X4094Y8267D02*
G01X4094Y6771D01*
G01X4094Y6771D02*
G01X5826Y5039D01*
G01X5826Y5039D02*
G01X8110Y5039D01*
G01X8110Y5039D02*
G01X9370Y3779D01*
G01X9370Y3779D02*
G01X10314Y3779D01*
G01X10314Y3779D02*
G01X10531Y3562D01*
G01X10531Y3562D02*
G01X10531Y2283D01*
G01X16614Y5334D02*
G01X16614Y4803D01*
G01X16614Y4803D02*
G01X17559Y3858D01*
G01X17559Y3858D02*
G01X18503Y3858D01*
G01X18503Y3858D02*
G01X18791Y3570D01*
G01X18791Y3570D02*
G01X18791Y2283D01*
G01X13877Y6496D02*
G01X13425Y6496D01*
G01X13425Y6496D02*
G01X13228Y6299D01*
G01X13228Y6299D02*
G01X13228Y4015D01*
G01X13228Y4015D02*
G01X12891Y3679D01*
G01X12891Y3679D02*
G01X12891Y2283D01*
G01X13877Y6692D02*
G01X13385Y6692D01*
G01X13385Y6692D02*
G01X13070Y6377D01*
G01X13070Y6377D02*
G01X13070Y4960D01*
G01X13070Y4960D02*
G01X11711Y3601D01*
G01X11711Y3601D02*
G01X11711Y2283D01*
G01X27598Y7677D02*
G01X27204Y7677D01*
G01X27204Y7677D02*
G01X26929Y7952D01*
G54D17*
G01X26929Y7952D03*
G01X17244Y12362D03*
G54D16*
G01X17244Y12362D02*
G01X17086Y12362D01*
G01X17086Y12362D02*
G01X16771Y12677D01*
G01X16771Y12677D02*
G01X16771Y12303D01*
G54D17*
G01X8031Y12913D02*
G01X7401Y12913D01*
G01X7401Y12913D03*
G54D16*
G01X24370Y5039D02*
G01X24370Y5551D01*
G01X24370Y5551D02*
G01X24015Y5905D01*
G01X24015Y5905D02*
G01X24015Y9527D01*
G01X24015Y9527D02*
G01X23385Y10157D01*
G01X23385Y10157D02*
G01X22598Y10157D01*
G01X22598Y10157D02*
G01X21496Y11259D01*
G01X21496Y11259D02*
G01X20866Y11259D01*
G01X20866Y11259D02*
G01X19960Y10354D01*
G01X19960Y10354D02*
G01X18661Y10354D01*
G01X18661Y10354D02*
G01X17165Y8858D01*
G01X17165Y8858D02*
G01X17165Y6929D01*
G01X17165Y6929D02*
G01X17007Y6771D01*
G01X17007Y6771D02*
G01X15984Y6771D01*
G01X15984Y6771D02*
G01X15433Y7322D01*
G01X15433Y7322D02*
G01X15433Y8818D01*
G01X15433Y8818D02*
G01X14842Y9409D01*
G01X14842Y9409D02*
G01X14842Y9822D01*
G01X9881Y7283D02*
G01X8307Y7283D01*
G01X8307Y7283D02*
G01X7480Y8110D01*
G01X7480Y8110D02*
G01X7480Y9291D01*
G01X7480Y9291D02*
G01X8425Y10236D01*
G01X8425Y10236D02*
G01X14803Y10236D01*
G01X14803Y10236D02*
G01X14842Y10196D01*
G01X14842Y10196D02*
G01X14842Y9822D01*
G01X21535Y9251D02*
G01X22165Y9251D01*
G01X22165Y9251D02*
G01X22204Y9212D01*
G01X22204Y9212D02*
G01X23149Y9212D01*
G54D17*
G01X23149Y9212D03*
G01X6220Y7559D03*
G54D16*
G01X6220Y7559D02*
G01X6220Y7244D01*
G01X6220Y7244D02*
G01X7362Y6102D01*
G01X7362Y6102D02*
G01X9881Y6102D01*
G01X18366Y8267D02*
G01X18740Y8267D01*
G01X18740Y8267D02*
G01X19724Y9251D01*
G01X19724Y9251D02*
G01X21535Y9251D01*
G01X2047Y8070D02*
G01X3110Y8070D01*
G01X3110Y8070D02*
G01X3307Y7874D01*
G01X3307Y7874D02*
G01X3307Y5905D01*
G01X3307Y5905D02*
G01X4488Y4724D01*
G01X4488Y4724D02*
G01X7952Y4724D01*
G01X7952Y4724D02*
G01X9351Y3325D01*
G01X9351Y3325D02*
G01X9351Y2283D01*
G01X14842Y5334D02*
G01X14842Y4921D01*
G01X14842Y4921D02*
G01X14803Y4881D01*
G01X14803Y4881D02*
G01X14488Y4881D01*
G01X14488Y4881D02*
G01X14251Y4645D01*
G01X14251Y4645D02*
G01X14251Y4330D01*
G01X14251Y4330D02*
G01X14645Y3937D01*
G01X14645Y3937D02*
G01X15511Y3937D01*
G01X15511Y3937D02*
G01X15748Y3700D01*
G01X15748Y3700D02*
G01X16299Y3700D01*
G01X16299Y3700D02*
G01X16431Y3568D01*
G01X16431Y3568D02*
G01X16431Y2283D01*
G01X21535Y6102D02*
G01X20826Y6102D01*
G01X20826Y6102D02*
G01X20629Y5905D01*
G01X20629Y5905D02*
G01X20629Y5433D01*
G01X20629Y5433D02*
G01X21181Y4881D01*
G01X21181Y4881D02*
G01X21181Y4566D01*
G01X21181Y4566D02*
G01X21023Y4409D01*
G01X21023Y4409D02*
G01X20236Y4409D01*
G01X20236Y4409D02*
G01X19527Y5118D01*
G01X19527Y5118D02*
G01X18818Y5118D01*
G01X18818Y5118D02*
G01X17795Y6141D01*
G01X17795Y6141D02*
G01X15433Y6141D01*
G01X15433Y6141D02*
G01X15118Y6456D01*
G54D17*
G01X15118Y6456D03*
G54D16*
G01X21535Y9842D02*
G01X23228Y9842D01*
G01X23228Y9842D02*
G01X23700Y9370D01*
G01X23700Y9370D02*
G01X23700Y7322D01*
G01X23700Y7322D02*
G01X21496Y5118D01*
G01X21496Y5118D02*
G01X21496Y4724D01*
G54D17*
G01X21496Y4724D03*
G54D16*
G01X24173Y5039D02*
G01X24173Y5511D01*
G01X24173Y5511D02*
G01X23858Y5826D01*
G01X23858Y5826D02*
G01X23858Y9448D01*
G01X23858Y9448D02*
G01X23307Y10000D01*
G01X23307Y10000D02*
G01X22519Y10000D01*
G01X22519Y10000D02*
G01X21417Y11102D01*
G01X21417Y11102D02*
G01X20944Y11102D01*
G01X20944Y11102D02*
G01X20039Y10196D01*
G01X20039Y10196D02*
G01X18740Y10196D01*
G01X18740Y10196D02*
G01X17322Y8779D01*
G01X17322Y8779D02*
G01X17322Y6850D01*
G01X17322Y6850D02*
G01X17086Y6614D01*
G01X17086Y6614D02*
G01X15905Y6614D01*
G01X15905Y6614D02*
G01X15275Y7244D01*
G01X15275Y7244D02*
G01X15275Y8740D01*
G01X15275Y8740D02*
G01X14645Y9370D01*
G01X14645Y9370D02*
G01X14645Y9822D01*
G01X9881Y7480D02*
G01X9921Y7480D01*
G01X9921Y7480D02*
G01X8346Y7480D01*
G01X8346Y7480D02*
G01X7637Y8188D01*
G01X7637Y8188D02*
G01X7637Y9212D01*
G01X7637Y9212D02*
G01X8503Y10078D01*
G01X8503Y10078D02*
G01X14488Y10078D01*
G01X14488Y10078D02*
G01X14645Y9921D01*
G01X14645Y9921D02*
G01X14645Y9822D01*
G01X21535Y10039D02*
G01X20669Y10039D01*
G01X20669Y10039D02*
G01X20629Y10078D01*
G01X20629Y10078D02*
G01X20629Y10157D01*
G01X20629Y10157D02*
G01X20708Y10236D01*
G01X20708Y10236D02*
G01X21535Y10236D01*
G01X18366Y8858D02*
G01X17992Y8858D01*
G01X17992Y8858D02*
G01X17952Y8897D01*
G01X17952Y8897D02*
G01X17952Y9173D01*
G01X17952Y9173D02*
G01X18818Y10039D01*
G01X18818Y10039D02*
G01X21535Y10039D01*
G01X9881Y5905D02*
G01X7244Y5905D01*
G01X7244Y5905D02*
G01X5905Y7244D01*
G01X5905Y7244D02*
G01X5905Y8346D01*
G54D17*
G01X5905Y8346D03*
G01X22440Y9527D03*
G54D16*
G01X22440Y9527D02*
G01X22440Y9448D01*
G01X22440Y9448D02*
G01X21496Y9448D01*
G01X21496Y9448D02*
G01X21535Y9448D01*
G01X18366Y8464D02*
G01X18700Y8464D01*
G01X18700Y8464D02*
G01X19685Y9448D01*
G01X19685Y9448D02*
G01X21535Y9448D01*
G01X2047Y8858D02*
G01X3031Y8858D01*
G01X3031Y8858D02*
G01X3779Y8110D01*
G01X3779Y8110D02*
G01X3779Y6614D01*
G01X3779Y6614D02*
G01X4566Y5826D01*
G01X4566Y5826D02*
G01X4566Y5118D01*
G54D17*
G01X4566Y5118D03*
G54D16*
G01X23330Y13385D02*
G01X21811Y11889D01*
G01X21811Y11889D02*
G01X19370Y11889D01*
G01X19370Y11889D02*
G01X18740Y11259D01*
G01X18740Y11259D02*
G01X15433Y11259D01*
G01X15433Y11259D02*
G01X15118Y10944D01*
G01X15118Y10944D02*
G01X15118Y10629D01*
G01X15118Y10629D02*
G01X15433Y10314D01*
G01X15433Y10314D02*
G01X15433Y9822D01*
G01X23385Y11102D02*
G01X23385Y11023D01*
G01X23385Y11023D02*
G01X23385Y11496D01*
G01X23385Y11496D02*
G01X23307Y11574D01*
G01X23307Y11574D02*
G01X23307Y13149D01*
G01X23307Y13149D02*
G01X23330Y13173D01*
G01X23330Y13173D02*
G01X23330Y13385D01*
G01X24173Y11102D02*
G01X24173Y11181D01*
G01X24173Y11181D02*
G01X24173Y10708D01*
G01X24173Y10708D02*
G01X24094Y10629D01*
G01X24094Y10629D02*
G01X22913Y10629D01*
G01X22913Y10629D02*
G01X22795Y10748D01*
G01X22795Y10748D02*
G01X22795Y11102D01*
G01X17007Y9822D02*
G01X17007Y10236D01*
G01X17007Y10236D02*
G01X17874Y11102D01*
G01X17874Y11102D02*
G01X18818Y11102D01*
G01X18818Y11102D02*
G01X19448Y11732D01*
G01X19448Y11732D02*
G01X22598Y11732D01*
G01X22598Y11732D02*
G01X22795Y11535D01*
G01X22795Y11535D02*
G01X22795Y11102D01*
G01X2047Y7874D02*
G01X3070Y7874D01*
G01X3070Y7874D02*
G01X3149Y7795D01*
G01X3149Y7795D02*
G01X3149Y5826D01*
G01X3149Y5826D02*
G01X4409Y4566D01*
G01X4409Y4566D02*
G01X6377Y4566D01*
G01X6377Y4566D02*
G01X6991Y3953D01*
G01X6991Y3953D02*
G01X6991Y2283D01*
G01X13877Y6889D02*
G01X13346Y6889D01*
G01X13346Y6889D02*
G01X12913Y6456D01*
G01X12913Y6456D02*
G01X12913Y5039D01*
G01X12913Y5039D02*
G01X11968Y4094D01*
G01X11968Y4094D02*
G01X9527Y4094D01*
G01X9527Y4094D02*
G01X8267Y5354D01*
G01X8267Y5354D02*
G01X5984Y5354D01*
G01X5984Y5354D02*
G01X4409Y6929D01*
G01X4409Y6929D02*
G01X4409Y8425D01*
G01X4409Y8425D02*
G01X3228Y9606D01*
G01X3228Y9606D02*
G01X1574Y9606D01*
G01X1574Y9606D02*
G01X1299Y9330D01*
G01X1299Y9330D02*
G01X1299Y8188D01*
G01X1299Y8188D02*
G01X1456Y8031D01*
G01X1456Y8031D02*
G01X1456Y7283D01*
G01X1456Y7283D02*
G01X1653Y7086D01*
G01X1653Y7086D02*
G01X2244Y7086D01*
G01X2244Y7086D02*
G01X2047Y7086D01*
G01X13877Y6102D02*
G01X13661Y6102D01*
G01X13661Y6102D02*
G01X13543Y5984D01*
G01X13543Y5984D02*
G01X13543Y4094D01*
G01X13543Y4094D02*
G01X14071Y3566D01*
G01X14071Y3566D02*
G01X14071Y2283D01*
G54D20*
G01X1023Y6732D02*
G01X1023Y6692D01*
G01X1023Y6692D02*
G01X2047Y6692D01*
G54D21*
G01X1023Y6732D02*
G01X1023Y6771D01*
G01X1023Y6771D02*
G01X944Y6850D01*
G54D17*
G01X944Y6850D02*
G01X944Y7322D01*
G01X944Y7322D03*
G54D16*
G01X17401Y9822D02*
G01X17401Y10157D01*
G01X17401Y10157D02*
G01X18031Y10787D01*
G01X18031Y10787D02*
G01X18976Y10787D01*
G01X18976Y10787D02*
G01X19606Y11417D01*
G01X19606Y11417D02*
G01X22047Y11417D01*
G01X22047Y11417D02*
G01X22204Y11259D01*
G01X22204Y11259D02*
G01X22204Y11102D01*
G01X2047Y7480D02*
G01X2362Y7480D01*
G01X2362Y7480D02*
G01X2519Y7322D01*
G01X2519Y7322D02*
G01X2519Y7086D01*
G01X2519Y7086D02*
G01X2834Y6771D01*
G54D17*
G01X2834Y6771D03*
G01X16850Y9212D03*
G54D16*
G01X16850Y9212D02*
G01X17244Y9212D01*
G01X17244Y9212D02*
G01X17401Y9370D01*
G01X17401Y9370D02*
G01X17401Y9822D01*
G01X18366Y6692D02*
G01X20787Y6692D01*
G01X20787Y6692D02*
G01X21102Y7007D01*
G01X21102Y7007D02*
G01X21102Y7401D01*
G01X21102Y7401D02*
G01X21181Y7480D01*
G01X21181Y7480D02*
G01X21535Y7480D01*
G01X9881Y7874D02*
G01X8425Y7874D01*
G01X8425Y7874D02*
G01X7952Y8346D01*
G01X7952Y8346D02*
G01X7952Y9055D01*
G01X7952Y9055D02*
G01X8661Y9763D01*
G01X8661Y9763D02*
G01X13779Y9763D01*
G01X13779Y9763D02*
G01X14960Y8582D01*
G01X14960Y8582D02*
G01X14960Y7086D01*
G01X14960Y7086D02*
G01X15748Y6299D01*
G01X15748Y6299D02*
G01X17244Y6299D01*
G01X17244Y6299D02*
G01X17637Y6692D01*
G01X17637Y6692D02*
G01X18366Y6692D01*
G01X21535Y5905D02*
G01X21496Y5905D01*
G01X21496Y5905D02*
G01X21889Y5905D01*
G01X21889Y5905D02*
G01X22047Y6062D01*
G01X22047Y6062D02*
G01X22047Y7322D01*
G01X22047Y7322D02*
G01X21889Y7480D01*
G01X21889Y7480D02*
G01X21535Y7480D01*
G01X24330Y13385D02*
G01X23858Y13858D01*
G01X23858Y13858D02*
G01X23070Y13858D01*
G01X23070Y13858D02*
G01X22834Y13622D01*
G01X22834Y13622D02*
G01X22834Y13149D01*
G01X22834Y13149D02*
G01X21732Y12047D01*
G01X21732Y12047D02*
G01X19291Y12047D01*
G01X19291Y12047D02*
G01X18661Y11417D01*
G01X18661Y11417D02*
G01X15354Y11417D01*
G01X15354Y11417D02*
G01X14960Y11023D01*
G01X14960Y11023D02*
G01X14960Y10551D01*
G01X14960Y10551D02*
G01X15236Y10275D01*
G01X15236Y10275D02*
G01X15236Y9822D01*
G01X23582Y11102D02*
G01X23582Y11535D01*
G01X23582Y11535D02*
G01X23464Y11653D01*
G01X23464Y11653D02*
G01X23464Y12755D01*
G01X23464Y12755D02*
G01X24094Y13385D01*
G01X24094Y13385D02*
G01X24330Y13385D01*
G01X2047Y7677D02*
G01X2480Y7677D01*
G01X2480Y7677D02*
G01X2834Y7322D01*
G54D17*
G01X2834Y7322D03*
G01X5433Y4015D03*
G54D16*
G01X5433Y4015D02*
G01X5811Y3637D01*
G01X5811Y3637D02*
G01X5811Y2283D01*
G01X15236Y5334D02*
G01X15236Y5787D01*
G01X15236Y5787D02*
G01X15039Y5984D01*
G01X15039Y5984D02*
G01X14409Y5984D01*
G01X14409Y5984D02*
G01X13779Y5354D01*
G01X13779Y5354D02*
G01X13779Y4094D01*
G01X13779Y4094D02*
G01X14661Y3212D01*
G01X14661Y3212D02*
G01X14661Y2283D01*
G01X13877Y8464D02*
G01X14291Y8464D01*
G01X14291Y8464D02*
G01X14803Y7952D01*
G01X14803Y7952D02*
G01X14803Y6614D01*
G01X14803Y6614D02*
G01X14645Y6456D01*
G54D17*
G01X14645Y6456D03*
G54D16*
G01X18366Y6102D02*
G01X18543Y6102D01*
G01X18543Y6102D02*
G01X18661Y5984D01*
G01X18661Y5984D02*
G01X18661Y5511D01*
G01X18661Y5511D02*
G01X18897Y5275D01*
G01X18897Y5275D02*
G01X19763Y5275D01*
G01X19763Y5275D02*
G01X20314Y4724D01*
G01X20314Y4724D02*
G01X20393Y4724D01*
G54D17*
G01X20393Y4724D03*
G54D16*
G01X9881Y7677D02*
G01X8385Y7677D01*
G01X8385Y7677D02*
G01X7795Y8267D01*
G01X7795Y8267D02*
G01X7795Y9133D01*
G01X7795Y9133D02*
G01X8582Y9921D01*
G01X8582Y9921D02*
G01X13858Y9921D01*
G01X13858Y9921D02*
G01X15118Y8661D01*
G01X15118Y8661D02*
G01X15118Y7165D01*
G01X15118Y7165D02*
G01X15826Y6456D01*
G01X15826Y6456D02*
G01X17165Y6456D01*
G01X17165Y6456D02*
G01X17598Y6889D01*
G01X17598Y6889D02*
G01X18366Y6889D01*
G01X18366Y6889D02*
G01X20748Y6889D01*
G01X20748Y6889D02*
G01X20944Y7086D01*
G01X20944Y7086D02*
G01X20944Y7480D01*
G01X20944Y7480D02*
G01X21141Y7677D01*
G01X21141Y7677D02*
G01X21535Y7677D01*
G01X16614Y9822D02*
G01X16614Y9448D01*
G01X16614Y9448D02*
G01X16535Y9370D01*
G01X16535Y9370D02*
G01X16535Y7874D01*
G01X16535Y7874D02*
G01X16850Y7559D01*
G54D17*
G01X16850Y7559D03*
G54D16*
G01X2047Y4724D02*
G01X2440Y4724D01*
G01X2440Y4724D02*
G01X2598Y4566D01*
G01X2598Y4566D02*
G01X3700Y4566D01*
G01X3700Y4566D02*
G01X4631Y3636D01*
G01X4631Y3636D02*
G01X4631Y2283D01*
G01X16023Y5334D02*
G01X16023Y4685D01*
G01X16023Y4685D02*
G01X17021Y3687D01*
G01X17021Y3687D02*
G01X17021Y2283D01*
G01X24566Y11102D02*
G01X24566Y10708D01*
G01X24566Y10708D02*
G01X24645Y10629D01*
G01X24645Y10629D02*
G01X27086Y10629D01*
G01X27086Y10629D02*
G01X27401Y10944D01*
G01X27401Y10944D02*
G01X28346Y10944D01*
G01X28346Y10944D02*
G01X28503Y10787D01*
G01X16456Y12303D02*
G01X16456Y13070D01*
G01X16456Y13070D02*
G01X16535Y13070D01*
G54D17*
G01X16535Y13070D03*
G01X25590Y8818D03*
G54D16*
G01X25590Y8818D02*
G01X25590Y8346D01*
G01X25590Y8346D02*
G01X26614Y7322D01*
G01X26614Y7322D02*
G01X27165Y7322D01*
G01X27165Y7322D02*
G01X27204Y7283D01*
G01X27204Y7283D02*
G01X27598Y7283D01*
G01X21330Y13385D02*
G01X21968Y14015D01*
G01X21968Y14015D02*
G01X24566Y14015D01*
G01X24566Y14015D02*
G01X24803Y13779D01*
G01X24803Y13779D02*
G01X24803Y13228D01*
G01X24803Y13228D02*
G01X24488Y12913D01*
G01X24488Y12913D02*
G01X23858Y12913D01*
G01X23858Y12913D02*
G01X23622Y12677D01*
G01X23622Y12677D02*
G01X23622Y11732D01*
G01X23622Y11732D02*
G01X23779Y11574D01*
G01X23779Y11574D02*
G01X23858Y11574D01*
G01X23858Y11574D02*
G01X23976Y11456D01*
G01X23976Y11456D02*
G01X23976Y11102D01*
G01X21330Y13385D02*
G01X20157Y12204D01*
G01X20157Y12204D02*
G01X19212Y12204D01*
G01X19212Y12204D02*
G01X18582Y11574D01*
G01X18582Y11574D02*
G01X15275Y11574D01*
G01X15275Y11574D02*
G01X14803Y11102D01*
G01X14803Y11102D02*
G01X14803Y10472D01*
G01X14803Y10472D02*
G01X15039Y10236D01*
G01X15039Y10236D02*
G01X15039Y9822D01*
G01X2047Y4527D02*
G01X2401Y4527D01*
G01X2401Y4527D02*
G01X3451Y3477D01*
G01X3451Y3477D02*
G01X3451Y2283D01*
G54D17*
G01X27007Y9685D03*
G54D16*
G01X27007Y9685D02*
G01X27165Y9842D01*
G01X27165Y9842D02*
G01X27598Y9842D01*
G01X2047Y5118D02*
G01X1653Y5118D01*
G01X1653Y5118D02*
G01X1417Y4881D01*
G01X1417Y4881D02*
G01X1417Y4409D01*
G01X1417Y4409D02*
G01X2271Y3555D01*
G01X2271Y3555D02*
G01X2271Y2283D01*
G01X2913Y10000D02*
G01X2755Y10000D01*
G01X2755Y10000D02*
G01X2519Y9763D01*
G01X2519Y9763D02*
G01X1496Y9763D01*
G01X1496Y9763D02*
G01X1141Y9409D01*
G01X1141Y9409D02*
G01X1141Y8110D01*
G01X1141Y8110D02*
G01X1299Y7952D01*
G01X1299Y7952D02*
G01X1299Y7204D01*
G01X1299Y7204D02*
G01X1614Y6889D01*
G01X1614Y6889D02*
G01X2047Y6889D01*
G01X23976Y5039D02*
G01X23976Y5472D01*
G01X23976Y5472D02*
G01X23700Y5748D01*
G01X23700Y5748D02*
G01X23700Y5826D01*
G01X23700Y5826D02*
G01X23543Y5984D01*
G01X23543Y5984D02*
G01X22598Y5984D01*
G01X22598Y5984D02*
G01X21811Y5196D01*
G01X21811Y5196D02*
G01X21811Y4566D01*
G01X21811Y4566D02*
G01X21496Y4251D01*
G01X21496Y4251D02*
G01X20157Y4251D01*
G01X20157Y4251D02*
G01X19448Y4960D01*
G01X19448Y4960D02*
G01X18740Y4960D01*
G01X18740Y4960D02*
G01X17716Y5984D01*
G01X17716Y5984D02*
G01X15275Y5984D01*
G01X15275Y5984D02*
G01X15118Y6141D01*
G01X15118Y6141D02*
G01X14409Y6141D01*
G01X14409Y6141D02*
G01X14330Y6220D01*
G01X14330Y6220D02*
G01X14330Y7007D01*
G01X14330Y7007D02*
G01X14251Y7086D01*
G01X14251Y7086D02*
G01X13877Y7086D01*
G01X13877Y7086D02*
G01X13307Y7086D01*
G01X13307Y7086D02*
G01X12755Y6535D01*
G01X12755Y6535D02*
G01X12755Y5118D01*
G01X12755Y5118D02*
G01X11889Y4251D01*
G01X11889Y4251D02*
G01X9606Y4251D01*
G01X9606Y4251D02*
G01X8346Y5511D01*
G01X8346Y5511D02*
G01X6062Y5511D01*
G01X6062Y5511D02*
G01X4566Y7007D01*
G01X4566Y7007D02*
G01X4566Y8503D01*
G01X4566Y8503D02*
G01X3070Y10000D01*
G01X3070Y10000D02*
G01X2755Y10000D01*
G01X2755Y10000D02*
G01X2519Y9763D01*
G01X2519Y9763D02*
G01X1496Y9763D01*
G01X1496Y9763D02*
G01X1141Y9409D01*
G01X1141Y9409D02*
G01X1141Y8110D01*
G01X1141Y8110D02*
G01X1299Y7952D01*
G01X1299Y7952D02*
G01X1299Y7204D01*
G01X1299Y7204D02*
G01X1614Y6889D01*
G01X1614Y6889D02*
G01X2047Y6889D01*
G54D17*
G01X25590Y10314D03*
G54D16*
G01X25590Y10314D02*
G01X25590Y9842D01*
G01X25590Y9842D02*
G01X26377Y9055D01*
G01X26377Y9055D02*
G01X27598Y9055D01*
G01X17598Y9822D02*
G01X17637Y9921D01*
G01X17637Y9921D02*
G01X18267Y10551D01*
G01X18267Y10551D02*
G01X19527Y10551D01*
G01X19527Y10551D02*
G01X20078Y11102D01*
G54D17*
G01X20078Y11102D03*
G54D16*
G01X2047Y5511D02*
G01X1574Y5511D01*
G01X1574Y5511D02*
G01X1102Y5039D01*
G01X1102Y5039D02*
G01X1102Y3385D01*
G01X1102Y3385D02*
G01X1091Y3375D01*
G01X1091Y3375D02*
G01X1091Y2283D01*
G54D17*
G01X24133Y12007D02*
G01X24133Y12519D01*
G01X24133Y12519D03*
G54D16*
G01X16574Y10708D02*
G01X16653Y10787D01*
G54D22*
G01X16653Y10787D02*
G01X17086Y10787D01*
G54D17*
G01X17086Y10787D03*
G54D16*
G01X16574Y10708D02*
G01X16692Y10787D01*
G54D20*
G01X16692Y10787D02*
G01X16811Y10669D01*
G01X16811Y10669D02*
G01X16811Y9822D01*
G01X21535Y10433D02*
G01X21259Y10708D01*
G54D17*
G01X21259Y10708D03*
G54D20*
G01X27598Y6692D02*
G01X27244Y6692D01*
G01X27244Y6692D02*
G01X27007Y6929D01*
G54D17*
G01X27007Y6929D03*
G01X1023Y5984D02*
G01X551Y5511D01*
G01X551Y5511D03*
G54D20*
G01X9881Y8661D02*
G01X9527Y8661D01*
G01X9527Y8661D02*
G01X9291Y8897D01*
G01X9291Y8897D02*
G01X9291Y8976D01*
G54D17*
G01X9291Y8976D03*
G54D20*
G01X27598Y8464D02*
G01X27007Y8464D01*
G54D17*
G01X27007Y8464D03*
G01X29173Y8582D02*
G01X29173Y9645D01*
G01X11456Y8661D02*
G01X11456Y8110D01*
G01X11456Y8110D03*
G01X11456Y6929D02*
G01X11456Y7440D01*
G01X11456Y7440D03*
G54D20*
G01X21535Y5708D02*
G01X20984Y5708D01*
G01X20984Y5708D02*
G01X20944Y5669D01*
G54D17*
G01X20944Y5669D03*
G54D20*
G01X13877Y7480D02*
G01X14330Y7480D01*
G01X14330Y7480D02*
G01X14488Y7637D01*
G01X14488Y7637D02*
G01X14488Y7716D01*
G54D17*
G01X14488Y7716D03*
G01X20000Y7952D02*
G01X20000Y7401D01*
G01X20000Y7401D03*
G54D20*
G01X9881Y4724D02*
G01X9527Y4724D01*
G01X9527Y4724D02*
G01X9448Y4803D01*
G01X9448Y4803D02*
G01X9448Y4881D01*
G01X9448Y4881D02*
G01X9488Y4921D01*
G01X9488Y4921D02*
G01X9881Y4921D01*
G01X9881Y4921D02*
G01X9488Y4921D01*
G01X9488Y4921D02*
G01X9291Y5118D01*
G54D17*
G01X9291Y5118D03*
G54D20*
G01X15039Y4330D02*
G01X15629Y4921D01*
G01X15629Y4921D02*
G01X15629Y5334D01*
G54D17*
G01X15039Y4330D02*
G01X14724Y4330D01*
G01X14724Y4330D02*
G01X14566Y4488D01*
G01X14566Y4488D03*
G01X25629Y4173D02*
G01X25669Y4212D01*
G01X25669Y4212D02*
G01X26062Y4212D01*
G01X26062Y4212D03*
G01X23503Y4094D02*
G01X23937Y4094D01*
G01X23937Y4094D02*
G01X24094Y3937D01*
G01X24094Y3937D03*
G01X31496Y3937D03*
G01X6220Y11112D02*
G01X6181Y11456D01*
G01X6181Y11456D02*
G01X5944Y11692D01*
G01X5944Y11692D02*
G01X6496Y11692D01*
G01X6496Y11692D02*
G01X6496Y10551D01*
G01X6496Y10551D02*
G01X5944Y10551D01*
G01X5944Y10551D02*
G01X5944Y11692D01*
G01X6220Y11112D02*
G01X6181Y10767D01*
G01X6181Y10767D02*
G01X6496Y10551D01*
G01X6496Y10551D03*
G01X6220Y11112D02*
G01X6181Y11437D01*
G01X6181Y11437D02*
G01X6496Y11692D01*
G01X6496Y11692D03*
G54D16*
G01X7086Y11496D02*
G01X7440Y11496D01*
G01X7440Y11496D02*
G01X7480Y11535D01*
G01X7480Y11535D02*
G01X7480Y11732D01*
G01X7480Y11732D02*
G01X7401Y11811D01*
G01X7401Y11811D02*
G01X6535Y11811D01*
G01X6535Y11811D02*
G01X6535Y11496D01*
G01X6535Y11496D02*
G01X6437Y11397D01*
G01X6437Y11397D02*
G01X6220Y11112D01*
G54D20*
G01X26929Y11102D02*
G01X27165Y11338D01*
G01X27165Y11338D02*
G01X27204Y11338D01*
G01X27204Y11338D02*
G01X27244Y11299D01*
G54D17*
G01X27244Y11299D03*
G54D20*
G01X26929Y5039D02*
G01X26929Y5413D01*
G01X26929Y5413D02*
G01X26633Y5708D01*
G54D17*
G01X26633Y5708D03*
G01X29173Y9645D02*
G01X29173Y9133D01*
G01X29173Y9133D03*
G01X29724Y3937D03*
G01X6102Y3937D03*
G01X787Y3937D03*
G54D16*
G01X22401Y11102D02*
G01X22401Y10590D01*
G01X22401Y10590D02*
G01X22677Y10314D01*
G01X22677Y10314D02*
G01X23464Y10314D01*
G01X23464Y10314D02*
G01X24173Y9606D01*
G01X24173Y9606D02*
G01X24173Y9133D01*
G01X24173Y9133D02*
G01X26377Y6929D01*
G01X26377Y6929D02*
G01X27007Y6929D01*
G01X27007Y6929D02*
G01X27244Y6692D01*
G01X27244Y6692D02*
G01X27598Y6692D01*
G54D17*
G01X28503Y7322D02*
G01X28503Y6771D01*
G01X28503Y6771D03*
G01X28503Y6062D02*
G01X28503Y5511D01*
G01X28503Y5511D03*
G01X19881Y6299D02*
G01X19881Y5748D01*
G01X19881Y5748D03*
G54D20*
G01X18366Y8661D02*
G01X17716Y8661D01*
G54D17*
G01X17716Y8661D03*
G54D19*
G01X12301Y1973D02*
G01X12301Y3561D01*
G01X12301Y3561D02*
G01X12598Y3858D01*
G54D17*
G01X12598Y3858D03*
G01X12283Y8425D02*
G01X12283Y8976D01*
G01X12283Y8976D03*
G54D21*
G01X15511Y12303D02*
G01X15511Y12598D01*
G01X15511Y12598D02*
G01X15275Y12362D01*
G01X15275Y12362D02*
G01X15039Y12362D01*
G54D17*
G01X15039Y12362D03*
G01X6811Y9842D02*
G01X6771Y9842D01*
G01X6771Y9842D02*
G01X6850Y10000D01*
G01X6850Y10000D02*
G01X6456Y10393D01*
G01X6456Y10393D02*
G01X6456Y10708D01*
G01X6456Y10708D02*
G01X6476Y10728D01*
G01X6476Y10728D02*
G01X6476Y10846D01*
G01X6476Y10846D02*
G01X6220Y11102D01*
G01X6220Y11102D02*
G01X6220Y11112D01*
G54D16*
G01X23503Y4094D02*
G01X24094Y3937D01*
G01X24094Y3937D02*
G01X24094Y4330D01*
G01X24094Y4330D02*
G01X23779Y4645D01*
G01X23779Y4645D02*
G01X23779Y5039D01*
G01X7086Y10728D02*
G01X7086Y10629D01*
G54D19*
G01X7086Y10629D02*
G01X7086Y10393D01*
G01X7086Y10393D02*
G01X6614Y9921D01*
G01X6614Y9921D02*
G01X6811Y9842D01*
G54D17*
G01X6220Y11112D02*
G01X5944Y11692D01*
G01X5944Y11692D03*
G01X6220Y11112D02*
G01X5944Y10551D01*
G01X5944Y10551D03*
G01X3858Y10354D02*
G01X3858Y10393D01*
G01X3858Y10393D02*
G01X3858Y9842D01*
G01X3858Y9842D03*
G01X3858Y11417D02*
G01X3385Y11417D01*
G01X3385Y11417D03*
G01X12755Y12716D02*
G01X12755Y12125D01*
G01X12755Y12125D03*
G01X12755Y12716D02*
G01X12755Y12125D01*
G01X12755Y12125D02*
G01X11437Y12125D01*
G54D20*
G01X2362Y11377D02*
G01X2362Y12598D01*
G54D16*
G01X29173Y7322D02*
G01X29212Y7322D01*
G01X29212Y7322D02*
G01X30708Y8818D01*
G01X30708Y8818D02*
G01X30708Y9055D01*
G01X30708Y9055D02*
G01X30629Y10078D01*
G01X30629Y10078D02*
G01X30708Y10000D01*
G01X30708Y10000D02*
G01X29055Y11653D01*
G01X29055Y11653D02*
G01X26692Y11653D01*
G01X26692Y11653D02*
G01X26535Y11496D01*
G01X26535Y11496D02*
G01X26535Y11102D01*
G01X16141Y12303D02*
G01X16141Y13070D01*
G01X16141Y13070D02*
G01X16141Y12992D01*
G01X16141Y12992D02*
G01X16062Y13070D01*
G54D17*
G01X16062Y13070D03*
G01X25984Y8582D03*
G54D16*
G01X25984Y8582D02*
G01X25826Y8582D01*
G01X25826Y8582D02*
G01X25748Y8503D01*
G01X25748Y8503D02*
G01X25748Y8425D01*
G01X25748Y8425D02*
G01X26692Y7480D01*
G01X26692Y7480D02*
G01X27598Y7480D01*
G01X22401Y5039D02*
G01X22401Y4685D01*
G01X22401Y4685D02*
G01X22283Y4566D01*
G01X22283Y4566D02*
G01X22047Y4566D01*
G01X22047Y4566D02*
G01X21574Y4094D01*
G01X21574Y4094D02*
G01X20078Y4094D01*
G01X20078Y4094D02*
G01X19370Y4803D01*
G01X19370Y4803D02*
G01X18661Y4803D01*
G01X18661Y4803D02*
G01X17637Y5826D01*
G01X17637Y5826D02*
G01X15511Y5826D01*
G01X15511Y5826D02*
G01X15433Y5748D01*
G01X15433Y5748D02*
G01X15433Y5334D01*
G54D17*
G01X29133Y4960D03*
G54D16*
G01X29133Y4960D02*
G01X28661Y4488D01*
G01X28661Y4488D02*
G01X28031Y4488D01*
G54D17*
G01X28031Y4488D03*
G01X23385Y5669D03*
G54D16*
G01X23385Y5669D02*
G01X22598Y5669D01*
G01X22598Y5669D02*
G01X22401Y5472D01*
G01X22401Y5472D02*
G01X22401Y5039D01*
G01X16220Y9822D02*
G01X16220Y7480D01*
G01X16220Y7480D02*
G01X16141Y7401D01*
G54D17*
G01X16141Y7401D03*
G01X27007Y10157D03*
G54D16*
G01X27007Y10157D02*
G01X27125Y10039D01*
G01X27125Y10039D02*
G01X27598Y10039D01*
G54D23*
G01X18080Y13877D02*
G01X18641Y13877D01*
G54D16*
G01X18641Y13877D02*
G01X18661Y13858D01*
G54D23*
G01X18080Y13877D02*
G01X17500Y13877D01*
G54D16*
G01X17500Y13877D02*
G01X17480Y13858D01*
G54D23*
G01X14202Y13877D02*
G01X14783Y13877D01*
G54D16*
G01X14783Y13877D02*
G01X14803Y13858D01*
G54D23*
G01X14202Y13877D02*
G01X13641Y13877D01*
G54D16*
G01X13641Y13877D02*
G01X13622Y13858D01*
G01X18080Y13877D02*
G01X18031Y13937D01*
G01X18031Y13937D02*
G01X18080Y13887D01*
G54D23*
G01X18080Y13887D02*
G01X18080Y12303D01*
G54D16*
G01X14202Y13877D02*
G01X14251Y13937D01*
G01X14251Y13937D02*
G01X14202Y13887D01*
G54D23*
G01X14202Y13887D02*
G01X14202Y12303D01*
G54D20*
G01X12755Y13464D02*
G01X12755Y14094D01*
G01X2362Y10708D02*
G01X1889Y10708D01*
G54D16*
G01X2047Y8464D02*
G01X2952Y8464D01*
G01X2952Y8464D02*
G01X3464Y7952D01*
G01X3464Y7952D02*
G01X3464Y6220D01*
G01X3464Y6220D02*
G01X3622Y6062D01*
G54D17*
G01X3622Y6062D03*
G54D16*
G01X2047Y5708D02*
G01X1535Y5708D01*
G01X1535Y5708D02*
G01X472Y4645D01*
G01X472Y4645D02*
G01X472Y3464D01*
G01X472Y3464D02*
G01X501Y3435D01*
G01X501Y3435D02*
G01X501Y2283D01*
G01X18366Y6299D02*
G01X18346Y6299D01*
G01X18346Y6299D02*
G01X18740Y6299D01*
G01X18740Y6299D02*
G01X18818Y6220D01*
G01X18818Y6220D02*
G01X18818Y5590D01*
G01X18818Y5590D02*
G01X18976Y5433D01*
G01X18976Y5433D02*
G01X20157Y5433D01*
G01X20157Y5433D02*
G01X20866Y4724D01*
G54D17*
G01X20866Y4724D03*
G54D16*
G01X30708Y5708D02*
G01X30629Y6456D01*
G01X30629Y6456D02*
G01X31338Y7165D01*
G01X31338Y7165D02*
G01X31338Y10157D01*
G01X31338Y10157D02*
G01X31181Y10314D01*
G01X31181Y10314D02*
G01X30708Y10314D01*
G01X30708Y10314D02*
G01X29133Y11889D01*
G01X29133Y11889D02*
G01X26614Y11889D01*
G01X26614Y11889D02*
G01X26338Y11614D01*
G01X26338Y11614D02*
G01X26338Y11102D01*
G01X29173Y6062D02*
G01X30708Y6062D01*
G01X30708Y6062D02*
G01X30708Y5708D01*
G54D17*
G01X25984Y10078D03*
G54D16*
G01X25984Y10078D02*
G01X25826Y10078D01*
G01X25826Y10078D02*
G01X25748Y10000D01*
G01X25748Y10000D02*
G01X25748Y9921D01*
G01X25748Y9921D02*
G01X26456Y9212D01*
G01X26456Y9212D02*
G01X27165Y9212D01*
G01X27165Y9212D02*
G01X27204Y9251D01*
G01X27204Y9251D02*
G01X27598Y9251D01*
G54D18*
G01X5354Y11496D02*
G01X5354Y11791D01*
G01X5354Y11791D02*
G01X5669Y12125D01*
G01X5669Y12125D02*
G01X6771Y12125D01*
G54D16*
G01X6771Y12125D02*
G01X6811Y12165D01*
G54D19*
G01X6811Y12165D02*
G01X8031Y12165D01*
G54D16*
G01X9507Y12125D02*
G01X9527Y12125D01*
G01X9527Y12125D02*
G01X9488Y12165D01*
G54D17*
G01X9488Y12165D02*
G01X8031Y12165D01*
G54D16*
G01X27598Y6496D02*
G01X26574Y6496D01*
G01X26574Y6496D02*
G01X25590Y7480D01*
G01X25590Y7480D02*
G01X24724Y7480D01*
G01X24724Y7480D02*
G01X24409Y7795D01*
G54D17*
G01X24409Y7795D03*
G01X7716Y10866D03*
G54D16*
G01X7716Y10866D02*
G01X7598Y10984D01*
G01X7598Y10984D02*
G01X7086Y10984D01*
G01X2047Y6102D02*
G01X2401Y6102D01*
G01X2401Y6102D02*
G01X2834Y5669D01*
G01X2834Y5669D02*
G01X2834Y5118D01*
G54D17*
G01X2834Y5118D03*
G54D16*
G01X16023Y9822D02*
G01X16023Y7992D01*
G01X16023Y7992D02*
G01X15748Y7716D01*
G54D17*
G01X15748Y7716D03*
G54D16*
G01X2047Y5314D02*
G01X1614Y5314D01*
G01X1614Y5314D02*
G01X1259Y4960D01*
G01X1259Y4960D02*
G01X1259Y4330D01*
G01X1259Y4330D02*
G01X1681Y3908D01*
G01X1681Y3908D02*
G01X1681Y2283D01*
G01X13877Y7283D02*
G01X13267Y7283D01*
G01X13267Y7283D02*
G01X12598Y6614D01*
G01X12598Y6614D02*
G01X12598Y5590D01*
G01X12598Y5590D02*
G01X12125Y5118D01*
G01X12125Y5118D02*
G01X9881Y5118D01*
G01X15629Y9822D02*
G01X15629Y9291D01*
G54D17*
G01X15629Y9291D03*
G54D16*
G01X18366Y7283D02*
G01X17755Y7283D01*
G01X17755Y7283D02*
G01X17716Y7244D01*
G54D17*
G01X17716Y7244D03*
G54D16*
G01X25748Y5039D02*
G01X25748Y5433D01*
G01X25748Y5433D02*
G01X25905Y5590D01*
G01X25905Y5590D02*
G01X25905Y6062D01*
G01X25905Y6062D02*
G01X25905Y5984D01*
G54D17*
G01X25905Y5984D03*
G01X12834Y7322D03*
G54D16*
G01X12834Y7322D02*
G01X13188Y7677D01*
G01X13188Y7677D02*
G01X13877Y7677D01*
G01X9881Y5314D02*
G01X12086Y5314D01*
G01X12086Y5314D02*
G01X12440Y5669D01*
G01X12440Y5669D02*
G01X12440Y6692D01*
G01X12440Y6692D02*
G01X12834Y7086D01*
G01X12834Y7086D02*
G01X12834Y7322D01*
G01X12834Y7322D02*
G01X13188Y7677D01*
G01X13188Y7677D02*
G01X13877Y7677D01*
G01X2047Y4921D02*
G01X1692Y4921D01*
G01X1692Y4921D02*
G01X1574Y4803D01*
G01X1574Y4803D02*
G01X1574Y4488D01*
G01X1574Y4488D02*
G01X2440Y3622D01*
G01X2440Y3622D02*
G01X2755Y3622D01*
G01X2755Y3622D02*
G01X2861Y3516D01*
G01X2861Y3516D02*
G01X2861Y2283D01*
G01X18366Y7086D02*
G01X18346Y7086D01*
G01X18346Y7086D02*
G01X19055Y7086D01*
G01X19055Y7086D02*
G01X19212Y7244D01*
G54D17*
G01X19212Y7244D03*
G54D16*
G01X24370Y11102D02*
G01X24370Y10669D01*
G01X24370Y10669D02*
G01X24173Y10472D01*
G01X24173Y10472D02*
G01X22834Y10472D01*
G01X22834Y10472D02*
G01X22598Y10708D01*
G01X22598Y10708D02*
G01X22598Y11102D01*
G01X17204Y9822D02*
G01X17204Y10196D01*
G01X17204Y10196D02*
G01X17952Y10944D01*
G01X17952Y10944D02*
G01X18897Y10944D01*
G01X18897Y10944D02*
G01X19527Y11574D01*
G01X19527Y11574D02*
G01X22519Y11574D01*
G01X22519Y11574D02*
G01X22598Y11496D01*
G01X22598Y11496D02*
G01X22598Y11023D01*
G01X22598Y11023D02*
G01X22598Y11102D01*
G01X2047Y8661D02*
G01X2992Y8661D01*
G01X2992Y8661D02*
G01X3622Y8031D01*
G01X3622Y8031D02*
G01X3622Y6535D01*
G01X3622Y6535D02*
G01X4094Y6062D01*
G01X4094Y6062D02*
G01X4094Y5590D01*
G54D17*
G01X4094Y5590D03*
G01X3779Y3858D03*
G54D16*
G01X3779Y3858D02*
G01X4041Y3596D01*
G01X4041Y3596D02*
G01X4041Y2283D01*
G01X16811Y5334D02*
G01X16811Y4842D01*
G01X16811Y4842D02*
G01X17637Y4015D01*
G01X17637Y4015D02*
G01X18897Y4015D01*
G01X18897Y4015D02*
G01X19370Y3543D01*
G01X19370Y3543D02*
G01X19370Y2519D01*
G01X19370Y2519D02*
G01X19381Y2283D01*
G01X13877Y6299D02*
G01X13464Y6299D01*
G01X13464Y6299D02*
G01X13385Y6220D01*
G01X13385Y6220D02*
G01X13385Y4015D01*
G01X13385Y4015D02*
G01X13481Y3919D01*
G01X13481Y3919D02*
G01X13481Y2283D01*
G01X25551Y5039D02*
G01X25551Y5393D01*
G01X25551Y5393D02*
G01X25590Y5433D01*
G01X25590Y5433D02*
G01X25590Y6929D01*
G54D17*
G01X25590Y6929D03*
G01X8267Y8582D03*
G54D16*
G01X8267Y8582D02*
G01X8267Y8267D01*
G01X8267Y8267D02*
G01X8464Y8070D01*
G01X8464Y8070D02*
G01X9881Y8070D01*
G01X9881Y8070D02*
G01X8464Y8070D01*
G01X8464Y8070D02*
G01X8267Y8267D01*
G01X8267Y8267D02*
G01X8267Y9133D01*
G01X8267Y9133D02*
G01X8740Y9606D01*
G01X8740Y9606D02*
G01X13700Y9606D01*
G01X13700Y9606D02*
G01X13877Y9429D01*
G01X13877Y9429D02*
G01X13877Y9055D01*
G01X25354Y5039D02*
G01X25354Y5984D01*
G01X25354Y5984D02*
G01X25275Y5984D01*
G54D17*
G01X25275Y5984D03*
G01X12519Y7716D03*
G54D16*
G01X12519Y7716D02*
G01X12598Y7716D01*
G01X12598Y7716D02*
G01X12755Y7874D01*
G01X12755Y7874D02*
G01X13877Y7874D01*
G01X9881Y5511D02*
G01X12047Y5511D01*
G01X12047Y5511D02*
G01X12283Y5748D01*
G01X12283Y5748D02*
G01X12283Y6850D01*
G01X12283Y6850D02*
G01X12519Y7086D01*
G01X12519Y7086D02*
G01X12519Y7637D01*
G01X12519Y7637D02*
G01X12755Y7874D01*
G01X12755Y7874D02*
G01X13877Y7874D01*
G01X2047Y5905D02*
G01X2362Y5905D01*
G01X2362Y5905D02*
G01X2519Y5748D01*
G01X2519Y5748D02*
G01X2519Y4881D01*
G01X2519Y4881D02*
G01X2677Y4724D01*
G01X2677Y4724D02*
G01X3779Y4724D01*
G01X3779Y4724D02*
G01X5196Y3307D01*
G01X5196Y3307D02*
G01X5221Y2283D01*
G01X17598Y5334D02*
G01X17598Y5000D01*
G01X17598Y5000D02*
G01X17952Y4645D01*
G01X17952Y4645D02*
G01X19291Y4645D01*
G01X19291Y4645D02*
G01X20000Y3937D01*
G01X20000Y3937D02*
G01X21023Y3937D01*
G01X21023Y3937D02*
G01X21741Y3218D01*
G01X21741Y3218D02*
G01X21741Y2283D01*
G01X14645Y5334D02*
G01X14645Y5275D01*
G01X14645Y5275D02*
G01X14094Y4724D01*
G01X14094Y4724D02*
G01X14094Y4251D01*
G01X14094Y4251D02*
G01X14566Y3779D01*
G01X14566Y3779D02*
G01X15433Y3779D01*
G01X15433Y3779D02*
G01X15826Y3385D01*
G01X15826Y3385D02*
G01X15841Y2283D01*
G54D17*
G01X24803Y12007D02*
G01X25314Y12007D01*
G01X25314Y12007D03*
G54D20*
G01X15905Y10708D02*
G01X15826Y10787D01*
G54D22*
G01X15826Y10787D02*
G01X15433Y10787D01*
G54D17*
G01X15433Y10787D03*
G01X15708Y4330D02*
G01X15905Y4330D01*
G01X15905Y4330D02*
G01X16141Y4094D01*
G01X16141Y4094D03*
G54D20*
G01X29173Y10787D02*
G01X29173Y10354D01*
G01X29173Y10354D02*
G01X29055Y10236D01*
G01X29055Y10236D02*
G01X28661Y10236D01*
G01X28661Y10236D02*
G01X28503Y10078D01*
G01X28503Y10078D02*
G01X28503Y9645D01*
G54D17*
G01X28503Y8582D02*
G01X28503Y9645D01*
G54D20*
G01X28503Y8582D02*
G01X28503Y8661D01*
G01X28503Y8661D02*
G01X27598Y8661D01*
G01X10787Y8661D02*
G01X10787Y8582D01*
G01X10787Y8582D02*
G01X10511Y8858D01*
G01X10511Y8858D02*
G01X9881Y8858D01*
G54D17*
G01X10787Y8661D02*
G01X10787Y8110D01*
G01X10787Y8110D03*
G01X10787Y6929D02*
G01X10787Y7440D01*
G01X10787Y7440D03*
G54D20*
G01X18366Y6496D02*
G01X18937Y6496D01*
G01X18937Y6496D02*
G01X19133Y6299D01*
G01X19133Y6299D02*
G01X19133Y6220D01*
G01X19133Y6220D02*
G01X19212Y6299D01*
G54D19*
G01X20669Y7952D02*
G01X20629Y7952D01*
G54D22*
G01X20629Y7952D02*
G01X20629Y7401D01*
G54D17*
G01X20629Y7401D03*
G54D20*
G01X24960Y4173D02*
G01X24881Y4173D01*
G01X24881Y4173D02*
G01X24881Y4330D01*
G01X24881Y4330D02*
G01X24566Y4645D01*
G01X24566Y4645D02*
G01X24566Y5039D01*
G54D17*
G01X19212Y6299D02*
G01X19212Y5748D01*
G01X19212Y5748D03*
G54D20*
G01X15708Y4330D02*
G01X15826Y4409D01*
G01X15826Y4409D02*
G01X15826Y5334D01*
G01X28503Y9645D02*
G01X27598Y9645D01*
G54D19*
G01X28503Y9645D02*
G01X28503Y9153D01*
G54D17*
G01X28503Y9153D03*
G54D20*
G01X12952Y8425D02*
G01X12874Y8267D01*
G01X12874Y8267D02*
G01X13877Y8267D01*
G01X15905Y10708D02*
G01X15826Y10629D01*
G01X15826Y10629D02*
G01X15826Y9822D01*
G01X24960Y4173D02*
G01X24881Y4173D01*
G01X24881Y4173D02*
G01X24842Y4212D01*
G54D17*
G01X24842Y4212D02*
G01X24488Y4212D01*
G01X24488Y4212D03*
G54D20*
G01X20669Y7952D02*
G01X20629Y8031D01*
G01X20629Y8031D02*
G01X20669Y8070D01*
G01X20669Y8070D02*
G01X21535Y8070D01*
G01X24803Y12007D02*
G01X24763Y12007D01*
G01X24763Y12007D02*
G01X24763Y11102D01*
G01X10787Y6929D02*
G01X10748Y6889D01*
G01X10748Y6889D02*
G01X9881Y6889D01*
G54D17*
G01X12952Y8425D02*
G01X12952Y8976D01*
G01X12952Y8976D03*
G54D20*
G01X5787Y9842D02*
G01X5748Y10000D01*
G54D18*
G01X4527Y10354D02*
G01X4566Y10314D01*
G01X4566Y10314D02*
G01X4881Y10629D01*
G01X4881Y10629D02*
G01X4881Y10866D01*
G01X4881Y10866D02*
G01X5000Y10984D01*
G01X5000Y10984D02*
G01X5354Y10984D01*
G54D17*
G01X5787Y9842D02*
G01X5354Y9842D01*
G01X5354Y9842D02*
G01X4842Y10354D01*
G01X4842Y10354D02*
G01X4527Y10354D01*
G54D20*
G01X5787Y9842D02*
G01X5590Y10000D01*
G01X5590Y10000D02*
G01X5196Y10000D01*
G01X5196Y10000D02*
G01X5039Y10157D01*
G54D17*
G01X5039Y10157D03*
G54D16*
G01X7086Y11240D02*
G01X7972Y11240D01*
G01X7972Y11240D02*
G01X8110Y11102D01*
G01X8110Y11102D02*
G01X8110Y10236D01*
G01X8110Y10236D02*
G01X7165Y9291D01*
G01X7165Y9291D02*
G01X6062Y9291D01*
G01X6062Y9291D02*
G01X5590Y9763D01*
G01X5590Y9763D02*
G01X5787Y9842D01*
G01X21535Y8464D02*
G01X21929Y8464D01*
G01X21929Y8464D02*
G01X22047Y8346D01*
G01X22047Y8346D02*
G01X22047Y8110D01*
G01X22047Y8110D02*
G01X22204Y7952D01*
G01X22204Y7952D02*
G01X23149Y7952D01*
G54D17*
G01X23149Y7952D03*
G01X7480Y7559D03*
G54D16*
G01X7480Y7559D02*
G01X7480Y7244D01*
G01X7480Y7244D02*
G01X7637Y7086D01*
G01X7637Y7086D02*
G01X9921Y7086D01*
G01X9921Y7086D02*
G01X9881Y7086D01*
G01X18366Y7480D02*
G01X18897Y7480D01*
G01X18897Y7480D02*
G01X19881Y8464D01*
G01X19881Y8464D02*
G01X21535Y8464D01*
G01X16417Y9822D02*
G01X16417Y9488D01*
G01X16417Y9488D02*
G01X16377Y9448D01*
G01X16377Y9448D02*
G01X16377Y7716D01*
G01X16377Y7716D02*
G01X16496Y7598D01*
G01X16496Y7598D02*
G01X16496Y7440D01*
G01X16496Y7440D02*
G01X16850Y7086D01*
G54D17*
G01X16850Y7086D03*

G04 Draw Text*
M00*
M02*
