G04 FreePCB version 1.340*
G04 c:\jag\pcb\jagwave\CAM\top_silk.grb*
G04 top silk layer *
G04 Scale: 100 percent, Rotated: No, Reflected: No *
%FSLAX24Y24*%
%MOIN*%
%LNTop*%
%ADD10C,0.007000*%
%ADD11C,0.006000*%
%ADD12C,0.010000*%
%ADD13C,0.007874*%
G90*
G70D02*

G04 Step and Repeat for panelization *

G04 -------------- Draw Parts, Pads, Traces, Vias and Text (positive)*
%LPD*%
G04 Draw part J0*
G04 Draw part C1*
G04 draw part outline for part C1*
G54D10*
G01X23799Y12362D02*
G01X25137Y12362D01*
G01X25137Y12362D02*
G01X25137Y11653D01*
G01X25137Y11653D02*
G01X23799Y11653D01*
G01X23799Y11653D02*
G01X23799Y12362D01*
G04 draw reference designator for part C1*
G54D11*
G01X23400Y12133D02*
G01X23418Y12097D01*
G01X23364Y12168D02*
G01X23400Y12133D01*
G01X23328Y12186D02*
G01X23364Y12168D01*
G01X23256Y12186D02*
G01X23328Y12186D01*
G01X23256Y12186D02*
G01X23221Y12168D01*
G01X23221Y12168D02*
G01X23185Y12133D01*
G01X23185Y12133D02*
G01X23167Y12097D01*
G01X23167Y12097D02*
G01X23149Y12043D01*
G01X23149Y12043D02*
G01X23149Y11954D01*
G01X23149Y11954D02*
G01X23167Y11900D01*
G01X23167Y11900D02*
G01X23185Y11864D01*
G01X23185Y11864D02*
G01X23221Y11828D01*
G01X23221Y11828D02*
G01X23256Y11811D01*
G01X23328Y11811D02*
G01X23256Y11811D01*
G01X23364Y11828D02*
G01X23328Y11811D01*
G01X23400Y11864D02*
G01X23364Y11828D01*
G01X23418Y11900D02*
G01X23400Y11864D01*
G01X23596Y12133D02*
G01X23561Y12115D01*
G01X23650Y12186D02*
G01X23596Y12133D01*
G01X23650Y12186D02*
G01X23650Y11811D01*
G04 Draw part C2*
G04 draw part outline for part C2*
G54D10*
G01X28169Y10000D02*
G01X29507Y10000D01*
G01X29507Y10000D02*
G01X29507Y9291D01*
G01X29507Y9291D02*
G01X28169Y9291D01*
G01X28169Y9291D02*
G01X28169Y10000D01*
G04 draw reference designator for part C2*
G54D11*
G01X28797Y10304D02*
G01X28809Y10279D01*
G01X28772Y10329D02*
G01X28797Y10304D01*
G01X28747Y10341D02*
G01X28772Y10329D01*
G01X28697Y10341D02*
G01X28747Y10341D01*
G01X28697Y10341D02*
G01X28672Y10329D01*
G01X28672Y10329D02*
G01X28647Y10304D01*
G01X28647Y10304D02*
G01X28634Y10279D01*
G01X28634Y10279D02*
G01X28622Y10241D01*
G01X28622Y10241D02*
G01X28622Y10178D01*
G01X28622Y10178D02*
G01X28634Y10141D01*
G01X28634Y10141D02*
G01X28647Y10116D01*
G01X28647Y10116D02*
G01X28672Y10091D01*
G01X28672Y10091D02*
G01X28697Y10078D01*
G01X28747Y10078D02*
G01X28697Y10078D01*
G01X28772Y10091D02*
G01X28747Y10078D01*
G01X28797Y10116D02*
G01X28772Y10091D01*
G01X28809Y10141D02*
G01X28797Y10116D01*
G01X28922Y10291D02*
G01X28922Y10279D01*
G01X28935Y10316D02*
G01X28922Y10291D01*
G01X28947Y10329D02*
G01X28935Y10316D01*
G01X28972Y10341D02*
G01X28947Y10329D01*
G01X29022Y10341D02*
G01X28972Y10341D01*
G01X29022Y10341D02*
G01X29047Y10329D01*
G01X29047Y10329D02*
G01X29060Y10316D01*
G01X29060Y10316D02*
G01X29073Y10291D01*
G01X29073Y10291D02*
G01X29073Y10266D01*
G01X29073Y10266D02*
G01X29060Y10241D01*
G01X29060Y10241D02*
G01X29035Y10204D01*
G01X29035Y10204D02*
G01X28910Y10078D01*
G01X29085Y10078D02*
G01X28910Y10078D01*
G04 Draw part C3*
G04 draw part outline for part C3*
G54D10*
G01X28169Y8937D02*
G01X29507Y8937D01*
G01X29507Y8937D02*
G01X29507Y8228D01*
G01X29507Y8228D02*
G01X28169Y8228D01*
G01X28169Y8228D02*
G01X28169Y8937D01*
G04 draw reference designator for part C3*
G54D11*
G01X28797Y9201D02*
G01X28809Y9176D01*
G01X28772Y9226D02*
G01X28797Y9201D01*
G01X28747Y9239D02*
G01X28772Y9226D01*
G01X28697Y9239D02*
G01X28747Y9239D01*
G01X28697Y9239D02*
G01X28672Y9226D01*
G01X28672Y9226D02*
G01X28647Y9201D01*
G01X28647Y9201D02*
G01X28634Y9176D01*
G01X28634Y9176D02*
G01X28622Y9139D01*
G01X28622Y9139D02*
G01X28622Y9076D01*
G01X28622Y9076D02*
G01X28634Y9039D01*
G01X28634Y9039D02*
G01X28647Y9013D01*
G01X28647Y9013D02*
G01X28672Y8988D01*
G01X28672Y8988D02*
G01X28697Y8976D01*
G01X28747Y8976D02*
G01X28697Y8976D01*
G01X28772Y8988D02*
G01X28747Y8976D01*
G01X28797Y9013D02*
G01X28772Y8988D01*
G01X28809Y9039D02*
G01X28797Y9013D01*
G01X29073Y9239D02*
G01X28935Y9239D01*
G01X29073Y9239D02*
G01X28997Y9139D01*
G01X29035Y9139D02*
G01X28997Y9139D01*
G01X29035Y9139D02*
G01X29060Y9126D01*
G01X29060Y9126D02*
G01X29073Y9114D01*
G01X29073Y9114D02*
G01X29085Y9076D01*
G01X29085Y9076D02*
G01X29085Y9051D01*
G01X29085Y9051D02*
G01X29073Y9013D01*
G01X29073Y9013D02*
G01X29047Y8988D01*
G01X29047Y8988D02*
G01X29010Y8976D01*
G01X28972Y8976D02*
G01X29010Y8976D01*
G01X28935Y8988D02*
G01X28972Y8976D01*
G01X28922Y9001D02*
G01X28935Y8988D01*
G01X28910Y9026D02*
G01X28922Y9001D01*
G04 Draw part C4*
G04 draw part outline for part C4*
G54D10*
G01X24625Y4527D02*
G01X25964Y4527D01*
G01X25964Y4527D02*
G01X25964Y3818D01*
G01X25964Y3818D02*
G01X24625Y3818D01*
G01X24625Y3818D02*
G01X24625Y4527D01*
G04 draw reference designator for part C4*
G54D11*
G01X26313Y4259D02*
G01X26331Y4223D01*
G01X26277Y4294D02*
G01X26313Y4259D01*
G01X26241Y4312D02*
G01X26277Y4294D01*
G01X26170Y4312D02*
G01X26241Y4312D01*
G01X26170Y4312D02*
G01X26134Y4294D01*
G01X26134Y4294D02*
G01X26098Y4259D01*
G01X26098Y4259D02*
G01X26080Y4223D01*
G01X26080Y4223D02*
G01X26062Y4169D01*
G01X26062Y4169D02*
G01X26062Y4080D01*
G01X26062Y4080D02*
G01X26080Y4026D01*
G01X26080Y4026D02*
G01X26098Y3990D01*
G01X26098Y3990D02*
G01X26134Y3954D01*
G01X26134Y3954D02*
G01X26170Y3937D01*
G01X26241Y3937D02*
G01X26170Y3937D01*
G01X26277Y3954D02*
G01X26241Y3937D01*
G01X26313Y3990D02*
G01X26277Y3954D01*
G01X26331Y4026D02*
G01X26313Y3990D01*
G01X26653Y4312D02*
G01X26474Y4062D01*
G01X26743Y4062D02*
G01X26474Y4062D01*
G01X26653Y4312D02*
G01X26653Y3937D01*
G04 Draw part C5*
G04 draw part outline for part C5*
G54D10*
G01X19665Y8307D02*
G01X21003Y8307D01*
G01X21003Y8307D02*
G01X21003Y7598D01*
G01X21003Y7598D02*
G01X19665Y7598D01*
G01X19665Y7598D02*
G01X19665Y8307D01*
G04 draw reference designator for part C5*
G54D11*
G01X20250Y8747D02*
G01X20268Y8711D01*
G01X20214Y8783D02*
G01X20250Y8747D01*
G01X20178Y8801D02*
G01X20214Y8783D01*
G01X20107Y8801D02*
G01X20178Y8801D01*
G01X20107Y8801D02*
G01X20071Y8783D01*
G01X20071Y8783D02*
G01X20035Y8747D01*
G01X20035Y8747D02*
G01X20017Y8711D01*
G01X20017Y8711D02*
G01X20000Y8657D01*
G01X20000Y8657D02*
G01X20000Y8568D01*
G01X20000Y8568D02*
G01X20017Y8514D01*
G01X20017Y8514D02*
G01X20035Y8478D01*
G01X20035Y8478D02*
G01X20071Y8443D01*
G01X20071Y8443D02*
G01X20107Y8425D01*
G01X20178Y8425D02*
G01X20107Y8425D01*
G01X20214Y8443D02*
G01X20178Y8425D01*
G01X20250Y8478D02*
G01X20214Y8443D01*
G01X20268Y8514D02*
G01X20250Y8478D01*
G01X20447Y8801D02*
G01X20626Y8801D01*
G01X20447Y8801D02*
G01X20429Y8639D01*
G01X20447Y8657D02*
G01X20429Y8639D01*
G01X20501Y8675D02*
G01X20447Y8657D01*
G01X20554Y8675D02*
G01X20501Y8675D01*
G01X20554Y8675D02*
G01X20608Y8657D01*
G01X20608Y8657D02*
G01X20644Y8622D01*
G01X20644Y8622D02*
G01X20662Y8568D01*
G01X20662Y8568D02*
G01X20662Y8532D01*
G01X20662Y8532D02*
G01X20644Y8478D01*
G01X20644Y8478D02*
G01X20608Y8443D01*
G01X20608Y8443D02*
G01X20554Y8425D01*
G01X20501Y8425D02*
G01X20554Y8425D01*
G01X20447Y8443D02*
G01X20501Y8425D01*
G01X20429Y8460D02*
G01X20447Y8443D01*
G01X20411Y8496D02*
G01X20429Y8460D01*
G04 Draw part C6*
G04 draw part outline for part C6*
G54D10*
G01X15570Y11062D02*
G01X16909Y11062D01*
G01X16909Y11062D02*
G01X16909Y10354D01*
G01X16909Y10354D02*
G01X15570Y10354D01*
G01X15570Y10354D02*
G01X15570Y11062D01*
G04 draw reference designator for part C6*
G54D11*
G01X16156Y11503D02*
G01X16173Y11467D01*
G01X16120Y11539D02*
G01X16156Y11503D01*
G01X16084Y11556D02*
G01X16120Y11539D01*
G01X16012Y11556D02*
G01X16084Y11556D01*
G01X16012Y11556D02*
G01X15977Y11539D01*
G01X15977Y11539D02*
G01X15941Y11503D01*
G01X15941Y11503D02*
G01X15923Y11467D01*
G01X15923Y11467D02*
G01X15905Y11413D01*
G01X15905Y11413D02*
G01X15905Y11324D01*
G01X15905Y11324D02*
G01X15923Y11270D01*
G01X15923Y11270D02*
G01X15941Y11234D01*
G01X15941Y11234D02*
G01X15977Y11198D01*
G01X15977Y11198D02*
G01X16012Y11181D01*
G01X16084Y11181D02*
G01X16012Y11181D01*
G01X16120Y11198D02*
G01X16084Y11181D01*
G01X16156Y11234D02*
G01X16120Y11198D01*
G01X16173Y11270D02*
G01X16156Y11234D01*
G01X16513Y11539D02*
G01X16531Y11503D01*
G01X16460Y11556D02*
G01X16513Y11539D01*
G01X16424Y11556D02*
G01X16460Y11556D01*
G01X16424Y11556D02*
G01X16370Y11539D01*
G01X16370Y11539D02*
G01X16335Y11485D01*
G01X16335Y11485D02*
G01X16317Y11395D01*
G01X16317Y11395D02*
G01X16317Y11306D01*
G01X16317Y11306D02*
G01X16335Y11234D01*
G01X16335Y11234D02*
G01X16370Y11198D01*
G01X16370Y11198D02*
G01X16424Y11181D01*
G01X16442Y11181D02*
G01X16424Y11181D01*
G01X16496Y11198D02*
G01X16442Y11181D01*
G01X16531Y11234D02*
G01X16496Y11198D01*
G01X16549Y11288D02*
G01X16531Y11234D01*
G01X16549Y11306D02*
G01X16549Y11288D01*
G01X16531Y11360D02*
G01X16549Y11306D01*
G01X16496Y11395D02*
G01X16531Y11360D01*
G01X16442Y11413D02*
G01X16496Y11395D01*
G01X16424Y11413D02*
G01X16442Y11413D01*
G01X16424Y11413D02*
G01X16370Y11395D01*
G01X16370Y11395D02*
G01X16335Y11360D01*
G01X16335Y11360D02*
G01X16317Y11306D01*
G04 Draw part C7*
G04 draw part outline for part C7*
G54D10*
G01X18877Y6653D02*
G01X20216Y6653D01*
G01X20216Y6653D02*
G01X20216Y5944D01*
G01X20216Y5944D02*
G01X18877Y5944D01*
G01X18877Y5944D02*
G01X18877Y6653D01*
G04 draw reference designator for part C7*
G54D11*
G01X19463Y7093D02*
G01X19481Y7057D01*
G01X19427Y7129D02*
G01X19463Y7093D01*
G01X19391Y7147D02*
G01X19427Y7129D01*
G01X19319Y7147D02*
G01X19391Y7147D01*
G01X19319Y7147D02*
G01X19284Y7129D01*
G01X19284Y7129D02*
G01X19248Y7093D01*
G01X19248Y7093D02*
G01X19230Y7057D01*
G01X19230Y7057D02*
G01X19212Y7004D01*
G01X19212Y7004D02*
G01X19212Y6914D01*
G01X19212Y6914D02*
G01X19230Y6861D01*
G01X19230Y6861D02*
G01X19248Y6825D01*
G01X19248Y6825D02*
G01X19284Y6789D01*
G01X19284Y6789D02*
G01X19319Y6771D01*
G01X19391Y6771D02*
G01X19319Y6771D01*
G01X19427Y6789D02*
G01X19391Y6771D01*
G01X19463Y6825D02*
G01X19427Y6789D01*
G01X19481Y6861D02*
G01X19463Y6825D01*
G01X19874Y7147D02*
G01X19695Y6771D01*
G01X19874Y7147D02*
G01X19624Y7147D01*
G04 Draw part C8*
G04 draw part outline for part C8*
G54D10*
G01X14704Y4685D02*
G01X16043Y4685D01*
G01X16043Y4685D02*
G01X16043Y3976D01*
G01X16043Y3976D02*
G01X14704Y3976D01*
G01X14704Y3976D02*
G01X14704Y4685D01*
G04 draw reference designator for part C8*
G54D11*
G01X14108Y4416D02*
G01X14126Y4380D01*
G01X14073Y4452D02*
G01X14108Y4416D01*
G01X14037Y4470D02*
G01X14073Y4452D01*
G01X13965Y4470D02*
G01X14037Y4470D01*
G01X13965Y4470D02*
G01X13929Y4452D01*
G01X13929Y4452D02*
G01X13894Y4416D01*
G01X13894Y4416D02*
G01X13876Y4380D01*
G01X13876Y4380D02*
G01X13858Y4327D01*
G01X13858Y4327D02*
G01X13858Y4237D01*
G01X13858Y4237D02*
G01X13876Y4183D01*
G01X13876Y4183D02*
G01X13894Y4148D01*
G01X13894Y4148D02*
G01X13929Y4112D01*
G01X13929Y4112D02*
G01X13965Y4094D01*
G01X14037Y4094D02*
G01X13965Y4094D01*
G01X14073Y4112D02*
G01X14037Y4094D01*
G01X14108Y4148D02*
G01X14073Y4112D01*
G01X14126Y4183D02*
G01X14108Y4148D01*
G01X14359Y4470D02*
G01X14305Y4452D01*
G01X14305Y4452D02*
G01X14287Y4416D01*
G01X14287Y4416D02*
G01X14287Y4380D01*
G01X14287Y4380D02*
G01X14305Y4345D01*
G01X14305Y4345D02*
G01X14341Y4327D01*
G01X14341Y4327D02*
G01X14413Y4309D01*
G01X14413Y4309D02*
G01X14466Y4291D01*
G01X14466Y4291D02*
G01X14502Y4255D01*
G01X14502Y4255D02*
G01X14520Y4219D01*
G01X14520Y4219D02*
G01X14520Y4166D01*
G01X14520Y4166D02*
G01X14502Y4130D01*
G01X14502Y4130D02*
G01X14484Y4112D01*
G01X14484Y4112D02*
G01X14430Y4094D01*
G01X14359Y4094D02*
G01X14430Y4094D01*
G01X14305Y4112D02*
G01X14359Y4094D01*
G01X14287Y4130D02*
G01X14305Y4112D01*
G01X14269Y4166D02*
G01X14287Y4130D01*
G01X14269Y4219D02*
G01X14269Y4166D01*
G01X14287Y4255D02*
G01X14269Y4219D01*
G01X14323Y4291D02*
G01X14287Y4255D01*
G01X14377Y4309D02*
G01X14323Y4291D01*
G01X14448Y4327D02*
G01X14377Y4309D01*
G01X14484Y4345D02*
G01X14448Y4327D01*
G01X14502Y4380D02*
G01X14484Y4345D01*
G01X14502Y4416D02*
G01X14502Y4380D01*
G01X14484Y4452D02*
G01X14502Y4416D01*
G01X14430Y4470D02*
G01X14484Y4452D01*
G01X14359Y4470D02*
G01X14430Y4470D01*
G04 Draw part C9*
G04 draw part outline for part C9*
G54D10*
G01X11948Y8779D02*
G01X13287Y8779D01*
G01X13287Y8779D02*
G01X13287Y8070D01*
G01X13287Y8070D02*
G01X11948Y8070D01*
G01X11948Y8070D02*
G01X11948Y8779D01*
G04 draw reference designator for part C9*
G54D11*
G01X12534Y9219D02*
G01X12551Y9183D01*
G01X12498Y9255D02*
G01X12534Y9219D01*
G01X12462Y9273D02*
G01X12498Y9255D01*
G01X12390Y9273D02*
G01X12462Y9273D01*
G01X12390Y9273D02*
G01X12355Y9255D01*
G01X12355Y9255D02*
G01X12319Y9219D01*
G01X12319Y9219D02*
G01X12301Y9183D01*
G01X12301Y9183D02*
G01X12283Y9130D01*
G01X12283Y9130D02*
G01X12283Y9040D01*
G01X12283Y9040D02*
G01X12301Y8987D01*
G01X12301Y8987D02*
G01X12319Y8951D01*
G01X12319Y8951D02*
G01X12355Y8915D01*
G01X12355Y8915D02*
G01X12390Y8897D01*
G01X12462Y8897D02*
G01X12390Y8897D01*
G01X12498Y8915D02*
G01X12462Y8897D01*
G01X12534Y8951D02*
G01X12498Y8915D01*
G01X12551Y8987D02*
G01X12534Y8951D01*
G01X12927Y9148D02*
G01X12909Y9094D01*
G01X12909Y9094D02*
G01X12874Y9058D01*
G01X12874Y9058D02*
G01X12820Y9040D01*
G01X12802Y9040D02*
G01X12820Y9040D01*
G01X12748Y9058D02*
G01X12802Y9040D01*
G01X12712Y9094D02*
G01X12748Y9058D01*
G01X12695Y9148D02*
G01X12712Y9094D01*
G01X12695Y9166D02*
G01X12695Y9148D01*
G01X12712Y9219D02*
G01X12695Y9166D01*
G01X12748Y9255D02*
G01X12712Y9219D01*
G01X12802Y9273D02*
G01X12748Y9255D01*
G01X12820Y9273D02*
G01X12802Y9273D01*
G01X12820Y9273D02*
G01X12874Y9255D01*
G01X12874Y9255D02*
G01X12909Y9219D01*
G01X12909Y9219D02*
G01X12927Y9148D01*
G01X12927Y9148D02*
G01X12927Y9058D01*
G01X12927Y9058D02*
G01X12909Y8969D01*
G01X12909Y8969D02*
G01X12874Y8915D01*
G01X12874Y8915D02*
G01X12820Y8897D01*
G01X12784Y8897D02*
G01X12820Y8897D01*
G01X12730Y8915D02*
G01X12784Y8897D01*
G01X12712Y8951D02*
G01X12730Y8915D01*
G04 Draw part C10*
G04 draw part outline for part C10*
G54D10*
G01X10452Y9015D02*
G01X11791Y9015D01*
G01X11791Y9015D02*
G01X11791Y8307D01*
G01X11791Y8307D02*
G01X10452Y8307D01*
G01X10452Y8307D02*
G01X10452Y9015D01*
G04 draw reference designator for part C10*
G54D11*
G01X10959Y9455D02*
G01X10977Y9420D01*
G01X10923Y9491D02*
G01X10959Y9455D01*
G01X10887Y9509D02*
G01X10923Y9491D01*
G01X10816Y9509D02*
G01X10887Y9509D01*
G01X10816Y9509D02*
G01X10780Y9491D01*
G01X10780Y9491D02*
G01X10744Y9455D01*
G01X10744Y9455D02*
G01X10726Y9420D01*
G01X10726Y9420D02*
G01X10708Y9366D01*
G01X10708Y9366D02*
G01X10708Y9277D01*
G01X10708Y9277D02*
G01X10726Y9223D01*
G01X10726Y9223D02*
G01X10744Y9187D01*
G01X10744Y9187D02*
G01X10780Y9151D01*
G01X10780Y9151D02*
G01X10816Y9133D01*
G01X10887Y9133D02*
G01X10816Y9133D01*
G01X10923Y9151D02*
G01X10887Y9133D01*
G01X10959Y9187D02*
G01X10923Y9151D01*
G01X10977Y9223D02*
G01X10959Y9187D01*
G01X11156Y9455D02*
G01X11120Y9438D01*
G01X11209Y9509D02*
G01X11156Y9455D01*
G01X11209Y9509D02*
G01X11209Y9133D01*
G01X11460Y9509D02*
G01X11406Y9491D01*
G01X11406Y9491D02*
G01X11370Y9438D01*
G01X11370Y9438D02*
G01X11352Y9348D01*
G01X11352Y9348D02*
G01X11352Y9294D01*
G01X11352Y9294D02*
G01X11370Y9205D01*
G01X11370Y9205D02*
G01X11406Y9151D01*
G01X11406Y9151D02*
G01X11460Y9133D01*
G01X11496Y9133D02*
G01X11460Y9133D01*
G01X11549Y9151D02*
G01X11496Y9133D01*
G01X11585Y9205D02*
G01X11549Y9151D01*
G01X11603Y9294D02*
G01X11585Y9205D01*
G01X11603Y9348D02*
G01X11603Y9294D01*
G01X11585Y9438D02*
G01X11603Y9348D01*
G01X11549Y9491D02*
G01X11585Y9438D01*
G01X11496Y9509D02*
G01X11549Y9491D01*
G01X11460Y9509D02*
G01X11496Y9509D01*
G04 Draw part C11*
G04 draw part outline for part C11*
G54D10*
G01X10452Y7283D02*
G01X11791Y7283D01*
G01X11791Y7283D02*
G01X11791Y6574D01*
G01X11791Y6574D02*
G01X10452Y6574D01*
G01X10452Y6574D02*
G01X10452Y7283D01*
G04 draw reference designator for part C11*
G54D11*
G01X10959Y7723D02*
G01X10977Y7687D01*
G01X10923Y7759D02*
G01X10959Y7723D01*
G01X10887Y7777D02*
G01X10923Y7759D01*
G01X10816Y7777D02*
G01X10887Y7777D01*
G01X10816Y7777D02*
G01X10780Y7759D01*
G01X10780Y7759D02*
G01X10744Y7723D01*
G01X10744Y7723D02*
G01X10726Y7687D01*
G01X10726Y7687D02*
G01X10708Y7634D01*
G01X10708Y7634D02*
G01X10708Y7544D01*
G01X10708Y7544D02*
G01X10726Y7491D01*
G01X10726Y7491D02*
G01X10744Y7455D01*
G01X10744Y7455D02*
G01X10780Y7419D01*
G01X10780Y7419D02*
G01X10816Y7401D01*
G01X10887Y7401D02*
G01X10816Y7401D01*
G01X10923Y7419D02*
G01X10887Y7401D01*
G01X10959Y7455D02*
G01X10923Y7419D01*
G01X10977Y7491D02*
G01X10959Y7455D01*
G01X11156Y7723D02*
G01X11120Y7705D01*
G01X11209Y7777D02*
G01X11156Y7723D01*
G01X11209Y7777D02*
G01X11209Y7401D01*
G01X11388Y7723D02*
G01X11352Y7705D01*
G01X11442Y7777D02*
G01X11388Y7723D01*
G01X11442Y7777D02*
G01X11442Y7401D01*
G04 Draw part U1*
G04 draw part outline for part U1*
G54D10*
G01X27322Y5314D02*
G01X27322Y10826D01*
G01X27322Y10826D02*
G01X21811Y10826D01*
G01X21811Y10826D02*
G01X21811Y5314D01*
G01X21811Y5314D02*
G01X27322Y5314D01*
G54D12*
G01X26929Y5866D02*
G01X26928Y5845D01*
G01X26925Y5825D01*
G01X26921Y5805D01*
G01X26914Y5785D01*
G01X26907Y5766D01*
G01X26897Y5748D01*
G01X26886Y5730D01*
G01X26873Y5714D01*
G01X26859Y5699D01*
G01X26844Y5685D01*
G01X26828Y5672D01*
G01X26811Y5661D01*
G01X26792Y5652D01*
G01X26773Y5644D01*
G01X26754Y5637D01*
G01X26733Y5633D01*
G01X26713Y5630D01*
G01X26692Y5629D01*
G01X26692Y5629D02*
G01X26672Y5630D01*
G01X26651Y5633D01*
G01X26631Y5637D01*
G01X26612Y5644D01*
G01X26593Y5652D01*
G01X26574Y5661D01*
G01X26557Y5672D01*
G01X26541Y5685D01*
G01X26525Y5699D01*
G01X26511Y5714D01*
G01X26499Y5730D01*
G01X26488Y5748D01*
G01X26478Y5766D01*
G01X26470Y5785D01*
G01X26464Y5805D01*
G01X26460Y5825D01*
G01X26457Y5845D01*
G01X26456Y5866D01*
G01X26456Y5866D02*
G01X26457Y5886D01*
G01X26460Y5907D01*
G01X26464Y5927D01*
G01X26470Y5946D01*
G01X26478Y5965D01*
G01X26488Y5984D01*
G01X26499Y6001D01*
G01X26511Y6017D01*
G01X26525Y6033D01*
G01X26541Y6047D01*
G01X26557Y6059D01*
G01X26574Y6070D01*
G01X26593Y6080D01*
G01X26612Y6088D01*
G01X26631Y6094D01*
G01X26651Y6098D01*
G01X26672Y6101D01*
G01X26692Y6102D01*
G01X26692Y6102D02*
G01X26713Y6101D01*
G01X26733Y6098D01*
G01X26754Y6094D01*
G01X26773Y6088D01*
G01X26792Y6080D01*
G01X26811Y6070D01*
G01X26828Y6059D01*
G01X26844Y6047D01*
G01X26859Y6033D01*
G01X26873Y6017D01*
G01X26886Y6001D01*
G01X26897Y5984D01*
G01X26907Y5965D01*
G01X26914Y5946D01*
G01X26921Y5927D01*
G01X26925Y5907D01*
G01X26928Y5886D01*
G01X26929Y5866D01*
G04 draw reference designator for part U1*
G54D11*
G01X24370Y8351D02*
G01X24370Y8010D01*
G01X24370Y8010D02*
G01X24392Y7942D01*
G01X24392Y7942D02*
G01X24438Y7896D01*
G01X24438Y7896D02*
G01X24506Y7874D01*
G01X24551Y7874D02*
G01X24506Y7874D01*
G01X24620Y7896D02*
G01X24551Y7874D01*
G01X24665Y7942D02*
G01X24620Y7896D01*
G01X24688Y8010D02*
G01X24665Y7942D01*
G01X24688Y8351D02*
G01X24688Y8010D01*
G01X24915Y8283D02*
G01X24870Y8260D01*
G01X24983Y8351D02*
G01X24915Y8283D01*
G01X24983Y8351D02*
G01X24983Y7874D01*
G04 Draw part X1*
G04 draw part outline for part X1*
G54D12*
G01X31653Y5137D02*
G01X29763Y5137D01*
G01X29763Y5137D02*
G01X29763Y9625D01*
G01X29763Y9625D02*
G01X31653Y9625D01*
G01X31653Y9625D02*
G01X31653Y5137D01*
G04 draw reference designator for part X1*
G54D13*
G01X30236Y7759D02*
G01X30737Y7007D01*
G01X30737Y7759D02*
G01X30236Y7007D01*
G01X31095Y7652D02*
G01X31023Y7616D01*
G01X31202Y7759D02*
G01X31095Y7652D01*
G01X31202Y7759D02*
G01X31202Y7007D01*
G04 Draw part C18*
G04 draw part outline for part C18*
G54D10*
G01X28169Y7677D02*
G01X29507Y7677D01*
G01X29507Y7677D02*
G01X29507Y6968D01*
G01X29507Y6968D02*
G01X28169Y6968D01*
G01X28169Y6968D02*
G01X28169Y7677D01*
G04 draw reference designator for part C18*
G54D11*
G01X28704Y8052D02*
G01X28718Y8024D01*
G01X28675Y8081D02*
G01X28704Y8052D01*
G01X28647Y8095D02*
G01X28675Y8081D01*
G01X28589Y8095D02*
G01X28647Y8095D01*
G01X28589Y8095D02*
G01X28561Y8081D01*
G01X28561Y8081D02*
G01X28532Y8052D01*
G01X28532Y8052D02*
G01X28518Y8024D01*
G01X28518Y8024D02*
G01X28503Y7981D01*
G01X28503Y7981D02*
G01X28503Y7909D01*
G01X28503Y7909D02*
G01X28518Y7866D01*
G01X28518Y7866D02*
G01X28532Y7838D01*
G01X28532Y7838D02*
G01X28561Y7809D01*
G01X28561Y7809D02*
G01X28589Y7795D01*
G01X28647Y7795D02*
G01X28589Y7795D01*
G01X28675Y7809D02*
G01X28647Y7795D01*
G01X28704Y7838D02*
G01X28675Y7809D01*
G01X28718Y7866D02*
G01X28704Y7838D01*
G01X28861Y8052D02*
G01X28833Y8038D01*
G01X28904Y8095D02*
G01X28861Y8052D01*
G01X28904Y8095D02*
G01X28904Y7795D01*
G01X29090Y8095D02*
G01X29047Y8081D01*
G01X29047Y8081D02*
G01X29033Y8052D01*
G01X29033Y8052D02*
G01X29033Y8024D01*
G01X29033Y8024D02*
G01X29047Y7995D01*
G01X29047Y7995D02*
G01X29076Y7981D01*
G01X29076Y7981D02*
G01X29133Y7967D01*
G01X29133Y7967D02*
G01X29176Y7952D01*
G01X29176Y7952D02*
G01X29205Y7924D01*
G01X29205Y7924D02*
G01X29219Y7895D01*
G01X29219Y7895D02*
G01X29219Y7852D01*
G01X29219Y7852D02*
G01X29205Y7823D01*
G01X29205Y7823D02*
G01X29191Y7809D01*
G01X29191Y7809D02*
G01X29148Y7795D01*
G01X29090Y7795D02*
G01X29148Y7795D01*
G01X29047Y7809D02*
G01X29090Y7795D01*
G01X29033Y7823D02*
G01X29047Y7809D01*
G01X29019Y7852D02*
G01X29033Y7823D01*
G01X29019Y7895D02*
G01X29019Y7852D01*
G01X29033Y7924D02*
G01X29019Y7895D01*
G01X29062Y7952D02*
G01X29033Y7924D01*
G01X29105Y7967D02*
G01X29062Y7952D01*
G01X29162Y7981D02*
G01X29105Y7967D01*
G01X29191Y7995D02*
G01X29162Y7981D01*
G01X29205Y8024D02*
G01X29191Y7995D01*
G01X29205Y8052D02*
G01X29205Y8024D01*
G01X29191Y8081D02*
G01X29205Y8052D01*
G01X29148Y8095D02*
G01X29191Y8081D01*
G01X29090Y8095D02*
G01X29148Y8095D01*
G04 Draw part C19*
G04 draw part outline for part C19*
G54D10*
G01X28169Y6417D02*
G01X29507Y6417D01*
G01X29507Y6417D02*
G01X29507Y5708D01*
G01X29507Y5708D02*
G01X28169Y5708D01*
G01X28169Y5708D02*
G01X28169Y6417D01*
G04 draw reference designator for part C19*
G54D11*
G01X28704Y6793D02*
G01X28718Y6764D01*
G01X28675Y6821D02*
G01X28704Y6793D01*
G01X28647Y6836D02*
G01X28675Y6821D01*
G01X28589Y6836D02*
G01X28647Y6836D01*
G01X28589Y6836D02*
G01X28561Y6821D01*
G01X28561Y6821D02*
G01X28532Y6793D01*
G01X28532Y6793D02*
G01X28518Y6764D01*
G01X28518Y6764D02*
G01X28503Y6721D01*
G01X28503Y6721D02*
G01X28503Y6649D01*
G01X28503Y6649D02*
G01X28518Y6607D01*
G01X28518Y6607D02*
G01X28532Y6578D01*
G01X28532Y6578D02*
G01X28561Y6549D01*
G01X28561Y6549D02*
G01X28589Y6535D01*
G01X28647Y6535D02*
G01X28589Y6535D01*
G01X28675Y6549D02*
G01X28647Y6535D01*
G01X28704Y6578D02*
G01X28675Y6549D01*
G01X28718Y6607D02*
G01X28704Y6578D01*
G01X28861Y6793D02*
G01X28833Y6778D01*
G01X28904Y6836D02*
G01X28861Y6793D01*
G01X28904Y6836D02*
G01X28904Y6535D01*
G01X29205Y6735D02*
G01X29191Y6692D01*
G01X29191Y6692D02*
G01X29162Y6664D01*
G01X29162Y6664D02*
G01X29119Y6649D01*
G01X29105Y6649D02*
G01X29119Y6649D01*
G01X29062Y6664D02*
G01X29105Y6649D01*
G01X29033Y6692D02*
G01X29062Y6664D01*
G01X29019Y6735D02*
G01X29033Y6692D01*
G01X29019Y6750D02*
G01X29019Y6735D01*
G01X29033Y6793D02*
G01X29019Y6750D01*
G01X29062Y6821D02*
G01X29033Y6793D01*
G01X29105Y6836D02*
G01X29062Y6821D01*
G01X29119Y6836D02*
G01X29105Y6836D01*
G01X29119Y6836D02*
G01X29162Y6821D01*
G01X29162Y6821D02*
G01X29191Y6793D01*
G01X29191Y6793D02*
G01X29205Y6735D01*
G01X29205Y6735D02*
G01X29205Y6664D01*
G01X29205Y6664D02*
G01X29191Y6592D01*
G01X29191Y6592D02*
G01X29162Y6549D01*
G01X29162Y6549D02*
G01X29119Y6535D01*
G01X29090Y6535D02*
G01X29119Y6535D01*
G01X29047Y6549D02*
G01X29090Y6535D01*
G01X29033Y6578D02*
G01X29047Y6549D01*
G04 Draw part R1*
G04 draw part outline for part R1*
G54D10*
G01X28169Y11141D02*
G01X29507Y11141D01*
G01X29507Y11141D02*
G01X29507Y10433D01*
G01X29507Y10433D02*
G01X28169Y10433D01*
G01X28169Y10433D02*
G01X28169Y11141D01*
G04 draw reference designator for part R1*
G54D11*
G01X28582Y11635D02*
G01X28582Y11259D01*
G01X28743Y11635D02*
G01X28582Y11635D01*
G01X28743Y11635D02*
G01X28797Y11617D01*
G01X28797Y11617D02*
G01X28815Y11599D01*
G01X28815Y11599D02*
G01X28833Y11564D01*
G01X28833Y11564D02*
G01X28833Y11528D01*
G01X28833Y11528D02*
G01X28815Y11492D01*
G01X28815Y11492D02*
G01X28797Y11474D01*
G01X28797Y11474D02*
G01X28743Y11456D01*
G01X28582Y11456D02*
G01X28743Y11456D01*
G01X28707Y11456D02*
G01X28833Y11259D01*
G01X29012Y11581D02*
G01X28976Y11564D01*
G01X29065Y11635D02*
G01X29012Y11581D01*
G01X29065Y11635D02*
G01X29065Y11259D01*
G04 Draw part C12*
G04 draw part outline for part C12*
G54D10*
G01X3523Y10708D02*
G01X4862Y10708D01*
G01X4862Y10708D02*
G01X4862Y10000D01*
G01X4862Y10000D02*
G01X3523Y10000D01*
G01X3523Y10000D02*
G01X3523Y10708D01*
G04 draw reference designator for part C12*
G54D11*
G01X2956Y10572D02*
G01X2970Y10544D01*
G01X2927Y10601D02*
G01X2956Y10572D01*
G01X2899Y10615D02*
G01X2927Y10601D01*
G01X2841Y10615D02*
G01X2899Y10615D01*
G01X2841Y10615D02*
G01X2813Y10601D01*
G01X2813Y10601D02*
G01X2784Y10572D01*
G01X2784Y10572D02*
G01X2770Y10544D01*
G01X2770Y10544D02*
G01X2755Y10501D01*
G01X2755Y10501D02*
G01X2755Y10429D01*
G01X2755Y10429D02*
G01X2770Y10386D01*
G01X2770Y10386D02*
G01X2784Y10357D01*
G01X2784Y10357D02*
G01X2813Y10329D01*
G01X2813Y10329D02*
G01X2841Y10314D01*
G01X2899Y10314D02*
G01X2841Y10314D01*
G01X2927Y10329D02*
G01X2899Y10314D01*
G01X2956Y10357D02*
G01X2927Y10329D01*
G01X2970Y10386D02*
G01X2956Y10357D01*
G01X3113Y10572D02*
G01X3085Y10558D01*
G01X3156Y10615D02*
G01X3113Y10572D01*
G01X3156Y10615D02*
G01X3156Y10314D01*
G01X3285Y10558D02*
G01X3285Y10544D01*
G01X3299Y10586D02*
G01X3285Y10558D01*
G01X3314Y10601D02*
G01X3299Y10586D01*
G01X3342Y10615D02*
G01X3314Y10601D01*
G01X3400Y10615D02*
G01X3342Y10615D01*
G01X3400Y10615D02*
G01X3428Y10601D01*
G01X3428Y10601D02*
G01X3443Y10586D01*
G01X3443Y10586D02*
G01X3457Y10558D01*
G01X3457Y10558D02*
G01X3457Y10529D01*
G01X3457Y10529D02*
G01X3443Y10501D01*
G01X3443Y10501D02*
G01X3414Y10458D01*
G01X3414Y10458D02*
G01X3271Y10314D01*
G01X3471Y10314D02*
G01X3271Y10314D01*
G04 Draw part C13*
G04 draw part outline for part C13*
G54D10*
G01X3523Y11771D02*
G01X4862Y11771D01*
G01X4862Y11771D02*
G01X4862Y11062D01*
G01X4862Y11062D02*
G01X3523Y11062D01*
G01X3523Y11062D02*
G01X3523Y11771D01*
G04 draw reference designator for part C13*
G54D11*
G01X2956Y11596D02*
G01X2970Y11567D01*
G01X2927Y11624D02*
G01X2956Y11596D01*
G01X2899Y11639D02*
G01X2927Y11624D01*
G01X2841Y11639D02*
G01X2899Y11639D01*
G01X2841Y11639D02*
G01X2813Y11624D01*
G01X2813Y11624D02*
G01X2784Y11596D01*
G01X2784Y11596D02*
G01X2770Y11567D01*
G01X2770Y11567D02*
G01X2755Y11524D01*
G01X2755Y11524D02*
G01X2755Y11453D01*
G01X2755Y11453D02*
G01X2770Y11410D01*
G01X2770Y11410D02*
G01X2784Y11381D01*
G01X2784Y11381D02*
G01X2813Y11352D01*
G01X2813Y11352D02*
G01X2841Y11338D01*
G01X2899Y11338D02*
G01X2841Y11338D01*
G01X2927Y11352D02*
G01X2899Y11338D01*
G01X2956Y11381D02*
G01X2927Y11352D01*
G01X2970Y11410D02*
G01X2956Y11381D01*
G01X3113Y11596D02*
G01X3085Y11581D01*
G01X3156Y11639D02*
G01X3113Y11596D01*
G01X3156Y11639D02*
G01X3156Y11338D01*
G01X3457Y11639D02*
G01X3299Y11639D01*
G01X3457Y11639D02*
G01X3371Y11524D01*
G01X3414Y11524D02*
G01X3371Y11524D01*
G01X3414Y11524D02*
G01X3443Y11510D01*
G01X3443Y11510D02*
G01X3457Y11496D01*
G01X3457Y11496D02*
G01X3471Y11453D01*
G01X3471Y11453D02*
G01X3471Y11424D01*
G01X3471Y11424D02*
G01X3457Y11381D01*
G01X3457Y11381D02*
G01X3428Y11352D01*
G01X3428Y11352D02*
G01X3385Y11338D01*
G01X3342Y11338D02*
G01X3385Y11338D01*
G01X3299Y11352D02*
G01X3342Y11338D01*
G01X3285Y11367D02*
G01X3299Y11352D01*
G01X3271Y11395D02*
G01X3285Y11367D01*
G04 Draw part U2*
G04 draw part outline for part U2*
G54D10*
G01X18090Y5610D02*
G01X18090Y9547D01*
G01X18090Y9547D02*
G01X14153Y9547D01*
G01X14153Y9547D02*
G01X14153Y5610D01*
G01X14153Y5610D02*
G01X18090Y5610D01*
G54D12*
G01X17677Y6181D02*
G01X17676Y6160D01*
G01X17673Y6140D01*
G01X17669Y6119D01*
G01X17662Y6100D01*
G01X17655Y6081D01*
G01X17645Y6062D01*
G01X17634Y6045D01*
G01X17621Y6029D01*
G01X17607Y6014D01*
G01X17592Y6000D01*
G01X17576Y5987D01*
G01X17559Y5976D01*
G01X17540Y5967D01*
G01X17521Y5959D01*
G01X17502Y5952D01*
G01X17481Y5948D01*
G01X17461Y5945D01*
G01X17440Y5944D01*
G01X17440Y5944D02*
G01X17420Y5945D01*
G01X17399Y5948D01*
G01X17379Y5952D01*
G01X17360Y5959D01*
G01X17341Y5967D01*
G01X17322Y5976D01*
G01X17305Y5987D01*
G01X17289Y6000D01*
G01X17273Y6014D01*
G01X17259Y6029D01*
G01X17247Y6045D01*
G01X17236Y6062D01*
G01X17226Y6081D01*
G01X17218Y6100D01*
G01X17212Y6119D01*
G01X17208Y6140D01*
G01X17205Y6160D01*
G01X17204Y6181D01*
G01X17204Y6181D02*
G01X17205Y6201D01*
G01X17208Y6222D01*
G01X17212Y6242D01*
G01X17218Y6261D01*
G01X17226Y6280D01*
G01X17236Y6299D01*
G01X17247Y6316D01*
G01X17259Y6332D01*
G01X17273Y6348D01*
G01X17289Y6362D01*
G01X17305Y6374D01*
G01X17322Y6385D01*
G01X17341Y6395D01*
G01X17360Y6403D01*
G01X17379Y6409D01*
G01X17399Y6413D01*
G01X17420Y6416D01*
G01X17440Y6417D01*
G01X17440Y6417D02*
G01X17461Y6416D01*
G01X17481Y6413D01*
G01X17502Y6409D01*
G01X17521Y6403D01*
G01X17540Y6395D01*
G01X17559Y6385D01*
G01X17576Y6374D01*
G01X17592Y6362D01*
G01X17607Y6348D01*
G01X17621Y6332D01*
G01X17634Y6316D01*
G01X17645Y6299D01*
G01X17655Y6280D01*
G01X17662Y6261D01*
G01X17669Y6242D01*
G01X17673Y6222D01*
G01X17676Y6201D01*
G01X17677Y6181D01*
G04 draw reference designator for part U2*
G54D11*
G01X15629Y7760D02*
G01X15629Y7419D01*
G01X15629Y7419D02*
G01X15652Y7351D01*
G01X15652Y7351D02*
G01X15698Y7306D01*
G01X15698Y7306D02*
G01X15766Y7283D01*
G01X15811Y7283D02*
G01X15766Y7283D01*
G01X15879Y7306D02*
G01X15811Y7283D01*
G01X15925Y7351D02*
G01X15879Y7306D01*
G01X15948Y7419D02*
G01X15925Y7351D01*
G01X15948Y7760D02*
G01X15948Y7419D01*
G01X16152Y7669D02*
G01X16152Y7647D01*
G01X16175Y7715D02*
G01X16152Y7669D01*
G01X16198Y7738D02*
G01X16175Y7715D01*
G01X16243Y7760D02*
G01X16198Y7738D01*
G01X16334Y7760D02*
G01X16243Y7760D01*
G01X16334Y7760D02*
G01X16379Y7738D01*
G01X16379Y7738D02*
G01X16402Y7715D01*
G01X16402Y7715D02*
G01X16425Y7669D01*
G01X16425Y7669D02*
G01X16425Y7624D01*
G01X16425Y7624D02*
G01X16402Y7578D01*
G01X16402Y7578D02*
G01X16357Y7510D01*
G01X16357Y7510D02*
G01X16129Y7283D01*
G01X16448Y7283D02*
G01X16129Y7283D01*
G04 Draw part U3*
G04 draw part outline for part U3*
G54D10*
G01X2303Y9173D02*
G01X2303Y4409D01*
G01X2303Y4409D02*
G01X9586Y4409D01*
G01X9586Y4409D02*
G01X9586Y9173D01*
G01X9586Y9173D02*
G01X2303Y9173D01*
G54D12*
G01X2755Y8897D02*
G01X2735Y8896D01*
G01X2714Y8894D01*
G01X2694Y8889D01*
G01X2675Y8883D01*
G01X2656Y8875D01*
G01X2637Y8865D01*
G01X2620Y8854D01*
G01X2604Y8842D01*
G01X2588Y8828D01*
G01X2574Y8813D01*
G01X2562Y8796D01*
G01X2551Y8779D01*
G01X2541Y8761D01*
G01X2533Y8742D01*
G01X2527Y8722D01*
G01X2523Y8702D01*
G01X2520Y8682D01*
G01X2519Y8661D01*
G01X2519Y8661D02*
G01X2520Y8640D01*
G01X2523Y8620D01*
G01X2527Y8600D01*
G01X2533Y8580D01*
G01X2541Y8561D01*
G01X2551Y8543D01*
G01X2562Y8525D01*
G01X2574Y8509D01*
G01X2588Y8494D01*
G01X2604Y8480D01*
G01X2620Y8467D01*
G01X2637Y8456D01*
G01X2656Y8447D01*
G01X2675Y8439D01*
G01X2694Y8433D01*
G01X2714Y8428D01*
G01X2735Y8426D01*
G01X2755Y8425D01*
G01X2755Y8425D02*
G01X2776Y8426D01*
G01X2796Y8428D01*
G01X2817Y8433D01*
G01X2836Y8439D01*
G01X2855Y8447D01*
G01X2874Y8456D01*
G01X2891Y8467D01*
G01X2907Y8480D01*
G01X2922Y8494D01*
G01X2936Y8509D01*
G01X2949Y8525D01*
G01X2960Y8543D01*
G01X2969Y8561D01*
G01X2977Y8580D01*
G01X2984Y8600D01*
G01X2988Y8620D01*
G01X2991Y8640D01*
G01X2992Y8661D01*
G01X2992Y8661D02*
G01X2991Y8682D01*
G01X2988Y8702D01*
G01X2984Y8722D01*
G01X2977Y8742D01*
G01X2969Y8761D01*
G01X2960Y8779D01*
G01X2949Y8796D01*
G01X2936Y8813D01*
G01X2922Y8828D01*
G01X2907Y8842D01*
G01X2891Y8854D01*
G01X2874Y8865D01*
G01X2855Y8875D01*
G01X2836Y8883D01*
G01X2817Y8889D01*
G01X2796Y8894D01*
G01X2776Y8896D01*
G01X2755Y8897D01*
G04 draw reference designator for part U3*
G54D11*
G01X5393Y7170D02*
G01X5393Y6829D01*
G01X5393Y6829D02*
G01X5416Y6761D01*
G01X5416Y6761D02*
G01X5461Y6715D01*
G01X5461Y6715D02*
G01X5530Y6692D01*
G01X5575Y6692D02*
G01X5530Y6692D01*
G01X5643Y6715D02*
G01X5575Y6692D01*
G01X5689Y6761D02*
G01X5643Y6715D01*
G01X5711Y6829D02*
G01X5689Y6761D01*
G01X5711Y7170D02*
G01X5711Y6829D01*
G01X6189Y7170D02*
G01X5939Y7170D01*
G01X6189Y7170D02*
G01X6052Y6988D01*
G01X6120Y6988D02*
G01X6052Y6988D01*
G01X6120Y6988D02*
G01X6166Y6965D01*
G01X6166Y6965D02*
G01X6189Y6942D01*
G01X6189Y6942D02*
G01X6211Y6874D01*
G01X6211Y6874D02*
G01X6211Y6829D01*
G01X6211Y6829D02*
G01X6189Y6761D01*
G01X6189Y6761D02*
G01X6143Y6715D01*
G01X6143Y6715D02*
G01X6075Y6692D01*
G01X6007Y6692D02*
G01X6075Y6692D01*
G01X5939Y6715D02*
G01X6007Y6692D01*
G01X5916Y6738D02*
G01X5939Y6715D01*
G01X5893Y6783D02*
G01X5916Y6738D01*
G04 Draw part U4*
G04 draw part outline for part U4*
G54D10*
G01X5629Y11702D02*
G01X5629Y10521D01*
G01X5629Y10521D02*
G01X6811Y10521D01*
G01X6811Y10521D02*
G01X6811Y11702D01*
G01X6811Y11702D02*
G01X5629Y11702D01*
G54D12*
G01X5748Y11417D02*
G01X5748Y11431D01*
G01X5750Y11444D01*
G01X5753Y11458D01*
G01X5757Y11471D01*
G01X5762Y11483D01*
G01X5769Y11496D01*
G01X5776Y11507D01*
G01X5784Y11518D01*
G01X5794Y11528D01*
G01X5804Y11537D01*
G01X5815Y11546D01*
G01X5826Y11553D01*
G01X5838Y11560D01*
G01X5851Y11565D01*
G01X5864Y11569D01*
G01X5878Y11572D01*
G01X5891Y11574D01*
G01X5905Y11574D01*
G01X5905Y11574D02*
G01X5919Y11574D01*
G01X5932Y11572D01*
G01X5946Y11569D01*
G01X5959Y11565D01*
G01X5972Y11560D01*
G01X5984Y11553D01*
G01X5995Y11546D01*
G01X6006Y11537D01*
G01X6016Y11528D01*
G01X6026Y11518D01*
G01X6034Y11507D01*
G01X6041Y11496D01*
G01X6048Y11483D01*
G01X6053Y11471D01*
G01X6057Y11458D01*
G01X6060Y11444D01*
G01X6062Y11431D01*
G01X6062Y11417D01*
G01X6062Y11417D02*
G01X6062Y11403D01*
G01X6060Y11389D01*
G01X6057Y11376D01*
G01X6053Y11363D01*
G01X6048Y11350D01*
G01X6041Y11338D01*
G01X6034Y11326D01*
G01X6026Y11316D01*
G01X6016Y11305D01*
G01X6006Y11296D01*
G01X5995Y11288D01*
G01X5984Y11280D01*
G01X5972Y11274D01*
G01X5959Y11269D01*
G01X5946Y11265D01*
G01X5932Y11262D01*
G01X5919Y11260D01*
G01X5905Y11259D01*
G01X5905Y11259D02*
G01X5891Y11260D01*
G01X5878Y11262D01*
G01X5864Y11265D01*
G01X5851Y11269D01*
G01X5838Y11274D01*
G01X5826Y11280D01*
G01X5815Y11288D01*
G01X5804Y11296D01*
G01X5794Y11305D01*
G01X5784Y11316D01*
G01X5776Y11326D01*
G01X5769Y11338D01*
G01X5762Y11350D01*
G01X5757Y11363D01*
G01X5753Y11376D01*
G01X5750Y11389D01*
G01X5748Y11403D01*
G01X5748Y11417D01*
G04 draw reference designator for part U4*
G54D11*
G01X5944Y12072D02*
G01X5944Y11857D01*
G01X5944Y11857D02*
G01X5959Y11814D01*
G01X5959Y11814D02*
G01X5987Y11785D01*
G01X5987Y11785D02*
G01X6030Y11771D01*
G01X6059Y11771D02*
G01X6030Y11771D01*
G01X6102Y11785D02*
G01X6059Y11771D01*
G01X6130Y11814D02*
G01X6102Y11785D01*
G01X6145Y11857D02*
G01X6130Y11814D01*
G01X6145Y12072D02*
G01X6145Y11857D01*
G01X6403Y12072D02*
G01X6259Y11871D01*
G01X6474Y11871D02*
G01X6259Y11871D01*
G01X6403Y12072D02*
G01X6403Y11771D01*
G04 Draw part L1*
G04 draw part outline for part L1*
G54D10*
G01X8464Y13287D02*
G01X8464Y11791D01*
G01X8464Y11791D02*
G01X7598Y11791D01*
G01X7598Y11791D02*
G01X7598Y13287D01*
G01X7598Y13287D02*
G01X8464Y13287D01*
G04 draw reference designator for part L1*
G54D11*
G01X7795Y13761D02*
G01X7795Y13385D01*
G01X8010Y13385D02*
G01X7795Y13385D01*
G01X8188Y13707D02*
G01X8153Y13690D01*
G01X8242Y13761D02*
G01X8188Y13707D01*
G01X8242Y13761D02*
G01X8242Y13385D01*
G04 Draw part J1*
G04 draw part outline for part J1*
G54D12*
G01X6338Y12165D02*
G01X1141Y12165D01*
G01X1141Y12165D02*
G01X1141Y17755D01*
G01X1141Y17755D02*
G01X6338Y17755D01*
G01X6338Y17755D02*
G01X6338Y12165D01*
G04 draw reference designator for part J1*
G54D13*
G01X3586Y14216D02*
G01X3586Y13643D01*
G01X3586Y13643D02*
G01X3550Y13536D01*
G01X3550Y13536D02*
G01X3514Y13500D01*
G01X3514Y13500D02*
G01X3443Y13464D01*
G01X3371Y13464D02*
G01X3443Y13464D01*
G01X3299Y13500D02*
G01X3371Y13464D01*
G01X3264Y13536D02*
G01X3299Y13500D01*
G01X3228Y13643D02*
G01X3264Y13536D01*
G01X3228Y13715D02*
G01X3228Y13643D01*
G01X3944Y14108D02*
G01X3872Y14073D01*
G01X4051Y14216D02*
G01X3944Y14108D01*
G01X4051Y14216D02*
G01X4051Y13464D01*
G04 Draw part J2*
G04 draw part outline for part J2*
G54D12*
G01X31141Y12165D02*
G01X25944Y12165D01*
G01X25944Y12165D02*
G01X25944Y17755D01*
G01X25944Y17755D02*
G01X31141Y17755D01*
G01X31141Y17755D02*
G01X31141Y12165D01*
G04 draw reference designator for part J2*
G54D13*
G01X28310Y14216D02*
G01X28310Y13643D01*
G01X28310Y13643D02*
G01X28274Y13536D01*
G01X28274Y13536D02*
G01X28239Y13500D01*
G01X28239Y13500D02*
G01X28167Y13464D01*
G01X28095Y13464D02*
G01X28167Y13464D01*
G01X28024Y13500D02*
G01X28095Y13464D01*
G01X27988Y13536D02*
G01X28024Y13500D01*
G01X27952Y13643D02*
G01X27988Y13536D01*
G01X27952Y13715D02*
G01X27952Y13643D01*
G01X28632Y14073D02*
G01X28632Y14037D01*
G01X28668Y14144D02*
G01X28632Y14073D01*
G01X28704Y14180D02*
G01X28668Y14144D01*
G01X28775Y14216D02*
G01X28704Y14180D01*
G01X28919Y14216D02*
G01X28775Y14216D01*
G01X28919Y14216D02*
G01X28990Y14180D01*
G01X28990Y14180D02*
G01X29026Y14144D01*
G01X29026Y14144D02*
G01X29062Y14073D01*
G01X29062Y14073D02*
G01X29062Y14001D01*
G01X29062Y14001D02*
G01X29026Y13929D01*
G01X29026Y13929D02*
G01X28954Y13822D01*
G01X28954Y13822D02*
G01X28596Y13464D01*
G01X29098Y13464D02*
G01X28596Y13464D01*
G04 Draw part J3*
G04 draw part outline for part J3*
G54D12*
G01X18110Y11988D02*
G01X14173Y11988D01*
G01X14173Y11988D02*
G01X14173Y15570D01*
G01X14173Y15570D02*
G01X18110Y15570D01*
G01X18110Y15570D02*
G01X18110Y11988D01*
G04 draw reference designator for part J3*
G54D13*
G01X15869Y14373D02*
G01X15869Y13801D01*
G01X15869Y13801D02*
G01X15833Y13693D01*
G01X15833Y13693D02*
G01X15798Y13657D01*
G01X15798Y13657D02*
G01X15726Y13622D01*
G01X15654Y13622D02*
G01X15726Y13622D01*
G01X15583Y13657D02*
G01X15654Y13622D01*
G01X15547Y13693D02*
G01X15583Y13657D01*
G01X15511Y13801D02*
G01X15547Y13693D01*
G01X15511Y13872D02*
G01X15511Y13801D01*
G01X16621Y14373D02*
G01X16227Y14373D01*
G01X16621Y14373D02*
G01X16406Y14087D01*
G01X16513Y14087D02*
G01X16406Y14087D01*
G01X16513Y14087D02*
G01X16585Y14051D01*
G01X16585Y14051D02*
G01X16621Y14015D01*
G01X16621Y14015D02*
G01X16657Y13908D01*
G01X16657Y13908D02*
G01X16657Y13836D01*
G01X16657Y13836D02*
G01X16621Y13729D01*
G01X16621Y13729D02*
G01X16549Y13657D01*
G01X16549Y13657D02*
G01X16442Y13622D01*
G01X16335Y13622D02*
G01X16442Y13622D01*
G01X16227Y13657D02*
G01X16335Y13622D01*
G01X16191Y13693D02*
G01X16227Y13657D01*
G01X16156Y13765D02*
G01X16191Y13693D01*
G04 Draw part J4*
G04 draw part outline for part J4*
G54D12*
G01X24830Y13885D02*
G01X24580Y13885D01*
G01X24580Y13885D02*
G01X18830Y13885D01*
G01X18830Y13885D02*
G01X18830Y12885D01*
G01X18830Y12885D02*
G01X24830Y12885D01*
G01X24830Y12885D02*
G01X24830Y13135D01*
G01X24830Y13135D02*
G01X24830Y13885D01*
G04 draw reference designator for part J4*
G54D11*
G01X21753Y14391D02*
G01X21753Y14105D01*
G01X21753Y14105D02*
G01X21735Y14051D01*
G01X21735Y14051D02*
G01X21717Y14033D01*
G01X21717Y14033D02*
G01X21682Y14015D01*
G01X21646Y14015D02*
G01X21682Y14015D01*
G01X21610Y14033D02*
G01X21646Y14015D01*
G01X21592Y14051D02*
G01X21610Y14033D01*
G01X21574Y14105D02*
G01X21592Y14051D01*
G01X21574Y14141D02*
G01X21574Y14105D01*
G01X22075Y14391D02*
G01X21896Y14141D01*
G01X22165Y14141D02*
G01X21896Y14141D01*
G01X22075Y14391D02*
G01X22075Y14015D01*
G04 Draw part C17*
G04 draw part outline for part C17*
G54D12*
G01X8818Y10787D02*
G01X8818Y11181D01*
G01X9015Y10984D02*
G01X8622Y10984D01*
G01X11771Y13425D02*
G01X11771Y10826D01*
G01X11771Y10826D02*
G01X9685Y10826D01*
G01X9685Y10826D02*
G01X9173Y11338D01*
G01X9173Y11338D02*
G01X9173Y12913D01*
G01X9173Y12913D02*
G01X9685Y13425D01*
G01X9685Y13425D02*
G01X11771Y13425D01*
G04 draw reference designator for part C17*
G54D11*
G01X10329Y13865D02*
G01X10347Y13829D01*
G01X10293Y13901D02*
G01X10329Y13865D01*
G01X10257Y13919D02*
G01X10293Y13901D01*
G01X10186Y13919D02*
G01X10257Y13919D01*
G01X10186Y13919D02*
G01X10150Y13901D01*
G01X10150Y13901D02*
G01X10114Y13865D01*
G01X10114Y13865D02*
G01X10096Y13829D01*
G01X10096Y13829D02*
G01X10078Y13775D01*
G01X10078Y13775D02*
G01X10078Y13686D01*
G01X10078Y13686D02*
G01X10096Y13632D01*
G01X10096Y13632D02*
G01X10114Y13596D01*
G01X10114Y13596D02*
G01X10150Y13561D01*
G01X10150Y13561D02*
G01X10186Y13543D01*
G01X10257Y13543D02*
G01X10186Y13543D01*
G01X10293Y13561D02*
G01X10257Y13543D01*
G01X10329Y13596D02*
G01X10293Y13561D01*
G01X10347Y13632D02*
G01X10329Y13596D01*
G01X10526Y13865D02*
G01X10490Y13847D01*
G01X10579Y13919D02*
G01X10526Y13865D01*
G01X10579Y13919D02*
G01X10579Y13543D01*
G01X10973Y13919D02*
G01X10794Y13543D01*
G01X10973Y13919D02*
G01X10722Y13919D01*
G04 Draw part M1*
G04 draw part outline for part M1*
G04 Draw part M2*
G04 draw part outline for part M2*
G04 Draw part C16*
G04 draw part outline for part C16*
G54D10*
G01X22027Y4547D02*
G01X23956Y4547D01*
G01X23956Y4547D02*
G01X23956Y3641D01*
G01X23956Y3641D02*
G01X22027Y3641D01*
G01X22027Y3641D02*
G01X22027Y4547D01*
G54D12*
G01X21496Y4094D02*
G01X21811Y4094D01*
G01X21653Y3937D02*
G01X21653Y4251D01*
G04 draw reference designator for part C16*
G54D11*
G01X20880Y3865D02*
G01X20898Y3829D01*
G01X20844Y3901D02*
G01X20880Y3865D01*
G01X20808Y3919D02*
G01X20844Y3901D01*
G01X20737Y3919D02*
G01X20808Y3919D01*
G01X20737Y3919D02*
G01X20701Y3901D01*
G01X20701Y3901D02*
G01X20665Y3865D01*
G01X20665Y3865D02*
G01X20647Y3829D01*
G01X20647Y3829D02*
G01X20629Y3775D01*
G01X20629Y3775D02*
G01X20629Y3686D01*
G01X20629Y3686D02*
G01X20647Y3632D01*
G01X20647Y3632D02*
G01X20665Y3596D01*
G01X20665Y3596D02*
G01X20701Y3561D01*
G01X20701Y3561D02*
G01X20737Y3543D01*
G01X20808Y3543D02*
G01X20737Y3543D01*
G01X20844Y3561D02*
G01X20808Y3543D01*
G01X20880Y3596D02*
G01X20844Y3561D01*
G01X20898Y3632D02*
G01X20880Y3596D01*
G01X21077Y3865D02*
G01X21041Y3847D01*
G01X21130Y3919D02*
G01X21077Y3865D01*
G01X21130Y3919D02*
G01X21130Y3543D01*
G01X21471Y3901D02*
G01X21488Y3865D01*
G01X21417Y3919D02*
G01X21471Y3901D01*
G01X21381Y3919D02*
G01X21417Y3919D01*
G01X21381Y3919D02*
G01X21327Y3901D01*
G01X21327Y3901D02*
G01X21292Y3847D01*
G01X21292Y3847D02*
G01X21274Y3758D01*
G01X21274Y3758D02*
G01X21274Y3668D01*
G01X21274Y3668D02*
G01X21292Y3596D01*
G01X21292Y3596D02*
G01X21327Y3561D01*
G01X21327Y3561D02*
G01X21381Y3543D01*
G01X21399Y3543D02*
G01X21381Y3543D01*
G01X21453Y3561D02*
G01X21399Y3543D01*
G01X21488Y3596D02*
G01X21453Y3561D01*
G01X21506Y3650D02*
G01X21488Y3596D01*
G01X21506Y3668D02*
G01X21506Y3650D01*
G01X21488Y3722D02*
G01X21506Y3668D01*
G01X21453Y3758D02*
G01X21488Y3722D01*
G01X21399Y3775D02*
G01X21453Y3758D01*
G01X21381Y3775D02*
G01X21399Y3775D01*
G01X21381Y3775D02*
G01X21327Y3758D01*
G01X21327Y3758D02*
G01X21292Y3722D01*
G01X21292Y3722D02*
G01X21274Y3668D01*
G04 Draw part C15*
G04 draw part outline for part C15*
G54D10*
G01X5334Y10295D02*
G01X7263Y10295D01*
G01X7263Y10295D02*
G01X7263Y9389D01*
G01X7263Y9389D02*
G01X5334Y9389D01*
G01X5334Y9389D02*
G01X5334Y10295D01*
G54D12*
G01X4803Y9842D02*
G01X5118Y9842D01*
G01X4960Y9685D02*
G01X4960Y10000D01*
G04 draw reference designator for part C15*
G54D11*
G01X4581Y9534D02*
G01X4599Y9498D01*
G01X4545Y9570D02*
G01X4581Y9534D01*
G01X4509Y9588D02*
G01X4545Y9570D01*
G01X4438Y9588D02*
G01X4509Y9588D01*
G01X4438Y9588D02*
G01X4402Y9570D01*
G01X4402Y9570D02*
G01X4366Y9534D01*
G01X4366Y9534D02*
G01X4348Y9498D01*
G01X4348Y9498D02*
G01X4330Y9445D01*
G01X4330Y9445D02*
G01X4330Y9355D01*
G01X4330Y9355D02*
G01X4348Y9302D01*
G01X4348Y9302D02*
G01X4366Y9266D01*
G01X4366Y9266D02*
G01X4402Y9230D01*
G01X4402Y9230D02*
G01X4438Y9212D01*
G01X4509Y9212D02*
G01X4438Y9212D01*
G01X4545Y9230D02*
G01X4509Y9212D01*
G01X4581Y9266D02*
G01X4545Y9230D01*
G01X4599Y9302D02*
G01X4581Y9266D01*
G01X4778Y9534D02*
G01X4742Y9516D01*
G01X4831Y9588D02*
G01X4778Y9534D01*
G01X4831Y9588D02*
G01X4831Y9212D01*
G01X5010Y9588D02*
G01X5189Y9588D01*
G01X5010Y9588D02*
G01X4992Y9427D01*
G01X5010Y9445D02*
G01X4992Y9427D01*
G01X5064Y9463D02*
G01X5010Y9445D01*
G01X5118Y9463D02*
G01X5064Y9463D01*
G01X5118Y9463D02*
G01X5171Y9445D01*
G01X5171Y9445D02*
G01X5207Y9409D01*
G01X5207Y9409D02*
G01X5225Y9355D01*
G01X5225Y9355D02*
G01X5225Y9319D01*
G01X5225Y9319D02*
G01X5207Y9266D01*
G01X5207Y9266D02*
G01X5171Y9230D01*
G01X5171Y9230D02*
G01X5118Y9212D01*
G01X5064Y9212D02*
G01X5118Y9212D01*
G01X5010Y9230D02*
G01X5064Y9212D01*
G01X4992Y9248D02*
G01X5010Y9230D01*
G01X4974Y9284D02*
G01X4992Y9248D01*
G04 Draw part C20*
G04 draw part outline for part C20*
G54D10*
G01X13188Y13838D02*
G01X13188Y12342D01*
G01X13188Y12342D02*
G01X12322Y12342D01*
G01X12322Y12342D02*
G01X12322Y13838D01*
G01X12322Y13838D02*
G01X13188Y13838D01*
G04 draw reference designator for part C20*
G54D11*
G01X12460Y14261D02*
G01X12478Y14225D01*
G01X12424Y14296D02*
G01X12460Y14261D01*
G01X12388Y14314D02*
G01X12424Y14296D01*
G01X12317Y14314D02*
G01X12388Y14314D01*
G01X12317Y14314D02*
G01X12281Y14296D01*
G01X12281Y14296D02*
G01X12245Y14261D01*
G01X12245Y14261D02*
G01X12227Y14225D01*
G01X12227Y14225D02*
G01X12209Y14171D01*
G01X12209Y14171D02*
G01X12209Y14082D01*
G01X12209Y14082D02*
G01X12227Y14028D01*
G01X12227Y14028D02*
G01X12245Y13992D01*
G01X12245Y13992D02*
G01X12281Y13956D01*
G01X12281Y13956D02*
G01X12317Y13939D01*
G01X12388Y13939D02*
G01X12317Y13939D01*
G01X12424Y13956D02*
G01X12388Y13939D01*
G01X12460Y13992D02*
G01X12424Y13956D01*
G01X12478Y14028D02*
G01X12460Y13992D01*
G01X12639Y14243D02*
G01X12639Y14225D01*
G01X12657Y14279D02*
G01X12639Y14243D01*
G01X12675Y14296D02*
G01X12657Y14279D01*
G01X12710Y14314D02*
G01X12675Y14296D01*
G01X12782Y14314D02*
G01X12710Y14314D01*
G01X12782Y14314D02*
G01X12818Y14296D01*
G01X12818Y14296D02*
G01X12836Y14279D01*
G01X12836Y14279D02*
G01X12854Y14243D01*
G01X12854Y14243D02*
G01X12854Y14207D01*
G01X12854Y14207D02*
G01X12836Y14171D01*
G01X12836Y14171D02*
G01X12800Y14118D01*
G01X12800Y14118D02*
G01X12621Y13939D01*
G01X12871Y13939D02*
G01X12621Y13939D01*
G01X13122Y14314D02*
G01X13068Y14296D01*
G01X13068Y14296D02*
G01X13033Y14243D01*
G01X13033Y14243D02*
G01X13015Y14153D01*
G01X13015Y14153D02*
G01X13015Y14100D01*
G01X13015Y14100D02*
G01X13033Y14010D01*
G01X13033Y14010D02*
G01X13068Y13956D01*
G01X13068Y13956D02*
G01X13122Y13939D01*
G01X13158Y13939D02*
G01X13122Y13939D01*
G01X13211Y13956D02*
G01X13158Y13939D01*
G01X13247Y14010D02*
G01X13211Y13956D01*
G01X13265Y14100D02*
G01X13247Y14010D01*
G01X13265Y14153D02*
G01X13265Y14100D01*
G01X13247Y14243D02*
G01X13265Y14153D01*
G01X13211Y14296D02*
G01X13247Y14243D01*
G01X13158Y14314D02*
G01X13211Y14296D01*
G01X13122Y14314D02*
G01X13158Y14314D01*
G04 Draw part R2*
G04 draw part outline for part R2*
G54D10*
G01X2007Y10374D02*
G01X2007Y11712D01*
G01X2007Y11712D02*
G01X2716Y11712D01*
G01X2716Y11712D02*
G01X2716Y10374D01*
G01X2716Y10374D02*
G01X2007Y10374D01*
G04 draw reference designator for part R2*
G54D11*
G01X2125Y12072D02*
G01X2125Y11771D01*
G01X2254Y12072D02*
G01X2125Y12072D01*
G01X2254Y12072D02*
G01X2297Y12057D01*
G01X2297Y12057D02*
G01X2312Y12043D01*
G01X2312Y12043D02*
G01X2326Y12015D01*
G01X2326Y12015D02*
G01X2326Y11986D01*
G01X2326Y11986D02*
G01X2312Y11957D01*
G01X2312Y11957D02*
G01X2297Y11943D01*
G01X2297Y11943D02*
G01X2254Y11929D01*
G01X2125Y11929D02*
G01X2254Y11929D01*
G01X2226Y11929D02*
G01X2326Y11771D01*
G01X2455Y12015D02*
G01X2455Y12000D01*
G01X2469Y12043D02*
G01X2455Y12015D01*
G01X2483Y12057D02*
G01X2469Y12043D01*
G01X2512Y12072D02*
G01X2483Y12057D01*
G01X2569Y12072D02*
G01X2512Y12072D01*
G01X2569Y12072D02*
G01X2598Y12057D01*
G01X2598Y12057D02*
G01X2612Y12043D01*
G01X2612Y12043D02*
G01X2627Y12015D01*
G01X2627Y12015D02*
G01X2627Y11986D01*
G01X2627Y11986D02*
G01X2612Y11957D01*
G01X2612Y11957D02*
G01X2584Y11914D01*
G01X2584Y11914D02*
G01X2440Y11771D01*
G01X2641Y11771D02*
G01X2440Y11771D01*
G04 Draw part C14*
G04 draw part outline for part C14*
G54D10*
G01X590Y5610D02*
G01X590Y7106D01*
G01X590Y7106D02*
G01X1456Y7106D01*
G01X1456Y7106D02*
G01X1456Y5610D01*
G01X1456Y5610D02*
G01X590Y5610D01*
G04 draw reference designator for part C14*
G54D11*
G01X722Y7566D02*
G01X740Y7530D01*
G01X687Y7602D02*
G01X722Y7566D01*
G01X651Y7619D02*
G01X687Y7602D01*
G01X579Y7619D02*
G01X651Y7619D01*
G01X579Y7619D02*
G01X544Y7602D01*
G01X544Y7602D02*
G01X508Y7566D01*
G01X508Y7566D02*
G01X490Y7530D01*
G01X490Y7530D02*
G01X472Y7476D01*
G01X472Y7476D02*
G01X472Y7387D01*
G01X472Y7387D02*
G01X490Y7333D01*
G01X490Y7333D02*
G01X508Y7297D01*
G01X508Y7297D02*
G01X544Y7261D01*
G01X544Y7261D02*
G01X579Y7244D01*
G01X651Y7244D02*
G01X579Y7244D01*
G01X687Y7261D02*
G01X651Y7244D01*
G01X722Y7297D02*
G01X687Y7261D01*
G01X740Y7333D02*
G01X722Y7297D01*
G01X919Y7566D02*
G01X884Y7548D01*
G01X973Y7619D02*
G01X919Y7566D01*
G01X973Y7619D02*
G01X973Y7244D01*
G01X1295Y7619D02*
G01X1116Y7369D01*
G01X1385Y7369D02*
G01X1116Y7369D01*
G01X1295Y7619D02*
G01X1295Y7244D01*
G04 Draw part TP1*
G04 draw part outline for part TP1*
G04 draw reference designator for part TP1*
G01X1871Y10143D02*
G01X1871Y9842D01*
G01X1972Y10143D02*
G01X1771Y10143D01*
G01X2086Y10143D02*
G01X2086Y9842D01*
G01X2215Y10143D02*
G01X2086Y10143D01*
G01X2215Y10143D02*
G01X2258Y10128D01*
G01X2258Y10128D02*
G01X2272Y10114D01*
G01X2272Y10114D02*
G01X2287Y10085D01*
G01X2287Y10085D02*
G01X2287Y10042D01*
G01X2287Y10042D02*
G01X2272Y10014D01*
G01X2272Y10014D02*
G01X2258Y9999D01*
G01X2258Y9999D02*
G01X2215Y9985D01*
G01X2086Y9985D02*
G01X2215Y9985D01*
G01X2430Y10100D02*
G01X2401Y10085D01*
G01X2473Y10143D02*
G01X2430Y10100D01*
G01X2473Y10143D02*
G01X2473Y9842D01*

G04 Draw traces*

G04 Draw Text*
G54D13*
G01X7716Y10214D02*
G01X7716Y9763D01*
G01X7716Y9978D02*
G01X7780Y10042D01*
G01X7780Y10042D02*
G01X7823Y10064D01*
G01X7823Y10064D02*
G01X7888Y10064D01*
G01X7888Y10064D02*
G01X7931Y10042D01*
G01X7931Y10042D02*
G01X7952Y9978D01*
G01X7952Y9978D02*
G01X7952Y9763D01*
G01X8382Y10064D02*
G01X8382Y9763D01*
G01X8382Y10000D02*
G01X8339Y10042D01*
G01X8339Y10042D02*
G01X8296Y10064D01*
G01X8296Y10064D02*
G01X8231Y10064D01*
G01X8231Y10064D02*
G01X8188Y10042D01*
G01X8188Y10042D02*
G01X8146Y10000D01*
G01X8146Y10000D02*
G01X8124Y9935D01*
G01X8124Y9935D02*
G01X8124Y9892D01*
G01X8124Y9892D02*
G01X8146Y9828D01*
G01X8146Y9828D02*
G01X8188Y9785D01*
G01X8188Y9785D02*
G01X8231Y9763D01*
G01X8231Y9763D02*
G01X8296Y9763D01*
G01X8296Y9763D02*
G01X8339Y9785D01*
G01X8339Y9785D02*
G01X8382Y9828D01*
G01X8554Y10064D02*
G01X8554Y9763D01*
G01X8554Y9935D02*
G01X8575Y10000D01*
G01X8575Y10000D02*
G01X8618Y10042D01*
G01X8618Y10042D02*
G01X8661Y10064D01*
G01X8661Y10064D02*
G01X8725Y10064D01*
G01X8897Y10064D02*
G01X8897Y9763D01*
G01X8897Y9978D02*
G01X8962Y10042D01*
G01X8962Y10042D02*
G01X9005Y10064D01*
G01X9005Y10064D02*
G01X9069Y10064D01*
G01X9069Y10064D02*
G01X9112Y10042D01*
G01X9112Y10042D02*
G01X9133Y9978D01*
G01X9133Y9978D02*
G01X9133Y9763D01*
G01X9133Y9978D02*
G01X9198Y10042D01*
G01X9198Y10042D02*
G01X9241Y10064D01*
G01X9241Y10064D02*
G01X9305Y10064D01*
G01X9305Y10064D02*
G01X9348Y10042D01*
G01X9348Y10042D02*
G01X9370Y9978D01*
G01X9370Y9978D02*
G01X9370Y9763D01*
G01X9541Y10214D02*
G01X9541Y9763D01*
G01X9713Y9935D02*
G01X9971Y9935D01*
G01X9971Y9935D02*
G01X9971Y9978D01*
G01X9971Y9978D02*
G01X9949Y10021D01*
G01X9949Y10021D02*
G01X9928Y10042D01*
G01X9928Y10042D02*
G01X9885Y10064D01*
G01X9885Y10064D02*
G01X9821Y10064D01*
G01X9821Y10064D02*
G01X9778Y10042D01*
G01X9778Y10042D02*
G01X9735Y10000D01*
G01X9735Y10000D02*
G01X9713Y9935D01*
G01X9713Y9935D02*
G01X9713Y9892D01*
G01X9713Y9892D02*
G01X9735Y9828D01*
G01X9735Y9828D02*
G01X9778Y9785D01*
G01X9778Y9785D02*
G01X9821Y9763D01*
G01X9821Y9763D02*
G01X9885Y9763D01*
G01X9885Y9763D02*
G01X9928Y9785D01*
G01X9928Y9785D02*
G01X9971Y9828D01*
G01X10379Y10000D02*
G01X10357Y10042D01*
G01X10357Y10042D02*
G01X10293Y10064D01*
G01X10293Y10064D02*
G01X10229Y10064D01*
G01X10229Y10064D02*
G01X10164Y10042D01*
G01X10164Y10042D02*
G01X10143Y10000D01*
G01X10143Y10000D02*
G01X10164Y9957D01*
G01X10164Y9957D02*
G01X10207Y9935D01*
G01X10207Y9935D02*
G01X10314Y9914D01*
G01X10314Y9914D02*
G01X10357Y9892D01*
G01X10357Y9892D02*
G01X10379Y9849D01*
G01X10379Y9849D02*
G01X10379Y9828D01*
G01X10379Y9828D02*
G01X10357Y9785D01*
G01X10357Y9785D02*
G01X10293Y9763D01*
G01X10293Y9763D02*
G01X10229Y9763D01*
G01X10229Y9763D02*
G01X10164Y9785D01*
G01X10164Y9785D02*
G01X10143Y9828D01*
G01X10787Y10000D02*
G01X10765Y10042D01*
G01X10765Y10042D02*
G01X10701Y10064D01*
G01X10701Y10064D02*
G01X10637Y10064D01*
G01X10637Y10064D02*
G01X10572Y10042D01*
G01X10572Y10042D02*
G01X10551Y10000D01*
G01X10551Y10000D02*
G01X10572Y9957D01*
G01X10572Y9957D02*
G01X10615Y9935D01*
G01X10615Y9935D02*
G01X10722Y9914D01*
G01X10722Y9914D02*
G01X10765Y9892D01*
G01X10765Y9892D02*
G01X10787Y9849D01*
G01X10787Y9849D02*
G01X10787Y9828D01*
G01X10787Y9828D02*
G01X10765Y9785D01*
G01X10765Y9785D02*
G01X10701Y9763D01*
G01X10701Y9763D02*
G01X10637Y9763D01*
G01X10637Y9763D02*
G01X10572Y9785D01*
G01X10572Y9785D02*
G01X10551Y9828D01*
G01X10959Y10214D02*
G01X10959Y9763D01*
G01X11130Y10214D02*
G01X11152Y10193D01*
G01X11152Y10193D02*
G01X11173Y10214D01*
G01X11173Y10214D02*
G01X11152Y10236D01*
G01X11152Y10236D02*
G01X11130Y10214D01*
G01X11152Y10064D02*
G01X11152Y9763D01*
G01X11453Y10064D02*
G01X11410Y10042D01*
G01X11410Y10042D02*
G01X11367Y10000D01*
G01X11367Y10000D02*
G01X11345Y9935D01*
G01X11345Y9935D02*
G01X11345Y9892D01*
G01X11345Y9892D02*
G01X11367Y9828D01*
G01X11367Y9828D02*
G01X11410Y9785D01*
G01X11410Y9785D02*
G01X11453Y9763D01*
G01X11453Y9763D02*
G01X11517Y9763D01*
G01X11517Y9763D02*
G01X11560Y9785D01*
G01X11560Y9785D02*
G01X11603Y9828D01*
G01X11603Y9828D02*
G01X11624Y9892D01*
G01X11624Y9892D02*
G01X11624Y9935D01*
G01X11624Y9935D02*
G01X11603Y10000D01*
G01X11603Y10000D02*
G01X11560Y10042D01*
G01X11560Y10042D02*
G01X11517Y10064D01*
G01X11517Y10064D02*
G01X11453Y10064D01*
G01X11796Y10064D02*
G01X11796Y9763D01*
G01X11796Y9978D02*
G01X11861Y10042D01*
G01X11861Y10042D02*
G01X11904Y10064D01*
G01X11904Y10064D02*
G01X11968Y10064D01*
G01X11968Y10064D02*
G01X12011Y10042D01*
G01X12011Y10042D02*
G01X12032Y9978D01*
G01X12032Y9978D02*
G01X12032Y9763D01*
G01X12226Y9806D02*
G01X12204Y9785D01*
G01X12204Y9785D02*
G01X12226Y9763D01*
G01X12226Y9763D02*
G01X12247Y9785D01*
G01X12247Y9785D02*
G01X12226Y9806D01*
G01X12677Y10000D02*
G01X12634Y10042D01*
G01X12634Y10042D02*
G01X12591Y10064D01*
G01X12591Y10064D02*
G01X12526Y10064D01*
G01X12526Y10064D02*
G01X12483Y10042D01*
G01X12483Y10042D02*
G01X12440Y10000D01*
G01X12440Y10000D02*
G01X12419Y9935D01*
G01X12419Y9935D02*
G01X12419Y9892D01*
G01X12419Y9892D02*
G01X12440Y9828D01*
G01X12440Y9828D02*
G01X12483Y9785D01*
G01X12483Y9785D02*
G01X12526Y9763D01*
G01X12526Y9763D02*
G01X12591Y9763D01*
G01X12591Y9763D02*
G01X12634Y9785D01*
G01X12634Y9785D02*
G01X12677Y9828D01*
G01X12956Y10064D02*
G01X12913Y10042D01*
G01X12913Y10042D02*
G01X12870Y10000D01*
G01X12870Y10000D02*
G01X12848Y9935D01*
G01X12848Y9935D02*
G01X12848Y9892D01*
G01X12848Y9892D02*
G01X12870Y9828D01*
G01X12870Y9828D02*
G01X12913Y9785D01*
G01X12913Y9785D02*
G01X12956Y9763D01*
G01X12956Y9763D02*
G01X13020Y9763D01*
G01X13020Y9763D02*
G01X13063Y9785D01*
G01X13063Y9785D02*
G01X13106Y9828D01*
G01X13106Y9828D02*
G01X13128Y9892D01*
G01X13128Y9892D02*
G01X13128Y9935D01*
G01X13128Y9935D02*
G01X13106Y10000D01*
G01X13106Y10000D02*
G01X13063Y10042D01*
G01X13063Y10042D02*
G01X13020Y10064D01*
G01X13020Y10064D02*
G01X12956Y10064D01*
G01X13299Y10064D02*
G01X13299Y9763D01*
G01X13299Y9978D02*
G01X13364Y10042D01*
G01X13364Y10042D02*
G01X13407Y10064D01*
G01X13407Y10064D02*
G01X13471Y10064D01*
G01X13471Y10064D02*
G01X13514Y10042D01*
G01X13514Y10042D02*
G01X13536Y9978D01*
G01X13536Y9978D02*
G01X13536Y9763D01*
G01X13536Y9978D02*
G01X13600Y10042D01*
G01X13600Y10042D02*
G01X13643Y10064D01*
G01X13643Y10064D02*
G01X13707Y10064D01*
G01X13707Y10064D02*
G01X13750Y10042D01*
G01X13750Y10042D02*
G01X13772Y9978D01*
G01X13772Y9978D02*
G01X13772Y9763D01*
G01X12204Y11553D02*
G01X12204Y11102D01*
G01X12204Y11553D02*
G01X12397Y11553D01*
G01X12397Y11553D02*
G01X12462Y11531D01*
G01X12462Y11531D02*
G01X12483Y11510D01*
G01X12483Y11510D02*
G01X12505Y11467D01*
G01X12505Y11467D02*
G01X12505Y11424D01*
G01X12505Y11424D02*
G01X12483Y11381D01*
G01X12483Y11381D02*
G01X12462Y11360D01*
G01X12462Y11360D02*
G01X12397Y11338D01*
G01X12397Y11338D02*
G01X12204Y11338D01*
G01X12355Y11338D02*
G01X12505Y11102D01*
G01X12677Y11274D02*
G01X12934Y11274D01*
G01X12934Y11274D02*
G01X12934Y11317D01*
G01X12934Y11317D02*
G01X12913Y11360D01*
G01X12913Y11360D02*
G01X12891Y11381D01*
G01X12891Y11381D02*
G01X12848Y11403D01*
G01X12848Y11403D02*
G01X12784Y11403D01*
G01X12784Y11403D02*
G01X12741Y11381D01*
G01X12741Y11381D02*
G01X12698Y11338D01*
G01X12698Y11338D02*
G01X12677Y11274D01*
G01X12677Y11274D02*
G01X12677Y11231D01*
G01X12677Y11231D02*
G01X12698Y11166D01*
G01X12698Y11166D02*
G01X12741Y11123D01*
G01X12741Y11123D02*
G01X12784Y11102D01*
G01X12784Y11102D02*
G01X12848Y11102D01*
G01X12848Y11102D02*
G01X12891Y11123D01*
G01X12891Y11123D02*
G01X12934Y11166D01*
G01X13106Y11403D02*
G01X13235Y11102D01*
G01X13364Y11403D02*
G01X13235Y11102D01*
G01X13557Y11445D02*
G01X13557Y11467D01*
G01X13557Y11467D02*
G01X13579Y11510D01*
G01X13579Y11510D02*
G01X13600Y11531D01*
G01X13600Y11531D02*
G01X13643Y11553D01*
G01X13643Y11553D02*
G01X13729Y11553D01*
G01X13729Y11553D02*
G01X13772Y11531D01*
G01X13772Y11531D02*
G01X13793Y11510D01*
G01X13793Y11510D02*
G01X13815Y11467D01*
G01X13815Y11467D02*
G01X13815Y11424D01*
G01X13815Y11424D02*
G01X13793Y11381D01*
G01X13793Y11381D02*
G01X13750Y11317D01*
G01X13750Y11317D02*
G01X13536Y11102D01*
G01X13536Y11102D02*
G01X13836Y11102D01*
G01X12469Y10923D02*
G01X12405Y10901D01*
G01X12405Y10901D02*
G01X12383Y10858D01*
G01X12383Y10858D02*
G01X12383Y10816D01*
G01X12383Y10816D02*
G01X12405Y10773D01*
G01X12405Y10773D02*
G01X12448Y10751D01*
G01X12448Y10751D02*
G01X12534Y10730D01*
G01X12534Y10730D02*
G01X12598Y10708D01*
G01X12598Y10708D02*
G01X12641Y10665D01*
G01X12641Y10665D02*
G01X12662Y10622D01*
G01X12662Y10622D02*
G01X12662Y10558D01*
G01X12662Y10558D02*
G01X12641Y10515D01*
G01X12641Y10515D02*
G01X12619Y10493D01*
G01X12619Y10493D02*
G01X12555Y10472D01*
G01X12555Y10472D02*
G01X12469Y10472D01*
G01X12469Y10472D02*
G01X12405Y10493D01*
G01X12405Y10493D02*
G01X12383Y10515D01*
G01X12383Y10515D02*
G01X12362Y10558D01*
G01X12362Y10558D02*
G01X12362Y10622D01*
G01X12362Y10622D02*
G01X12383Y10665D01*
G01X12383Y10665D02*
G01X12426Y10708D01*
G01X12426Y10708D02*
G01X12491Y10730D01*
G01X12491Y10730D02*
G01X12576Y10751D01*
G01X12576Y10751D02*
G01X12619Y10773D01*
G01X12619Y10773D02*
G01X12641Y10816D01*
G01X12641Y10816D02*
G01X12641Y10858D01*
G01X12641Y10858D02*
G01X12619Y10901D01*
G01X12619Y10901D02*
G01X12555Y10923D01*
G01X12555Y10923D02*
G01X12469Y10923D01*
G01X12834Y10923D02*
G01X12834Y10472D01*
G01X12834Y10923D02*
G01X13006Y10472D01*
G01X13178Y10923D02*
G01X13006Y10472D01*
G01X13178Y10923D02*
G01X13178Y10472D01*
G01X13350Y10923D02*
G01X13350Y10472D01*
G01X13350Y10923D02*
G01X13543Y10923D01*
G01X13543Y10923D02*
G01X13607Y10901D01*
G01X13607Y10901D02*
G01X13629Y10880D01*
G01X13629Y10880D02*
G01X13650Y10837D01*
G01X13650Y10837D02*
G01X13650Y10794D01*
G01X13650Y10794D02*
G01X13629Y10751D01*
G01X13629Y10751D02*
G01X13607Y10730D01*
G01X13607Y10730D02*
G01X13543Y10708D01*
G01X13350Y10708D02*
G01X13543Y10708D01*
G01X13543Y10708D02*
G01X13607Y10687D01*
G01X13607Y10687D02*
G01X13629Y10665D01*
G01X13629Y10665D02*
G01X13650Y10622D01*
G01X13650Y10622D02*
G01X13650Y10558D01*
G01X13650Y10558D02*
G01X13629Y10515D01*
G01X13629Y10515D02*
G01X13607Y10493D01*
G01X13607Y10493D02*
G01X13543Y10472D01*
G01X13543Y10472D02*
G01X13350Y10472D01*
M00*
M02*
