G04 FreePCB version 1.340*
G04 c:\jag\pcb\jagwave\CAM\top_paste_mask.grb*
G04  layer *
G04 Scale: 100 percent, Rotated: No, Reflected: No *
%FSLAX24Y24*%
%MOIN*%
%LNTop*%
%ADD10C,0.047244*%
G90*
G70D02*

G04 Step and Repeat for panelization *

G04 -------------- Draw Parts, Pads, Traces, Vias and Text (positive)*
%LPD*%
G04 Draw part J0*
G36*
G01X351Y1083D02*
G01X351Y3483D01*
G01X651Y3483D01*
G01X651Y1083D01*
G01X351Y1083D01*
G37*
G36*
G01X941Y1083D02*
G01X941Y3483D01*
G01X1241Y3483D01*
G01X1241Y1083D01*
G01X941Y1083D01*
G37*
G36*
G01X1531Y1083D02*
G01X1531Y3483D01*
G01X1831Y3483D01*
G01X1831Y1083D01*
G01X1531Y1083D01*
G37*
G36*
G01X2121Y1083D02*
G01X2121Y3483D01*
G01X2421Y3483D01*
G01X2421Y1083D01*
G01X2121Y1083D01*
G37*
G36*
G01X2711Y1083D02*
G01X2711Y3483D01*
G01X3011Y3483D01*
G01X3011Y1083D01*
G01X2711Y1083D01*
G37*
G36*
G01X3301Y1083D02*
G01X3301Y3483D01*
G01X3601Y3483D01*
G01X3601Y1083D01*
G01X3301Y1083D01*
G37*
G36*
G01X3891Y1083D02*
G01X3891Y3483D01*
G01X4191Y3483D01*
G01X4191Y1083D01*
G01X3891Y1083D01*
G37*
G36*
G01X4481Y1083D02*
G01X4481Y3483D01*
G01X4781Y3483D01*
G01X4781Y1083D01*
G01X4481Y1083D01*
G37*
G36*
G01X5071Y1083D02*
G01X5071Y3483D01*
G01X5371Y3483D01*
G01X5371Y1083D01*
G01X5071Y1083D01*
G37*
G36*
G01X5661Y1083D02*
G01X5661Y3483D01*
G01X5961Y3483D01*
G01X5961Y1083D01*
G01X5661Y1083D01*
G37*
G36*
G01X6251Y1083D02*
G01X6251Y3483D01*
G01X6551Y3483D01*
G01X6551Y1083D01*
G01X6251Y1083D01*
G37*
G36*
G01X6841Y1083D02*
G01X6841Y3483D01*
G01X7141Y3483D01*
G01X7141Y1083D01*
G01X6841Y1083D01*
G37*
G36*
G01X8611Y1083D02*
G01X8611Y3483D01*
G01X8911Y3483D01*
G01X8911Y1083D01*
G01X8611Y1083D01*
G37*
G36*
G01X9201Y1083D02*
G01X9201Y3483D01*
G01X9501Y3483D01*
G01X9501Y1083D01*
G01X9201Y1083D01*
G37*
G36*
G01X9791Y1083D02*
G01X9791Y3483D01*
G01X10091Y3483D01*
G01X10091Y1083D01*
G01X9791Y1083D01*
G37*
G36*
G01X10381Y1083D02*
G01X10381Y3483D01*
G01X10681Y3483D01*
G01X10681Y1083D01*
G01X10381Y1083D01*
G37*
G36*
G01X10971Y1083D02*
G01X10971Y3483D01*
G01X11271Y3483D01*
G01X11271Y1083D01*
G01X10971Y1083D01*
G37*
G36*
G01X11561Y1083D02*
G01X11561Y3483D01*
G01X11861Y3483D01*
G01X11861Y1083D01*
G01X11561Y1083D01*
G37*
G36*
G01X12151Y463D02*
G01X12151Y3483D01*
G01X12451Y3483D01*
G01X12451Y463D01*
G01X12151Y463D01*
G37*
G36*
G01X12741Y1083D02*
G01X12741Y3483D01*
G01X13041Y3483D01*
G01X13041Y1083D01*
G01X12741Y1083D01*
G37*
G36*
G01X13331Y1083D02*
G01X13331Y3483D01*
G01X13631Y3483D01*
G01X13631Y1083D01*
G01X13331Y1083D01*
G37*
G36*
G01X13921Y1083D02*
G01X13921Y3483D01*
G01X14221Y3483D01*
G01X14221Y1083D01*
G01X13921Y1083D01*
G37*
G36*
G01X14511Y1083D02*
G01X14511Y3483D01*
G01X14811Y3483D01*
G01X14811Y1083D01*
G01X14511Y1083D01*
G37*
G36*
G01X15101Y1083D02*
G01X15101Y3483D01*
G01X15401Y3483D01*
G01X15401Y1083D01*
G01X15101Y1083D01*
G37*
G36*
G01X15691Y1083D02*
G01X15691Y3483D01*
G01X15991Y3483D01*
G01X15991Y1083D01*
G01X15691Y1083D01*
G37*
G36*
G01X16281Y1083D02*
G01X16281Y3483D01*
G01X16581Y3483D01*
G01X16581Y1083D01*
G01X16281Y1083D01*
G37*
G36*
G01X16871Y1083D02*
G01X16871Y3483D01*
G01X17171Y3483D01*
G01X17171Y1083D01*
G01X16871Y1083D01*
G37*
G36*
G01X17461Y1083D02*
G01X17461Y3483D01*
G01X17761Y3483D01*
G01X17761Y1083D01*
G01X17461Y1083D01*
G37*
G36*
G01X18051Y1083D02*
G01X18051Y3483D01*
G01X18351Y3483D01*
G01X18351Y1083D01*
G01X18051Y1083D01*
G37*
G36*
G01X18641Y1083D02*
G01X18641Y3483D01*
G01X18941Y3483D01*
G01X18941Y1083D01*
G01X18641Y1083D01*
G37*
G36*
G01X19231Y1083D02*
G01X19231Y3483D01*
G01X19531Y3483D01*
G01X19531Y1083D01*
G01X19231Y1083D01*
G37*
G36*
G01X19821Y1083D02*
G01X19821Y3483D01*
G01X20121Y3483D01*
G01X20121Y1083D01*
G01X19821Y1083D01*
G37*
G36*
G01X20411Y1083D02*
G01X20411Y3483D01*
G01X20711Y3483D01*
G01X20711Y1083D01*
G01X20411Y1083D01*
G37*
G36*
G01X21001Y1083D02*
G01X21001Y3483D01*
G01X21301Y3483D01*
G01X21301Y1083D01*
G01X21001Y1083D01*
G37*
G36*
G01X21591Y1083D02*
G01X21591Y3483D01*
G01X21891Y3483D01*
G01X21891Y1083D01*
G01X21591Y1083D01*
G37*
G36*
G01X22181Y463D02*
G01X22181Y3483D01*
G01X22481Y3483D01*
G01X22481Y463D01*
G01X22181Y463D01*
G37*
G36*
G01X22771Y1083D02*
G01X22771Y3483D01*
G01X23071Y3483D01*
G01X23071Y1083D01*
G01X22771Y1083D01*
G37*
G36*
G01X23361Y1083D02*
G01X23361Y3483D01*
G01X23661Y3483D01*
G01X23661Y1083D01*
G01X23361Y1083D01*
G37*
G36*
G01X23951Y1083D02*
G01X23951Y3483D01*
G01X24251Y3483D01*
G01X24251Y1083D01*
G01X23951Y1083D01*
G37*
G36*
G01X24541Y1083D02*
G01X24541Y3483D01*
G01X24841Y3483D01*
G01X24841Y1083D01*
G01X24541Y1083D01*
G37*
G36*
G01X25131Y1083D02*
G01X25131Y3483D01*
G01X25431Y3483D01*
G01X25431Y1083D01*
G01X25131Y1083D01*
G37*
G36*
G01X25721Y1083D02*
G01X25721Y3483D01*
G01X26021Y3483D01*
G01X26021Y1083D01*
G01X25721Y1083D01*
G37*
G36*
G01X26311Y1083D02*
G01X26311Y3483D01*
G01X26611Y3483D01*
G01X26611Y1083D01*
G01X26311Y1083D01*
G37*
G36*
G01X26901Y1083D02*
G01X26901Y3483D01*
G01X27201Y3483D01*
G01X27201Y1083D01*
G01X26901Y1083D01*
G37*
G36*
G01X27491Y1083D02*
G01X27491Y3483D01*
G01X27791Y3483D01*
G01X27791Y1083D01*
G01X27491Y1083D01*
G37*
G36*
G01X28081Y1083D02*
G01X28081Y3483D01*
G01X28381Y3483D01*
G01X28381Y1083D01*
G01X28081Y1083D01*
G37*
G36*
G01X28671Y1083D02*
G01X28671Y3483D01*
G01X28971Y3483D01*
G01X28971Y1083D01*
G01X28671Y1083D01*
G37*
G36*
G01X29261Y1083D02*
G01X29261Y3483D01*
G01X29561Y3483D01*
G01X29561Y1083D01*
G01X29261Y1083D01*
G37*
G36*
G01X29851Y1083D02*
G01X29851Y3483D01*
G01X30151Y3483D01*
G01X30151Y1083D01*
G01X29851Y1083D01*
G37*
G36*
G01X30441Y1083D02*
G01X30441Y3483D01*
G01X30741Y3483D01*
G01X30741Y1083D01*
G01X30441Y1083D01*
G37*
G36*
G01X31031Y1083D02*
G01X31031Y3483D01*
G01X31331Y3483D01*
G01X31331Y1083D01*
G01X31031Y1083D01*
G37*
G36*
G01X31621Y1083D02*
G01X31621Y3483D01*
G01X31921Y3483D01*
G01X31921Y1083D01*
G01X31621Y1083D01*
G37*
G04 Draw part C1*
G36*
G01X23917Y11771D02*
G01X23917Y12244D01*
G01X24350Y12244D01*
G01X24350Y11771D01*
G01X23917Y11771D01*
G37*
G36*
G01X24586Y11771D02*
G01X24586Y12244D01*
G01X25019Y12244D01*
G01X25019Y11771D01*
G01X24586Y11771D01*
G37*
G04 Draw part C2*
G36*
G01X28287Y9409D02*
G01X28287Y9881D01*
G01X28720Y9881D01*
G01X28720Y9409D01*
G01X28287Y9409D01*
G37*
G36*
G01X28956Y9409D02*
G01X28956Y9881D01*
G01X29389Y9881D01*
G01X29389Y9409D01*
G01X28956Y9409D01*
G37*
G04 Draw part C3*
G36*
G01X28287Y8346D02*
G01X28287Y8818D01*
G01X28720Y8818D01*
G01X28720Y8346D01*
G01X28287Y8346D01*
G37*
G36*
G01X28956Y8346D02*
G01X28956Y8818D01*
G01X29389Y8818D01*
G01X29389Y8346D01*
G01X28956Y8346D01*
G37*
G04 Draw part C4*
G36*
G01X24744Y3937D02*
G01X24744Y4409D01*
G01X25177Y4409D01*
G01X25177Y3937D01*
G01X24744Y3937D01*
G37*
G36*
G01X25413Y3937D02*
G01X25413Y4409D01*
G01X25846Y4409D01*
G01X25846Y3937D01*
G01X25413Y3937D01*
G37*
G04 Draw part C5*
G36*
G01X19783Y7716D02*
G01X19783Y8188D01*
G01X20216Y8188D01*
G01X20216Y7716D01*
G01X19783Y7716D01*
G37*
G36*
G01X20452Y7716D02*
G01X20452Y8188D01*
G01X20885Y8188D01*
G01X20885Y7716D01*
G01X20452Y7716D01*
G37*
G04 Draw part C6*
G36*
G01X15688Y10472D02*
G01X15688Y10944D01*
G01X16122Y10944D01*
G01X16122Y10472D01*
G01X15688Y10472D01*
G37*
G36*
G01X16358Y10472D02*
G01X16358Y10944D01*
G01X16791Y10944D01*
G01X16791Y10472D01*
G01X16358Y10472D01*
G37*
G04 Draw part C7*
G36*
G01X18996Y6062D02*
G01X18996Y6535D01*
G01X19429Y6535D01*
G01X19429Y6062D01*
G01X18996Y6062D01*
G37*
G36*
G01X19665Y6062D02*
G01X19665Y6535D01*
G01X20098Y6535D01*
G01X20098Y6062D01*
G01X19665Y6062D01*
G37*
G04 Draw part C8*
G36*
G01X14822Y4094D02*
G01X14822Y4566D01*
G01X15255Y4566D01*
G01X15255Y4094D01*
G01X14822Y4094D01*
G37*
G36*
G01X15492Y4094D02*
G01X15492Y4566D01*
G01X15925Y4566D01*
G01X15925Y4094D01*
G01X15492Y4094D01*
G37*
G04 Draw part C9*
G36*
G01X12066Y8188D02*
G01X12066Y8661D01*
G01X12500Y8661D01*
G01X12500Y8188D01*
G01X12066Y8188D01*
G37*
G36*
G01X12736Y8188D02*
G01X12736Y8661D01*
G01X13169Y8661D01*
G01X13169Y8188D01*
G01X12736Y8188D01*
G37*
G04 Draw part C10*
G36*
G01X10570Y8425D02*
G01X10570Y8897D01*
G01X11003Y8897D01*
G01X11003Y8425D01*
G01X10570Y8425D01*
G37*
G36*
G01X11240Y8425D02*
G01X11240Y8897D01*
G01X11673Y8897D01*
G01X11673Y8425D01*
G01X11240Y8425D01*
G37*
G04 Draw part C11*
G36*
G01X10570Y6692D02*
G01X10570Y7165D01*
G01X11003Y7165D01*
G01X11003Y6692D01*
G01X10570Y6692D01*
G37*
G36*
G01X11240Y6692D02*
G01X11240Y7165D01*
G01X11673Y7165D01*
G01X11673Y6692D01*
G01X11240Y6692D01*
G37*
G04 Draw part U1*
G36*
G01X27303Y5649D02*
G01X27303Y5767D01*
G01X27893Y5767D01*
G01X27893Y5649D01*
G01X27303Y5649D01*
G37*
G36*
G01X27303Y5846D02*
G01X27303Y5964D01*
G01X27893Y5964D01*
G01X27893Y5846D01*
G01X27303Y5846D01*
G37*
G36*
G01X27303Y6043D02*
G01X27303Y6161D01*
G01X27893Y6161D01*
G01X27893Y6043D01*
G01X27303Y6043D01*
G37*
G36*
G01X27303Y6240D02*
G01X27303Y6358D01*
G01X27893Y6358D01*
G01X27893Y6240D01*
G01X27303Y6240D01*
G37*
G36*
G01X27303Y6437D02*
G01X27303Y6555D01*
G01X27893Y6555D01*
G01X27893Y6437D01*
G01X27303Y6437D01*
G37*
G36*
G01X27303Y6633D02*
G01X27303Y6751D01*
G01X27893Y6751D01*
G01X27893Y6633D01*
G01X27303Y6633D01*
G37*
G36*
G01X27303Y6830D02*
G01X27303Y6948D01*
G01X27893Y6948D01*
G01X27893Y6830D01*
G01X27303Y6830D01*
G37*
G36*
G01X27303Y7027D02*
G01X27303Y7145D01*
G01X27893Y7145D01*
G01X27893Y7027D01*
G01X27303Y7027D01*
G37*
G36*
G01X27303Y7224D02*
G01X27303Y7342D01*
G01X27893Y7342D01*
G01X27893Y7224D01*
G01X27303Y7224D01*
G37*
G36*
G01X27303Y7421D02*
G01X27303Y7539D01*
G01X27893Y7539D01*
G01X27893Y7421D01*
G01X27303Y7421D01*
G37*
G36*
G01X27303Y7618D02*
G01X27303Y7736D01*
G01X27893Y7736D01*
G01X27893Y7618D01*
G01X27303Y7618D01*
G37*
G36*
G01X27303Y7814D02*
G01X27303Y7933D01*
G01X27893Y7933D01*
G01X27893Y7814D01*
G01X27303Y7814D01*
G37*
G36*
G01X27303Y8011D02*
G01X27303Y8129D01*
G01X27893Y8129D01*
G01X27893Y8011D01*
G01X27303Y8011D01*
G37*
G36*
G01X27303Y8208D02*
G01X27303Y8326D01*
G01X27893Y8326D01*
G01X27893Y8208D01*
G01X27303Y8208D01*
G37*
G36*
G01X27303Y8405D02*
G01X27303Y8523D01*
G01X27893Y8523D01*
G01X27893Y8405D01*
G01X27303Y8405D01*
G37*
G36*
G01X27303Y8602D02*
G01X27303Y8720D01*
G01X27893Y8720D01*
G01X27893Y8602D01*
G01X27303Y8602D01*
G37*
G36*
G01X27303Y8799D02*
G01X27303Y8917D01*
G01X27893Y8917D01*
G01X27893Y8799D01*
G01X27303Y8799D01*
G37*
G36*
G01X27303Y8996D02*
G01X27303Y9114D01*
G01X27893Y9114D01*
G01X27893Y8996D01*
G01X27303Y8996D01*
G37*
G36*
G01X27303Y9192D02*
G01X27303Y9311D01*
G01X27893Y9311D01*
G01X27893Y9192D01*
G01X27303Y9192D01*
G37*
G36*
G01X27303Y9389D02*
G01X27303Y9507D01*
G01X27893Y9507D01*
G01X27893Y9389D01*
G01X27303Y9389D01*
G37*
G36*
G01X27303Y9586D02*
G01X27303Y9704D01*
G01X27893Y9704D01*
G01X27893Y9586D01*
G01X27303Y9586D01*
G37*
G36*
G01X27303Y9783D02*
G01X27303Y9901D01*
G01X27893Y9901D01*
G01X27893Y9783D01*
G01X27303Y9783D01*
G37*
G36*
G01X27303Y9980D02*
G01X27303Y10098D01*
G01X27893Y10098D01*
G01X27893Y9980D01*
G01X27303Y9980D01*
G37*
G36*
G01X27303Y10177D02*
G01X27303Y10295D01*
G01X27893Y10295D01*
G01X27893Y10177D01*
G01X27303Y10177D01*
G37*
G36*
G01X27303Y10374D02*
G01X27303Y10492D01*
G01X27893Y10492D01*
G01X27893Y10374D01*
G01X27303Y10374D01*
G37*
G36*
G01X26870Y10807D02*
G01X26870Y11397D01*
G01X26988Y11397D01*
G01X26988Y10807D01*
G01X26870Y10807D01*
G37*
G36*
G01X26673Y10807D02*
G01X26673Y11397D01*
G01X26791Y11397D01*
G01X26791Y10807D01*
G01X26673Y10807D01*
G37*
G36*
G01X26476Y10807D02*
G01X26476Y11397D01*
G01X26594Y11397D01*
G01X26594Y10807D01*
G01X26476Y10807D01*
G37*
G36*
G01X26279Y10807D02*
G01X26279Y11397D01*
G01X26397Y11397D01*
G01X26397Y10807D01*
G01X26279Y10807D01*
G37*
G36*
G01X26082Y10807D02*
G01X26082Y11397D01*
G01X26200Y11397D01*
G01X26200Y10807D01*
G01X26082Y10807D01*
G37*
G36*
G01X25885Y10807D02*
G01X25885Y11397D01*
G01X26003Y11397D01*
G01X26003Y10807D01*
G01X25885Y10807D01*
G37*
G36*
G01X25688Y10807D02*
G01X25688Y11397D01*
G01X25807Y11397D01*
G01X25807Y10807D01*
G01X25688Y10807D01*
G37*
G36*
G01X25492Y10807D02*
G01X25492Y11397D01*
G01X25610Y11397D01*
G01X25610Y10807D01*
G01X25492Y10807D01*
G37*
G36*
G01X25295Y10807D02*
G01X25295Y11397D01*
G01X25413Y11397D01*
G01X25413Y10807D01*
G01X25295Y10807D01*
G37*
G36*
G01X25098Y10807D02*
G01X25098Y11397D01*
G01X25216Y11397D01*
G01X25216Y10807D01*
G01X25098Y10807D01*
G37*
G36*
G01X24901Y10807D02*
G01X24901Y11397D01*
G01X25019Y11397D01*
G01X25019Y10807D01*
G01X24901Y10807D01*
G37*
G36*
G01X24704Y10807D02*
G01X24704Y11397D01*
G01X24822Y11397D01*
G01X24822Y10807D01*
G01X24704Y10807D01*
G37*
G36*
G01X24507Y10807D02*
G01X24507Y11397D01*
G01X24625Y11397D01*
G01X24625Y10807D01*
G01X24507Y10807D01*
G37*
G36*
G01X24311Y10807D02*
G01X24311Y11397D01*
G01X24429Y11397D01*
G01X24429Y10807D01*
G01X24311Y10807D01*
G37*
G36*
G01X24114Y10807D02*
G01X24114Y11397D01*
G01X24232Y11397D01*
G01X24232Y10807D01*
G01X24114Y10807D01*
G37*
G36*
G01X23917Y10807D02*
G01X23917Y11397D01*
G01X24035Y11397D01*
G01X24035Y10807D01*
G01X23917Y10807D01*
G37*
G36*
G01X23720Y10807D02*
G01X23720Y11397D01*
G01X23838Y11397D01*
G01X23838Y10807D01*
G01X23720Y10807D01*
G37*
G36*
G01X23523Y10807D02*
G01X23523Y11397D01*
G01X23641Y11397D01*
G01X23641Y10807D01*
G01X23523Y10807D01*
G37*
G36*
G01X23326Y10807D02*
G01X23326Y11397D01*
G01X23444Y11397D01*
G01X23444Y10807D01*
G01X23326Y10807D01*
G37*
G36*
G01X23129Y10807D02*
G01X23129Y11397D01*
G01X23248Y11397D01*
G01X23248Y10807D01*
G01X23129Y10807D01*
G37*
G36*
G01X22933Y10807D02*
G01X22933Y11397D01*
G01X23051Y11397D01*
G01X23051Y10807D01*
G01X22933Y10807D01*
G37*
G36*
G01X22736Y10807D02*
G01X22736Y11397D01*
G01X22854Y11397D01*
G01X22854Y10807D01*
G01X22736Y10807D01*
G37*
G36*
G01X22539Y10807D02*
G01X22539Y11397D01*
G01X22657Y11397D01*
G01X22657Y10807D01*
G01X22539Y10807D01*
G37*
G36*
G01X22342Y10807D02*
G01X22342Y11397D01*
G01X22460Y11397D01*
G01X22460Y10807D01*
G01X22342Y10807D01*
G37*
G36*
G01X22145Y10807D02*
G01X22145Y11397D01*
G01X22263Y11397D01*
G01X22263Y10807D01*
G01X22145Y10807D01*
G37*
G36*
G01X21240Y10374D02*
G01X21240Y10492D01*
G01X21830Y10492D01*
G01X21830Y10374D01*
G01X21240Y10374D01*
G37*
G36*
G01X21240Y10177D02*
G01X21240Y10295D01*
G01X21830Y10295D01*
G01X21830Y10177D01*
G01X21240Y10177D01*
G37*
G36*
G01X21240Y9980D02*
G01X21240Y10098D01*
G01X21830Y10098D01*
G01X21830Y9980D01*
G01X21240Y9980D01*
G37*
G36*
G01X21240Y9783D02*
G01X21240Y9901D01*
G01X21830Y9901D01*
G01X21830Y9783D01*
G01X21240Y9783D01*
G37*
G36*
G01X21240Y9586D02*
G01X21240Y9704D01*
G01X21830Y9704D01*
G01X21830Y9586D01*
G01X21240Y9586D01*
G37*
G36*
G01X21240Y9389D02*
G01X21240Y9507D01*
G01X21830Y9507D01*
G01X21830Y9389D01*
G01X21240Y9389D01*
G37*
G36*
G01X21240Y9192D02*
G01X21240Y9311D01*
G01X21830Y9311D01*
G01X21830Y9192D01*
G01X21240Y9192D01*
G37*
G36*
G01X21240Y8996D02*
G01X21240Y9114D01*
G01X21830Y9114D01*
G01X21830Y8996D01*
G01X21240Y8996D01*
G37*
G36*
G01X21240Y8799D02*
G01X21240Y8917D01*
G01X21830Y8917D01*
G01X21830Y8799D01*
G01X21240Y8799D01*
G37*
G36*
G01X21240Y8602D02*
G01X21240Y8720D01*
G01X21830Y8720D01*
G01X21830Y8602D01*
G01X21240Y8602D01*
G37*
G36*
G01X21240Y8405D02*
G01X21240Y8523D01*
G01X21830Y8523D01*
G01X21830Y8405D01*
G01X21240Y8405D01*
G37*
G36*
G01X21240Y8208D02*
G01X21240Y8326D01*
G01X21830Y8326D01*
G01X21830Y8208D01*
G01X21240Y8208D01*
G37*
G36*
G01X21240Y8011D02*
G01X21240Y8129D01*
G01X21830Y8129D01*
G01X21830Y8011D01*
G01X21240Y8011D01*
G37*
G36*
G01X21240Y7814D02*
G01X21240Y7933D01*
G01X21830Y7933D01*
G01X21830Y7814D01*
G01X21240Y7814D01*
G37*
G36*
G01X21240Y7618D02*
G01X21240Y7736D01*
G01X21830Y7736D01*
G01X21830Y7618D01*
G01X21240Y7618D01*
G37*
G36*
G01X21240Y7421D02*
G01X21240Y7539D01*
G01X21830Y7539D01*
G01X21830Y7421D01*
G01X21240Y7421D01*
G37*
G36*
G01X21240Y7224D02*
G01X21240Y7342D01*
G01X21830Y7342D01*
G01X21830Y7224D01*
G01X21240Y7224D01*
G37*
G36*
G01X21240Y7027D02*
G01X21240Y7145D01*
G01X21830Y7145D01*
G01X21830Y7027D01*
G01X21240Y7027D01*
G37*
G36*
G01X21240Y6830D02*
G01X21240Y6948D01*
G01X21830Y6948D01*
G01X21830Y6830D01*
G01X21240Y6830D01*
G37*
G36*
G01X21240Y6633D02*
G01X21240Y6751D01*
G01X21830Y6751D01*
G01X21830Y6633D01*
G01X21240Y6633D01*
G37*
G36*
G01X21240Y6437D02*
G01X21240Y6555D01*
G01X21830Y6555D01*
G01X21830Y6437D01*
G01X21240Y6437D01*
G37*
G36*
G01X21240Y6240D02*
G01X21240Y6358D01*
G01X21830Y6358D01*
G01X21830Y6240D01*
G01X21240Y6240D01*
G37*
G36*
G01X21240Y6043D02*
G01X21240Y6161D01*
G01X21830Y6161D01*
G01X21830Y6043D01*
G01X21240Y6043D01*
G37*
G36*
G01X21240Y5846D02*
G01X21240Y5964D01*
G01X21830Y5964D01*
G01X21830Y5846D01*
G01X21240Y5846D01*
G37*
G36*
G01X21240Y5649D02*
G01X21240Y5767D01*
G01X21830Y5767D01*
G01X21830Y5649D01*
G01X21240Y5649D01*
G37*
G36*
G01X22145Y4744D02*
G01X22145Y5334D01*
G01X22263Y5334D01*
G01X22263Y4744D01*
G01X22145Y4744D01*
G37*
G36*
G01X22342Y4744D02*
G01X22342Y5334D01*
G01X22460Y5334D01*
G01X22460Y4744D01*
G01X22342Y4744D01*
G37*
G36*
G01X22539Y4744D02*
G01X22539Y5334D01*
G01X22657Y5334D01*
G01X22657Y4744D01*
G01X22539Y4744D01*
G37*
G36*
G01X22736Y4744D02*
G01X22736Y5334D01*
G01X22854Y5334D01*
G01X22854Y4744D01*
G01X22736Y4744D01*
G37*
G36*
G01X22933Y4744D02*
G01X22933Y5334D01*
G01X23051Y5334D01*
G01X23051Y4744D01*
G01X22933Y4744D01*
G37*
G36*
G01X23129Y4744D02*
G01X23129Y5334D01*
G01X23248Y5334D01*
G01X23248Y4744D01*
G01X23129Y4744D01*
G37*
G36*
G01X23326Y4744D02*
G01X23326Y5334D01*
G01X23444Y5334D01*
G01X23444Y4744D01*
G01X23326Y4744D01*
G37*
G36*
G01X23523Y4744D02*
G01X23523Y5334D01*
G01X23641Y5334D01*
G01X23641Y4744D01*
G01X23523Y4744D01*
G37*
G36*
G01X23720Y4744D02*
G01X23720Y5334D01*
G01X23838Y5334D01*
G01X23838Y4744D01*
G01X23720Y4744D01*
G37*
G36*
G01X23917Y4744D02*
G01X23917Y5334D01*
G01X24035Y5334D01*
G01X24035Y4744D01*
G01X23917Y4744D01*
G37*
G36*
G01X24114Y4744D02*
G01X24114Y5334D01*
G01X24232Y5334D01*
G01X24232Y4744D01*
G01X24114Y4744D01*
G37*
G36*
G01X24311Y4744D02*
G01X24311Y5334D01*
G01X24429Y5334D01*
G01X24429Y4744D01*
G01X24311Y4744D01*
G37*
G36*
G01X24507Y4744D02*
G01X24507Y5334D01*
G01X24625Y5334D01*
G01X24625Y4744D01*
G01X24507Y4744D01*
G37*
G36*
G01X24704Y4744D02*
G01X24704Y5334D01*
G01X24822Y5334D01*
G01X24822Y4744D01*
G01X24704Y4744D01*
G37*
G36*
G01X24901Y4744D02*
G01X24901Y5334D01*
G01X25019Y5334D01*
G01X25019Y4744D01*
G01X24901Y4744D01*
G37*
G36*
G01X25098Y4744D02*
G01X25098Y5334D01*
G01X25216Y5334D01*
G01X25216Y4744D01*
G01X25098Y4744D01*
G37*
G36*
G01X25295Y4744D02*
G01X25295Y5334D01*
G01X25413Y5334D01*
G01X25413Y4744D01*
G01X25295Y4744D01*
G37*
G36*
G01X25492Y4744D02*
G01X25492Y5334D01*
G01X25610Y5334D01*
G01X25610Y4744D01*
G01X25492Y4744D01*
G37*
G36*
G01X25688Y4744D02*
G01X25688Y5334D01*
G01X25807Y5334D01*
G01X25807Y4744D01*
G01X25688Y4744D01*
G37*
G36*
G01X25885Y4744D02*
G01X25885Y5334D01*
G01X26003Y5334D01*
G01X26003Y4744D01*
G01X25885Y4744D01*
G37*
G36*
G01X26082Y4744D02*
G01X26082Y5334D01*
G01X26200Y5334D01*
G01X26200Y4744D01*
G01X26082Y4744D01*
G37*
G36*
G01X26279Y4744D02*
G01X26279Y5334D01*
G01X26397Y5334D01*
G01X26397Y4744D01*
G01X26279Y4744D01*
G37*
G36*
G01X26476Y4744D02*
G01X26476Y5334D01*
G01X26594Y5334D01*
G01X26594Y4744D01*
G01X26476Y4744D01*
G37*
G36*
G01X26673Y4744D02*
G01X26673Y5334D01*
G01X26791Y5334D01*
G01X26791Y4744D01*
G01X26673Y4744D01*
G37*
G36*
G01X26870Y4744D02*
G01X26870Y5334D01*
G01X26988Y5334D01*
G01X26988Y4744D01*
G01X26870Y4744D01*
G37*
G04 Draw part X1*
G36*
G01X30314Y7972D02*
G01X30314Y10137D01*
G01X31102Y10137D01*
G01X31102Y7972D01*
G01X30314Y7972D01*
G37*
G36*
G01X30314Y4625D02*
G01X30314Y6791D01*
G01X31102Y6791D01*
G01X31102Y4625D01*
G01X30314Y4625D01*
G37*
G04 Draw part C18*
G36*
G01X28287Y7086D02*
G01X28287Y7559D01*
G01X28720Y7559D01*
G01X28720Y7086D01*
G01X28287Y7086D01*
G37*
G36*
G01X28956Y7086D02*
G01X28956Y7559D01*
G01X29389Y7559D01*
G01X29389Y7086D01*
G01X28956Y7086D01*
G37*
G04 Draw part C19*
G36*
G01X28287Y5826D02*
G01X28287Y6299D01*
G01X28720Y6299D01*
G01X28720Y5826D01*
G01X28287Y5826D01*
G37*
G36*
G01X28956Y5826D02*
G01X28956Y6299D01*
G01X29389Y6299D01*
G01X29389Y5826D01*
G01X28956Y5826D01*
G37*
G04 Draw part R1*
G36*
G01X28287Y10551D02*
G01X28287Y11023D01*
G01X28720Y11023D01*
G01X28720Y10551D01*
G01X28287Y10551D01*
G37*
G36*
G01X28956Y10551D02*
G01X28956Y11023D01*
G01X29389Y11023D01*
G01X29389Y10551D01*
G01X28956Y10551D01*
G37*
G04 Draw part C12*
G36*
G01X3641Y10118D02*
G01X3641Y10590D01*
G01X4074Y10590D01*
G01X4074Y10118D01*
G01X3641Y10118D01*
G37*
G36*
G01X4311Y10118D02*
G01X4311Y10590D01*
G01X4744Y10590D01*
G01X4744Y10118D01*
G01X4311Y10118D01*
G37*
G04 Draw part C13*
G36*
G01X3641Y11181D02*
G01X3641Y11653D01*
G01X4074Y11653D01*
G01X4074Y11181D01*
G01X3641Y11181D01*
G37*
G36*
G01X4311Y11181D02*
G01X4311Y11653D01*
G01X4744Y11653D01*
G01X4744Y11181D01*
G01X4311Y11181D01*
G37*
G04 Draw part U2*
G36*
G01X18070Y6043D02*
G01X18070Y6161D01*
G01X18661Y6161D01*
G01X18661Y6043D01*
G01X18070Y6043D01*
G37*
G36*
G01X18070Y6240D02*
G01X18070Y6358D01*
G01X18661Y6358D01*
G01X18661Y6240D01*
G01X18070Y6240D01*
G37*
G36*
G01X18070Y6437D02*
G01X18070Y6555D01*
G01X18661Y6555D01*
G01X18661Y6437D01*
G01X18070Y6437D01*
G37*
G36*
G01X18070Y6633D02*
G01X18070Y6751D01*
G01X18661Y6751D01*
G01X18661Y6633D01*
G01X18070Y6633D01*
G37*
G36*
G01X18070Y6830D02*
G01X18070Y6948D01*
G01X18661Y6948D01*
G01X18661Y6830D01*
G01X18070Y6830D01*
G37*
G36*
G01X18070Y7027D02*
G01X18070Y7145D01*
G01X18661Y7145D01*
G01X18661Y7027D01*
G01X18070Y7027D01*
G37*
G36*
G01X18070Y7224D02*
G01X18070Y7342D01*
G01X18661Y7342D01*
G01X18661Y7224D01*
G01X18070Y7224D01*
G37*
G36*
G01X18070Y7421D02*
G01X18070Y7539D01*
G01X18661Y7539D01*
G01X18661Y7421D01*
G01X18070Y7421D01*
G37*
G36*
G01X18070Y7618D02*
G01X18070Y7736D01*
G01X18661Y7736D01*
G01X18661Y7618D01*
G01X18070Y7618D01*
G37*
G36*
G01X18070Y7814D02*
G01X18070Y7933D01*
G01X18661Y7933D01*
G01X18661Y7814D01*
G01X18070Y7814D01*
G37*
G36*
G01X18070Y8011D02*
G01X18070Y8129D01*
G01X18661Y8129D01*
G01X18661Y8011D01*
G01X18070Y8011D01*
G37*
G36*
G01X18070Y8208D02*
G01X18070Y8326D01*
G01X18661Y8326D01*
G01X18661Y8208D01*
G01X18070Y8208D01*
G37*
G36*
G01X18070Y8405D02*
G01X18070Y8523D01*
G01X18661Y8523D01*
G01X18661Y8405D01*
G01X18070Y8405D01*
G37*
G36*
G01X18070Y8602D02*
G01X18070Y8720D01*
G01X18661Y8720D01*
G01X18661Y8602D01*
G01X18070Y8602D01*
G37*
G36*
G01X18070Y8799D02*
G01X18070Y8917D01*
G01X18661Y8917D01*
G01X18661Y8799D01*
G01X18070Y8799D01*
G37*
G36*
G01X18070Y8996D02*
G01X18070Y9114D01*
G01X18661Y9114D01*
G01X18661Y8996D01*
G01X18070Y8996D01*
G37*
G36*
G01X17539Y9527D02*
G01X17539Y10118D01*
G01X17657Y10118D01*
G01X17657Y9527D01*
G01X17539Y9527D01*
G37*
G36*
G01X17342Y9527D02*
G01X17342Y10118D01*
G01X17460Y10118D01*
G01X17460Y9527D01*
G01X17342Y9527D01*
G37*
G36*
G01X17145Y9527D02*
G01X17145Y10118D01*
G01X17263Y10118D01*
G01X17263Y9527D01*
G01X17145Y9527D01*
G37*
G36*
G01X16948Y9527D02*
G01X16948Y10118D01*
G01X17066Y10118D01*
G01X17066Y9527D01*
G01X16948Y9527D01*
G37*
G36*
G01X16751Y9527D02*
G01X16751Y10118D01*
G01X16870Y10118D01*
G01X16870Y9527D01*
G01X16751Y9527D01*
G37*
G36*
G01X16555Y9527D02*
G01X16555Y10118D01*
G01X16673Y10118D01*
G01X16673Y9527D01*
G01X16555Y9527D01*
G37*
G36*
G01X16358Y9527D02*
G01X16358Y10118D01*
G01X16476Y10118D01*
G01X16476Y9527D01*
G01X16358Y9527D01*
G37*
G36*
G01X16161Y9527D02*
G01X16161Y10118D01*
G01X16279Y10118D01*
G01X16279Y9527D01*
G01X16161Y9527D01*
G37*
G36*
G01X15964Y9527D02*
G01X15964Y10118D01*
G01X16082Y10118D01*
G01X16082Y9527D01*
G01X15964Y9527D01*
G37*
G36*
G01X15767Y9527D02*
G01X15767Y10118D01*
G01X15885Y10118D01*
G01X15885Y9527D01*
G01X15767Y9527D01*
G37*
G36*
G01X15570Y9527D02*
G01X15570Y10118D01*
G01X15688Y10118D01*
G01X15688Y9527D01*
G01X15570Y9527D01*
G37*
G36*
G01X15374Y9527D02*
G01X15374Y10118D01*
G01X15492Y10118D01*
G01X15492Y9527D01*
G01X15374Y9527D01*
G37*
G36*
G01X15177Y9527D02*
G01X15177Y10118D01*
G01X15295Y10118D01*
G01X15295Y9527D01*
G01X15177Y9527D01*
G37*
G36*
G01X14980Y9527D02*
G01X14980Y10118D01*
G01X15098Y10118D01*
G01X15098Y9527D01*
G01X14980Y9527D01*
G37*
G36*
G01X14783Y9527D02*
G01X14783Y10118D01*
G01X14901Y10118D01*
G01X14901Y9527D01*
G01X14783Y9527D01*
G37*
G36*
G01X14586Y9527D02*
G01X14586Y10118D01*
G01X14704Y10118D01*
G01X14704Y9527D01*
G01X14586Y9527D01*
G37*
G36*
G01X13582Y8996D02*
G01X13582Y9114D01*
G01X14173Y9114D01*
G01X14173Y8996D01*
G01X13582Y8996D01*
G37*
G36*
G01X13582Y8799D02*
G01X13582Y8917D01*
G01X14173Y8917D01*
G01X14173Y8799D01*
G01X13582Y8799D01*
G37*
G36*
G01X13582Y8602D02*
G01X13582Y8720D01*
G01X14173Y8720D01*
G01X14173Y8602D01*
G01X13582Y8602D01*
G37*
G36*
G01X13582Y8405D02*
G01X13582Y8523D01*
G01X14173Y8523D01*
G01X14173Y8405D01*
G01X13582Y8405D01*
G37*
G36*
G01X13582Y8208D02*
G01X13582Y8326D01*
G01X14173Y8326D01*
G01X14173Y8208D01*
G01X13582Y8208D01*
G37*
G36*
G01X13582Y8011D02*
G01X13582Y8129D01*
G01X14173Y8129D01*
G01X14173Y8011D01*
G01X13582Y8011D01*
G37*
G36*
G01X13582Y7814D02*
G01X13582Y7933D01*
G01X14173Y7933D01*
G01X14173Y7814D01*
G01X13582Y7814D01*
G37*
G36*
G01X13582Y7618D02*
G01X13582Y7736D01*
G01X14173Y7736D01*
G01X14173Y7618D01*
G01X13582Y7618D01*
G37*
G36*
G01X13582Y7421D02*
G01X13582Y7539D01*
G01X14173Y7539D01*
G01X14173Y7421D01*
G01X13582Y7421D01*
G37*
G36*
G01X13582Y7224D02*
G01X13582Y7342D01*
G01X14173Y7342D01*
G01X14173Y7224D01*
G01X13582Y7224D01*
G37*
G36*
G01X13582Y7027D02*
G01X13582Y7145D01*
G01X14173Y7145D01*
G01X14173Y7027D01*
G01X13582Y7027D01*
G37*
G36*
G01X13582Y6830D02*
G01X13582Y6948D01*
G01X14173Y6948D01*
G01X14173Y6830D01*
G01X13582Y6830D01*
G37*
G36*
G01X13582Y6633D02*
G01X13582Y6751D01*
G01X14173Y6751D01*
G01X14173Y6633D01*
G01X13582Y6633D01*
G37*
G36*
G01X13582Y6437D02*
G01X13582Y6555D01*
G01X14173Y6555D01*
G01X14173Y6437D01*
G01X13582Y6437D01*
G37*
G36*
G01X13582Y6240D02*
G01X13582Y6358D01*
G01X14173Y6358D01*
G01X14173Y6240D01*
G01X13582Y6240D01*
G37*
G36*
G01X13582Y6043D02*
G01X13582Y6161D01*
G01X14173Y6161D01*
G01X14173Y6043D01*
G01X13582Y6043D01*
G37*
G36*
G01X14586Y5039D02*
G01X14586Y5629D01*
G01X14704Y5629D01*
G01X14704Y5039D01*
G01X14586Y5039D01*
G37*
G36*
G01X14783Y5039D02*
G01X14783Y5629D01*
G01X14901Y5629D01*
G01X14901Y5039D01*
G01X14783Y5039D01*
G37*
G36*
G01X14980Y5039D02*
G01X14980Y5629D01*
G01X15098Y5629D01*
G01X15098Y5039D01*
G01X14980Y5039D01*
G37*
G36*
G01X15177Y5039D02*
G01X15177Y5629D01*
G01X15295Y5629D01*
G01X15295Y5039D01*
G01X15177Y5039D01*
G37*
G36*
G01X15374Y5039D02*
G01X15374Y5629D01*
G01X15492Y5629D01*
G01X15492Y5039D01*
G01X15374Y5039D01*
G37*
G36*
G01X15570Y5039D02*
G01X15570Y5629D01*
G01X15688Y5629D01*
G01X15688Y5039D01*
G01X15570Y5039D01*
G37*
G36*
G01X15767Y5039D02*
G01X15767Y5629D01*
G01X15885Y5629D01*
G01X15885Y5039D01*
G01X15767Y5039D01*
G37*
G36*
G01X15964Y5039D02*
G01X15964Y5629D01*
G01X16082Y5629D01*
G01X16082Y5039D01*
G01X15964Y5039D01*
G37*
G36*
G01X16161Y5039D02*
G01X16161Y5629D01*
G01X16279Y5629D01*
G01X16279Y5039D01*
G01X16161Y5039D01*
G37*
G36*
G01X16358Y5039D02*
G01X16358Y5629D01*
G01X16476Y5629D01*
G01X16476Y5039D01*
G01X16358Y5039D01*
G37*
G36*
G01X16555Y5039D02*
G01X16555Y5629D01*
G01X16673Y5629D01*
G01X16673Y5039D01*
G01X16555Y5039D01*
G37*
G36*
G01X16751Y5039D02*
G01X16751Y5629D01*
G01X16870Y5629D01*
G01X16870Y5039D01*
G01X16751Y5039D01*
G37*
G36*
G01X16948Y5039D02*
G01X16948Y5629D01*
G01X17066Y5629D01*
G01X17066Y5039D01*
G01X16948Y5039D01*
G37*
G36*
G01X17145Y5039D02*
G01X17145Y5629D01*
G01X17263Y5629D01*
G01X17263Y5039D01*
G01X17145Y5039D01*
G37*
G36*
G01X17342Y5039D02*
G01X17342Y5629D01*
G01X17460Y5629D01*
G01X17460Y5039D01*
G01X17342Y5039D01*
G37*
G36*
G01X17539Y5039D02*
G01X17539Y5629D01*
G01X17657Y5629D01*
G01X17657Y5039D01*
G01X17539Y5039D01*
G37*
G04 Draw part U3*
G36*
G01X1761Y8996D02*
G01X1761Y9114D01*
G01X2332Y9114D01*
G01X2332Y8996D01*
G01X1761Y8996D01*
G37*
G36*
G01X1761Y8799D02*
G01X1761Y8917D01*
G01X2332Y8917D01*
G01X2332Y8799D01*
G01X1761Y8799D01*
G37*
G36*
G01X1761Y8602D02*
G01X1761Y8720D01*
G01X2332Y8720D01*
G01X2332Y8602D01*
G01X1761Y8602D01*
G37*
G36*
G01X1761Y8405D02*
G01X1761Y8523D01*
G01X2332Y8523D01*
G01X2332Y8405D01*
G01X1761Y8405D01*
G37*
G36*
G01X1761Y8208D02*
G01X1761Y8326D01*
G01X2332Y8326D01*
G01X2332Y8208D01*
G01X1761Y8208D01*
G37*
G36*
G01X1761Y8011D02*
G01X1761Y8129D01*
G01X2332Y8129D01*
G01X2332Y8011D01*
G01X1761Y8011D01*
G37*
G36*
G01X1761Y7814D02*
G01X1761Y7933D01*
G01X2332Y7933D01*
G01X2332Y7814D01*
G01X1761Y7814D01*
G37*
G36*
G01X1761Y7618D02*
G01X1761Y7736D01*
G01X2332Y7736D01*
G01X2332Y7618D01*
G01X1761Y7618D01*
G37*
G36*
G01X1761Y7421D02*
G01X1761Y7539D01*
G01X2332Y7539D01*
G01X2332Y7421D01*
G01X1761Y7421D01*
G37*
G36*
G01X1761Y7224D02*
G01X1761Y7342D01*
G01X2332Y7342D01*
G01X2332Y7224D01*
G01X1761Y7224D01*
G37*
G36*
G01X1761Y7027D02*
G01X1761Y7145D01*
G01X2332Y7145D01*
G01X2332Y7027D01*
G01X1761Y7027D01*
G37*
G36*
G01X1761Y6830D02*
G01X1761Y6948D01*
G01X2332Y6948D01*
G01X2332Y6830D01*
G01X1761Y6830D01*
G37*
G36*
G01X1761Y6633D02*
G01X1761Y6751D01*
G01X2332Y6751D01*
G01X2332Y6633D01*
G01X1761Y6633D01*
G37*
G36*
G01X1761Y6437D02*
G01X1761Y6555D01*
G01X2332Y6555D01*
G01X2332Y6437D01*
G01X1761Y6437D01*
G37*
G36*
G01X1761Y6240D02*
G01X1761Y6358D01*
G01X2332Y6358D01*
G01X2332Y6240D01*
G01X1761Y6240D01*
G37*
G36*
G01X1761Y6043D02*
G01X1761Y6161D01*
G01X2332Y6161D01*
G01X2332Y6043D01*
G01X1761Y6043D01*
G37*
G36*
G01X1761Y5846D02*
G01X1761Y5964D01*
G01X2332Y5964D01*
G01X2332Y5846D01*
G01X1761Y5846D01*
G37*
G36*
G01X1761Y5649D02*
G01X1761Y5767D01*
G01X2332Y5767D01*
G01X2332Y5649D01*
G01X1761Y5649D01*
G37*
G36*
G01X1761Y5452D02*
G01X1761Y5570D01*
G01X2332Y5570D01*
G01X2332Y5452D01*
G01X1761Y5452D01*
G37*
G36*
G01X1761Y5255D02*
G01X1761Y5374D01*
G01X2332Y5374D01*
G01X2332Y5255D01*
G01X1761Y5255D01*
G37*
G36*
G01X1761Y5059D02*
G01X1761Y5177D01*
G01X2332Y5177D01*
G01X2332Y5059D01*
G01X1761Y5059D01*
G37*
G36*
G01X1761Y4862D02*
G01X1761Y4980D01*
G01X2332Y4980D01*
G01X2332Y4862D01*
G01X1761Y4862D01*
G37*
G36*
G01X1761Y4665D02*
G01X1761Y4783D01*
G01X2332Y4783D01*
G01X2332Y4665D01*
G01X1761Y4665D01*
G37*
G36*
G01X1761Y4468D02*
G01X1761Y4586D01*
G01X2332Y4586D01*
G01X2332Y4468D01*
G01X1761Y4468D01*
G37*
G36*
G01X9596Y4468D02*
G01X9596Y4586D01*
G01X10167Y4586D01*
G01X10167Y4468D01*
G01X9596Y4468D01*
G37*
G36*
G01X9596Y4665D02*
G01X9596Y4783D01*
G01X10167Y4783D01*
G01X10167Y4665D01*
G01X9596Y4665D01*
G37*
G36*
G01X9596Y4862D02*
G01X9596Y4980D01*
G01X10167Y4980D01*
G01X10167Y4862D01*
G01X9596Y4862D01*
G37*
G36*
G01X9596Y5059D02*
G01X9596Y5177D01*
G01X10167Y5177D01*
G01X10167Y5059D01*
G01X9596Y5059D01*
G37*
G36*
G01X9596Y5255D02*
G01X9596Y5374D01*
G01X10167Y5374D01*
G01X10167Y5255D01*
G01X9596Y5255D01*
G37*
G36*
G01X9596Y5452D02*
G01X9596Y5570D01*
G01X10167Y5570D01*
G01X10167Y5452D01*
G01X9596Y5452D01*
G37*
G36*
G01X9596Y5649D02*
G01X9596Y5767D01*
G01X10167Y5767D01*
G01X10167Y5649D01*
G01X9596Y5649D01*
G37*
G36*
G01X9596Y5846D02*
G01X9596Y5964D01*
G01X10167Y5964D01*
G01X10167Y5846D01*
G01X9596Y5846D01*
G37*
G36*
G01X9596Y6043D02*
G01X9596Y6161D01*
G01X10167Y6161D01*
G01X10167Y6043D01*
G01X9596Y6043D01*
G37*
G36*
G01X9596Y6240D02*
G01X9596Y6358D01*
G01X10167Y6358D01*
G01X10167Y6240D01*
G01X9596Y6240D01*
G37*
G36*
G01X9596Y6437D02*
G01X9596Y6555D01*
G01X10167Y6555D01*
G01X10167Y6437D01*
G01X9596Y6437D01*
G37*
G36*
G01X9596Y6633D02*
G01X9596Y6751D01*
G01X10167Y6751D01*
G01X10167Y6633D01*
G01X9596Y6633D01*
G37*
G36*
G01X9596Y6830D02*
G01X9596Y6948D01*
G01X10167Y6948D01*
G01X10167Y6830D01*
G01X9596Y6830D01*
G37*
G36*
G01X9596Y7027D02*
G01X9596Y7145D01*
G01X10167Y7145D01*
G01X10167Y7027D01*
G01X9596Y7027D01*
G37*
G36*
G01X9596Y7224D02*
G01X9596Y7342D01*
G01X10167Y7342D01*
G01X10167Y7224D01*
G01X9596Y7224D01*
G37*
G36*
G01X9596Y7421D02*
G01X9596Y7539D01*
G01X10167Y7539D01*
G01X10167Y7421D01*
G01X9596Y7421D01*
G37*
G36*
G01X9596Y7618D02*
G01X9596Y7736D01*
G01X10167Y7736D01*
G01X10167Y7618D01*
G01X9596Y7618D01*
G37*
G36*
G01X9596Y7814D02*
G01X9596Y7933D01*
G01X10167Y7933D01*
G01X10167Y7814D01*
G01X9596Y7814D01*
G37*
G36*
G01X9596Y8011D02*
G01X9596Y8129D01*
G01X10167Y8129D01*
G01X10167Y8011D01*
G01X9596Y8011D01*
G37*
G36*
G01X9596Y8208D02*
G01X9596Y8326D01*
G01X10167Y8326D01*
G01X10167Y8208D01*
G01X9596Y8208D01*
G37*
G36*
G01X9596Y8405D02*
G01X9596Y8523D01*
G01X10167Y8523D01*
G01X10167Y8405D01*
G01X9596Y8405D01*
G37*
G36*
G01X9596Y8602D02*
G01X9596Y8720D01*
G01X10167Y8720D01*
G01X10167Y8602D01*
G01X9596Y8602D01*
G37*
G36*
G01X9596Y8799D02*
G01X9596Y8917D01*
G01X10167Y8917D01*
G01X10167Y8799D01*
G01X9596Y8799D01*
G37*
G36*
G01X9596Y8996D02*
G01X9596Y9114D01*
G01X10167Y9114D01*
G01X10167Y8996D01*
G01X9596Y8996D01*
G37*
G04 Draw part U4*
G36*
G01X5078Y11407D02*
G01X5078Y11584D01*
G01X5629Y11584D01*
G01X5629Y11407D01*
G01X5078Y11407D01*
G37*
G36*
G01X5078Y11151D02*
G01X5078Y11328D01*
G01X5629Y11328D01*
G01X5629Y11151D01*
G01X5078Y11151D01*
G37*
G36*
G01X5078Y10895D02*
G01X5078Y11072D01*
G01X5629Y11072D01*
G01X5629Y10895D01*
G01X5078Y10895D01*
G37*
G36*
G01X5078Y10639D02*
G01X5078Y10816D01*
G01X5629Y10816D01*
G01X5629Y10639D01*
G01X5078Y10639D01*
G37*
G36*
G01X6811Y10639D02*
G01X6811Y10816D01*
G01X7362Y10816D01*
G01X7362Y10639D01*
G01X6811Y10639D01*
G37*
G36*
G01X6811Y10895D02*
G01X6811Y11072D01*
G01X7362Y11072D01*
G01X7362Y10895D01*
G01X6811Y10895D01*
G37*
G36*
G01X6811Y11151D02*
G01X6811Y11328D01*
G01X7362Y11328D01*
G01X7362Y11151D01*
G01X6811Y11151D01*
G37*
G36*
G01X6811Y11407D02*
G01X6811Y11584D01*
G01X7362Y11584D01*
G01X7362Y11407D01*
G01X6811Y11407D01*
G37*
G36*
G01X5856Y10748D02*
G01X5856Y11476D01*
G01X6584Y11476D01*
G01X6584Y10748D01*
G01X5856Y10748D01*
G37*
G04 Draw part L1*
G36*
G01X7716Y12657D02*
G01X7716Y13169D01*
G01X8346Y13169D01*
G01X8346Y12657D01*
G01X7716Y12657D01*
G37*
G36*
G01X7716Y11909D02*
G01X7716Y12421D01*
G01X8346Y12421D01*
G01X8346Y11909D01*
G01X7716Y11909D01*
G37*
G04 Draw part J1*
G04 Draw part J2*
G04 Draw part J3*
G36*
G01X16673Y11860D02*
G01X16673Y12746D01*
G01X16870Y12746D01*
G01X16870Y11860D01*
G01X16673Y11860D01*
G37*
G36*
G01X16358Y11860D02*
G01X16358Y12746D01*
G01X16555Y12746D01*
G01X16555Y11860D01*
G01X16358Y11860D01*
G37*
G36*
G01X16043Y11860D02*
G01X16043Y12746D01*
G01X16240Y12746D01*
G01X16240Y11860D01*
G01X16043Y11860D01*
G37*
G36*
G01X15728Y11860D02*
G01X15728Y12746D01*
G01X15925Y12746D01*
G01X15925Y11860D01*
G01X15728Y11860D01*
G37*
G36*
G01X15413Y11860D02*
G01X15413Y12746D01*
G01X15610Y12746D01*
G01X15610Y11860D01*
G01X15413Y11860D01*
G37*
G36*
G01X17677Y11751D02*
G01X17677Y12854D01*
G01X18484Y12854D01*
G01X18484Y11751D01*
G01X17677Y11751D01*
G37*
G36*
G01X13799Y11751D02*
G01X13799Y12854D01*
G01X14606Y12854D01*
G01X14606Y11751D01*
G01X13799Y11751D01*
G37*
G36*
G01X17677Y13326D02*
G01X17677Y14429D01*
G01X18484Y14429D01*
G01X18484Y13326D01*
G01X17677Y13326D01*
G37*
G36*
G01X13799Y13326D02*
G01X13799Y14429D01*
G01X14606Y14429D01*
G01X14606Y13326D01*
G01X13799Y13326D01*
G37*
G04 Draw part J4*
G04 Draw part C17*
G36*
G01X8887Y11811D02*
G01X8887Y12440D01*
G01X10127Y12440D01*
G01X10127Y11811D01*
G01X8887Y11811D01*
G37*
G36*
G01X10816Y11811D02*
G01X10816Y12440D01*
G01X12057Y12440D01*
G01X12057Y11811D01*
G01X10816Y11811D01*
G37*
G04 Draw part M1*
G04 Draw part M2*
G04 Draw part C16*
G36*
G01X22125Y3848D02*
G01X22125Y4340D01*
G01X22834Y4340D01*
G01X22834Y3848D01*
G01X22125Y3848D01*
G37*
G36*
G01X23149Y3848D02*
G01X23149Y4340D01*
G01X23858Y4340D01*
G01X23858Y3848D01*
G01X23149Y3848D01*
G37*
G04 Draw part C15*
G36*
G01X5433Y9596D02*
G01X5433Y10088D01*
G01X6141Y10088D01*
G01X6141Y9596D01*
G01X5433Y9596D01*
G37*
G36*
G01X6456Y9596D02*
G01X6456Y10088D01*
G01X7165Y10088D01*
G01X7165Y9596D01*
G01X6456Y9596D01*
G37*
G04 Draw part C20*
G36*
G01X12440Y13208D02*
G01X12440Y13720D01*
G01X13070Y13720D01*
G01X13070Y13208D01*
G01X12440Y13208D01*
G37*
G36*
G01X12440Y12460D02*
G01X12440Y12972D01*
G01X13070Y12972D01*
G01X13070Y12460D01*
G01X12440Y12460D01*
G37*
G04 Draw part R2*
G36*
G01X2125Y10492D02*
G01X2125Y10925D01*
G01X2598Y10925D01*
G01X2598Y10492D01*
G01X2125Y10492D01*
G37*
G36*
G01X2125Y11161D02*
G01X2125Y11594D01*
G01X2598Y11594D01*
G01X2598Y11161D01*
G01X2125Y11161D01*
G37*
G04 Draw part C14*
G36*
G01X708Y5728D02*
G01X708Y6240D01*
G01X1338Y6240D01*
G01X1338Y5728D01*
G01X708Y5728D01*
G37*
G36*
G01X708Y6476D02*
G01X708Y6988D01*
G01X1338Y6988D01*
G01X1338Y6476D01*
G01X708Y6476D01*
G37*
G04 Draw part TP1*
G54D10*
G01X2913Y10000D03*

G04 Draw traces*

G04 Draw Text*
M00*
M02*
