G04 FreePCB version 1.332*
G04 C:\jag\pcb\jagwave\CAM\bottom_copper.grb*
G04 bottom copper layer *
G04 Scale: 100 percent, Rotated: No, Reflected: No *
%FSLAX24Y24*%
%MOIN*%
%LNTop*%
%ADD10R,0.059055X0.059055*%
%ADD11C,0.059055*%
%ADD12C,0.129921*%
%ADD13C,0.050000*%
%ADD14C,0.038000*%
%ADD15C,0.007874*%
%ADD16C,0.030000*%
%ADD17C,0.020000*%
%ADD18C,0.011000*%
G90*
G70D02*

G04 Step and Repeat for panelization *

G04 -------------- Draw Parts, Pads, Traces, Vias and Text (positive)*
%LPD*%
G04 Draw part J1*
G36*
G01X31621Y463D02*
G01X31621Y3483D01*
G01X31921Y3483D01*
G01X31921Y463D01*
G01X31621Y463D01*
G37*
G36*
G01X31031Y463D02*
G01X31031Y3483D01*
G01X31331Y3483D01*
G01X31331Y463D01*
G01X31031Y463D01*
G37*
G36*
G01X30441Y1083D02*
G01X30441Y3483D01*
G01X30741Y3483D01*
G01X30741Y1083D01*
G01X30441Y1083D01*
G37*
G36*
G01X29851Y463D02*
G01X29851Y3483D01*
G01X30151Y3483D01*
G01X30151Y463D01*
G01X29851Y463D01*
G37*
G36*
G01X29261Y1083D02*
G01X29261Y3483D01*
G01X29561Y3483D01*
G01X29561Y1083D01*
G01X29261Y1083D01*
G37*
G36*
G01X28671Y1083D02*
G01X28671Y3483D01*
G01X28971Y3483D01*
G01X28971Y1083D01*
G01X28671Y1083D01*
G37*
G36*
G01X28081Y1083D02*
G01X28081Y3483D01*
G01X28381Y3483D01*
G01X28381Y1083D01*
G01X28081Y1083D01*
G37*
G36*
G01X27491Y1083D02*
G01X27491Y3483D01*
G01X27791Y3483D01*
G01X27791Y1083D01*
G01X27491Y1083D01*
G37*
G36*
G01X26901Y1083D02*
G01X26901Y3483D01*
G01X27201Y3483D01*
G01X27201Y1083D01*
G01X26901Y1083D01*
G37*
G36*
G01X26311Y1083D02*
G01X26311Y3483D01*
G01X26611Y3483D01*
G01X26611Y1083D01*
G01X26311Y1083D01*
G37*
G36*
G01X25721Y1083D02*
G01X25721Y3483D01*
G01X26021Y3483D01*
G01X26021Y1083D01*
G01X25721Y1083D01*
G37*
G36*
G01X25131Y1083D02*
G01X25131Y3483D01*
G01X25431Y3483D01*
G01X25431Y1083D01*
G01X25131Y1083D01*
G37*
G36*
G01X24541Y1083D02*
G01X24541Y3483D01*
G01X24841Y3483D01*
G01X24841Y1083D01*
G01X24541Y1083D01*
G37*
G36*
G01X23951Y1083D02*
G01X23951Y3483D01*
G01X24251Y3483D01*
G01X24251Y1083D01*
G01X23951Y1083D01*
G37*
G36*
G01X23361Y1083D02*
G01X23361Y3483D01*
G01X23661Y3483D01*
G01X23661Y1083D01*
G01X23361Y1083D01*
G37*
G36*
G01X22771Y1083D02*
G01X22771Y3483D01*
G01X23071Y3483D01*
G01X23071Y1083D01*
G01X22771Y1083D01*
G37*
G36*
G01X22181Y1083D02*
G01X22181Y3483D01*
G01X22481Y3483D01*
G01X22481Y1083D01*
G01X22181Y1083D01*
G37*
G36*
G01X21591Y463D02*
G01X21591Y3483D01*
G01X21891Y3483D01*
G01X21891Y463D01*
G01X21591Y463D01*
G37*
G36*
G01X21001Y463D02*
G01X21001Y3483D01*
G01X21301Y3483D01*
G01X21301Y463D01*
G01X21001Y463D01*
G37*
G36*
G01X20411Y463D02*
G01X20411Y3483D01*
G01X20711Y3483D01*
G01X20711Y463D01*
G01X20411Y463D01*
G37*
G36*
G01X19821Y463D02*
G01X19821Y3483D01*
G01X20121Y3483D01*
G01X20121Y463D01*
G01X19821Y463D01*
G37*
G36*
G01X19231Y1083D02*
G01X19231Y3483D01*
G01X19531Y3483D01*
G01X19531Y1083D01*
G01X19231Y1083D01*
G37*
G36*
G01X18641Y463D02*
G01X18641Y3483D01*
G01X18941Y3483D01*
G01X18941Y463D01*
G01X18641Y463D01*
G37*
G36*
G01X18051Y1083D02*
G01X18051Y3483D01*
G01X18351Y3483D01*
G01X18351Y1083D01*
G01X18051Y1083D01*
G37*
G36*
G01X17461Y1083D02*
G01X17461Y3483D01*
G01X17761Y3483D01*
G01X17761Y1083D01*
G01X17461Y1083D01*
G37*
G36*
G01X16871Y463D02*
G01X16871Y3483D01*
G01X17171Y3483D01*
G01X17171Y463D01*
G01X16871Y463D01*
G37*
G36*
G01X16281Y1083D02*
G01X16281Y3483D01*
G01X16581Y3483D01*
G01X16581Y1083D01*
G01X16281Y1083D01*
G37*
G36*
G01X15691Y1083D02*
G01X15691Y3483D01*
G01X15991Y3483D01*
G01X15991Y1083D01*
G01X15691Y1083D01*
G37*
G36*
G01X15101Y1083D02*
G01X15101Y3483D01*
G01X15401Y3483D01*
G01X15401Y1083D01*
G01X15101Y1083D01*
G37*
G36*
G01X14511Y1083D02*
G01X14511Y3483D01*
G01X14811Y3483D01*
G01X14811Y1083D01*
G01X14511Y1083D01*
G37*
G36*
G01X13921Y463D02*
G01X13921Y3483D01*
G01X14221Y3483D01*
G01X14221Y463D01*
G01X13921Y463D01*
G37*
G36*
G01X13331Y1083D02*
G01X13331Y3483D01*
G01X13631Y3483D01*
G01X13631Y1083D01*
G01X13331Y1083D01*
G37*
G36*
G01X12741Y1083D02*
G01X12741Y3483D01*
G01X13041Y3483D01*
G01X13041Y1083D01*
G01X12741Y1083D01*
G37*
G36*
G01X12151Y1083D02*
G01X12151Y3483D01*
G01X12451Y3483D01*
G01X12451Y1083D01*
G01X12151Y1083D01*
G37*
G36*
G01X11561Y1083D02*
G01X11561Y3483D01*
G01X11861Y3483D01*
G01X11861Y1083D01*
G01X11561Y1083D01*
G37*
G36*
G01X10971Y1083D02*
G01X10971Y3483D01*
G01X11271Y3483D01*
G01X11271Y1083D01*
G01X10971Y1083D01*
G37*
G36*
G01X10381Y1083D02*
G01X10381Y3483D01*
G01X10681Y3483D01*
G01X10681Y1083D01*
G01X10381Y1083D01*
G37*
G36*
G01X9791Y1083D02*
G01X9791Y3483D01*
G01X10091Y3483D01*
G01X10091Y1083D01*
G01X9791Y1083D01*
G37*
G36*
G01X9201Y1083D02*
G01X9201Y3483D01*
G01X9501Y3483D01*
G01X9501Y1083D01*
G01X9201Y1083D01*
G37*
G36*
G01X8611Y1083D02*
G01X8611Y3483D01*
G01X8911Y3483D01*
G01X8911Y1083D01*
G01X8611Y1083D01*
G37*
G36*
G01X6841Y463D02*
G01X6841Y3483D01*
G01X7141Y3483D01*
G01X7141Y463D01*
G01X6841Y463D01*
G37*
G36*
G01X6251Y1083D02*
G01X6251Y3483D01*
G01X6551Y3483D01*
G01X6551Y1083D01*
G01X6251Y1083D01*
G37*
G36*
G01X5661Y463D02*
G01X5661Y3483D01*
G01X5961Y3483D01*
G01X5961Y463D01*
G01X5661Y463D01*
G37*
G36*
G01X5071Y1083D02*
G01X5071Y3483D01*
G01X5371Y3483D01*
G01X5371Y1083D01*
G01X5071Y1083D01*
G37*
G36*
G01X4481Y463D02*
G01X4481Y3483D01*
G01X4781Y3483D01*
G01X4781Y463D01*
G01X4481Y463D01*
G37*
G36*
G01X3891Y1083D02*
G01X3891Y3483D01*
G01X4191Y3483D01*
G01X4191Y1083D01*
G01X3891Y1083D01*
G37*
G36*
G01X3301Y1083D02*
G01X3301Y3483D01*
G01X3601Y3483D01*
G01X3601Y1083D01*
G01X3301Y1083D01*
G37*
G36*
G01X2711Y1083D02*
G01X2711Y3483D01*
G01X3011Y3483D01*
G01X3011Y1083D01*
G01X2711Y1083D01*
G37*
G36*
G01X2121Y1083D02*
G01X2121Y3483D01*
G01X2421Y3483D01*
G01X2421Y1083D01*
G01X2121Y1083D01*
G37*
G36*
G01X1531Y1083D02*
G01X1531Y3483D01*
G01X1831Y3483D01*
G01X1831Y1083D01*
G01X1531Y1083D01*
G37*
G36*
G01X941Y463D02*
G01X941Y3483D01*
G01X1241Y3483D01*
G01X1241Y463D01*
G01X941Y463D01*
G37*
G36*
G01X351Y463D02*
G01X351Y3483D01*
G01X651Y3483D01*
G01X651Y463D01*
G01X351Y463D01*
G37*
G04 Draw part C11*
G04 Draw part C12*
G04 Draw part C13*
G04 Draw part C14*
G04 Draw part C15*
G04 Draw part C21*
G04 Draw part C22*
G04 Draw part C23*
G04 Draw part C24*
G04 Draw part C31*
G04 Draw part C32*
G04 Draw part U1*
G04 Draw part X8*
G04 Draw part C81*
G04 Draw part C82*
G04 Draw part R11*
G04 Draw part C41*
G04 Draw part C42*
G04 Draw part U2*
G04 Draw part U3*
G04 Draw part U4*
G04 Draw part L5*
G04 Draw part J5*
G54D10*
G01X5118Y12598D03*
G54D11*
G01X4133Y12598D03*
G01X3346Y12598D03*
G01X2362Y12598D03*
G54D12*
G01X6326Y13665D03*
G01X1153Y13665D03*
G04 Draw part J6*
G54D10*
G01X29921Y12598D03*
G54D11*
G01X28937Y12598D03*
G01X28149Y12598D03*
G01X27165Y12598D03*
G54D12*
G01X31129Y13665D03*
G01X25956Y13665D03*
G04 Draw part J7*
G04 Draw part J9*
G54D13*
G01X24251Y13464D03*
G01X23251Y13464D03*
G01X22251Y13464D03*
G01X21251Y13464D03*
G01X20251Y13464D03*
G01X19251Y13464D03*
G04 Draw part C51*
G04 Draw part M1*
G04 Draw part M2*
G04 Draw part C44*
G04 Draw part C43*
G04 Draw part C71*
G04 Draw part R71*
G04 Draw part C33*
G04 Draw part R12*

G04 Draw traces*
G54D14*
G01X27165Y4094D03*
G54D15*
G01X27165Y4094D02*
G01X26771Y3700D01*
G01X26771Y3700D02*
G01X25433Y3700D01*
G01X25433Y3700D02*
G01X25281Y3549D01*
G01X25281Y3549D02*
G01X25281Y2283D01*
G54D14*
G01X23149Y8425D03*
G54D15*
G01X23149Y8425D02*
G01X22204Y8425D01*
G01X22204Y8425D02*
G01X21023Y9606D01*
G01X21023Y9606D02*
G01X8503Y9606D01*
G01X8503Y9606D02*
G01X7480Y8582D01*
G01X7480Y8582D02*
G01X7480Y8346D01*
G54D14*
G01X7480Y8346D03*
G01X25196Y6771D03*
G54D15*
G01X25196Y6771D02*
G01X25196Y7007D01*
G01X25196Y7007D02*
G01X24960Y7244D01*
G01X24960Y7244D02*
G01X23228Y7244D01*
G01X23228Y7244D02*
G01X23070Y7401D01*
G01X23070Y7401D02*
G01X22047Y7401D01*
G01X22047Y7401D02*
G01X21181Y8267D01*
G01X21181Y8267D02*
G01X17716Y8267D01*
G01X17716Y8267D02*
G01X13779Y8267D01*
G01X13779Y8267D02*
G01X13385Y8267D01*
G01X13385Y8267D02*
G01X12834Y7716D01*
G54D14*
G01X12834Y7716D03*
G01X11102Y6062D03*
G54D15*
G01X11102Y6062D02*
G01X9055Y4015D01*
G01X9055Y4015D02*
G01X8503Y4015D01*
G54D14*
G01X8503Y4015D03*
G54D16*
G01X21741Y1973D02*
G01X21741Y3652D01*
G54D14*
G01X21741Y3652D02*
G01X21555Y3838D01*
G01X21555Y3838D02*
G01X21358Y3838D01*
G01X21358Y3838D02*
G01X21151Y3631D01*
G54D16*
G01X21151Y3631D02*
G01X21151Y1973D01*
G54D14*
G01X22047Y3937D03*
G01X22047Y3937D02*
G01X21751Y3641D01*
G01X21751Y3641D02*
G01X21653Y3740D01*
G01X21653Y3740D02*
G01X21741Y3652D01*
G54D16*
G01X21741Y3652D02*
G01X21741Y1973D01*
G01X21151Y1973D02*
G01X21151Y3631D01*
G54D14*
G01X21151Y3631D02*
G01X21358Y3838D01*
G01X21358Y3838D02*
G01X21555Y3838D01*
G01X21555Y3838D02*
G01X21751Y3641D01*
G01X21751Y3641D02*
G01X22204Y4094D01*
G01X22204Y4094D02*
G01X22204Y4960D01*
G01X22204Y4960D02*
G01X21968Y5196D01*
G01X21968Y5196D02*
G01X17244Y5196D01*
G01X17244Y5196D02*
G01X16771Y5669D01*
G01X16771Y5669D02*
G01X16771Y6692D01*
G01X16771Y6692D02*
G01X16220Y7244D01*
G01X16220Y7244D02*
G01X14409Y7244D01*
G01X14409Y7244D02*
G01X14173Y7007D01*
G01X14173Y7007D02*
G01X5039Y7007D01*
G01X5039Y7007D02*
G01X4488Y7559D01*
G01X4488Y7559D02*
G01X4488Y9448D01*
G01X4488Y9448D02*
G01X4488Y9291D01*
G01X4488Y9291D02*
G01X4488Y9842D01*
G01X4488Y9842D03*
G01X23622Y8740D03*
G54D15*
G01X23622Y8740D02*
G01X22125Y8740D01*
G01X22125Y8740D02*
G01X21102Y9763D01*
G01X21102Y9763D02*
G01X8425Y9763D01*
G01X8425Y9763D02*
G01X7165Y8503D01*
G01X7165Y8503D02*
G01X7165Y7559D01*
G54D14*
G01X7165Y7559D03*
G01X24881Y6062D03*
G54D15*
G01X24881Y6062D02*
G01X24881Y7007D01*
G01X24881Y7007D02*
G01X24803Y7086D01*
G01X24803Y7086D02*
G01X23149Y7086D01*
G01X23149Y7086D02*
G01X22992Y7244D01*
G01X22992Y7244D02*
G01X21968Y7244D01*
G01X21968Y7244D02*
G01X21102Y8110D01*
G01X21102Y8110D02*
G01X17637Y8110D01*
G01X17637Y8110D02*
G01X14251Y8110D01*
G01X14251Y8110D02*
G01X13937Y8110D01*
G01X13937Y8110D02*
G01X13307Y7480D01*
G54D14*
G01X13307Y7480D03*
G01X24566Y6771D03*
G54D15*
G01X24566Y6771D02*
G01X24409Y6929D01*
G01X24409Y6929D02*
G01X23070Y6929D01*
G01X23070Y6929D02*
G01X22913Y7086D01*
G01X22913Y7086D02*
G01X21889Y7086D01*
G01X21889Y7086D02*
G01X21023Y7952D01*
G01X21023Y7952D02*
G01X17559Y7952D01*
G01X17559Y7952D02*
G01X15590Y7952D01*
G01X15590Y7952D02*
G01X15354Y7716D01*
G54D14*
G01X15354Y7716D03*
G01X22755Y9055D03*
G54D15*
G01X22755Y9055D02*
G01X22047Y9055D01*
G01X22047Y9055D02*
G01X21181Y9921D01*
G01X21181Y9921D02*
G01X8346Y9921D01*
G01X8346Y9921D02*
G01X6850Y8425D01*
G01X6850Y8425D02*
G01X6850Y8346D01*
G54D14*
G01X6850Y8346D03*
G01X10787Y4409D03*
G54D15*
G01X10787Y4409D02*
G01X9685Y4409D01*
G01X9685Y4409D02*
G01X8761Y3486D01*
G01X8761Y3486D02*
G01X8761Y2283D01*
G54D14*
G01X27165Y7952D03*
G54D15*
G01X27165Y7952D02*
G01X26692Y8425D01*
G01X26692Y8425D02*
G01X26692Y9055D01*
G01X26692Y9055D02*
G01X26377Y9370D01*
G01X26377Y9370D02*
G01X25669Y9370D01*
G01X25669Y9370D02*
G01X22992Y12047D01*
G01X22992Y12047D02*
G01X18267Y12047D01*
G01X18267Y12047D02*
G01X17559Y12755D01*
G01X17559Y12755D02*
G01X17244Y12755D01*
G54D14*
G01X17244Y12755D03*
G54D17*
G01X29921Y12598D02*
G01X29370Y13149D01*
G01X29370Y13149D02*
G01X26850Y13149D01*
G01X26850Y13149D02*
G01X26456Y12755D01*
G01X26456Y12755D02*
G01X25511Y12755D01*
G01X25511Y12755D02*
G01X25039Y13228D01*
G01X25039Y13228D02*
G01X25039Y13700D01*
G01X25039Y13700D02*
G01X24488Y14251D01*
G01X24488Y14251D02*
G01X8188Y14251D01*
G01X8188Y14251D02*
G01X6535Y12598D01*
G01X6535Y12598D02*
G01X5118Y12598D01*
G54D14*
G01X23228Y9370D03*
G54D15*
G01X23228Y9370D02*
G01X21968Y9370D01*
G01X21968Y9370D02*
G01X21259Y10078D01*
G01X21259Y10078D02*
G01X8267Y10078D01*
G01X8267Y10078D02*
G01X6850Y8661D01*
G01X6850Y8661D02*
G01X6692Y8661D01*
G01X6692Y8661D02*
G01X6535Y8503D01*
G01X6535Y8503D02*
G01X6535Y7559D01*
G54D14*
G01X6535Y7559D03*
G01X15984Y6299D03*
G54D15*
G01X15984Y6299D02*
G01X15984Y4960D01*
G01X15984Y4960D02*
G01X14661Y3638D01*
G01X14661Y3638D02*
G01X14661Y2283D01*
G54D14*
G01X21653Y4724D03*
G54D15*
G01X21653Y4724D02*
G01X21181Y4251D01*
G01X21181Y4251D02*
G01X20078Y4251D01*
G01X20078Y4251D02*
G01X19381Y3554D01*
G01X19381Y3554D02*
G01X19381Y2283D01*
G54D14*
G01X6220Y8346D03*
G54D15*
G01X6220Y8346D02*
G01X6220Y8425D01*
G01X6220Y8425D02*
G01X6614Y8818D01*
G01X6614Y8818D02*
G01X6771Y8818D01*
G01X6771Y8818D02*
G01X8188Y10236D01*
G01X8188Y10236D02*
G01X21338Y10236D01*
G01X21338Y10236D02*
G01X21889Y9685D01*
G01X21889Y9685D02*
G01X22755Y9685D01*
G54D14*
G01X22755Y9685D03*
G01X4724Y5275D03*
G54D15*
G01X4724Y5275D02*
G01X4330Y4881D01*
G01X4330Y4881D02*
G01X4330Y3779D01*
G01X4330Y3779D02*
G01X4041Y3490D01*
G01X4041Y3490D02*
G01X4041Y2283D01*
G54D14*
G01X1259Y7322D03*
G54D17*
G01X1259Y7322D02*
G01X1732Y7795D01*
G01X1732Y7795D02*
G01X3622Y7795D01*
G01X3622Y7795D02*
G01X4803Y6614D01*
G01X4803Y6614D02*
G01X14409Y6614D01*
G01X14409Y6614D02*
G01X14645Y6850D01*
G01X14645Y6850D02*
G01X16062Y6850D01*
G01X16062Y6850D02*
G01X16377Y6535D01*
G01X16377Y6535D02*
G01X16377Y5039D01*
G01X16377Y5039D02*
G01X15841Y4503D01*
G01X15841Y4503D02*
G01X15841Y2283D01*
G54D14*
G01X2992Y7165D03*
G54D15*
G01X2992Y7165D02*
G01X3307Y7165D01*
G01X3307Y7165D02*
G01X5590Y4881D01*
G01X5590Y4881D02*
G01X5590Y4015D01*
G54D14*
G01X5590Y4015D03*
G01X15511Y6456D03*
G54D15*
G01X15511Y6456D02*
G01X15511Y5275D01*
G01X15511Y5275D02*
G01X15039Y4803D01*
G01X15039Y4803D02*
G01X13622Y4803D01*
G01X13622Y4803D02*
G01X12301Y3482D01*
G01X12301Y3482D02*
G01X12301Y2283D01*
G54D14*
G01X20551Y4724D03*
G54D15*
G01X20551Y4724D02*
G01X18818Y4724D01*
G01X18818Y4724D02*
G01X17611Y3517D01*
G01X17611Y3517D02*
G01X17611Y2283D01*
G54D14*
G01X17637Y7244D03*
G54D15*
G01X17637Y7244D02*
G01X17637Y6535D01*
G01X17637Y6535D02*
G01X17874Y6299D01*
G01X17874Y6299D02*
G01X22519Y6299D01*
G01X22519Y6299D02*
G01X24251Y4566D01*
G01X24251Y4566D02*
G01X27559Y4566D01*
G01X27559Y4566D02*
G01X27641Y4484D01*
G01X27641Y4484D02*
G01X27641Y2283D01*
G54D14*
G01X16535Y12755D03*
G54D15*
G01X16535Y12755D02*
G01X16614Y12755D01*
G01X16614Y12755D02*
G01X16456Y12677D01*
G01X16456Y12677D02*
G01X16377Y12598D01*
G01X16377Y12598D02*
G01X16377Y12047D01*
G01X16377Y12047D02*
G01X16929Y11496D01*
G01X16929Y11496D02*
G01X22913Y11496D01*
G01X22913Y11496D02*
G01X25669Y8740D01*
G01X25669Y8740D02*
G01X25826Y8740D01*
G01X25826Y8740D02*
G01X25826Y8818D01*
G54D14*
G01X25826Y8818D03*
G54D15*
G01X28937Y12598D02*
G01X28897Y12598D01*
G01X28897Y12598D02*
G01X28582Y12283D01*
G01X28582Y12283D02*
G01X28582Y10708D01*
G01X28582Y10708D02*
G01X27716Y9842D01*
G01X27716Y9842D02*
G01X27401Y9842D01*
G01X27401Y9842D02*
G01X27244Y9685D01*
G54D14*
G01X27244Y9685D03*
G54D15*
G01X4133Y12598D02*
G01X4133Y12559D01*
G01X4133Y12559D02*
G01X3858Y12283D01*
G01X3858Y12283D02*
G01X3858Y12204D01*
G01X3858Y12204D02*
G01X3937Y12125D01*
G01X3937Y12125D02*
G01X7244Y12125D01*
G01X7244Y12125D02*
G01X8661Y13543D01*
G01X8661Y13543D02*
G01X17795Y13543D01*
G01X17795Y13543D02*
G01X18346Y12992D01*
G01X18346Y12992D02*
G01X22913Y12992D01*
G01X22913Y12992D02*
G01X25669Y10236D01*
G01X25669Y10236D02*
G01X25826Y10236D01*
G01X25826Y10236D02*
G01X25826Y10314D01*
G54D14*
G01X25826Y10314D03*
G01X20551Y7086D03*
G54D15*
G01X20551Y7086D02*
G01X20708Y7007D01*
G01X20708Y7007D02*
G01X20787Y6929D01*
G01X20787Y6929D02*
G01X22834Y6929D01*
G01X22834Y6929D02*
G01X24566Y5196D01*
G01X24566Y5196D02*
G01X28503Y5196D01*
G01X28503Y5196D02*
G01X28818Y4881D01*
G01X28818Y4881D02*
G01X29370Y4881D01*
G01X29370Y4881D02*
G01X30591Y3660D01*
G01X30591Y3660D02*
G01X30591Y2283D01*
G54D16*
G01X501Y1973D02*
G01X501Y3651D01*
G01X501Y3651D02*
G01X787Y3937D01*
G54D14*
G01X787Y3937D03*
G54D16*
G01X4631Y1973D02*
G01X4631Y3647D01*
G01X4631Y3647D02*
G01X4960Y3937D01*
G54D14*
G01X4960Y3937D03*
G54D16*
G01X5811Y1973D02*
G01X5811Y3646D01*
G01X5811Y3646D02*
G01X6102Y3937D01*
G54D14*
G01X6102Y3937D03*
G01X12007Y3937D03*
G54D16*
G01X14071Y1973D02*
G01X14071Y3644D01*
G01X14071Y3644D02*
G01X13779Y3937D01*
G54D14*
G01X13779Y3937D03*
G54D16*
G01X18791Y1973D02*
G01X18791Y3649D01*
G01X18791Y3649D02*
G01X19040Y3840D01*
G54D14*
G01X19040Y3840D03*
G54D16*
G01X30001Y1973D02*
G01X30001Y3659D01*
G01X30001Y3659D02*
G01X29724Y3937D01*
G54D14*
G01X29724Y3937D03*
G01X29409Y9133D03*
G01X26870Y5708D03*
G01X28937Y6555D03*
G01X28937Y5413D03*
G01X27480Y11299D03*
G01X17165Y10708D03*
G01X7283Y11614D03*
G01X7775Y11614D03*
G01X7283Y10472D03*
G01X7755Y10472D03*
G54D18*
G01X6991Y1973D02*
G01X6991Y3638D01*
G54D16*
G01X501Y1973D02*
G01X501Y3651D01*
G01X501Y3651D02*
G01X787Y3937D01*
G01X787Y3937D02*
G01X1091Y3632D01*
G01X1091Y3632D02*
G01X1091Y1973D01*
G01X5811Y1973D02*
G01X5811Y3646D01*
G01X5811Y3646D02*
G01X6102Y3937D01*
G01X6102Y3937D02*
G01X6692Y3937D01*
G01X6692Y3937D02*
G01X6991Y3638D01*
G01X6991Y3638D02*
G01X6991Y1973D01*
G54D18*
G01X31181Y1973D02*
G01X31181Y3622D01*
G01X31181Y3622D02*
G01X31496Y3937D01*
G54D14*
G01X31496Y3937D03*
G54D16*
G01X31181Y1973D02*
G01X31181Y3622D01*
G01X31181Y3622D02*
G01X31496Y3937D01*
G01X31496Y3937D02*
G01X31771Y3661D01*
G01X31771Y3661D02*
G01X31771Y1973D01*
G54D14*
G01X24330Y3937D03*
G01X26377Y4212D03*
G01X4724Y10728D03*
G01X4724Y11614D03*
G01X14881Y4330D03*
G01X12598Y8976D03*
G01X9606Y5118D03*
G01X2992Y6614D03*
G01X20275Y7598D03*
G01X20196Y5669D03*
G01X17086Y8976D03*
G01X18031Y8897D03*
G01X14881Y7716D03*
G01X21181Y5669D03*
G01X11771Y7519D03*
G01X11771Y8110D03*
G01X27244Y8464D03*
G01X9606Y8976D03*
G01X748Y5984D03*
G01X26023Y12007D03*
G01X27244Y6850D03*
G01X21496Y10787D03*
G01X15118Y12755D03*
G01X13307Y11259D03*
G01X9527Y12440D03*
G01X16062Y12755D03*
G54D15*
G01X16062Y12755D02*
G01X16141Y12755D01*
G01X16141Y12755D02*
G01X16062Y12755D01*
G01X16062Y12755D02*
G01X16220Y12598D01*
G01X16220Y12598D02*
G01X16220Y11968D01*
G01X16220Y11968D02*
G01X16850Y11338D01*
G01X16850Y11338D02*
G01X22834Y11338D01*
G01X22834Y11338D02*
G01X25669Y8503D01*
G01X25669Y8503D02*
G01X26062Y8503D01*
G01X26062Y8503D02*
G01X26141Y8582D01*
G01X26141Y8582D02*
G01X26220Y8582D01*
G54D14*
G01X26220Y8582D03*
G54D15*
G01X22251Y13464D02*
G01X22283Y13464D01*
G01X22283Y13464D02*
G01X22677Y13858D01*
G01X22677Y13858D02*
G01X24409Y13858D01*
G01X24409Y13858D02*
G01X24724Y13543D01*
G01X24724Y13543D02*
G01X24724Y13149D01*
G01X24724Y13149D02*
G01X25511Y12362D01*
G01X25511Y12362D02*
G01X26220Y12362D01*
G01X26220Y12362D02*
G01X26692Y11889D01*
G01X26692Y11889D02*
G01X26692Y9606D01*
G01X26692Y9606D02*
G01X27716Y8582D01*
G01X27716Y8582D02*
G01X27716Y7952D01*
G01X27716Y7952D02*
G01X26850Y7086D01*
G01X26850Y7086D02*
G01X26850Y6220D01*
G01X26850Y6220D02*
G01X26299Y5669D01*
G01X26299Y5669D02*
G01X24566Y5669D01*
G01X24566Y5669D02*
G01X23622Y6614D01*
G54D14*
G01X23622Y6614D03*
G01X16614Y7637D03*
G54D15*
G01X16614Y7637D02*
G01X16614Y7322D01*
G01X16614Y7322D02*
G01X17086Y6850D01*
G01X17086Y6850D02*
G01X17086Y6614D01*
G01X17086Y6614D02*
G01X17716Y5984D01*
G01X17716Y5984D02*
G01X22362Y5984D01*
G01X22362Y5984D02*
G01X23511Y4834D01*
G01X23511Y4834D02*
G01X23511Y2283D01*
G54D16*
G01X20561Y1973D02*
G01X20561Y3650D01*
G01X20561Y3650D02*
G01X20374Y3838D01*
G01X20374Y3838D02*
G01X20177Y3838D01*
G01X20177Y3838D02*
G01X19971Y3633D01*
G01X19971Y3633D02*
G01X19971Y1973D01*
G54D15*
G01X28149Y12598D02*
G01X28031Y12677D01*
G01X28031Y12677D02*
G01X28425Y12283D01*
G01X28425Y12283D02*
G01X28425Y10787D01*
G01X28425Y10787D02*
G01X27637Y10000D01*
G01X27637Y10000D02*
G01X27401Y10000D01*
G01X27401Y10000D02*
G01X27244Y10157D01*
G54D14*
G01X27244Y10157D03*
G01X3937Y6062D03*
G54D15*
G01X3937Y6062D02*
G01X3937Y5196D01*
G01X3937Y5196D02*
G01X3451Y4711D01*
G01X3451Y4711D02*
G01X3451Y2283D01*
G54D14*
G01X21102Y4724D03*
G54D15*
G01X21102Y4724D02*
G01X20787Y4409D01*
G01X20787Y4409D02*
G01X18818Y4409D01*
G01X18818Y4409D02*
G01X18201Y3792D01*
G01X18201Y3792D02*
G01X18201Y2283D01*
G01X3346Y12598D02*
G01X3385Y12598D01*
G01X3385Y12598D02*
G01X3700Y12283D01*
G01X3700Y12283D02*
G01X3700Y12125D01*
G01X3700Y12125D02*
G01X3858Y11968D01*
G01X3858Y11968D02*
G01X7322Y11968D01*
G01X7322Y11968D02*
G01X8740Y13385D01*
G01X8740Y13385D02*
G01X17716Y13385D01*
G01X17716Y13385D02*
G01X18267Y12834D01*
G01X18267Y12834D02*
G01X22834Y12834D01*
G01X22834Y12834D02*
G01X25669Y10000D01*
G01X25669Y10000D02*
G01X26141Y10000D01*
G01X26141Y10000D02*
G01X26220Y10078D01*
G54D14*
G01X26220Y10078D03*
G01X24881Y8110D03*
G54D15*
G01X24881Y8110D02*
G01X24881Y8425D01*
G01X24881Y8425D02*
G01X23307Y10000D01*
G01X23307Y10000D02*
G01X21811Y10000D01*
G01X21811Y10000D02*
G01X21417Y10393D01*
G01X21417Y10393D02*
G01X9212Y10393D01*
G01X9212Y10393D02*
G01X8976Y10629D01*
G01X8976Y10629D02*
G01X8976Y10787D01*
G54D14*
G01X8976Y10787D03*
G01X3149Y5118D03*
G54D15*
G01X3149Y5118D02*
G01X2861Y4672D01*
G01X2861Y4672D02*
G01X2861Y2283D01*
G54D14*
G01X19921Y7165D03*
G54D15*
G01X19921Y7165D02*
G01X20314Y6771D01*
G01X20314Y6771D02*
G01X22755Y6771D01*
G01X22755Y6771D02*
G01X24488Y5039D01*
G01X24488Y5039D02*
G01X28425Y5039D01*
G01X28425Y5039D02*
G01X29291Y4173D01*
G01X29291Y4173D02*
G01X29291Y3622D01*
G01X29291Y3622D02*
G01X29370Y3543D01*
G01X29370Y3543D02*
G01X29370Y3228D01*
G01X29370Y3228D02*
G01X29411Y2283D01*
G54D14*
G01X15039Y6456D03*
G54D15*
G01X15039Y6456D02*
G01X14960Y6377D01*
G01X14960Y6377D02*
G01X4566Y6377D01*
G01X4566Y6377D02*
G01X3464Y7480D01*
G01X3464Y7480D02*
G01X2677Y7480D01*
G01X2677Y7480D02*
G01X2271Y7074D01*
G01X2271Y7074D02*
G01X2271Y2283D01*
G54D14*
G01X17401Y7637D03*
G54D15*
G01X17401Y7637D02*
G01X17401Y7637D01*
G01X17401Y7637D02*
G01X17795Y7637D01*
G01X17795Y7637D02*
G01X18976Y6456D01*
G01X18976Y6456D02*
G01X22598Y6456D01*
G01X22598Y6456D02*
G01X24330Y4724D01*
G01X24330Y4724D02*
G01X28031Y4724D01*
G01X28031Y4724D02*
G01X28188Y4566D01*
G01X28188Y4566D02*
G01X28188Y2992D01*
G01X28188Y2992D02*
G01X28231Y2283D01*
G54D14*
G01X26141Y6062D03*
G54D15*
G01X26141Y6062D02*
G01X26141Y7007D01*
G01X26141Y7007D02*
G01X25433Y7716D01*
G01X25433Y7716D02*
G01X23464Y7716D01*
G01X23464Y7716D02*
G01X23307Y7874D01*
G01X23307Y7874D02*
G01X22283Y7874D01*
G01X22283Y7874D02*
G01X20866Y9291D01*
G01X20866Y9291D02*
G01X8740Y9291D01*
G01X8740Y9291D02*
G01X8582Y9133D01*
G01X8582Y9133D02*
G01X8582Y8582D01*
G54D14*
G01X8582Y8582D03*
G01X19685Y7637D03*
G54D15*
G01X19685Y7637D02*
G01X19685Y7480D01*
G01X19685Y7480D02*
G01X19606Y7559D01*
G01X19606Y7559D02*
G01X19527Y7480D01*
G01X19527Y7480D02*
G01X19527Y7086D01*
G01X19527Y7086D02*
G01X20000Y6614D01*
G01X20000Y6614D02*
G01X22677Y6614D01*
G01X22677Y6614D02*
G01X24409Y4881D01*
G01X24409Y4881D02*
G01X28346Y4881D01*
G01X28346Y4881D02*
G01X28821Y4406D01*
G01X28821Y4406D02*
G01X28821Y2283D01*
G54D14*
G01X4330Y5669D03*
G54D15*
G01X4330Y5669D02*
G01X4094Y5433D01*
G01X4094Y5433D02*
G01X4094Y4015D01*
G01X4094Y4015D02*
G01X4015Y3937D01*
G54D14*
G01X4015Y3937D03*
G01X25826Y6771D03*
G54D15*
G01X25826Y6771D02*
G01X25826Y7007D01*
G01X25826Y7007D02*
G01X25275Y7559D01*
G01X25275Y7559D02*
G01X23385Y7559D01*
G01X23385Y7559D02*
G01X23228Y7716D01*
G01X23228Y7716D02*
G01X22204Y7716D01*
G01X22204Y7716D02*
G01X21338Y8582D01*
G01X21338Y8582D02*
G01X17874Y8582D01*
G01X17874Y8582D02*
G01X9370Y8582D01*
G01X9370Y8582D02*
G01X9212Y8582D01*
G54D14*
G01X9212Y8582D03*
G01X25511Y6062D03*
G54D15*
G01X25511Y6062D02*
G01X25511Y7007D01*
G01X25511Y7007D02*
G01X25118Y7401D01*
G01X25118Y7401D02*
G01X23307Y7401D01*
G01X23307Y7401D02*
G01X23149Y7559D01*
G01X23149Y7559D02*
G01X22125Y7559D01*
G01X22125Y7559D02*
G01X21259Y8425D01*
G01X21259Y8425D02*
G01X17795Y8425D01*
G01X17795Y8425D02*
G01X10236Y8425D01*
G01X10236Y8425D02*
G01X10078Y8267D01*
G01X10078Y8267D02*
G01X9055Y8267D01*
G01X9055Y8267D02*
G01X8897Y8425D01*
G01X8897Y8425D02*
G01X8897Y8976D01*
G54D14*
G01X8897Y8976D03*
G01X24724Y4212D03*
G01X15590Y10708D03*
G01X28740Y9153D03*
G01X13267Y8976D03*
G01X19527Y5669D03*
G01X20866Y7598D03*
G01X11102Y7519D03*
G01X11102Y8110D03*
G01X24881Y12480D03*
G01X16535Y4015D03*
G01X5354Y9645D03*
G01X23622Y8110D03*
G54D15*
G01X23622Y8110D02*
G01X23464Y8031D01*
G01X23464Y8031D02*
G01X22362Y8031D01*
G01X22362Y8031D02*
G01X20944Y9448D01*
G01X20944Y9448D02*
G01X8582Y9448D01*
G01X8582Y9448D02*
G01X7795Y8661D01*
G01X7795Y8661D02*
G01X7795Y7559D01*
G54D14*
G01X7795Y7559D03*
G01X17165Y7244D03*
G54D15*
G01X17165Y7244D02*
G01X17165Y7165D01*
G01X17165Y7165D02*
G01X17244Y7086D01*
G01X17244Y7086D02*
G01X17244Y6692D01*
G01X17244Y6692D02*
G01X17795Y6141D01*
G01X17795Y6141D02*
G01X22440Y6141D01*
G01X22440Y6141D02*
G01X23700Y4881D01*
G01X23700Y4881D02*
G01X23700Y3700D01*
G01X23700Y3700D02*
G01X23779Y3622D01*
G01X23779Y3622D02*
G01X24645Y3622D01*
G01X24645Y3622D02*
G01X24691Y3576D01*
G01X24691Y3576D02*
G01X24691Y2283D01*

G04 Draw Text*
M00*
M02*
