G04 FreePCB version 1.332*
G04 C:\jag\pcb\jagwave\CAM\top_copper.grb*
G04 top copper layer *
G04 Scale: 100 percent, Rotated: No, Reflected: No *
%FSLAX24Y24*%
%MOIN*%
%LNTop*%
%ADD10R,0.079055X0.079055*%
%ADD11C,0.079055*%
%AMTHERM12*7,0,0,0.149921,0.129921,0.010000,0.0*%
%ADD12THERM12*%
%ADD13C,0.001000*%
%ADD14C,0.070000*%
%ADD15C,0.130000*%
%ADD16C,0.027874*%
%ADD17C,0.058000*%
%ADD18C,0.050000*%
%ADD19C,0.037000*%
%ADD20C,0.040000*%
%ADD21C,0.031000*%
%ADD22C,0.028000*%
%ADD23C,0.056000*%
%ADD24C,0.048000*%
%ADD25R,0.059055X0.059055*%
%ADD26C,0.059055*%
%ADD27C,0.129921*%
%ADD28C,0.007874*%
%ADD29C,0.038000*%
%ADD30C,0.030000*%
%ADD31C,0.017000*%
%ADD32C,0.020000*%
%ADD33C,0.011000*%
%ADD34C,0.008000*%
%ADD35C,0.012000*%
%ADD36C,0.036000*%
G90*
G70D02*

G04 Step and Repeat for panelization *

G04 ----------------------- Draw copper area (positive)*
G36*
G01X32007Y12795D02*
G01X30629Y12795D01*
G01X30236Y13188D01*
G01X26889Y13188D01*
G01X26496Y12795D01*
G01X25511Y12795D01*
G01X24763Y13543D01*
G01X24763Y13779D01*
G01X24527Y14015D01*
G01X18976Y14015D01*
G01X18740Y13779D01*
G01X18740Y13543D01*
G01X7559Y13543D01*
G01X6811Y12795D01*
G01X5826Y12795D01*
G01X5433Y13188D01*
G01X2086Y13188D01*
G01X1692Y12795D01*
G01X275Y12795D01*
G01X275Y14527D01*
G01X32007Y14527D01*
G01X32007Y12795D01*
G37*

G04 -------------------- Draw copper area clearances (negative)*
%LPC*%

G04 Draw clearances for pads*
G36*
G01X251Y983D02*
G01X251Y3583D01*
G01X751Y3583D01*
G01X751Y983D01*
G01X251Y983D01*
G37*
G36*
G01X841Y983D02*
G01X841Y3583D01*
G01X1341Y3583D01*
G01X1341Y983D01*
G01X841Y983D01*
G37*
G36*
G01X1431Y983D02*
G01X1431Y3583D01*
G01X1931Y3583D01*
G01X1931Y983D01*
G01X1431Y983D01*
G37*
G36*
G01X2021Y983D02*
G01X2021Y3583D01*
G01X2521Y3583D01*
G01X2521Y983D01*
G01X2021Y983D01*
G37*
G36*
G01X2611Y983D02*
G01X2611Y3583D01*
G01X3111Y3583D01*
G01X3111Y983D01*
G01X2611Y983D01*
G37*
G36*
G01X3201Y983D02*
G01X3201Y3583D01*
G01X3701Y3583D01*
G01X3701Y983D01*
G01X3201Y983D01*
G37*
G36*
G01X3791Y983D02*
G01X3791Y3583D01*
G01X4291Y3583D01*
G01X4291Y983D01*
G01X3791Y983D01*
G37*
G36*
G01X4381Y983D02*
G01X4381Y3583D01*
G01X4881Y3583D01*
G01X4881Y983D01*
G01X4381Y983D01*
G37*
G36*
G01X4971Y983D02*
G01X4971Y3583D01*
G01X5471Y3583D01*
G01X5471Y983D01*
G01X4971Y983D01*
G37*
G36*
G01X5561Y983D02*
G01X5561Y3583D01*
G01X6061Y3583D01*
G01X6061Y983D01*
G01X5561Y983D01*
G37*
G36*
G01X6151Y983D02*
G01X6151Y3583D01*
G01X6651Y3583D01*
G01X6651Y983D01*
G01X6151Y983D01*
G37*
G36*
G01X6741Y983D02*
G01X6741Y3583D01*
G01X7241Y3583D01*
G01X7241Y983D01*
G01X6741Y983D01*
G37*
G36*
G01X8511Y983D02*
G01X8511Y3583D01*
G01X9011Y3583D01*
G01X9011Y983D01*
G01X8511Y983D01*
G37*
G36*
G01X9101Y983D02*
G01X9101Y3583D01*
G01X9601Y3583D01*
G01X9601Y983D01*
G01X9101Y983D01*
G37*
G36*
G01X9691Y983D02*
G01X9691Y3583D01*
G01X10191Y3583D01*
G01X10191Y983D01*
G01X9691Y983D01*
G37*
G36*
G01X10281Y983D02*
G01X10281Y3583D01*
G01X10781Y3583D01*
G01X10781Y983D01*
G01X10281Y983D01*
G37*
G36*
G01X10871Y983D02*
G01X10871Y3583D01*
G01X11371Y3583D01*
G01X11371Y983D01*
G01X10871Y983D01*
G37*
G36*
G01X11461Y983D02*
G01X11461Y3583D01*
G01X11961Y3583D01*
G01X11961Y983D01*
G01X11461Y983D01*
G37*
G36*
G01X12051Y363D02*
G01X12051Y3583D01*
G01X12551Y3583D01*
G01X12551Y363D01*
G01X12051Y363D01*
G37*
G36*
G01X12641Y983D02*
G01X12641Y3583D01*
G01X13141Y3583D01*
G01X13141Y983D01*
G01X12641Y983D01*
G37*
G36*
G01X13231Y983D02*
G01X13231Y3583D01*
G01X13731Y3583D01*
G01X13731Y983D01*
G01X13231Y983D01*
G37*
G36*
G01X13821Y983D02*
G01X13821Y3583D01*
G01X14321Y3583D01*
G01X14321Y983D01*
G01X13821Y983D01*
G37*
G36*
G01X14411Y983D02*
G01X14411Y3583D01*
G01X14911Y3583D01*
G01X14911Y983D01*
G01X14411Y983D01*
G37*
G36*
G01X15001Y983D02*
G01X15001Y3583D01*
G01X15501Y3583D01*
G01X15501Y983D01*
G01X15001Y983D01*
G37*
G36*
G01X15591Y983D02*
G01X15591Y3583D01*
G01X16091Y3583D01*
G01X16091Y983D01*
G01X15591Y983D01*
G37*
G36*
G01X16181Y983D02*
G01X16181Y3583D01*
G01X16681Y3583D01*
G01X16681Y983D01*
G01X16181Y983D01*
G37*
G36*
G01X16771Y983D02*
G01X16771Y3583D01*
G01X17271Y3583D01*
G01X17271Y983D01*
G01X16771Y983D01*
G37*
G36*
G01X17361Y983D02*
G01X17361Y3583D01*
G01X17861Y3583D01*
G01X17861Y983D01*
G01X17361Y983D01*
G37*
G36*
G01X17951Y983D02*
G01X17951Y3583D01*
G01X18451Y3583D01*
G01X18451Y983D01*
G01X17951Y983D01*
G37*
G36*
G01X18541Y983D02*
G01X18541Y3583D01*
G01X19041Y3583D01*
G01X19041Y983D01*
G01X18541Y983D01*
G37*
G36*
G01X19131Y983D02*
G01X19131Y3583D01*
G01X19631Y3583D01*
G01X19631Y983D01*
G01X19131Y983D01*
G37*
G36*
G01X19721Y983D02*
G01X19721Y3583D01*
G01X20221Y3583D01*
G01X20221Y983D01*
G01X19721Y983D01*
G37*
G36*
G01X20311Y983D02*
G01X20311Y3583D01*
G01X20811Y3583D01*
G01X20811Y983D01*
G01X20311Y983D01*
G37*
G36*
G01X20901Y983D02*
G01X20901Y3583D01*
G01X21401Y3583D01*
G01X21401Y983D01*
G01X20901Y983D01*
G37*
G36*
G01X21491Y983D02*
G01X21491Y3583D01*
G01X21991Y3583D01*
G01X21991Y983D01*
G01X21491Y983D01*
G37*
G36*
G01X22081Y363D02*
G01X22081Y3583D01*
G01X22581Y3583D01*
G01X22581Y363D01*
G01X22081Y363D01*
G37*
G36*
G01X22671Y983D02*
G01X22671Y3583D01*
G01X23171Y3583D01*
G01X23171Y983D01*
G01X22671Y983D01*
G37*
G36*
G01X23261Y983D02*
G01X23261Y3583D01*
G01X23761Y3583D01*
G01X23761Y983D01*
G01X23261Y983D01*
G37*
G36*
G01X23851Y983D02*
G01X23851Y3583D01*
G01X24351Y3583D01*
G01X24351Y983D01*
G01X23851Y983D01*
G37*
G36*
G01X24441Y983D02*
G01X24441Y3583D01*
G01X24941Y3583D01*
G01X24941Y983D01*
G01X24441Y983D01*
G37*
G36*
G01X25031Y983D02*
G01X25031Y3583D01*
G01X25531Y3583D01*
G01X25531Y983D01*
G01X25031Y983D01*
G37*
G36*
G01X25621Y983D02*
G01X25621Y3583D01*
G01X26121Y3583D01*
G01X26121Y983D01*
G01X25621Y983D01*
G37*
G36*
G01X26211Y983D02*
G01X26211Y3583D01*
G01X26711Y3583D01*
G01X26711Y983D01*
G01X26211Y983D01*
G37*
G36*
G01X26801Y983D02*
G01X26801Y3583D01*
G01X27301Y3583D01*
G01X27301Y983D01*
G01X26801Y983D01*
G37*
G36*
G01X27391Y983D02*
G01X27391Y3583D01*
G01X27891Y3583D01*
G01X27891Y983D01*
G01X27391Y983D01*
G37*
G36*
G01X27981Y983D02*
G01X27981Y3583D01*
G01X28481Y3583D01*
G01X28481Y983D01*
G01X27981Y983D01*
G37*
G36*
G01X28571Y983D02*
G01X28571Y3583D01*
G01X29071Y3583D01*
G01X29071Y983D01*
G01X28571Y983D01*
G37*
G36*
G01X29161Y983D02*
G01X29161Y3583D01*
G01X29661Y3583D01*
G01X29661Y983D01*
G01X29161Y983D01*
G37*
G36*
G01X29751Y983D02*
G01X29751Y3583D01*
G01X30251Y3583D01*
G01X30251Y983D01*
G01X29751Y983D01*
G37*
G36*
G01X30341Y983D02*
G01X30341Y3583D01*
G01X30841Y3583D01*
G01X30841Y983D01*
G01X30341Y983D01*
G37*
G36*
G01X30931Y983D02*
G01X30931Y3583D01*
G01X31431Y3583D01*
G01X31431Y983D01*
G01X30931Y983D01*
G37*
G36*
G01X31521Y983D02*
G01X31521Y3583D01*
G01X32021Y3583D01*
G01X32021Y983D01*
G01X31521Y983D01*
G37*
G36*
G01X24585Y11671D02*
G01X24585Y12344D01*
G01X25218Y12344D01*
G01X25218Y11671D01*
G01X24585Y11671D01*
G37*
G36*
G01X25254Y11671D02*
G01X25254Y12344D01*
G01X25887Y12344D01*
G01X25887Y11671D01*
G01X25254Y11671D01*
G37*
G36*
G01X28423Y9309D02*
G01X28423Y9981D01*
G01X29056Y9981D01*
G01X29056Y9309D01*
G01X28423Y9309D01*
G37*
G36*
G01X29092Y9309D02*
G01X29092Y9981D01*
G01X29725Y9981D01*
G01X29725Y9309D01*
G01X29092Y9309D01*
G37*
G36*
G01X28423Y8246D02*
G01X28423Y8918D01*
G01X29056Y8918D01*
G01X29056Y8246D01*
G01X28423Y8246D01*
G37*
G36*
G01X29092Y8246D02*
G01X29092Y8918D01*
G01X29725Y8918D01*
G01X29725Y8246D01*
G01X29092Y8246D01*
G37*
G36*
G01X24880Y3837D02*
G01X24880Y4509D01*
G01X25513Y4509D01*
G01X25513Y3837D01*
G01X24880Y3837D01*
G37*
G36*
G01X25549Y3837D02*
G01X25549Y4509D01*
G01X26182Y4509D01*
G01X26182Y3837D01*
G01X25549Y3837D01*
G37*
G36*
G01X19959Y7734D02*
G01X19959Y8407D01*
G01X20592Y8407D01*
G01X20592Y7734D01*
G01X19959Y7734D01*
G37*
G36*
G01X20628Y7734D02*
G01X20628Y8407D01*
G01X21261Y8407D01*
G01X21261Y7734D01*
G01X20628Y7734D01*
G37*
G36*
G01X15746Y10372D02*
G01X15746Y11044D01*
G01X16379Y11044D01*
G01X16379Y10372D01*
G01X15746Y10372D01*
G37*
G36*
G01X16415Y10372D02*
G01X16415Y11044D01*
G01X17048Y11044D01*
G01X17048Y10372D01*
G01X16415Y10372D01*
G37*
G36*
G01X19211Y5844D02*
G01X19211Y6517D01*
G01X19844Y6517D01*
G01X19844Y5844D01*
G01X19211Y5844D01*
G37*
G36*
G01X19880Y5844D02*
G01X19880Y6517D01*
G01X20513Y6517D01*
G01X20513Y5844D01*
G01X19880Y5844D01*
G37*
G36*
G01X15037Y3994D02*
G01X15037Y4666D01*
G01X15670Y4666D01*
G01X15670Y3994D01*
G01X15037Y3994D01*
G37*
G36*
G01X15707Y3994D02*
G01X15707Y4666D01*
G01X16340Y4666D01*
G01X16340Y3994D01*
G01X15707Y3994D01*
G37*
G36*
G01X12281Y8088D02*
G01X12281Y8761D01*
G01X12914Y8761D01*
G01X12914Y8088D01*
G01X12281Y8088D01*
G37*
G36*
G01X12951Y8088D02*
G01X12951Y8761D01*
G01X13584Y8761D01*
G01X13584Y8088D01*
G01X12951Y8088D01*
G37*
G36*
G01X10785Y8325D02*
G01X10785Y8997D01*
G01X11418Y8997D01*
G01X11418Y8325D01*
G01X10785Y8325D01*
G37*
G36*
G01X11455Y8325D02*
G01X11455Y8997D01*
G01X12088Y8997D01*
G01X12088Y8325D01*
G01X11455Y8325D01*
G37*
G36*
G01X10785Y6671D02*
G01X10785Y7344D01*
G01X11418Y7344D01*
G01X11418Y6671D01*
G01X10785Y6671D01*
G37*
G36*
G01X11455Y6671D02*
G01X11455Y7344D01*
G01X12088Y7344D01*
G01X12088Y6671D01*
G01X11455Y6671D01*
G37*
G36*
G01X27419Y5550D02*
G01X27419Y5867D01*
G01X28249Y5867D01*
G01X28249Y5550D01*
G01X27419Y5550D01*
G37*
G36*
G01X27419Y5747D02*
G01X27419Y6063D01*
G01X28249Y6063D01*
G01X28249Y5747D01*
G01X27419Y5747D01*
G37*
G36*
G01X27419Y5943D02*
G01X27419Y6260D01*
G01X28249Y6260D01*
G01X28249Y5943D01*
G01X27419Y5943D01*
G37*
G36*
G01X27419Y6140D02*
G01X27419Y6457D01*
G01X28249Y6457D01*
G01X28249Y6140D01*
G01X27419Y6140D01*
G37*
G36*
G01X27419Y6337D02*
G01X27419Y6654D01*
G01X28249Y6654D01*
G01X28249Y6337D01*
G01X27419Y6337D01*
G37*
G36*
G01X27419Y6534D02*
G01X27419Y6851D01*
G01X28249Y6851D01*
G01X28249Y6534D01*
G01X27419Y6534D01*
G37*
G36*
G01X27419Y6731D02*
G01X27419Y7048D01*
G01X28249Y7048D01*
G01X28249Y6731D01*
G01X27419Y6731D01*
G37*
G36*
G01X27419Y6928D02*
G01X27419Y7245D01*
G01X28249Y7245D01*
G01X28249Y6928D01*
G01X27419Y6928D01*
G37*
G36*
G01X27419Y7125D02*
G01X27419Y7441D01*
G01X28249Y7441D01*
G01X28249Y7125D01*
G01X27419Y7125D01*
G37*
G36*
G01X27419Y7321D02*
G01X27419Y7638D01*
G01X28249Y7638D01*
G01X28249Y7321D01*
G01X27419Y7321D01*
G37*
G36*
G01X27419Y7518D02*
G01X27419Y7835D01*
G01X28249Y7835D01*
G01X28249Y7518D01*
G01X27419Y7518D01*
G37*
G36*
G01X27419Y7715D02*
G01X27419Y8032D01*
G01X28249Y8032D01*
G01X28249Y7715D01*
G01X27419Y7715D01*
G37*
G36*
G01X27419Y7912D02*
G01X27419Y8229D01*
G01X28249Y8229D01*
G01X28249Y7912D01*
G01X27419Y7912D01*
G37*
G36*
G01X27419Y8109D02*
G01X27419Y8426D01*
G01X28249Y8426D01*
G01X28249Y8109D01*
G01X27419Y8109D01*
G37*
G36*
G01X27419Y8306D02*
G01X27419Y8623D01*
G01X28249Y8623D01*
G01X28249Y8306D01*
G01X27419Y8306D01*
G37*
G36*
G01X27419Y8502D02*
G01X27419Y8819D01*
G01X28249Y8819D01*
G01X28249Y8502D01*
G01X27419Y8502D01*
G37*
G36*
G01X27419Y8699D02*
G01X27419Y9016D01*
G01X28249Y9016D01*
G01X28249Y8699D01*
G01X27419Y8699D01*
G37*
G36*
G01X27419Y8896D02*
G01X27419Y9213D01*
G01X28249Y9213D01*
G01X28249Y8896D01*
G01X27419Y8896D01*
G37*
G36*
G01X27419Y9093D02*
G01X27419Y9410D01*
G01X28249Y9410D01*
G01X28249Y9093D01*
G01X27419Y9093D01*
G37*
G36*
G01X27419Y9290D02*
G01X27419Y9607D01*
G01X28249Y9607D01*
G01X28249Y9290D01*
G01X27419Y9290D01*
G37*
G36*
G01X27419Y9487D02*
G01X27419Y9804D01*
G01X28249Y9804D01*
G01X28249Y9487D01*
G01X27419Y9487D01*
G37*
G36*
G01X27419Y9684D02*
G01X27419Y10000D01*
G01X28249Y10000D01*
G01X28249Y9684D01*
G01X27419Y9684D01*
G37*
G36*
G01X27419Y9880D02*
G01X27419Y10197D01*
G01X28249Y10197D01*
G01X28249Y9880D01*
G01X27419Y9880D01*
G37*
G36*
G01X27419Y10077D02*
G01X27419Y10394D01*
G01X28249Y10394D01*
G01X28249Y10077D01*
G01X27419Y10077D01*
G37*
G36*
G01X27419Y10274D02*
G01X27419Y10591D01*
G01X28249Y10591D01*
G01X28249Y10274D01*
G01X27419Y10274D01*
G37*
G36*
G01X27006Y10687D02*
G01X27006Y11517D01*
G01X27323Y11517D01*
G01X27323Y10687D01*
G01X27006Y10687D01*
G37*
G36*
G01X26810Y10687D02*
G01X26810Y11517D01*
G01X27126Y11517D01*
G01X27126Y10687D01*
G01X26810Y10687D01*
G37*
G36*
G01X26613Y10687D02*
G01X26613Y11517D01*
G01X26930Y11517D01*
G01X26930Y10687D01*
G01X26613Y10687D01*
G37*
G36*
G01X26416Y10687D02*
G01X26416Y11517D01*
G01X26733Y11517D01*
G01X26733Y10687D01*
G01X26416Y10687D01*
G37*
G36*
G01X26219Y10687D02*
G01X26219Y11517D01*
G01X26536Y11517D01*
G01X26536Y10687D01*
G01X26219Y10687D01*
G37*
G36*
G01X26022Y10687D02*
G01X26022Y11517D01*
G01X26339Y11517D01*
G01X26339Y10687D01*
G01X26022Y10687D01*
G37*
G36*
G01X25825Y10687D02*
G01X25825Y11517D01*
G01X26142Y11517D01*
G01X26142Y10687D01*
G01X25825Y10687D01*
G37*
G36*
G01X25628Y10687D02*
G01X25628Y11517D01*
G01X25945Y11517D01*
G01X25945Y10687D01*
G01X25628Y10687D01*
G37*
G36*
G01X25432Y10687D02*
G01X25432Y11517D01*
G01X25749Y11517D01*
G01X25749Y10687D01*
G01X25432Y10687D01*
G37*
G36*
G01X25235Y10687D02*
G01X25235Y11517D01*
G01X25552Y11517D01*
G01X25552Y10687D01*
G01X25235Y10687D01*
G37*
G36*
G01X25038Y10687D02*
G01X25038Y11517D01*
G01X25355Y11517D01*
G01X25355Y10687D01*
G01X25038Y10687D01*
G37*
G36*
G01X24841Y10687D02*
G01X24841Y11517D01*
G01X25158Y11517D01*
G01X25158Y10687D01*
G01X24841Y10687D01*
G37*
G36*
G01X24644Y10687D02*
G01X24644Y11517D01*
G01X24961Y11517D01*
G01X24961Y10687D01*
G01X24644Y10687D01*
G37*
G36*
G01X24447Y10687D02*
G01X24447Y11517D01*
G01X24764Y11517D01*
G01X24764Y10687D01*
G01X24447Y10687D01*
G37*
G36*
G01X24250Y10687D02*
G01X24250Y11517D01*
G01X24567Y11517D01*
G01X24567Y10687D01*
G01X24250Y10687D01*
G37*
G36*
G01X24054Y10687D02*
G01X24054Y11517D01*
G01X24371Y11517D01*
G01X24371Y10687D01*
G01X24054Y10687D01*
G37*
G36*
G01X23857Y10687D02*
G01X23857Y11517D01*
G01X24174Y11517D01*
G01X24174Y10687D01*
G01X23857Y10687D01*
G37*
G36*
G01X23660Y10687D02*
G01X23660Y11517D01*
G01X23977Y11517D01*
G01X23977Y10687D01*
G01X23660Y10687D01*
G37*
G36*
G01X23463Y10687D02*
G01X23463Y11517D01*
G01X23780Y11517D01*
G01X23780Y10687D01*
G01X23463Y10687D01*
G37*
G36*
G01X23266Y10687D02*
G01X23266Y11517D01*
G01X23583Y11517D01*
G01X23583Y10687D01*
G01X23266Y10687D01*
G37*
G36*
G01X23069Y10687D02*
G01X23069Y11517D01*
G01X23386Y11517D01*
G01X23386Y10687D01*
G01X23069Y10687D01*
G37*
G36*
G01X22873Y10687D02*
G01X22873Y11517D01*
G01X23189Y11517D01*
G01X23189Y10687D01*
G01X22873Y10687D01*
G37*
G36*
G01X22676Y10687D02*
G01X22676Y11517D01*
G01X22993Y11517D01*
G01X22993Y10687D01*
G01X22676Y10687D01*
G37*
G36*
G01X22479Y10687D02*
G01X22479Y11517D01*
G01X22796Y11517D01*
G01X22796Y10687D01*
G01X22479Y10687D01*
G37*
G36*
G01X22282Y10687D02*
G01X22282Y11517D01*
G01X22599Y11517D01*
G01X22599Y10687D01*
G01X22282Y10687D01*
G37*
G36*
G01X21356Y10274D02*
G01X21356Y10591D01*
G01X22186Y10591D01*
G01X22186Y10274D01*
G01X21356Y10274D01*
G37*
G36*
G01X21356Y10077D02*
G01X21356Y10394D01*
G01X22186Y10394D01*
G01X22186Y10077D01*
G01X21356Y10077D01*
G37*
G36*
G01X21356Y9880D02*
G01X21356Y10197D01*
G01X22186Y10197D01*
G01X22186Y9880D01*
G01X21356Y9880D01*
G37*
G36*
G01X21356Y9684D02*
G01X21356Y10000D01*
G01X22186Y10000D01*
G01X22186Y9684D01*
G01X21356Y9684D01*
G37*
G36*
G01X21356Y9487D02*
G01X21356Y9804D01*
G01X22186Y9804D01*
G01X22186Y9487D01*
G01X21356Y9487D01*
G37*
G36*
G01X21356Y9290D02*
G01X21356Y9607D01*
G01X22186Y9607D01*
G01X22186Y9290D01*
G01X21356Y9290D01*
G37*
G36*
G01X21356Y9093D02*
G01X21356Y9410D01*
G01X22186Y9410D01*
G01X22186Y9093D01*
G01X21356Y9093D01*
G37*
G36*
G01X21356Y8896D02*
G01X21356Y9213D01*
G01X22186Y9213D01*
G01X22186Y8896D01*
G01X21356Y8896D01*
G37*
G36*
G01X21356Y8699D02*
G01X21356Y9016D01*
G01X22186Y9016D01*
G01X22186Y8699D01*
G01X21356Y8699D01*
G37*
G36*
G01X21356Y8502D02*
G01X21356Y8819D01*
G01X22186Y8819D01*
G01X22186Y8502D01*
G01X21356Y8502D01*
G37*
G36*
G01X21356Y8306D02*
G01X21356Y8623D01*
G01X22186Y8623D01*
G01X22186Y8306D01*
G01X21356Y8306D01*
G37*
G36*
G01X21356Y8109D02*
G01X21356Y8426D01*
G01X22186Y8426D01*
G01X22186Y8109D01*
G01X21356Y8109D01*
G37*
G36*
G01X21356Y7912D02*
G01X21356Y8229D01*
G01X22186Y8229D01*
G01X22186Y7912D01*
G01X21356Y7912D01*
G37*
G36*
G01X21356Y7715D02*
G01X21356Y8032D01*
G01X22186Y8032D01*
G01X22186Y7715D01*
G01X21356Y7715D01*
G37*
G36*
G01X21356Y7518D02*
G01X21356Y7835D01*
G01X22186Y7835D01*
G01X22186Y7518D01*
G01X21356Y7518D01*
G37*
G36*
G01X21356Y7321D02*
G01X21356Y7638D01*
G01X22186Y7638D01*
G01X22186Y7321D01*
G01X21356Y7321D01*
G37*
G36*
G01X21356Y7125D02*
G01X21356Y7441D01*
G01X22186Y7441D01*
G01X22186Y7125D01*
G01X21356Y7125D01*
G37*
G36*
G01X21356Y6928D02*
G01X21356Y7245D01*
G01X22186Y7245D01*
G01X22186Y6928D01*
G01X21356Y6928D01*
G37*
G36*
G01X21356Y6731D02*
G01X21356Y7048D01*
G01X22186Y7048D01*
G01X22186Y6731D01*
G01X21356Y6731D01*
G37*
G36*
G01X21356Y6534D02*
G01X21356Y6851D01*
G01X22186Y6851D01*
G01X22186Y6534D01*
G01X21356Y6534D01*
G37*
G36*
G01X21356Y6337D02*
G01X21356Y6654D01*
G01X22186Y6654D01*
G01X22186Y6337D01*
G01X21356Y6337D01*
G37*
G36*
G01X21356Y6140D02*
G01X21356Y6457D01*
G01X22186Y6457D01*
G01X22186Y6140D01*
G01X21356Y6140D01*
G37*
G36*
G01X21356Y5943D02*
G01X21356Y6260D01*
G01X22186Y6260D01*
G01X22186Y5943D01*
G01X21356Y5943D01*
G37*
G36*
G01X21356Y5747D02*
G01X21356Y6063D01*
G01X22186Y6063D01*
G01X22186Y5747D01*
G01X21356Y5747D01*
G37*
G36*
G01X21356Y5550D02*
G01X21356Y5867D01*
G01X22186Y5867D01*
G01X22186Y5550D01*
G01X21356Y5550D01*
G37*
G36*
G01X22282Y4624D02*
G01X22282Y5454D01*
G01X22599Y5454D01*
G01X22599Y4624D01*
G01X22282Y4624D01*
G37*
G36*
G01X22479Y4624D02*
G01X22479Y5454D01*
G01X22796Y5454D01*
G01X22796Y4624D01*
G01X22479Y4624D01*
G37*
G36*
G01X22676Y4624D02*
G01X22676Y5454D01*
G01X22993Y5454D01*
G01X22993Y4624D01*
G01X22676Y4624D01*
G37*
G36*
G01X22873Y4624D02*
G01X22873Y5454D01*
G01X23189Y5454D01*
G01X23189Y4624D01*
G01X22873Y4624D01*
G37*
G36*
G01X23069Y4624D02*
G01X23069Y5454D01*
G01X23386Y5454D01*
G01X23386Y4624D01*
G01X23069Y4624D01*
G37*
G36*
G01X23266Y4624D02*
G01X23266Y5454D01*
G01X23583Y5454D01*
G01X23583Y4624D01*
G01X23266Y4624D01*
G37*
G36*
G01X23463Y4624D02*
G01X23463Y5454D01*
G01X23780Y5454D01*
G01X23780Y4624D01*
G01X23463Y4624D01*
G37*
G36*
G01X23660Y4624D02*
G01X23660Y5454D01*
G01X23977Y5454D01*
G01X23977Y4624D01*
G01X23660Y4624D01*
G37*
G36*
G01X23857Y4624D02*
G01X23857Y5454D01*
G01X24174Y5454D01*
G01X24174Y4624D01*
G01X23857Y4624D01*
G37*
G36*
G01X24054Y4624D02*
G01X24054Y5454D01*
G01X24371Y5454D01*
G01X24371Y4624D01*
G01X24054Y4624D01*
G37*
G36*
G01X24250Y4624D02*
G01X24250Y5454D01*
G01X24567Y5454D01*
G01X24567Y4624D01*
G01X24250Y4624D01*
G37*
G36*
G01X24447Y4624D02*
G01X24447Y5454D01*
G01X24764Y5454D01*
G01X24764Y4624D01*
G01X24447Y4624D01*
G37*
G36*
G01X24644Y4624D02*
G01X24644Y5454D01*
G01X24961Y5454D01*
G01X24961Y4624D01*
G01X24644Y4624D01*
G37*
G36*
G01X24841Y4624D02*
G01X24841Y5454D01*
G01X25158Y5454D01*
G01X25158Y4624D01*
G01X24841Y4624D01*
G37*
G36*
G01X25038Y4624D02*
G01X25038Y5454D01*
G01X25355Y5454D01*
G01X25355Y4624D01*
G01X25038Y4624D01*
G37*
G36*
G01X25235Y4624D02*
G01X25235Y5454D01*
G01X25552Y5454D01*
G01X25552Y4624D01*
G01X25235Y4624D01*
G37*
G36*
G01X25432Y4624D02*
G01X25432Y5454D01*
G01X25749Y5454D01*
G01X25749Y4624D01*
G01X25432Y4624D01*
G37*
G36*
G01X25628Y4624D02*
G01X25628Y5454D01*
G01X25945Y5454D01*
G01X25945Y4624D01*
G01X25628Y4624D01*
G37*
G36*
G01X25825Y4624D02*
G01X25825Y5454D01*
G01X26142Y5454D01*
G01X26142Y4624D01*
G01X25825Y4624D01*
G37*
G36*
G01X26022Y4624D02*
G01X26022Y5454D01*
G01X26339Y5454D01*
G01X26339Y4624D01*
G01X26022Y4624D01*
G37*
G36*
G01X26219Y4624D02*
G01X26219Y5454D01*
G01X26536Y5454D01*
G01X26536Y4624D01*
G01X26219Y4624D01*
G37*
G36*
G01X26416Y4624D02*
G01X26416Y5454D01*
G01X26733Y5454D01*
G01X26733Y4624D01*
G01X26416Y4624D01*
G37*
G36*
G01X26613Y4624D02*
G01X26613Y5454D01*
G01X26930Y5454D01*
G01X26930Y4624D01*
G01X26613Y4624D01*
G37*
G36*
G01X26810Y4624D02*
G01X26810Y5454D01*
G01X27126Y5454D01*
G01X27126Y4624D01*
G01X26810Y4624D01*
G37*
G36*
G01X27006Y4624D02*
G01X27006Y5454D01*
G01X27323Y5454D01*
G01X27323Y4624D01*
G01X27006Y4624D01*
G37*
G36*
G01X30214Y8069D02*
G01X30214Y10434D01*
G01X31202Y10434D01*
G01X31202Y8069D01*
G01X30214Y8069D01*
G37*
G36*
G01X30214Y4722D02*
G01X30214Y7088D01*
G01X31202Y7088D01*
G01X31202Y4722D01*
G01X30214Y4722D01*
G37*
G36*
G01X28620Y6711D02*
G01X28620Y7383D01*
G01X29253Y7383D01*
G01X29253Y6711D01*
G01X28620Y6711D01*
G37*
G36*
G01X29289Y6711D02*
G01X29289Y7383D01*
G01X29922Y7383D01*
G01X29922Y6711D01*
G01X29289Y6711D01*
G37*
G36*
G01X28620Y5569D02*
G01X28620Y6241D01*
G01X29253Y6241D01*
G01X29253Y5569D01*
G01X28620Y5569D01*
G37*
G36*
G01X29289Y5569D02*
G01X29289Y6241D01*
G01X29922Y6241D01*
G01X29922Y5569D01*
G01X29289Y5569D01*
G37*
G36*
G01X28423Y10293D02*
G01X28423Y10966D01*
G01X29056Y10966D01*
G01X29056Y10293D01*
G01X28423Y10293D01*
G37*
G36*
G01X29092Y10293D02*
G01X29092Y10966D01*
G01X29725Y10966D01*
G01X29725Y10293D01*
G01X29092Y10293D01*
G37*
G36*
G01X4900Y11277D02*
G01X4900Y11950D01*
G01X5533Y11950D01*
G01X5533Y11277D01*
G01X4900Y11277D01*
G37*
G36*
G01X5569Y11277D02*
G01X5569Y11950D01*
G01X6202Y11950D01*
G01X6202Y11277D01*
G01X5569Y11277D01*
G37*
G36*
G01X4900Y10392D02*
G01X4900Y11064D01*
G01X5533Y11064D01*
G01X5533Y10392D01*
G01X4900Y10392D01*
G37*
G36*
G01X5569Y10392D02*
G01X5569Y11064D01*
G01X6202Y11064D01*
G01X6202Y10392D01*
G01X5569Y10392D01*
G37*
G36*
G01X18266Y5943D02*
G01X18266Y6260D01*
G01X19096Y6260D01*
G01X19096Y5943D01*
G01X18266Y5943D01*
G37*
G36*
G01X18266Y6140D02*
G01X18266Y6457D01*
G01X19096Y6457D01*
G01X19096Y6140D01*
G01X18266Y6140D01*
G37*
G36*
G01X18266Y6337D02*
G01X18266Y6654D01*
G01X19096Y6654D01*
G01X19096Y6337D01*
G01X18266Y6337D01*
G37*
G36*
G01X18266Y6534D02*
G01X18266Y6851D01*
G01X19096Y6851D01*
G01X19096Y6534D01*
G01X18266Y6534D01*
G37*
G36*
G01X18266Y6731D02*
G01X18266Y7048D01*
G01X19096Y7048D01*
G01X19096Y6731D01*
G01X18266Y6731D01*
G37*
G36*
G01X18266Y6928D02*
G01X18266Y7245D01*
G01X19096Y7245D01*
G01X19096Y6928D01*
G01X18266Y6928D01*
G37*
G36*
G01X18266Y7125D02*
G01X18266Y7441D01*
G01X19096Y7441D01*
G01X19096Y7125D01*
G01X18266Y7125D01*
G37*
G36*
G01X18266Y7321D02*
G01X18266Y7638D01*
G01X19096Y7638D01*
G01X19096Y7321D01*
G01X18266Y7321D01*
G37*
G36*
G01X18266Y7518D02*
G01X18266Y7835D01*
G01X19096Y7835D01*
G01X19096Y7518D01*
G01X18266Y7518D01*
G37*
G36*
G01X18266Y7715D02*
G01X18266Y8032D01*
G01X19096Y8032D01*
G01X19096Y7715D01*
G01X18266Y7715D01*
G37*
G36*
G01X18266Y7912D02*
G01X18266Y8229D01*
G01X19096Y8229D01*
G01X19096Y7912D01*
G01X18266Y7912D01*
G37*
G36*
G01X18266Y8109D02*
G01X18266Y8426D01*
G01X19096Y8426D01*
G01X19096Y8109D01*
G01X18266Y8109D01*
G37*
G36*
G01X18266Y8306D02*
G01X18266Y8623D01*
G01X19096Y8623D01*
G01X19096Y8306D01*
G01X18266Y8306D01*
G37*
G36*
G01X18266Y8502D02*
G01X18266Y8819D01*
G01X19096Y8819D01*
G01X19096Y8502D01*
G01X18266Y8502D01*
G37*
G36*
G01X18266Y8699D02*
G01X18266Y9016D01*
G01X19096Y9016D01*
G01X19096Y8699D01*
G01X18266Y8699D01*
G37*
G36*
G01X18266Y8896D02*
G01X18266Y9213D01*
G01X19096Y9213D01*
G01X19096Y8896D01*
G01X18266Y8896D01*
G37*
G36*
G01X17754Y9407D02*
G01X17754Y10237D01*
G01X18071Y10237D01*
G01X18071Y9407D01*
G01X17754Y9407D01*
G37*
G36*
G01X17558Y9407D02*
G01X17558Y10237D01*
G01X17875Y10237D01*
G01X17875Y9407D01*
G01X17558Y9407D01*
G37*
G36*
G01X17361Y9407D02*
G01X17361Y10237D01*
G01X17678Y10237D01*
G01X17678Y9407D01*
G01X17361Y9407D01*
G37*
G36*
G01X17164Y9407D02*
G01X17164Y10237D01*
G01X17481Y10237D01*
G01X17481Y9407D01*
G01X17164Y9407D01*
G37*
G36*
G01X16967Y9407D02*
G01X16967Y10237D01*
G01X17284Y10237D01*
G01X17284Y9407D01*
G01X16967Y9407D01*
G37*
G36*
G01X16770Y9407D02*
G01X16770Y10237D01*
G01X17087Y10237D01*
G01X17087Y9407D01*
G01X16770Y9407D01*
G37*
G36*
G01X16573Y9407D02*
G01X16573Y10237D01*
G01X16890Y10237D01*
G01X16890Y9407D01*
G01X16573Y9407D01*
G37*
G36*
G01X16376Y9407D02*
G01X16376Y10237D01*
G01X16693Y10237D01*
G01X16693Y9407D01*
G01X16376Y9407D01*
G37*
G36*
G01X16180Y9407D02*
G01X16180Y10237D01*
G01X16497Y10237D01*
G01X16497Y9407D01*
G01X16180Y9407D01*
G37*
G36*
G01X15983Y9407D02*
G01X15983Y10237D01*
G01X16300Y10237D01*
G01X16300Y9407D01*
G01X15983Y9407D01*
G37*
G36*
G01X15786Y9407D02*
G01X15786Y10237D01*
G01X16103Y10237D01*
G01X16103Y9407D01*
G01X15786Y9407D01*
G37*
G36*
G01X15589Y9407D02*
G01X15589Y10237D01*
G01X15906Y10237D01*
G01X15906Y9407D01*
G01X15589Y9407D01*
G37*
G36*
G01X15392Y9407D02*
G01X15392Y10237D01*
G01X15709Y10237D01*
G01X15709Y9407D01*
G01X15392Y9407D01*
G37*
G36*
G01X15195Y9407D02*
G01X15195Y10237D01*
G01X15512Y10237D01*
G01X15512Y9407D01*
G01X15195Y9407D01*
G37*
G36*
G01X14999Y9407D02*
G01X14999Y10237D01*
G01X15315Y10237D01*
G01X15315Y9407D01*
G01X14999Y9407D01*
G37*
G36*
G01X14802Y9407D02*
G01X14802Y10237D01*
G01X15119Y10237D01*
G01X15119Y9407D01*
G01X14802Y9407D01*
G37*
G36*
G01X13777Y8896D02*
G01X13777Y9213D01*
G01X14607Y9213D01*
G01X14607Y8896D01*
G01X13777Y8896D01*
G37*
G36*
G01X13777Y8699D02*
G01X13777Y9016D01*
G01X14607Y9016D01*
G01X14607Y8699D01*
G01X13777Y8699D01*
G37*
G36*
G01X13777Y8502D02*
G01X13777Y8819D01*
G01X14607Y8819D01*
G01X14607Y8502D01*
G01X13777Y8502D01*
G37*
G36*
G01X13777Y8306D02*
G01X13777Y8623D01*
G01X14607Y8623D01*
G01X14607Y8306D01*
G01X13777Y8306D01*
G37*
G36*
G01X13777Y8109D02*
G01X13777Y8426D01*
G01X14607Y8426D01*
G01X14607Y8109D01*
G01X13777Y8109D01*
G37*
G36*
G01X13777Y7912D02*
G01X13777Y8229D01*
G01X14607Y8229D01*
G01X14607Y7912D01*
G01X13777Y7912D01*
G37*
G36*
G01X13777Y7715D02*
G01X13777Y8032D01*
G01X14607Y8032D01*
G01X14607Y7715D01*
G01X13777Y7715D01*
G37*
G36*
G01X13777Y7518D02*
G01X13777Y7835D01*
G01X14607Y7835D01*
G01X14607Y7518D01*
G01X13777Y7518D01*
G37*
G36*
G01X13777Y7321D02*
G01X13777Y7638D01*
G01X14607Y7638D01*
G01X14607Y7321D01*
G01X13777Y7321D01*
G37*
G36*
G01X13777Y7125D02*
G01X13777Y7441D01*
G01X14607Y7441D01*
G01X14607Y7125D01*
G01X13777Y7125D01*
G37*
G36*
G01X13777Y6928D02*
G01X13777Y7245D01*
G01X14607Y7245D01*
G01X14607Y6928D01*
G01X13777Y6928D01*
G37*
G36*
G01X13777Y6731D02*
G01X13777Y7048D01*
G01X14607Y7048D01*
G01X14607Y6731D01*
G01X13777Y6731D01*
G37*
G36*
G01X13777Y6534D02*
G01X13777Y6851D01*
G01X14607Y6851D01*
G01X14607Y6534D01*
G01X13777Y6534D01*
G37*
G36*
G01X13777Y6337D02*
G01X13777Y6654D01*
G01X14607Y6654D01*
G01X14607Y6337D01*
G01X13777Y6337D01*
G37*
G36*
G01X13777Y6140D02*
G01X13777Y6457D01*
G01X14607Y6457D01*
G01X14607Y6140D01*
G01X13777Y6140D01*
G37*
G36*
G01X13777Y5943D02*
G01X13777Y6260D01*
G01X14607Y6260D01*
G01X14607Y5943D01*
G01X13777Y5943D01*
G37*
G36*
G01X14802Y4919D02*
G01X14802Y5749D01*
G01X15119Y5749D01*
G01X15119Y4919D01*
G01X14802Y4919D01*
G37*
G36*
G01X14999Y4919D02*
G01X14999Y5749D01*
G01X15315Y5749D01*
G01X15315Y4919D01*
G01X14999Y4919D01*
G37*
G36*
G01X15195Y4919D02*
G01X15195Y5749D01*
G01X15512Y5749D01*
G01X15512Y4919D01*
G01X15195Y4919D01*
G37*
G36*
G01X15392Y4919D02*
G01X15392Y5749D01*
G01X15709Y5749D01*
G01X15709Y4919D01*
G01X15392Y4919D01*
G37*
G36*
G01X15589Y4919D02*
G01X15589Y5749D01*
G01X15906Y5749D01*
G01X15906Y4919D01*
G01X15589Y4919D01*
G37*
G36*
G01X15786Y4919D02*
G01X15786Y5749D01*
G01X16103Y5749D01*
G01X16103Y4919D01*
G01X15786Y4919D01*
G37*
G36*
G01X15983Y4919D02*
G01X15983Y5749D01*
G01X16300Y5749D01*
G01X16300Y4919D01*
G01X15983Y4919D01*
G37*
G36*
G01X16180Y4919D02*
G01X16180Y5749D01*
G01X16497Y5749D01*
G01X16497Y4919D01*
G01X16180Y4919D01*
G37*
G36*
G01X16376Y4919D02*
G01X16376Y5749D01*
G01X16693Y5749D01*
G01X16693Y4919D01*
G01X16376Y4919D01*
G37*
G36*
G01X16573Y4919D02*
G01X16573Y5749D01*
G01X16890Y5749D01*
G01X16890Y4919D01*
G01X16573Y4919D01*
G37*
G36*
G01X16770Y4919D02*
G01X16770Y5749D01*
G01X17087Y5749D01*
G01X17087Y4919D01*
G01X16770Y4919D01*
G37*
G36*
G01X16967Y4919D02*
G01X16967Y5749D01*
G01X17284Y5749D01*
G01X17284Y4919D01*
G01X16967Y4919D01*
G37*
G36*
G01X17164Y4919D02*
G01X17164Y5749D01*
G01X17481Y5749D01*
G01X17481Y4919D01*
G01X17164Y4919D01*
G37*
G36*
G01X17361Y4919D02*
G01X17361Y5749D01*
G01X17678Y5749D01*
G01X17678Y4919D01*
G01X17361Y4919D01*
G37*
G36*
G01X17558Y4919D02*
G01X17558Y5749D01*
G01X17875Y5749D01*
G01X17875Y4919D01*
G01X17558Y4919D01*
G37*
G36*
G01X17754Y4919D02*
G01X17754Y5749D01*
G01X18071Y5749D01*
G01X18071Y4919D01*
G01X17754Y4919D01*
G37*
G36*
G01X1976Y8896D02*
G01X1976Y9213D01*
G01X2747Y9213D01*
G01X2747Y8896D01*
G01X1976Y8896D01*
G37*
G36*
G01X1976Y8699D02*
G01X1976Y9016D01*
G01X2747Y9016D01*
G01X2747Y8699D01*
G01X1976Y8699D01*
G37*
G36*
G01X1976Y8502D02*
G01X1976Y8819D01*
G01X2747Y8819D01*
G01X2747Y8502D01*
G01X1976Y8502D01*
G37*
G36*
G01X1976Y8306D02*
G01X1976Y8623D01*
G01X2747Y8623D01*
G01X2747Y8306D01*
G01X1976Y8306D01*
G37*
G36*
G01X1976Y8109D02*
G01X1976Y8426D01*
G01X2747Y8426D01*
G01X2747Y8109D01*
G01X1976Y8109D01*
G37*
G36*
G01X1976Y7912D02*
G01X1976Y8229D01*
G01X2747Y8229D01*
G01X2747Y7912D01*
G01X1976Y7912D01*
G37*
G36*
G01X1976Y7715D02*
G01X1976Y8032D01*
G01X2747Y8032D01*
G01X2747Y7715D01*
G01X1976Y7715D01*
G37*
G36*
G01X1976Y7518D02*
G01X1976Y7835D01*
G01X2747Y7835D01*
G01X2747Y7518D01*
G01X1976Y7518D01*
G37*
G36*
G01X1976Y7321D02*
G01X1976Y7638D01*
G01X2747Y7638D01*
G01X2747Y7321D01*
G01X1976Y7321D01*
G37*
G36*
G01X1976Y7125D02*
G01X1976Y7441D01*
G01X2747Y7441D01*
G01X2747Y7125D01*
G01X1976Y7125D01*
G37*
G36*
G01X1976Y6928D02*
G01X1976Y7245D01*
G01X2747Y7245D01*
G01X2747Y6928D01*
G01X1976Y6928D01*
G37*
G36*
G01X1976Y6731D02*
G01X1976Y7048D01*
G01X2747Y7048D01*
G01X2747Y6731D01*
G01X1976Y6731D01*
G37*
G36*
G01X1976Y6534D02*
G01X1976Y6851D01*
G01X2747Y6851D01*
G01X2747Y6534D01*
G01X1976Y6534D01*
G37*
G36*
G01X1976Y6337D02*
G01X1976Y6654D01*
G01X2747Y6654D01*
G01X2747Y6337D01*
G01X1976Y6337D01*
G37*
G36*
G01X1976Y6140D02*
G01X1976Y6457D01*
G01X2747Y6457D01*
G01X2747Y6140D01*
G01X1976Y6140D01*
G37*
G36*
G01X1976Y5943D02*
G01X1976Y6260D01*
G01X2747Y6260D01*
G01X2747Y5943D01*
G01X1976Y5943D01*
G37*
G36*
G01X1976Y5747D02*
G01X1976Y6063D01*
G01X2747Y6063D01*
G01X2747Y5747D01*
G01X1976Y5747D01*
G37*
G36*
G01X1976Y5550D02*
G01X1976Y5867D01*
G01X2747Y5867D01*
G01X2747Y5550D01*
G01X1976Y5550D01*
G37*
G36*
G01X1976Y5353D02*
G01X1976Y5670D01*
G01X2747Y5670D01*
G01X2747Y5353D01*
G01X1976Y5353D01*
G37*
G36*
G01X1976Y5156D02*
G01X1976Y5473D01*
G01X2747Y5473D01*
G01X2747Y5156D01*
G01X1976Y5156D01*
G37*
G36*
G01X1976Y4959D02*
G01X1976Y5276D01*
G01X2747Y5276D01*
G01X2747Y4959D01*
G01X1976Y4959D01*
G37*
G36*
G01X1976Y4762D02*
G01X1976Y5079D01*
G01X2747Y5079D01*
G01X2747Y4762D01*
G01X1976Y4762D01*
G37*
G36*
G01X1976Y4565D02*
G01X1976Y4882D01*
G01X2747Y4882D01*
G01X2747Y4565D01*
G01X1976Y4565D01*
G37*
G36*
G01X1976Y4369D02*
G01X1976Y4686D01*
G01X2747Y4686D01*
G01X2747Y4369D01*
G01X1976Y4369D01*
G37*
G36*
G01X9811Y4369D02*
G01X9811Y4686D01*
G01X10582Y4686D01*
G01X10582Y4369D01*
G01X9811Y4369D01*
G37*
G36*
G01X9811Y4565D02*
G01X9811Y4882D01*
G01X10582Y4882D01*
G01X10582Y4565D01*
G01X9811Y4565D01*
G37*
G36*
G01X9811Y4762D02*
G01X9811Y5079D01*
G01X10582Y5079D01*
G01X10582Y4762D01*
G01X9811Y4762D01*
G37*
G36*
G01X9811Y4959D02*
G01X9811Y5276D01*
G01X10582Y5276D01*
G01X10582Y4959D01*
G01X9811Y4959D01*
G37*
G36*
G01X9811Y5156D02*
G01X9811Y5473D01*
G01X10582Y5473D01*
G01X10582Y5156D01*
G01X9811Y5156D01*
G37*
G36*
G01X9811Y5353D02*
G01X9811Y5670D01*
G01X10582Y5670D01*
G01X10582Y5353D01*
G01X9811Y5353D01*
G37*
G36*
G01X9811Y5550D02*
G01X9811Y5867D01*
G01X10582Y5867D01*
G01X10582Y5550D01*
G01X9811Y5550D01*
G37*
G36*
G01X9811Y5747D02*
G01X9811Y6063D01*
G01X10582Y6063D01*
G01X10582Y5747D01*
G01X9811Y5747D01*
G37*
G36*
G01X9811Y5943D02*
G01X9811Y6260D01*
G01X10582Y6260D01*
G01X10582Y5943D01*
G01X9811Y5943D01*
G37*
G36*
G01X9811Y6140D02*
G01X9811Y6457D01*
G01X10582Y6457D01*
G01X10582Y6140D01*
G01X9811Y6140D01*
G37*
G36*
G01X9811Y6337D02*
G01X9811Y6654D01*
G01X10582Y6654D01*
G01X10582Y6337D01*
G01X9811Y6337D01*
G37*
G36*
G01X9811Y6534D02*
G01X9811Y6851D01*
G01X10582Y6851D01*
G01X10582Y6534D01*
G01X9811Y6534D01*
G37*
G36*
G01X9811Y6731D02*
G01X9811Y7048D01*
G01X10582Y7048D01*
G01X10582Y6731D01*
G01X9811Y6731D01*
G37*
G36*
G01X9811Y6928D02*
G01X9811Y7245D01*
G01X10582Y7245D01*
G01X10582Y6928D01*
G01X9811Y6928D01*
G37*
G36*
G01X9811Y7125D02*
G01X9811Y7441D01*
G01X10582Y7441D01*
G01X10582Y7125D01*
G01X9811Y7125D01*
G37*
G36*
G01X9811Y7321D02*
G01X9811Y7638D01*
G01X10582Y7638D01*
G01X10582Y7321D01*
G01X9811Y7321D01*
G37*
G36*
G01X9811Y7518D02*
G01X9811Y7835D01*
G01X10582Y7835D01*
G01X10582Y7518D01*
G01X9811Y7518D01*
G37*
G36*
G01X9811Y7715D02*
G01X9811Y8032D01*
G01X10582Y8032D01*
G01X10582Y7715D01*
G01X9811Y7715D01*
G37*
G36*
G01X9811Y7912D02*
G01X9811Y8229D01*
G01X10582Y8229D01*
G01X10582Y7912D01*
G01X9811Y7912D01*
G37*
G36*
G01X9811Y8109D02*
G01X9811Y8426D01*
G01X10582Y8426D01*
G01X10582Y8109D01*
G01X9811Y8109D01*
G37*
G36*
G01X9811Y8306D02*
G01X9811Y8623D01*
G01X10582Y8623D01*
G01X10582Y8306D01*
G01X9811Y8306D01*
G37*
G36*
G01X9811Y8502D02*
G01X9811Y8819D01*
G01X10582Y8819D01*
G01X10582Y8502D01*
G01X9811Y8502D01*
G37*
G36*
G01X9811Y8699D02*
G01X9811Y9016D01*
G01X10582Y9016D01*
G01X10582Y8699D01*
G01X9811Y8699D01*
G37*
G36*
G01X9811Y8896D02*
G01X9811Y9213D01*
G01X10582Y9213D01*
G01X10582Y8896D01*
G01X9811Y8896D01*
G37*
G36*
G01X6366Y11228D02*
G01X6366Y11605D01*
G01X7019Y11605D01*
G01X7019Y11228D01*
G01X6366Y11228D01*
G37*
G36*
G01X6366Y10973D02*
G01X6366Y11349D01*
G01X7019Y11349D01*
G01X7019Y10973D01*
G01X6366Y10973D01*
G37*
G36*
G01X6366Y10717D02*
G01X6366Y11093D01*
G01X7019Y11093D01*
G01X7019Y10717D01*
G01X6366Y10717D01*
G37*
G36*
G01X6366Y10461D02*
G01X6366Y10837D01*
G01X7019Y10837D01*
G01X7019Y10461D01*
G01X6366Y10461D01*
G37*
G36*
G01X8020Y10461D02*
G01X8020Y10837D01*
G01X8672Y10837D01*
G01X8672Y10461D01*
G01X8020Y10461D01*
G37*
G36*
G01X8020Y10717D02*
G01X8020Y11093D01*
G01X8672Y11093D01*
G01X8672Y10717D01*
G01X8020Y10717D01*
G37*
G36*
G01X8020Y10973D02*
G01X8020Y11349D01*
G01X8672Y11349D01*
G01X8672Y10973D01*
G01X8020Y10973D01*
G37*
G36*
G01X8020Y11229D02*
G01X8020Y11605D01*
G01X8672Y11605D01*
G01X8672Y11229D01*
G01X8020Y11229D01*
G37*
G36*
G01X7055Y10569D02*
G01X7055Y11497D01*
G01X7983Y11497D01*
G01X7983Y10569D01*
G01X7055Y10569D01*
G37*
G36*
G01X7045Y12183D02*
G01X7045Y13013D01*
G01X7757Y13013D01*
G01X7757Y12183D01*
G01X7045Y12183D01*
G37*
G36*
G01X7793Y12183D02*
G01X7793Y13013D01*
G01X8505Y13013D01*
G01X8505Y12183D01*
G01X7793Y12183D01*
G37*
G54D10*
G01X5118Y12598D03*
G54D11*
G01X4133Y12598D03*
G01X3346Y12598D03*
G01X2362Y12598D03*
G54D12*
G01X6326Y13665D03*
G54D13*
G54D12*
G01X1153Y13665D03*
G54D13*
G54D10*
G01X29921Y12598D03*
G54D11*
G01X28937Y12598D03*
G01X28149Y12598D03*
G01X27165Y12598D03*
G54D12*
G01X31129Y13665D03*
G54D13*
G54D12*
G01X25956Y13665D03*
G54D13*
G36*
G01X16573Y11464D02*
G01X16573Y12550D01*
G01X16970Y12550D01*
G01X16970Y11464D01*
G01X16573Y11464D01*
G37*
G36*
G01X16258Y11464D02*
G01X16258Y12550D01*
G01X16655Y12550D01*
G01X16655Y11464D01*
G01X16258Y11464D01*
G37*
G36*
G01X15943Y11464D02*
G01X15943Y12550D01*
G01X16340Y12550D01*
G01X16340Y11464D01*
G01X15943Y11464D01*
G37*
G36*
G01X15628Y11464D02*
G01X15628Y12550D01*
G01X16025Y12550D01*
G01X16025Y11464D01*
G01X15628Y11464D01*
G37*
G36*
G01X15313Y11464D02*
G01X15313Y12550D01*
G01X15710Y12550D01*
G01X15710Y11464D01*
G01X15313Y11464D01*
G37*
G36*
G01X17577Y11218D02*
G01X17577Y12796D01*
G01X18584Y12796D01*
G01X18584Y11218D01*
G01X17577Y11218D01*
G37*
G36*
G01X13699Y11218D02*
G01X13699Y12796D01*
G01X14706Y12796D01*
G01X14706Y11218D01*
G01X13699Y11218D01*
G37*
G36*
G01X17577Y12774D02*
G01X17577Y14391D01*
G01X18584Y14391D01*
G01X18584Y12774D01*
G01X17577Y12774D01*
G37*
G36*
G01X13699Y12774D02*
G01X13699Y14391D01*
G01X14706Y14391D01*
G01X14706Y12774D01*
G01X13699Y12774D01*
G37*
G54D14*
G01X24251Y13464D03*
G01X23251Y13464D03*
G01X22251Y13464D03*
G01X21251Y13464D03*
G01X20251Y13464D03*
G01X19251Y13464D03*
G36*
G01X10175Y11494D02*
G01X10175Y12285D01*
G01X11556Y12285D01*
G01X11556Y11494D01*
G01X10175Y11494D01*
G37*
G36*
G01X12222Y11494D02*
G01X12222Y12285D01*
G01X13603Y12285D01*
G01X13603Y11494D01*
G01X12222Y11494D01*
G37*
G54D15*
G01X1181Y11417D03*
G01X31102Y11417D03*
G36*
G01X22228Y3560D02*
G01X22228Y4470D01*
G01X22968Y4470D01*
G01X22968Y3560D01*
G01X22228Y3560D01*
G37*
G36*
G01X23408Y3560D02*
G01X23408Y4470D01*
G01X24148Y4470D01*
G01X24148Y3560D01*
G01X23408Y3560D01*
G37*
G36*
G01X5614Y9308D02*
G01X5614Y10218D01*
G01X6354Y10218D01*
G01X6354Y9308D01*
G01X5614Y9308D01*
G37*
G36*
G01X6794Y9308D02*
G01X6794Y10218D01*
G01X7534Y10218D01*
G01X7534Y9308D01*
G01X6794Y9308D01*
G37*
G36*
G01X8718Y13305D02*
G01X8718Y13938D01*
G01X9391Y13938D01*
G01X9391Y13305D01*
G01X8718Y13305D01*
G37*
G36*
G01X8718Y12636D02*
G01X8718Y13269D01*
G01X9391Y13269D01*
G01X9391Y12636D01*
G01X8718Y12636D01*
G37*
G36*
G01X9663Y13305D02*
G01X9663Y13938D01*
G01X10336Y13938D01*
G01X10336Y13305D01*
G01X9663Y13305D01*
G37*
G36*
G01X9663Y12636D02*
G01X9663Y13269D01*
G01X10336Y13269D01*
G01X10336Y12636D01*
G01X9663Y12636D01*
G37*
G36*
G01X923Y5628D02*
G01X923Y6340D01*
G01X1753Y6340D01*
G01X1753Y5628D01*
G01X923Y5628D01*
G37*
G36*
G01X923Y6376D02*
G01X923Y7088D01*
G01X1753Y7088D01*
G01X1753Y6376D01*
G01X923Y6376D01*
G37*
G36*
G01X2124Y10057D02*
G01X2124Y10729D01*
G01X2757Y10729D01*
G01X2757Y10057D01*
G01X2124Y10057D01*
G37*
G36*
G01X2793Y10057D02*
G01X2793Y10729D01*
G01X3426Y10729D01*
G01X3426Y10057D01*
G01X2793Y10057D01*
G37*

G04 Draw clearances for traces*
G54D16*
G01X23425Y11102D02*
G01X23425Y10590D01*
G01X23425Y10590D02*
G01X24566Y9448D01*
G01X24566Y9448D02*
G01X24566Y7480D01*
G01X24566Y7480D02*
G01X24724Y7322D01*
G01X24724Y7322D02*
G01X25984Y7322D01*
G01X25984Y7322D02*
G01X27322Y5984D01*
G01X27322Y5984D02*
G01X27322Y5590D01*
G01X27322Y5590D02*
G01X27716Y5196D01*
G01X27716Y5196D02*
G01X27716Y4645D01*
G54D17*
G01X27165Y4094D03*
G54D16*
G01X27716Y4645D02*
G01X27165Y4094D01*
G01X2362Y6299D02*
G01X2283Y6299D01*
G01X2283Y6299D02*
G01X2755Y6299D01*
G01X2755Y6299D02*
G01X4645Y4409D01*
G01X4645Y4409D02*
G01X6141Y4409D01*
G01X6141Y4409D02*
G01X6456Y4094D01*
G01X6456Y4094D02*
G01X6456Y3543D01*
G01X6456Y3543D02*
G01X6377Y3464D01*
G01X6377Y3464D02*
G01X6377Y3070D01*
G01X6377Y3070D02*
G01X6401Y2283D01*
G01X17322Y5334D02*
G01X17322Y4960D01*
G01X17322Y4960D02*
G01X17322Y5039D01*
G01X17322Y5039D02*
G01X17322Y4881D01*
G01X17322Y4881D02*
G01X17874Y4330D01*
G01X17874Y4330D02*
G01X19291Y4330D01*
G01X19291Y4330D02*
G01X19971Y3650D01*
G01X19971Y3650D02*
G01X19971Y2283D01*
G01X16732Y5334D02*
G01X16732Y4763D01*
G01X16732Y4763D02*
G01X18110Y3385D01*
G01X18110Y3385D02*
G01X18228Y3385D01*
G01X18228Y3385D02*
G01X18201Y2283D01*
G01X21771Y8661D02*
G01X20000Y8661D01*
G01X20000Y8661D02*
G01X19212Y7874D01*
G01X19212Y7874D02*
G01X18681Y7874D01*
G01X21771Y8661D02*
G01X22283Y8661D01*
G01X22283Y8661D02*
G01X22519Y8425D01*
G54D17*
G01X23149Y8425D03*
G54D16*
G01X22519Y8425D02*
G01X23149Y8425D01*
G54D17*
G01X7480Y8346D03*
G54D16*
G01X7480Y8346D02*
G01X7480Y7244D01*
G01X7480Y7244D02*
G01X8031Y6692D01*
G01X8031Y6692D02*
G01X10236Y6692D01*
G01X10236Y6692D02*
G01X10196Y6692D01*
G01X10196Y5511D02*
G01X12362Y5511D01*
G01X12362Y5511D02*
G01X12598Y5748D01*
G01X12598Y5748D02*
G01X12598Y7480D01*
G01X12598Y7480D02*
G01X12992Y7874D01*
G01X12992Y7874D02*
G01X14192Y7874D01*
G01X25393Y5039D02*
G01X25393Y5708D01*
G01X25393Y5708D02*
G01X25196Y5905D01*
G54D17*
G01X25196Y6771D03*
G54D16*
G01X25196Y5905D02*
G01X25196Y6771D01*
G54D17*
G01X12834Y7716D03*
G54D16*
G01X12834Y7716D02*
G01X12834Y7716D01*
G01X12834Y7716D02*
G01X12992Y7874D01*
G01X12992Y7874D02*
G01X14192Y7874D01*
G01X10196Y9055D02*
G01X12125Y9055D01*
G01X12125Y9055D02*
G01X12204Y8976D01*
G01X12204Y8976D02*
G01X12204Y6141D01*
G01X12204Y6141D02*
G01X12125Y6062D01*
G54D17*
G01X11102Y6062D03*
G54D16*
G01X12125Y6062D02*
G01X11102Y6062D01*
G54D17*
G01X8503Y4015D03*
G54D16*
G01X8503Y4015D02*
G01X8761Y3758D01*
G01X8761Y3758D02*
G01X8761Y2283D01*
G01X17519Y5334D02*
G01X17519Y4921D01*
G01X17519Y4921D02*
G01X17952Y4488D01*
G01X17952Y4488D02*
G01X19370Y4488D01*
G01X19370Y4488D02*
G01X20236Y3622D01*
G01X20236Y3622D02*
G01X20393Y3622D01*
G01X20393Y3622D02*
G01X20629Y3385D01*
G01X20629Y3385D02*
G01X20551Y3070D01*
G01X20551Y3070D02*
G01X20561Y2283D01*
G01X16535Y5334D02*
G01X16535Y4724D01*
G01X16535Y4724D02*
G01X17559Y3700D01*
G01X17559Y3700D02*
G01X17559Y3228D01*
G01X17559Y3228D02*
G01X17611Y2283D01*
G54D18*
G01X22331Y1973D02*
G01X22331Y3630D01*
G54D17*
G01X22331Y3630D02*
G01X22440Y3740D01*
G01X22440Y3740D02*
G01X22331Y3652D01*
G01X22047Y3937D03*
G01X22331Y3652D02*
G01X22047Y3937D01*
G01X4488Y9842D03*
G54D19*
G01X4488Y9842D02*
G01X4803Y10157D01*
G01X4803Y10157D02*
G01X5393Y10157D01*
G01X5393Y10157D02*
G01X5866Y10629D01*
G01X5866Y10629D02*
G01X5885Y10728D01*
G01X6692Y11161D02*
G01X6141Y11161D01*
G01X6141Y11161D02*
G01X5807Y10826D01*
G01X5807Y10826D02*
G01X5885Y10728D01*
G54D17*
G01X22598Y4015D02*
G01X22677Y4015D01*
G01X22677Y4015D02*
G01X22331Y3670D01*
G54D18*
G01X22331Y3670D02*
G01X22331Y1973D01*
G54D16*
G01X8346Y11161D02*
G01X9153Y11161D01*
G01X9153Y11161D02*
G01X9370Y10944D01*
G01X9370Y10944D02*
G01X9370Y10590D01*
G01X9370Y10590D02*
G01X9173Y10393D01*
G01X9173Y10393D02*
G01X8661Y10393D01*
G01X8661Y10393D02*
G01X7480Y9212D01*
G01X7480Y9212D02*
G01X5118Y9212D01*
G01X5118Y9212D02*
G01X4488Y9842D01*
G01X15944Y9822D02*
G01X15944Y10275D01*
G01X15944Y10275D02*
G01X15905Y10314D01*
G01X15905Y10314D02*
G01X15826Y10314D01*
G01X15826Y10314D02*
G01X15748Y10236D01*
G01X15748Y10236D02*
G01X15748Y9822D01*
G01X15748Y9822D02*
G01X15748Y10236D01*
G01X15748Y10236D02*
G01X15669Y10314D01*
G01X15669Y10314D02*
G01X15511Y10314D01*
G01X15511Y10314D02*
G01X15196Y10629D01*
G01X15196Y10629D02*
G01X15196Y10944D01*
G01X15196Y10944D02*
G01X15354Y11102D01*
G01X15354Y11102D02*
G01X17322Y11102D01*
G01X17322Y11102D02*
G01X17637Y10787D01*
G01X17637Y10787D02*
G01X18425Y10787D01*
G01X18425Y10787D02*
G01X19685Y12047D01*
G01X19685Y12047D02*
G01X23622Y12047D01*
G01X23622Y12047D02*
G01X23818Y11850D01*
G01X23818Y11850D02*
G01X23818Y11102D01*
G01X24409Y11102D02*
G01X24409Y10708D01*
G01X24409Y10708D02*
G01X24330Y10629D01*
G01X24330Y10629D02*
G01X23858Y10629D01*
G01X23858Y10629D02*
G01X23818Y10669D01*
G01X23818Y10669D02*
G01X23818Y11102D01*
G01X23251Y13464D02*
G01X23251Y12968D01*
G01X23251Y12968D02*
G01X24173Y12047D01*
G01X24173Y12047D02*
G01X24173Y11811D01*
G01X24173Y11811D02*
G01X24409Y11574D01*
G01X24409Y11574D02*
G01X24409Y11102D01*
G01X21771Y8858D02*
G01X19960Y8858D01*
G01X19960Y8858D02*
G01X19173Y8070D01*
G01X19173Y8070D02*
G01X18681Y8070D01*
G01X21771Y8858D02*
G01X22322Y8858D01*
G01X22322Y8858D02*
G01X22440Y8740D01*
G54D17*
G01X23622Y8740D03*
G54D16*
G01X22440Y8740D02*
G01X23622Y8740D01*
G54D17*
G01X7165Y7559D03*
G54D16*
G01X7165Y7559D02*
G01X7165Y7244D01*
G01X7165Y7244D02*
G01X7913Y6496D01*
G01X7913Y6496D02*
G01X10196Y6496D01*
G01X10196Y5314D02*
G01X12401Y5314D01*
G01X12401Y5314D02*
G01X12755Y5669D01*
G01X12755Y5669D02*
G01X12755Y6929D01*
G01X12755Y6929D02*
G01X13503Y7677D01*
G01X13503Y7677D02*
G01X14192Y7677D01*
G01X25196Y5039D02*
G01X25196Y5669D01*
G01X25196Y5669D02*
G01X24881Y5984D01*
G54D17*
G01X24881Y6062D03*
G54D16*
G01X24881Y5984D02*
G01X24881Y6062D01*
G54D17*
G01X13307Y7480D03*
G54D16*
G01X13307Y7480D02*
G01X13307Y7480D01*
G01X13307Y7480D02*
G01X13503Y7677D01*
G01X13503Y7677D02*
G01X14192Y7677D01*
G01X10196Y5708D02*
G01X12322Y5708D01*
G01X12322Y5708D02*
G01X12440Y5826D01*
G01X12440Y5826D02*
G01X12440Y7795D01*
G01X12440Y7795D02*
G01X12716Y8070D01*
G01X12716Y8070D02*
G01X14192Y8070D01*
G01X25000Y5039D02*
G01X25000Y5472D01*
G01X25000Y5472D02*
G01X24566Y5905D01*
G54D17*
G01X24566Y6771D03*
G54D16*
G01X24566Y5905D02*
G01X24566Y6771D01*
G54D17*
G01X15354Y7716D03*
G54D16*
G01X15354Y7716D02*
G01X15354Y7716D01*
G01X15354Y7716D02*
G01X15000Y8070D01*
G01X15000Y8070D02*
G01X14192Y8070D01*
G01X2362Y9055D02*
G01X3385Y9055D01*
G01X3385Y9055D02*
G01X4251Y8188D01*
G01X4251Y8188D02*
G01X4251Y6692D01*
G01X4251Y6692D02*
G01X6062Y4881D01*
G01X6062Y4881D02*
G01X8346Y4881D01*
G01X8346Y4881D02*
G01X9921Y3307D01*
G01X9921Y3307D02*
G01X9941Y2283D01*
G01X17716Y5334D02*
G01X17716Y4960D01*
G01X17716Y4960D02*
G01X18031Y4645D01*
G01X18031Y4645D02*
G01X19448Y4645D01*
G01X19448Y4645D02*
G01X20314Y3779D01*
G01X20314Y3779D02*
G01X20866Y3779D01*
G01X20866Y3779D02*
G01X21181Y3464D01*
G01X21181Y3464D02*
G01X21151Y2283D01*
G01X15354Y5334D02*
G01X15354Y5748D01*
G01X15354Y5748D02*
G01X15275Y5826D01*
G01X15275Y5826D02*
G01X14803Y5826D01*
G01X14803Y5826D02*
G01X14251Y5275D01*
G01X14251Y5275D02*
G01X14251Y4015D01*
G01X14251Y4015D02*
G01X14645Y3622D01*
G01X14645Y3622D02*
G01X15196Y3622D01*
G01X15196Y3622D02*
G01X15251Y3567D01*
G01X15251Y3567D02*
G01X15251Y2283D01*
G01X21771Y9055D02*
G01X19921Y9055D01*
G01X19921Y9055D02*
G01X19133Y8267D01*
G01X19133Y8267D02*
G01X18681Y8267D01*
G01X21771Y9055D02*
G01X21732Y9055D01*
G54D17*
G01X22755Y9055D03*
G54D16*
G01X21732Y9055D02*
G01X22755Y9055D01*
G54D17*
G01X6850Y8346D03*
G54D16*
G01X6850Y8346D02*
G01X6850Y7244D01*
G01X6850Y7244D02*
G01X7795Y6299D01*
G01X7795Y6299D02*
G01X10236Y6299D01*
G01X10236Y6299D02*
G01X10196Y6299D01*
G01X10196Y4527D02*
G01X10669Y4527D01*
G54D17*
G01X10787Y4409D03*
G54D16*
G01X10669Y4527D02*
G01X10787Y4409D01*
G01X2362Y7283D02*
G01X2007Y7283D01*
G01X2007Y7283D02*
G01X1929Y7362D01*
G01X1929Y7362D02*
G01X1929Y8110D01*
G01X1929Y8110D02*
G01X1771Y8267D01*
G01X1771Y8267D02*
G01X1771Y9251D01*
G01X1771Y9251D02*
G01X1968Y9448D01*
G01X1968Y9448D02*
G01X3464Y9448D01*
G01X3464Y9448D02*
G01X4566Y8346D01*
G01X4566Y8346D02*
G01X4566Y6850D01*
G01X4566Y6850D02*
G01X6220Y5196D01*
G01X6220Y5196D02*
G01X8503Y5196D01*
G01X8503Y5196D02*
G01X9921Y3779D01*
G01X9921Y3779D02*
G01X10944Y3779D01*
G01X10944Y3779D02*
G01X11121Y3602D01*
G01X11121Y3602D02*
G01X11121Y2283D01*
G01X2362Y8267D02*
G01X2401Y8267D01*
G01X2401Y8267D02*
G01X2007Y8267D01*
G01X2007Y8267D02*
G01X1929Y8346D01*
G01X1929Y8346D02*
G01X1929Y9173D01*
G01X1929Y9173D02*
G01X2047Y9291D01*
G01X2047Y9291D02*
G01X3385Y9291D01*
G01X3385Y9291D02*
G01X4409Y8267D01*
G01X4409Y8267D02*
G01X4409Y6771D01*
G01X4409Y6771D02*
G01X6141Y5039D01*
G01X6141Y5039D02*
G01X8425Y5039D01*
G01X8425Y5039D02*
G01X9842Y3622D01*
G01X9842Y3622D02*
G01X10236Y3622D01*
G01X10236Y3622D02*
G01X10531Y3326D01*
G01X10531Y3326D02*
G01X10531Y2283D01*
G01X16929Y5334D02*
G01X16929Y4803D01*
G01X16929Y4803D02*
G01X18031Y3700D01*
G01X18031Y3700D02*
G01X18582Y3700D01*
G01X18582Y3700D02*
G01X18897Y3385D01*
G01X18897Y3385D02*
G01X18791Y2283D01*
G01X14192Y6496D02*
G01X13740Y6496D01*
G01X13740Y6496D02*
G01X13543Y6299D01*
G01X13543Y6299D02*
G01X13543Y4645D01*
G01X13543Y4645D02*
G01X12891Y3994D01*
G01X12891Y3994D02*
G01X12891Y2283D01*
G01X14192Y6692D02*
G01X13700Y6692D01*
G01X13700Y6692D02*
G01X13385Y6377D01*
G01X13385Y6377D02*
G01X13385Y4724D01*
G01X13385Y4724D02*
G01X12913Y4251D01*
G01X12913Y4251D02*
G01X11732Y4251D01*
G01X11732Y4251D02*
G01X11574Y4094D01*
G01X11574Y4094D02*
G01X11574Y3700D01*
G01X11574Y3700D02*
G01X11732Y3543D01*
G01X11732Y3543D02*
G01X11732Y2913D01*
G01X11732Y2913D02*
G01X11711Y2283D01*
G01X27834Y7677D02*
G01X27440Y7677D01*
G54D17*
G01X27165Y7952D03*
G54D16*
G01X27440Y7677D02*
G01X27165Y7952D01*
G54D17*
G01X17244Y12755D03*
G54D16*
G01X17244Y12755D02*
G01X17165Y12755D01*
G01X17165Y12755D02*
G01X16771Y12362D01*
G01X16771Y12362D02*
G01X16771Y12007D01*
G54D20*
G01X7401Y12598D02*
G01X7401Y12519D01*
G01X7401Y12519D02*
G01X5216Y12500D01*
G01X5216Y12500D02*
G01X5118Y12598D01*
G54D16*
G01X10196Y7283D02*
G01X8622Y7283D01*
G01X8622Y7283D02*
G01X7795Y8110D01*
G01X7795Y8110D02*
G01X7795Y9291D01*
G01X7795Y9291D02*
G01X8740Y10236D01*
G01X8740Y10236D02*
G01X14645Y10236D01*
G01X14645Y10236D02*
G01X14724Y10314D01*
G01X14724Y10314D02*
G01X15039Y10314D01*
G01X15039Y10314D02*
G01X15157Y10196D01*
G01X15157Y10196D02*
G01X15157Y9822D01*
G01X24606Y5039D02*
G01X24606Y5629D01*
G01X24606Y5629D02*
G01X24251Y5984D01*
G01X24251Y5984D02*
G01X24251Y9291D01*
G01X24251Y9291D02*
G01X23228Y10314D01*
G01X23228Y10314D02*
G01X22677Y10314D01*
G01X22677Y10314D02*
G01X21732Y11259D01*
G01X21732Y11259D02*
G01X20078Y11259D01*
G01X20078Y11259D02*
G01X18188Y9370D01*
G01X18188Y9370D02*
G01X17716Y9370D01*
G01X17716Y9370D02*
G01X17559Y9212D01*
G01X17559Y9212D02*
G01X17559Y8267D01*
G01X17559Y8267D02*
G01X18031Y7795D01*
G01X18031Y7795D02*
G01X18031Y7165D01*
G01X18031Y7165D02*
G01X17795Y6929D01*
G01X17795Y6929D02*
G01X16771Y6929D01*
G01X16771Y6929D02*
G01X16299Y7401D01*
G01X16299Y7401D02*
G01X16299Y8818D01*
G01X16299Y8818D02*
G01X15905Y9212D01*
G01X15905Y9212D02*
G01X15354Y9212D01*
G01X15354Y9212D02*
G01X15157Y9409D01*
G01X15157Y9409D02*
G01X15157Y9822D01*
G01X21771Y9251D02*
G01X19881Y9251D01*
G01X19881Y9251D02*
G01X19094Y8464D01*
G01X19094Y8464D02*
G01X18681Y8464D01*
G01X21771Y9251D02*
G01X22322Y9251D01*
G01X22322Y9251D02*
G01X22440Y9370D01*
G54D17*
G01X23228Y9370D03*
G54D16*
G01X22440Y9370D02*
G01X23228Y9370D01*
G54D17*
G01X6535Y7559D03*
G54D16*
G01X6535Y7559D02*
G01X6535Y7244D01*
G01X6535Y7244D02*
G01X7677Y6102D01*
G01X7677Y6102D02*
G01X10196Y6102D01*
G01X16338Y9822D02*
G01X16338Y9409D01*
G01X16338Y9409D02*
G01X16299Y9370D01*
G01X16299Y9370D02*
G01X15590Y9370D01*
G01X15590Y9370D02*
G01X15551Y9409D01*
G01X15551Y9409D02*
G01X15551Y9822D01*
G01X24606Y11102D02*
G01X24606Y10669D01*
G01X24606Y10669D02*
G01X24409Y10472D01*
G01X24409Y10472D02*
G01X23779Y10472D01*
G01X23779Y10472D02*
G01X23622Y10629D01*
G01X23622Y10629D02*
G01X23622Y11102D01*
G01X23622Y11102D02*
G01X23622Y11653D01*
G01X23622Y11653D02*
G01X23385Y11889D01*
G01X23385Y11889D02*
G01X19763Y11889D01*
G01X19763Y11889D02*
G01X18503Y10629D01*
G01X18503Y10629D02*
G01X17637Y10629D01*
G01X17637Y10629D02*
G01X17322Y10314D01*
G01X17322Y10314D02*
G01X16456Y10314D01*
G01X16456Y10314D02*
G01X16338Y10196D01*
G01X16338Y10196D02*
G01X16338Y9822D01*
G01X24251Y13464D02*
G01X24330Y13385D01*
G01X24330Y13385D02*
G01X24330Y11889D01*
G01X24330Y11889D02*
G01X24566Y11653D01*
G01X24566Y11653D02*
G01X24606Y11614D01*
G01X24606Y11614D02*
G01X24606Y11102D01*
G01X2362Y8070D02*
G01X3425Y8070D01*
G01X3425Y8070D02*
G01X3622Y7874D01*
G01X3622Y7874D02*
G01X3622Y5905D01*
G01X3622Y5905D02*
G01X4803Y4724D01*
G01X4803Y4724D02*
G01X8267Y4724D01*
G01X8267Y4724D02*
G01X9351Y3640D01*
G01X9351Y3640D02*
G01X9351Y2283D01*
G01X15157Y5334D02*
G01X15157Y4921D01*
G01X15157Y4921D02*
G01X15118Y4881D01*
G01X15118Y4881D02*
G01X14960Y4881D01*
G01X14960Y4881D02*
G01X14566Y4488D01*
G01X14566Y4488D02*
G01X14566Y4173D01*
G01X14566Y4173D02*
G01X14803Y3937D01*
G01X14803Y3937D02*
G01X15905Y3937D01*
G01X15905Y3937D02*
G01X16431Y3410D01*
G01X16431Y3410D02*
G01X16431Y2283D01*
G01X18681Y6102D02*
G01X18228Y6102D01*
G01X18228Y6102D02*
G01X18188Y6141D01*
G01X18188Y6141D02*
G01X16141Y6141D01*
G54D17*
G01X15984Y6299D03*
G54D16*
G01X16141Y6141D02*
G01X15984Y6299D01*
G01X21771Y9842D02*
G01X22125Y9842D01*
G01X22125Y9842D02*
G01X22283Y10000D01*
G01X22283Y10000D02*
G01X23070Y10000D01*
G01X23070Y10000D02*
G01X23937Y9133D01*
G01X23937Y9133D02*
G01X23937Y7637D01*
G01X23937Y7637D02*
G01X23149Y6850D01*
G01X23149Y6850D02*
G01X23149Y6535D01*
G01X23149Y6535D02*
G01X22047Y5433D01*
G01X22047Y5433D02*
G01X22047Y4881D01*
G01X22047Y4881D02*
G01X21889Y4724D01*
G54D17*
G01X21653Y4724D03*
G54D16*
G01X21889Y4724D02*
G01X21653Y4724D01*
G01X10196Y7480D02*
G01X10236Y7480D01*
G01X10236Y7480D02*
G01X8661Y7480D01*
G01X8661Y7480D02*
G01X7952Y8188D01*
G01X7952Y8188D02*
G01X7952Y9212D01*
G01X7952Y9212D02*
G01X8818Y10078D01*
G01X8818Y10078D02*
G01X14803Y10078D01*
G01X14803Y10078D02*
G01X14960Y9921D01*
G01X14960Y9921D02*
G01X14960Y9822D01*
G01X24409Y5039D02*
G01X24409Y5511D01*
G01X24409Y5511D02*
G01X24094Y5826D01*
G01X24094Y5826D02*
G01X24094Y9212D01*
G01X24094Y9212D02*
G01X23149Y10157D01*
G01X23149Y10157D02*
G01X22598Y10157D01*
G01X22598Y10157D02*
G01X21653Y11102D01*
G01X21653Y11102D02*
G01X20157Y11102D01*
G01X20157Y11102D02*
G01X18267Y9212D01*
G01X18267Y9212D02*
G01X17795Y9212D01*
G01X17795Y9212D02*
G01X17716Y9133D01*
G01X17716Y9133D02*
G01X17716Y8346D01*
G01X17716Y8346D02*
G01X18188Y7874D01*
G01X18188Y7874D02*
G01X18188Y7086D01*
G01X18188Y7086D02*
G01X17874Y6771D01*
G01X17874Y6771D02*
G01X16692Y6771D01*
G01X16692Y6771D02*
G01X16141Y7322D01*
G01X16141Y7322D02*
G01X16141Y8740D01*
G01X16141Y8740D02*
G01X15826Y9055D01*
G01X15826Y9055D02*
G01X15275Y9055D01*
G01X15275Y9055D02*
G01X14960Y9370D01*
G01X14960Y9370D02*
G01X14960Y9822D01*
G01X21771Y10236D02*
G01X21338Y10236D01*
G01X21338Y10236D02*
G01X20708Y9606D01*
G01X20708Y9606D02*
G01X19763Y9606D01*
G01X19763Y9606D02*
G01X19212Y9055D01*
G01X19212Y9055D02*
G01X18661Y9055D01*
G01X18661Y9055D02*
G01X18681Y9055D01*
G01X21771Y9448D02*
G01X19842Y9448D01*
G01X19842Y9448D02*
G01X19251Y8858D01*
G01X19251Y8858D02*
G01X18681Y8858D01*
G01X10196Y5905D02*
G01X7559Y5905D01*
G01X7559Y5905D02*
G01X6220Y7244D01*
G54D17*
G01X6220Y8346D03*
G54D16*
G01X6220Y7244D02*
G01X6220Y8346D01*
G54D17*
G01X22755Y9685D03*
G54D16*
G01X22755Y9685D02*
G01X22440Y9685D01*
G01X22440Y9685D02*
G01X22204Y9448D01*
G01X22204Y9448D02*
G01X21771Y9448D01*
G01X2362Y8858D02*
G01X3346Y8858D01*
G01X3346Y8858D02*
G01X4094Y8110D01*
G01X4094Y8110D02*
G01X4094Y6614D01*
G01X4094Y6614D02*
G01X4724Y5984D01*
G54D17*
G01X4724Y5275D03*
G54D16*
G01X4724Y5984D02*
G01X4724Y5275D01*
G01X2362Y7874D02*
G01X3385Y7874D01*
G01X3385Y7874D02*
G01X3464Y7795D01*
G01X3464Y7795D02*
G01X3464Y5826D01*
G01X3464Y5826D02*
G01X4724Y4566D01*
G01X4724Y4566D02*
G01X6220Y4566D01*
G01X6220Y4566D02*
G01X6991Y3795D01*
G01X6991Y3795D02*
G01X6991Y2283D01*
G01X14192Y6889D02*
G01X13661Y6889D01*
G01X13661Y6889D02*
G01X13228Y6456D01*
G01X13228Y6456D02*
G01X13228Y4803D01*
G01X13228Y4803D02*
G01X12834Y4409D01*
G01X12834Y4409D02*
G01X11653Y4409D01*
G01X11653Y4409D02*
G01X11181Y3937D01*
G01X11181Y3937D02*
G01X10000Y3937D01*
G01X10000Y3937D02*
G01X8582Y5354D01*
G01X8582Y5354D02*
G01X6299Y5354D01*
G01X6299Y5354D02*
G01X4724Y6929D01*
G01X4724Y6929D02*
G01X4724Y8425D01*
G01X4724Y8425D02*
G01X3543Y9606D01*
G01X3543Y9606D02*
G01X1889Y9606D01*
G01X1889Y9606D02*
G01X1614Y9330D01*
G01X1614Y9330D02*
G01X1614Y8188D01*
G01X1614Y8188D02*
G01X1771Y8031D01*
G01X1771Y8031D02*
G01X1771Y7283D01*
G01X1771Y7283D02*
G01X1968Y7086D01*
G01X1968Y7086D02*
G01X2559Y7086D01*
G01X2559Y7086D02*
G01X2362Y7086D01*
G01X14192Y6102D02*
G01X14094Y6062D01*
G01X14094Y6062D02*
G01X13937Y5905D01*
G01X13937Y5905D02*
G01X13937Y4566D01*
G01X13937Y4566D02*
G01X13464Y4094D01*
G01X13464Y4094D02*
G01X13464Y3779D01*
G01X13464Y3779D02*
G01X13622Y3622D01*
G01X13622Y3622D02*
G01X13937Y3622D01*
G01X13937Y3622D02*
G01X14094Y3464D01*
G01X14094Y3464D02*
G01X14071Y3251D01*
G01X14071Y3251D02*
G01X14071Y2283D01*
G54D20*
G01X1338Y6732D02*
G01X1338Y6771D01*
G01X1338Y6771D02*
G01X1259Y6850D01*
G54D17*
G01X1259Y7322D03*
G01X1259Y6850D02*
G01X1259Y7322D01*
G54D21*
G01X1338Y6732D02*
G01X1338Y6692D01*
G01X1338Y6692D02*
G01X2362Y6692D01*
G54D16*
G01X22440Y11102D02*
G01X22440Y11338D01*
G01X22440Y11338D02*
G01X22362Y11417D01*
G01X22362Y11417D02*
G01X20000Y11417D01*
G01X20000Y11417D02*
G01X18661Y10078D01*
G01X18661Y10078D02*
G01X18031Y10078D01*
G01X18031Y10078D02*
G01X17913Y9960D01*
G01X17913Y9960D02*
G01X17913Y9822D01*
G01X10196Y7874D02*
G01X8740Y7874D01*
G01X8740Y7874D02*
G01X8267Y8346D01*
G01X8267Y8346D02*
G01X8267Y9055D01*
G01X8267Y9055D02*
G01X8976Y9763D01*
G01X8976Y9763D02*
G01X14094Y9763D01*
G01X14094Y9763D02*
G01X15118Y8740D01*
G01X15118Y8740D02*
G01X15669Y8740D01*
G01X15669Y8740D02*
G01X15826Y8582D01*
G01X15826Y8582D02*
G01X15826Y7165D01*
G01X15826Y7165D02*
G01X16535Y6456D01*
G01X16535Y6456D02*
G01X18031Y6456D01*
G01X18031Y6456D02*
G01X18267Y6692D01*
G01X18267Y6692D02*
G01X18681Y6692D01*
G01X18681Y6692D02*
G01X19291Y6692D01*
G01X19291Y6692D02*
G01X19448Y6535D01*
G01X19448Y6535D02*
G01X20866Y6535D01*
G01X20866Y6535D02*
G01X21338Y7007D01*
G01X21338Y7007D02*
G01X21338Y7401D01*
G01X21338Y7401D02*
G01X21417Y7480D01*
G01X21417Y7480D02*
G01X21771Y7480D01*
G01X2362Y7677D02*
G01X2795Y7677D01*
G01X2795Y7677D02*
G01X2992Y7480D01*
G54D17*
G01X2992Y7165D03*
G54D16*
G01X2992Y7480D02*
G01X2992Y7165D01*
G54D17*
G01X5590Y4015D03*
G54D16*
G01X5590Y4015D02*
G01X5811Y3794D01*
G01X5811Y3794D02*
G01X5811Y2283D01*
G01X15551Y5334D02*
G01X15551Y5787D01*
G01X15551Y5787D02*
G01X15354Y5984D01*
G01X15354Y5984D02*
G01X14724Y5984D01*
G01X14724Y5984D02*
G01X14094Y5354D01*
G01X14094Y5354D02*
G01X14094Y3937D01*
G01X14094Y3937D02*
G01X14645Y3385D01*
G01X14645Y3385D02*
G01X14661Y2283D01*
G01X18681Y6299D02*
G01X16456Y6299D01*
G01X16456Y6299D02*
G01X16141Y6614D01*
G01X16141Y6614D02*
G01X15748Y6614D01*
G01X15748Y6614D02*
G01X15669Y6535D01*
G54D17*
G01X15511Y6456D03*
G54D16*
G01X15669Y6535D02*
G01X15511Y6456D01*
G01X21771Y6692D02*
G01X21259Y6692D01*
G01X21259Y6692D02*
G01X20629Y6062D01*
G01X20629Y6062D02*
G01X20629Y4960D01*
G01X20629Y4960D02*
G01X20551Y4881D01*
G54D17*
G01X20551Y4724D03*
G54D16*
G01X20551Y4881D02*
G01X20551Y4724D01*
G01X18681Y6889D02*
G01X19330Y6889D01*
G01X19330Y6889D02*
G01X19527Y6692D01*
G01X19527Y6692D02*
G01X20787Y6692D01*
G01X20787Y6692D02*
G01X21181Y7086D01*
G01X21181Y7086D02*
G01X21181Y7480D01*
G01X21181Y7480D02*
G01X21377Y7677D01*
G01X21377Y7677D02*
G01X21771Y7677D01*
G01X10196Y7677D02*
G01X8700Y7677D01*
G01X8700Y7677D02*
G01X8110Y8267D01*
G01X8110Y8267D02*
G01X8110Y9133D01*
G01X8110Y9133D02*
G01X8897Y9921D01*
G01X8897Y9921D02*
G01X14173Y9921D01*
G01X14173Y9921D02*
G01X15196Y8897D01*
G01X15196Y8897D02*
G01X15748Y8897D01*
G01X15748Y8897D02*
G01X15984Y8661D01*
G01X15984Y8661D02*
G01X15984Y7244D01*
G01X15984Y7244D02*
G01X16614Y6614D01*
G01X16614Y6614D02*
G01X17952Y6614D01*
G01X17952Y6614D02*
G01X18228Y6889D01*
G01X18228Y6889D02*
G01X18681Y6889D01*
G01X17322Y9822D02*
G01X17322Y9448D01*
G01X17322Y9448D02*
G01X17401Y9370D01*
G01X17401Y9370D02*
G01X17401Y8188D01*
G01X17401Y8188D02*
G01X17874Y7716D01*
G01X17874Y7716D02*
G01X17874Y7480D01*
G01X17874Y7480D02*
G01X17637Y7244D01*
G01X17637Y7244D02*
G01X17637Y7244D01*
G54D17*
G01X17637Y7244D03*
G54D16*
G01X17637Y7244D02*
G01X17637Y7244D01*
G01X2362Y4527D02*
G01X4055Y4527D01*
G01X4055Y4527D02*
G01X4631Y3951D01*
G01X4631Y3951D02*
G01X4631Y2283D01*
G01X16338Y5334D02*
G01X16338Y4685D01*
G01X16338Y4685D02*
G01X17007Y4015D01*
G01X17007Y4015D02*
G01X17007Y3228D01*
G01X17007Y3228D02*
G01X17021Y2283D01*
G01X24803Y11102D02*
G01X24803Y10708D01*
G01X24803Y10708D02*
G01X24881Y10629D01*
G01X24881Y10629D02*
G01X27322Y10629D01*
G01X27322Y10629D02*
G01X27637Y10944D01*
G01X27637Y10944D02*
G01X28425Y10944D01*
G01X28425Y10944D02*
G01X28740Y10629D01*
G01X16456Y12007D02*
G01X16456Y12755D01*
G54D17*
G01X16535Y12755D03*
G54D16*
G01X16456Y12755D02*
G01X16535Y12755D01*
G54D17*
G01X25826Y8818D03*
G54D16*
G01X25826Y8818D02*
G01X25826Y8346D01*
G01X25826Y8346D02*
G01X26850Y7322D01*
G01X26850Y7322D02*
G01X27401Y7322D01*
G01X27401Y7322D02*
G01X27440Y7283D01*
G01X27440Y7283D02*
G01X27834Y7283D01*
G01X24212Y11102D02*
G01X24212Y11535D01*
G01X24212Y11535D02*
G01X24015Y11732D01*
G01X24015Y11732D02*
G01X24015Y11968D01*
G01X24015Y11968D02*
G01X23779Y12204D01*
G01X23779Y12204D02*
G01X19606Y12204D01*
G01X19606Y12204D02*
G01X18346Y10944D01*
G01X18346Y10944D02*
G01X17716Y10944D01*
G01X17716Y10944D02*
G01X17401Y11259D01*
G01X17401Y11259D02*
G01X15275Y11259D01*
G01X15275Y11259D02*
G01X15039Y11023D01*
G01X15039Y11023D02*
G01X15039Y10551D01*
G01X15039Y10551D02*
G01X15354Y10236D01*
G01X15354Y10236D02*
G01X15354Y9822D01*
G01X21251Y13464D02*
G01X21259Y13464D01*
G01X21259Y13464D02*
G01X21259Y12598D01*
G01X21259Y12598D02*
G01X21653Y12204D01*
G01X21653Y12204D02*
G01X23779Y12204D01*
G01X23779Y12204D02*
G01X24015Y11968D01*
G01X24015Y11968D02*
G01X24015Y11732D01*
G01X24015Y11732D02*
G01X24212Y11535D01*
G01X24212Y11535D02*
G01X24212Y11102D01*
G01X23031Y11102D02*
G01X23031Y11614D01*
G01X23031Y11614D02*
G01X22913Y11732D01*
G01X22913Y11732D02*
G01X19842Y11732D01*
G01X19842Y11732D02*
G01X18582Y10472D01*
G01X18582Y10472D02*
G01X17716Y10472D01*
G01X17716Y10472D02*
G01X17519Y10275D01*
G01X17519Y10275D02*
G01X17519Y9822D01*
G01X2362Y4724D02*
G01X2007Y4724D01*
G01X2007Y4724D02*
G01X1929Y4645D01*
G01X1929Y4645D02*
G01X1929Y4094D01*
G01X1929Y4094D02*
G01X2086Y3937D01*
G01X2086Y3937D02*
G01X2992Y3937D01*
G01X2992Y3937D02*
G01X3451Y3477D01*
G01X3451Y3477D02*
G01X3451Y2283D01*
G54D17*
G01X27244Y9685D03*
G54D16*
G01X27244Y9685D02*
G01X27401Y9842D01*
G01X27401Y9842D02*
G01X27834Y9842D01*
G01X2362Y5118D02*
G01X1929Y5118D01*
G01X1929Y5118D02*
G01X1614Y4803D01*
G01X1614Y4803D02*
G01X1614Y3897D01*
G01X1614Y3897D02*
G01X1889Y3622D01*
G01X1889Y3622D02*
G01X2125Y3622D01*
G01X2125Y3622D02*
G01X2271Y3476D01*
G01X2271Y3476D02*
G01X2271Y2283D01*
G01X14192Y7086D02*
G01X13622Y7086D01*
G01X13622Y7086D02*
G01X13070Y6535D01*
G01X13070Y6535D02*
G01X13070Y4881D01*
G01X13070Y4881D02*
G01X12755Y4566D01*
G01X12755Y4566D02*
G01X11574Y4566D01*
G01X11574Y4566D02*
G01X11102Y4094D01*
G01X11102Y4094D02*
G01X10078Y4094D01*
G01X10078Y4094D02*
G01X8661Y5511D01*
G01X8661Y5511D02*
G01X6377Y5511D01*
G01X6377Y5511D02*
G01X4881Y7007D01*
G01X4881Y7007D02*
G01X4881Y8503D01*
G01X4881Y8503D02*
G01X3622Y9763D01*
G01X3622Y9763D02*
G01X1811Y9763D01*
G01X1811Y9763D02*
G01X1456Y9409D01*
G01X1456Y9409D02*
G01X1456Y8110D01*
G01X1456Y8110D02*
G01X1614Y7952D01*
G01X1614Y7952D02*
G01X1614Y7204D01*
G01X1614Y7204D02*
G01X1929Y6889D01*
G01X1929Y6889D02*
G01X2362Y6889D01*
G01X24212Y5039D02*
G01X24212Y5472D01*
G01X24212Y5472D02*
G01X23937Y5748D01*
G01X23937Y5748D02*
G01X23937Y6771D01*
G01X23937Y6771D02*
G01X23779Y6929D01*
G01X23779Y6929D02*
G01X23464Y6929D01*
G01X23464Y6929D02*
G01X23307Y6771D01*
G01X23307Y6771D02*
G01X23307Y6456D01*
G01X23307Y6456D02*
G01X22204Y5354D01*
G01X22204Y5354D02*
G01X22204Y4803D01*
G01X22204Y4803D02*
G01X21811Y4409D01*
G01X21811Y4409D02*
G01X20393Y4409D01*
G01X20393Y4409D02*
G01X19685Y5118D01*
G01X19685Y5118D02*
G01X18976Y5118D01*
G01X18976Y5118D02*
G01X18110Y5984D01*
G01X18110Y5984D02*
G01X15590Y5984D01*
G01X15590Y5984D02*
G01X15433Y6141D01*
G01X15433Y6141D02*
G01X14724Y6141D01*
G01X14724Y6141D02*
G01X14645Y6220D01*
G01X14645Y6220D02*
G01X14645Y7007D01*
G01X14645Y7007D02*
G01X14566Y7086D01*
G01X14566Y7086D02*
G01X14192Y7086D01*
G01X2440Y10393D02*
G01X2440Y10078D01*
G01X2440Y10078D02*
G01X2125Y9763D01*
G01X2125Y9763D02*
G01X1811Y9763D01*
G01X1811Y9763D02*
G01X1456Y9409D01*
G01X1456Y9409D02*
G01X1456Y8110D01*
G01X1456Y8110D02*
G01X1614Y7952D01*
G01X1614Y7952D02*
G01X1614Y7204D01*
G01X1614Y7204D02*
G01X1929Y6889D01*
G01X1929Y6889D02*
G01X2362Y6889D01*
G54D17*
G01X25826Y10314D03*
G54D16*
G01X25826Y10314D02*
G01X25826Y9842D01*
G01X25826Y9842D02*
G01X26614Y9055D01*
G01X26614Y9055D02*
G01X27834Y9055D01*
G01X18681Y7086D02*
G01X19370Y7086D01*
G01X19370Y7086D02*
G01X19606Y6850D01*
G01X19606Y6850D02*
G01X20236Y6850D01*
G01X20236Y6850D02*
G01X20551Y7165D01*
G54D17*
G01X20551Y7086D03*
G54D16*
G01X20551Y7165D02*
G01X20551Y7086D01*
G01X2362Y5511D02*
G01X1850Y5511D01*
G01X1850Y5511D02*
G01X1299Y4960D01*
G01X1299Y4960D02*
G01X1299Y3818D01*
G01X1299Y3818D02*
G01X1102Y3622D01*
G01X1102Y3622D02*
G01X1102Y2677D01*
G01X1102Y2677D02*
G01X1091Y2283D01*
G54D17*
G01X787Y3937D03*
G01X4960Y3937D03*
G01X6102Y3937D03*
G54D18*
G01X12301Y1973D02*
G01X12301Y3643D01*
G54D17*
G01X12007Y3937D03*
G54D18*
G01X12301Y3643D02*
G01X12007Y3937D01*
G54D17*
G01X13779Y3937D03*
G01X19040Y3840D03*
G01X29724Y3937D03*
G01X29409Y9133D03*
G54D21*
G01X29409Y9645D02*
G01X29409Y9133D01*
G01X27165Y5039D02*
G01X27165Y5413D01*
G54D17*
G01X26870Y5708D03*
G54D21*
G01X27165Y5413D02*
G01X26870Y5708D01*
G01X28937Y7047D02*
G01X28937Y6555D01*
G01X28937Y6555D02*
G01X28937Y6653D01*
G54D17*
G01X28937Y6555D03*
G01X28937Y7047D02*
G01X28937Y6555D01*
G54D21*
G01X28937Y5905D02*
G01X28937Y5708D01*
G54D17*
G01X28937Y5413D03*
G01X28937Y5905D02*
G01X28937Y5413D01*
G54D21*
G01X27165Y11102D02*
G01X27401Y11338D01*
G01X27401Y11338D02*
G01X27440Y11338D01*
G54D17*
G01X27480Y11299D03*
G54D21*
G01X27440Y11338D02*
G01X27480Y11299D01*
G54D17*
G01X17165Y10708D03*
G01X16732Y10708D02*
G01X17165Y10708D01*
G54D21*
G01X25570Y12007D02*
G01X25590Y12007D01*
G01X8346Y11417D02*
G01X8366Y11417D01*
G01X8366Y11417D02*
G01X7874Y11417D01*
G01X7874Y11417D02*
G01X7775Y11318D01*
G01X7775Y11318D02*
G01X7519Y11033D01*
G01X7519Y11033D02*
G01X7519Y11377D01*
G54D17*
G01X7283Y11614D03*
G54D21*
G01X7519Y11377D02*
G01X7283Y11614D01*
G01X7519Y11033D02*
G01X7519Y11358D01*
G54D17*
G01X7775Y11614D03*
G54D21*
G01X7519Y11358D02*
G01X7775Y11614D01*
G01X7519Y11033D02*
G01X7519Y10669D01*
G54D17*
G01X7283Y10472D03*
G54D21*
G01X7519Y10669D02*
G01X7283Y10472D01*
G01X7519Y11033D02*
G01X7519Y10688D01*
G54D17*
G01X7755Y10472D03*
G54D21*
G01X7519Y10688D02*
G01X7755Y10472D01*
G54D17*
G01X7519Y11033D02*
G01X7519Y11377D01*
G01X7519Y11377D02*
G01X7283Y11614D01*
G01X7283Y11614D02*
G01X7775Y11614D01*
G01X7775Y11614D02*
G01X7775Y10472D01*
G01X7775Y10472D02*
G01X7283Y10472D01*
G01X7283Y10472D02*
G01X7283Y11614D01*
G01X31496Y3937D03*
G01X23778Y4015D02*
G01X23976Y3937D01*
G01X24330Y3937D03*
G01X23976Y3937D02*
G01X24330Y3937D01*
G54D21*
G01X25866Y4173D02*
G01X25866Y4212D01*
G54D17*
G01X26377Y4212D03*
G01X25866Y4212D02*
G01X26377Y4212D01*
G01X4724Y10728D03*
G01X5216Y10728D02*
G01X4724Y10728D01*
G01X4724Y11614D03*
G01X5216Y11614D02*
G01X4724Y11614D01*
G01X14881Y4330D03*
G01X15354Y4330D02*
G01X14881Y4330D01*
G54D21*
G01X15354Y4330D02*
G01X15944Y4921D01*
G01X15944Y4921D02*
G01X15944Y5334D01*
G54D17*
G01X12598Y8976D03*
G01X12598Y8425D02*
G01X12598Y8976D01*
G54D21*
G01X10196Y4921D02*
G01X9803Y4921D01*
G54D17*
G01X9606Y5118D03*
G54D21*
G01X9803Y4921D02*
G01X9606Y5118D01*
G01X10196Y4724D02*
G01X9842Y4724D01*
G01X9842Y4724D02*
G01X9763Y4803D01*
G01X9763Y4803D02*
G01X9763Y4881D01*
G01X9763Y4881D02*
G01X9803Y4921D01*
G01X9803Y4921D02*
G01X10196Y4921D01*
G01X2362Y6496D02*
G01X2874Y6496D01*
G54D17*
G01X2992Y6614D03*
G54D21*
G01X2874Y6496D02*
G01X2992Y6614D01*
G54D17*
G01X20275Y7598D03*
G01X20275Y8070D02*
G01X20275Y7598D01*
G01X20196Y5669D03*
G01X20196Y6181D02*
G01X20196Y5669D01*
G54D16*
G01X23778Y4015D02*
G01X23858Y3937D01*
G01X23858Y3937D02*
G01X24330Y3937D01*
G01X24330Y3937D02*
G01X24330Y4330D01*
G01X24330Y4330D02*
G01X24015Y4645D01*
G01X24015Y4645D02*
G01X24015Y5039D01*
G54D21*
G01X17125Y9822D02*
G01X17125Y9173D01*
G54D17*
G01X17086Y8976D03*
G54D21*
G01X17125Y9173D02*
G01X17086Y8976D01*
G01X18681Y8661D02*
G01X18110Y8661D01*
G01X18110Y8661D02*
G01X18031Y8740D01*
G54D17*
G01X18031Y8897D03*
G54D21*
G01X18031Y8740D02*
G01X18031Y8897D01*
G01X14192Y7480D02*
G01X14645Y7480D01*
G54D17*
G01X14881Y7716D03*
G54D21*
G01X14645Y7480D02*
G01X14881Y7716D01*
G01X21771Y5708D02*
G01X21220Y5708D01*
G54D17*
G01X21181Y5669D03*
G54D21*
G01X21220Y5708D02*
G01X21181Y5669D01*
G54D17*
G01X11771Y7519D03*
G01X11771Y7007D02*
G01X11771Y7519D01*
G01X11771Y8110D03*
G01X11771Y8661D02*
G01X11771Y8110D01*
G54D20*
G01X10000Y12952D02*
G01X9055Y12952D01*
G54D16*
G01X22637Y11102D02*
G01X22637Y10669D01*
G01X22637Y10669D02*
G01X22834Y10472D01*
G01X22834Y10472D02*
G01X23307Y10472D01*
G01X23307Y10472D02*
G01X24409Y9370D01*
G01X24409Y9370D02*
G01X24409Y7322D01*
G01X24409Y7322D02*
G01X24566Y7165D01*
G01X24566Y7165D02*
G01X25905Y7165D01*
G01X25905Y7165D02*
G01X26771Y6299D01*
G01X26771Y6299D02*
G01X26771Y5826D01*
G01X26771Y5826D02*
G01X27165Y5433D01*
G01X27165Y5433D02*
G01X27165Y5039D01*
G54D17*
G01X29409Y8582D02*
G01X29409Y9645D01*
G01X27244Y8464D03*
G54D21*
G01X27834Y8464D02*
G01X27244Y8464D01*
G01X10196Y8661D02*
G01X9842Y8661D01*
G01X9842Y8661D02*
G01X9606Y8897D01*
G54D17*
G01X9606Y8976D03*
G54D21*
G01X9606Y8897D02*
G01X9606Y8976D01*
G54D17*
G01X748Y5984D03*
G01X1338Y5984D02*
G01X748Y5984D01*
G01X26023Y12007D03*
G01X25570Y12007D02*
G01X26023Y12007D01*
G54D21*
G01X27834Y6692D02*
G01X27401Y6692D01*
G54D17*
G01X27244Y6850D03*
G54D21*
G01X27401Y6692D02*
G01X27244Y6850D01*
G01X21771Y10433D02*
G01X21692Y10433D01*
G01X21692Y10433D02*
G01X21496Y10629D01*
G54D17*
G01X21496Y10787D03*
G54D21*
G01X21496Y10629D02*
G01X21496Y10787D01*
G01X15511Y12007D02*
G01X15511Y12362D01*
G54D17*
G01X15118Y12755D03*
G54D20*
G01X15511Y12362D02*
G01X15118Y12755D01*
G54D21*
G01X12913Y11889D02*
G01X13307Y11889D01*
G54D17*
G01X13307Y11259D03*
G01X13307Y11889D02*
G01X13307Y11259D01*
G54D20*
G01X9055Y12952D02*
G01X9488Y12952D01*
G01X9488Y12952D02*
G01X9527Y12913D01*
G54D17*
G01X9527Y12440D03*
G54D20*
G01X9527Y12913D02*
G01X9527Y12440D01*
G54D22*
G01X3110Y10393D02*
G01X4409Y10393D01*
G01X4409Y10393D02*
G01X4724Y10708D01*
G01X4724Y10708D02*
G01X5196Y10708D01*
G01X5196Y10708D02*
G01X5216Y10728D01*
G54D21*
G01X8346Y10649D02*
G01X7539Y10649D01*
G01X7539Y10649D02*
G01X7480Y10708D01*
G01X7480Y10708D02*
G01X7519Y11033D01*
G01X7164Y9763D02*
G01X7242Y10077D01*
G54D17*
G01X7242Y10077D02*
G01X7480Y10314D01*
G01X7480Y10314D02*
G01X7480Y11023D01*
G01X7480Y11023D02*
G01X7519Y11033D01*
G54D16*
G01X30708Y9251D02*
G01X30610Y10137D01*
G01X30610Y10137D02*
G01X30610Y10334D01*
G01X30610Y10334D02*
G01X29330Y11614D01*
G01X29330Y11614D02*
G01X26870Y11614D01*
G01X26870Y11614D02*
G01X26771Y11515D01*
G01X26771Y11515D02*
G01X26771Y11102D01*
G01X29606Y7047D02*
G01X29685Y7007D01*
G01X29685Y7007D02*
G01X30118Y7440D01*
G01X30118Y7440D02*
G01X30118Y8169D01*
G01X30118Y8169D02*
G01X30511Y8562D01*
G01X30511Y8562D02*
G01X30708Y9251D01*
G01X16141Y12007D02*
G01X16141Y12755D01*
G54D17*
G01X16062Y12755D03*
G54D16*
G01X16141Y12755D02*
G01X16062Y12755D01*
G54D17*
G01X26220Y8582D03*
G54D16*
G01X26220Y8582D02*
G01X26062Y8582D01*
G01X26062Y8582D02*
G01X25984Y8503D01*
G01X25984Y8503D02*
G01X25984Y8425D01*
G01X25984Y8425D02*
G01X26929Y7480D01*
G01X26929Y7480D02*
G01X27834Y7480D01*
G01X22637Y5039D02*
G01X22637Y4685D01*
G01X22637Y4685D02*
G01X22519Y4566D01*
G01X22519Y4566D02*
G01X22204Y4566D01*
G01X22204Y4566D02*
G01X21889Y4251D01*
G01X21889Y4251D02*
G01X20314Y4251D01*
G01X20314Y4251D02*
G01X19606Y4960D01*
G01X19606Y4960D02*
G01X18897Y4960D01*
G01X18897Y4960D02*
G01X18031Y5826D01*
G01X18031Y5826D02*
G01X15826Y5826D01*
G01X15826Y5826D02*
G01X15748Y5748D01*
G01X15748Y5748D02*
G01X15748Y5334D01*
G54D17*
G01X23622Y6614D03*
G54D16*
G01X23622Y6614D02*
G01X23622Y5590D01*
G01X23622Y5590D02*
G01X23543Y5511D01*
G01X23543Y5511D02*
G01X22755Y5511D01*
G01X22755Y5511D02*
G01X22637Y5393D01*
G01X22637Y5393D02*
G01X22637Y5039D01*
G01X16535Y9822D02*
G01X16535Y9370D01*
G01X16535Y9370D02*
G01X16456Y9291D01*
G01X16456Y9291D02*
G01X16456Y8582D01*
G01X16456Y8582D02*
G01X16614Y8425D01*
G54D17*
G01X16614Y7637D03*
G54D16*
G01X16614Y8425D02*
G01X16614Y7637D01*
G54D17*
G01X27244Y10157D03*
G54D16*
G01X27244Y10157D02*
G01X27362Y10039D01*
G01X27362Y10039D02*
G01X27834Y10039D01*
G01X2362Y8464D02*
G01X3267Y8464D01*
G01X3267Y8464D02*
G01X3779Y7952D01*
G01X3779Y7952D02*
G01X3779Y6220D01*
G54D17*
G01X3937Y6062D03*
G54D16*
G01X3779Y6220D02*
G01X3937Y6062D01*
G01X2362Y5708D02*
G01X1811Y5708D01*
G01X1811Y5708D02*
G01X472Y4370D01*
G01X472Y4370D02*
G01X472Y2795D01*
G01X472Y2795D02*
G01X472Y2834D01*
G01X472Y2834D02*
G01X501Y2283D01*
G01X21771Y6496D02*
G01X21299Y6496D01*
G01X21299Y6496D02*
G01X20787Y5984D01*
G01X20787Y5984D02*
G01X20787Y5039D01*
G54D17*
G01X21102Y4724D03*
G54D16*
G01X20787Y5039D02*
G01X21102Y4724D01*
G01X30708Y5905D02*
G01X30708Y6397D01*
G01X30708Y6397D02*
G01X31397Y7086D01*
G01X31397Y7086D02*
G01X31397Y10334D01*
G01X31397Y10334D02*
G01X31102Y10629D01*
G01X31102Y10629D02*
G01X30708Y10629D01*
G01X30708Y10629D02*
G01X29527Y11811D01*
G01X29527Y11811D02*
G01X26771Y11811D01*
G01X26771Y11811D02*
G01X26574Y11614D01*
G01X26574Y11614D02*
G01X26574Y11102D01*
G01X29606Y5905D02*
G01X30708Y5905D01*
G54D17*
G01X26220Y10078D03*
G54D16*
G01X26220Y10078D02*
G01X26062Y10078D01*
G01X26062Y10078D02*
G01X25984Y10000D01*
G01X25984Y10000D02*
G01X25984Y9921D01*
G01X25984Y9921D02*
G01X26692Y9212D01*
G01X26692Y9212D02*
G01X27401Y9212D01*
G01X27401Y9212D02*
G01X27440Y9251D01*
G01X27440Y9251D02*
G01X27834Y9251D01*
G54D19*
G01X5885Y11614D02*
G01X6200Y11614D01*
G01X6200Y11614D02*
G01X6397Y11417D01*
G01X6397Y11417D02*
G01X6692Y11417D01*
G01X6692Y11417D02*
G01X6692Y11712D01*
G01X6692Y11712D02*
G01X6988Y12007D01*
G01X6988Y12007D02*
G01X8070Y12007D01*
G01X8070Y12007D02*
G01X8188Y12125D01*
G01X8188Y12125D02*
G01X8188Y12598D01*
G01X8188Y12598D02*
G01X8149Y12598D01*
G54D18*
G01X10866Y11889D02*
G01X10866Y11811D01*
G01X10866Y11811D02*
G01X8503Y11811D01*
G01X8503Y11811D02*
G01X8149Y12165D01*
G01X8149Y12165D02*
G01X8149Y12598D01*
G54D16*
G01X27834Y6496D02*
G01X27047Y6496D01*
G01X27047Y6496D02*
G01X26062Y7480D01*
G01X26062Y7480D02*
G01X25039Y7480D01*
G01X25039Y7480D02*
G01X24881Y7637D01*
G54D17*
G01X24881Y8110D03*
G54D16*
G01X24881Y7637D02*
G01X24881Y8110D01*
G54D17*
G01X8976Y10787D03*
G54D16*
G01X8976Y10787D02*
G01X8858Y10905D01*
G01X8858Y10905D02*
G01X8346Y10905D01*
G01X2362Y6102D02*
G01X2716Y6102D01*
G01X2716Y6102D02*
G01X3149Y5669D01*
G54D17*
G01X3149Y5118D03*
G54D16*
G01X3149Y5669D02*
G01X3149Y5118D01*
G01X18681Y7283D02*
G01X19881Y7283D01*
G01X19881Y7283D02*
G01X19921Y7244D01*
G54D17*
G01X19921Y7165D03*
G54D16*
G01X19921Y7244D02*
G01X19921Y7165D01*
G01X2362Y5314D02*
G01X1889Y5314D01*
G01X1889Y5314D02*
G01X1456Y4881D01*
G01X1456Y4881D02*
G01X1456Y3818D01*
G01X1456Y3818D02*
G01X1653Y3622D01*
G01X1653Y3622D02*
G01X1653Y3385D01*
G01X1653Y3385D02*
G01X1681Y3357D01*
G01X1681Y3357D02*
G01X1681Y2283D01*
G01X14192Y7283D02*
G01X13582Y7283D01*
G01X13582Y7283D02*
G01X12913Y6614D01*
G01X12913Y6614D02*
G01X12913Y5590D01*
G01X12913Y5590D02*
G01X12440Y5118D01*
G01X12440Y5118D02*
G01X10196Y5118D01*
G01X14192Y8464D02*
G01X15472Y8464D01*
G01X15472Y8464D02*
G01X15669Y8267D01*
G01X15669Y8267D02*
G01X15669Y7086D01*
G54D17*
G01X15039Y6456D03*
G54D16*
G01X15669Y7086D02*
G01X15039Y6456D01*
G01X16929Y9822D02*
G01X16929Y9291D01*
G01X16929Y9291D02*
G01X16850Y9212D01*
G01X16850Y9212D02*
G01X16771Y9133D01*
G01X16771Y9133D02*
G01X16771Y8740D01*
G01X16771Y8740D02*
G01X17165Y8346D01*
G01X17165Y8346D02*
G01X17244Y8267D01*
G01X17244Y8267D02*
G01X17244Y7795D01*
G54D17*
G01X17401Y7637D03*
G54D16*
G01X17244Y7795D02*
G01X17401Y7637D01*
G01X2362Y4921D02*
G01X1968Y4921D01*
G01X1968Y4921D02*
G01X1771Y4724D01*
G01X1771Y4724D02*
G01X1771Y4015D01*
G01X1771Y4015D02*
G01X2007Y3779D01*
G01X2007Y3779D02*
G01X2755Y3779D01*
G01X2755Y3779D02*
G01X2861Y3673D01*
G01X2861Y3673D02*
G01X2861Y2283D01*
G01X10196Y8070D02*
G01X8779Y8070D01*
G01X8779Y8070D02*
G01X8582Y8267D01*
G01X8582Y8267D02*
G01X8582Y9133D01*
G01X8582Y9133D02*
G01X9055Y9606D01*
G01X9055Y9606D02*
G01X13622Y9606D01*
G01X13622Y9606D02*
G01X14173Y9055D01*
G01X14173Y9055D02*
G01X14192Y9055D01*
G01X25984Y5039D02*
G01X25984Y5905D01*
G54D17*
G01X26141Y6062D03*
G54D16*
G01X25984Y5905D02*
G01X26141Y6062D01*
G54D17*
G01X8582Y8582D03*
G54D16*
G01X8582Y8582D02*
G01X8582Y8267D01*
G01X8582Y8267D02*
G01X8779Y8070D01*
G01X8779Y8070D02*
G01X10196Y8070D01*
G01X18681Y7480D02*
G01X18661Y7480D01*
G01X18661Y7480D02*
G01X19488Y7480D01*
G01X19488Y7480D02*
G01X19645Y7637D01*
G54D17*
G01X19685Y7637D03*
G54D16*
G01X19645Y7637D02*
G01X19685Y7637D01*
G01X2362Y8661D02*
G01X3307Y8661D01*
G01X3307Y8661D02*
G01X3937Y8031D01*
G01X3937Y8031D02*
G01X3937Y6535D01*
G01X3937Y6535D02*
G01X4330Y6141D01*
G54D17*
G01X4330Y5669D03*
G54D16*
G01X4330Y6141D02*
G01X4330Y5669D01*
G54D17*
G01X4015Y3937D03*
G54D16*
G01X4015Y3937D02*
G01X4041Y3911D01*
G01X4041Y3911D02*
G01X4041Y2283D01*
G01X17125Y5334D02*
G01X17125Y4842D01*
G01X17125Y4842D02*
G01X17795Y4173D01*
G01X17795Y4173D02*
G01X19212Y4173D01*
G01X19212Y4173D02*
G01X19370Y4015D01*
G01X19370Y4015D02*
G01X19370Y2519D01*
G01X19370Y2519D02*
G01X19381Y2283D01*
G01X14192Y6299D02*
G01X13779Y6299D01*
G01X13779Y6299D02*
G01X13700Y6220D01*
G01X13700Y6220D02*
G01X13700Y4566D01*
G01X13700Y4566D02*
G01X13307Y4173D01*
G01X13307Y4173D02*
G01X13307Y3700D01*
G01X13307Y3700D02*
G01X13481Y3526D01*
G01X13481Y3526D02*
G01X13481Y2283D01*
G01X10196Y8464D02*
G01X9330Y8464D01*
G01X9330Y8464D02*
G01X9212Y8582D01*
G01X9212Y8582D02*
G01X9212Y9133D01*
G01X9212Y9133D02*
G01X9370Y9291D01*
G01X9370Y9291D02*
G01X13464Y9291D01*
G01X13464Y9291D02*
G01X13582Y9173D01*
G01X13582Y9173D02*
G01X13582Y8858D01*
G01X13582Y8858D02*
G01X13779Y8661D01*
G01X13779Y8661D02*
G01X14192Y8661D01*
G01X25787Y5039D02*
G01X25787Y5708D01*
G01X25787Y5708D02*
G01X25826Y5748D01*
G54D17*
G01X25826Y6771D03*
G54D16*
G01X25826Y5748D02*
G01X25826Y6771D01*
G54D17*
G01X9212Y8582D03*
G54D16*
G01X9212Y8582D02*
G01X9291Y8661D01*
G01X9291Y8661D02*
G01X9251Y8661D01*
G01X9251Y8661D02*
G01X9212Y8661D01*
G01X9212Y8661D02*
G01X9212Y8582D01*
G01X9212Y8582D02*
G01X9330Y8464D01*
G01X9330Y8464D02*
G01X10196Y8464D01*
G01X10196Y8267D02*
G01X9055Y8267D01*
G01X9055Y8267D02*
G01X8897Y8425D01*
G01X8897Y8425D02*
G01X8897Y9133D01*
G01X8897Y9133D02*
G01X9212Y9448D01*
G01X9212Y9448D02*
G01X13543Y9448D01*
G01X13543Y9448D02*
G01X13740Y9251D01*
G01X13740Y9251D02*
G01X13740Y8937D01*
G01X13740Y8937D02*
G01X13818Y8858D01*
G01X13818Y8858D02*
G01X14192Y8858D01*
G01X25590Y5039D02*
G01X25590Y5748D01*
G01X25590Y5748D02*
G01X25511Y5826D01*
G54D17*
G01X25511Y6062D03*
G54D16*
G01X25511Y5826D02*
G01X25511Y6062D01*
G54D17*
G01X8897Y8976D03*
G54D16*
G01X8897Y8976D02*
G01X8897Y8425D01*
G01X8897Y8425D02*
G01X9055Y8267D01*
G01X9055Y8267D02*
G01X10236Y8267D01*
G01X10236Y8267D02*
G01X10196Y8267D01*
G01X2362Y5905D02*
G01X2677Y5905D01*
G01X2677Y5905D02*
G01X2834Y5748D01*
G01X2834Y5748D02*
G01X2834Y4881D01*
G01X2834Y4881D02*
G01X2992Y4724D01*
G01X2992Y4724D02*
G01X4094Y4724D01*
G01X4094Y4724D02*
G01X4566Y4251D01*
G01X4566Y4251D02*
G01X5118Y4251D01*
G01X5118Y4251D02*
G01X5275Y4094D01*
G01X5275Y4094D02*
G01X5275Y3543D01*
G01X5275Y3543D02*
G01X5196Y3464D01*
G01X5196Y3464D02*
G01X5196Y2992D01*
G01X5196Y2992D02*
G01X5221Y2283D01*
G01X17913Y5334D02*
G01X17913Y5000D01*
G01X17913Y5000D02*
G01X18110Y4803D01*
G01X18110Y4803D02*
G01X19527Y4803D01*
G01X19527Y4803D02*
G01X20393Y3937D01*
G01X20393Y3937D02*
G01X21259Y3937D01*
G01X21259Y3937D02*
G01X21732Y3464D01*
G01X21732Y3464D02*
G01X21741Y2283D01*
G01X14960Y5334D02*
G01X14960Y5118D01*
G01X14960Y5118D02*
G01X14409Y4566D01*
G01X14409Y4566D02*
G01X14409Y4094D01*
G01X14409Y4094D02*
G01X14724Y3779D01*
G01X14724Y3779D02*
G01X15748Y3779D01*
G01X15748Y3779D02*
G01X15841Y3685D01*
G01X15841Y3685D02*
G01X15841Y2283D01*
G54D21*
G01X25196Y4173D02*
G01X25157Y4212D01*
G54D17*
G01X24724Y4212D03*
G01X25157Y4212D02*
G01X24724Y4212D01*
G54D23*
G01X20944Y8070D02*
G01X20905Y8070D01*
G54D21*
G01X20905Y8070D02*
G01X21771Y8070D01*
G01X16062Y10708D02*
G01X16003Y10708D01*
G54D17*
G01X15590Y10708D03*
G01X16003Y10708D02*
G01X15590Y10708D01*
G54D21*
G01X16062Y10708D02*
G01X16141Y10629D01*
G01X16141Y10629D02*
G01X16141Y9822D01*
G01X24901Y12007D02*
G01X25000Y12007D01*
G01X25000Y12007D02*
G01X25000Y11102D01*
G01X13267Y8425D02*
G01X13188Y8267D01*
G01X13188Y8267D02*
G01X14192Y8267D01*
G54D17*
G01X28740Y9153D03*
G54D18*
G01X28740Y9645D02*
G01X28740Y9153D01*
G54D21*
G01X28740Y9645D02*
G01X27834Y9645D01*
G01X16023Y4330D02*
G01X16141Y4409D01*
G01X16141Y4409D02*
G01X16141Y5334D01*
G54D17*
G01X13267Y8976D03*
G01X13267Y8425D02*
G01X13267Y8976D01*
G01X19527Y5669D03*
G01X19527Y6181D02*
G01X19527Y5669D01*
G54D21*
G01X25196Y4173D02*
G01X25196Y4251D01*
G01X25196Y4251D02*
G01X24803Y4645D01*
G01X24803Y4645D02*
G01X24803Y5039D01*
G54D24*
G01X20944Y8070D02*
G01X20866Y8070D01*
G54D17*
G01X20866Y7598D03*
G54D24*
G01X20866Y8070D02*
G01X20866Y7598D01*
G54D21*
G01X18681Y6496D02*
G01X19055Y6496D01*
G01X19055Y6496D02*
G01X19409Y6141D01*
G01X19409Y6141D02*
G01X19527Y6181D01*
G54D17*
G01X11102Y7519D03*
G01X11102Y7007D02*
G01X11102Y7519D01*
G54D21*
G01X11102Y7007D02*
G01X11102Y6889D01*
G01X11102Y6889D02*
G01X10196Y6889D01*
G54D17*
G01X11102Y8110D03*
G01X11102Y8661D02*
G01X11102Y8110D01*
G54D21*
G01X11102Y8661D02*
G01X11102Y8582D01*
G01X11102Y8582D02*
G01X10826Y8858D01*
G01X10826Y8858D02*
G01X10196Y8858D01*
G01X28740Y8582D02*
G01X28740Y8661D01*
G01X28740Y8661D02*
G01X27834Y8661D01*
G54D17*
G01X28740Y8582D02*
G01X28740Y9645D01*
G54D21*
G01X29409Y10629D02*
G01X29409Y10275D01*
G01X29409Y10275D02*
G01X29291Y10157D01*
G01X29291Y10157D02*
G01X28897Y10157D01*
G01X28897Y10157D02*
G01X28740Y10000D01*
G01X28740Y10000D02*
G01X28740Y9606D01*
G01X28740Y9606D02*
G01X28740Y9645D01*
G01X24901Y12007D02*
G01X24881Y12047D01*
G54D17*
G01X24881Y12480D03*
G01X24881Y12047D02*
G01X24881Y12480D01*
G01X16023Y4330D02*
G01X16220Y4330D01*
G01X16535Y4015D03*
G01X16220Y4330D02*
G01X16535Y4015D01*
G54D21*
G01X5984Y9763D02*
G01X5944Y9645D01*
G54D17*
G01X5354Y9645D03*
G01X5944Y9645D02*
G01X5354Y9645D01*
G54D19*
G01X6692Y10905D02*
G01X6377Y10905D01*
G01X6377Y10905D02*
G01X6299Y10826D01*
G01X6299Y10826D02*
G01X6299Y10551D01*
G01X6299Y10551D02*
G01X6299Y10590D01*
G01X6299Y10590D02*
G01X6299Y10393D01*
G01X6299Y10393D02*
G01X5984Y10078D01*
G01X5984Y10078D02*
G01X5984Y9763D01*
G54D16*
G01X22834Y11102D02*
G01X22834Y11023D01*
G01X22834Y11023D02*
G01X22834Y11496D01*
G01X22834Y11496D02*
G01X22755Y11574D01*
G01X22755Y11574D02*
G01X19921Y11574D01*
G01X19921Y11574D02*
G01X18661Y10314D01*
G01X18661Y10314D02*
G01X17795Y10314D01*
G01X17795Y10314D02*
G01X17716Y10236D01*
G01X17716Y10236D02*
G01X17716Y9822D01*
G01X21771Y8464D02*
G01X20039Y8464D01*
G01X20039Y8464D02*
G01X19251Y7677D01*
G01X19251Y7677D02*
G01X18681Y7677D01*
G01X21771Y8464D02*
G01X22165Y8464D01*
G01X22165Y8464D02*
G01X22519Y8110D01*
G54D17*
G01X23622Y8110D03*
G54D16*
G01X22519Y8110D02*
G01X23622Y8110D01*
G54D17*
G01X7795Y7559D03*
G54D16*
G01X7795Y7559D02*
G01X7795Y7244D01*
G01X7795Y7244D02*
G01X7952Y7086D01*
G01X7952Y7086D02*
G01X10236Y7086D01*
G01X10236Y7086D02*
G01X10196Y7086D01*
G01X16732Y9822D02*
G01X16732Y9330D01*
G01X16732Y9330D02*
G01X16614Y9212D01*
G01X16614Y9212D02*
G01X16614Y8661D01*
G01X16614Y8661D02*
G01X17007Y8267D01*
G01X17007Y8267D02*
G01X17007Y7401D01*
G54D17*
G01X17165Y7244D03*
G54D16*
G01X17007Y7401D02*
G01X17165Y7244D01*

G04 Draw clearances for text*

G04 -------------- Draw Parts, Pads, Traces, Vias and Text (positive)*
%LPD*%
G04 Draw part J1*
G36*
G01X351Y1083D02*
G01X351Y3483D01*
G01X651Y3483D01*
G01X651Y1083D01*
G01X351Y1083D01*
G37*
G36*
G01X941Y1083D02*
G01X941Y3483D01*
G01X1241Y3483D01*
G01X1241Y1083D01*
G01X941Y1083D01*
G37*
G36*
G01X1531Y1083D02*
G01X1531Y3483D01*
G01X1831Y3483D01*
G01X1831Y1083D01*
G01X1531Y1083D01*
G37*
G36*
G01X2121Y1083D02*
G01X2121Y3483D01*
G01X2421Y3483D01*
G01X2421Y1083D01*
G01X2121Y1083D01*
G37*
G36*
G01X2711Y1083D02*
G01X2711Y3483D01*
G01X3011Y3483D01*
G01X3011Y1083D01*
G01X2711Y1083D01*
G37*
G36*
G01X3301Y1083D02*
G01X3301Y3483D01*
G01X3601Y3483D01*
G01X3601Y1083D01*
G01X3301Y1083D01*
G37*
G36*
G01X3891Y1083D02*
G01X3891Y3483D01*
G01X4191Y3483D01*
G01X4191Y1083D01*
G01X3891Y1083D01*
G37*
G36*
G01X4481Y1083D02*
G01X4481Y3483D01*
G01X4781Y3483D01*
G01X4781Y1083D01*
G01X4481Y1083D01*
G37*
G36*
G01X5071Y1083D02*
G01X5071Y3483D01*
G01X5371Y3483D01*
G01X5371Y1083D01*
G01X5071Y1083D01*
G37*
G36*
G01X5661Y1083D02*
G01X5661Y3483D01*
G01X5961Y3483D01*
G01X5961Y1083D01*
G01X5661Y1083D01*
G37*
G36*
G01X6251Y1083D02*
G01X6251Y3483D01*
G01X6551Y3483D01*
G01X6551Y1083D01*
G01X6251Y1083D01*
G37*
G36*
G01X6841Y1083D02*
G01X6841Y3483D01*
G01X7141Y3483D01*
G01X7141Y1083D01*
G01X6841Y1083D01*
G37*
G36*
G01X8611Y1083D02*
G01X8611Y3483D01*
G01X8911Y3483D01*
G01X8911Y1083D01*
G01X8611Y1083D01*
G37*
G36*
G01X9201Y1083D02*
G01X9201Y3483D01*
G01X9501Y3483D01*
G01X9501Y1083D01*
G01X9201Y1083D01*
G37*
G36*
G01X9791Y1083D02*
G01X9791Y3483D01*
G01X10091Y3483D01*
G01X10091Y1083D01*
G01X9791Y1083D01*
G37*
G36*
G01X10381Y1083D02*
G01X10381Y3483D01*
G01X10681Y3483D01*
G01X10681Y1083D01*
G01X10381Y1083D01*
G37*
G36*
G01X10971Y1083D02*
G01X10971Y3483D01*
G01X11271Y3483D01*
G01X11271Y1083D01*
G01X10971Y1083D01*
G37*
G36*
G01X11561Y1083D02*
G01X11561Y3483D01*
G01X11861Y3483D01*
G01X11861Y1083D01*
G01X11561Y1083D01*
G37*
G36*
G01X12151Y463D02*
G01X12151Y3483D01*
G01X12451Y3483D01*
G01X12451Y463D01*
G01X12151Y463D01*
G37*
G36*
G01X12741Y1083D02*
G01X12741Y3483D01*
G01X13041Y3483D01*
G01X13041Y1083D01*
G01X12741Y1083D01*
G37*
G36*
G01X13331Y1083D02*
G01X13331Y3483D01*
G01X13631Y3483D01*
G01X13631Y1083D01*
G01X13331Y1083D01*
G37*
G36*
G01X13921Y1083D02*
G01X13921Y3483D01*
G01X14221Y3483D01*
G01X14221Y1083D01*
G01X13921Y1083D01*
G37*
G36*
G01X14511Y1083D02*
G01X14511Y3483D01*
G01X14811Y3483D01*
G01X14811Y1083D01*
G01X14511Y1083D01*
G37*
G36*
G01X15101Y1083D02*
G01X15101Y3483D01*
G01X15401Y3483D01*
G01X15401Y1083D01*
G01X15101Y1083D01*
G37*
G36*
G01X15691Y1083D02*
G01X15691Y3483D01*
G01X15991Y3483D01*
G01X15991Y1083D01*
G01X15691Y1083D01*
G37*
G36*
G01X16281Y1083D02*
G01X16281Y3483D01*
G01X16581Y3483D01*
G01X16581Y1083D01*
G01X16281Y1083D01*
G37*
G36*
G01X16871Y1083D02*
G01X16871Y3483D01*
G01X17171Y3483D01*
G01X17171Y1083D01*
G01X16871Y1083D01*
G37*
G36*
G01X17461Y1083D02*
G01X17461Y3483D01*
G01X17761Y3483D01*
G01X17761Y1083D01*
G01X17461Y1083D01*
G37*
G36*
G01X18051Y1083D02*
G01X18051Y3483D01*
G01X18351Y3483D01*
G01X18351Y1083D01*
G01X18051Y1083D01*
G37*
G36*
G01X18641Y1083D02*
G01X18641Y3483D01*
G01X18941Y3483D01*
G01X18941Y1083D01*
G01X18641Y1083D01*
G37*
G36*
G01X19231Y1083D02*
G01X19231Y3483D01*
G01X19531Y3483D01*
G01X19531Y1083D01*
G01X19231Y1083D01*
G37*
G36*
G01X19821Y1083D02*
G01X19821Y3483D01*
G01X20121Y3483D01*
G01X20121Y1083D01*
G01X19821Y1083D01*
G37*
G36*
G01X20411Y1083D02*
G01X20411Y3483D01*
G01X20711Y3483D01*
G01X20711Y1083D01*
G01X20411Y1083D01*
G37*
G36*
G01X21001Y1083D02*
G01X21001Y3483D01*
G01X21301Y3483D01*
G01X21301Y1083D01*
G01X21001Y1083D01*
G37*
G36*
G01X21591Y1083D02*
G01X21591Y3483D01*
G01X21891Y3483D01*
G01X21891Y1083D01*
G01X21591Y1083D01*
G37*
G36*
G01X22181Y463D02*
G01X22181Y3483D01*
G01X22481Y3483D01*
G01X22481Y463D01*
G01X22181Y463D01*
G37*
G36*
G01X22771Y1083D02*
G01X22771Y3483D01*
G01X23071Y3483D01*
G01X23071Y1083D01*
G01X22771Y1083D01*
G37*
G36*
G01X23361Y1083D02*
G01X23361Y3483D01*
G01X23661Y3483D01*
G01X23661Y1083D01*
G01X23361Y1083D01*
G37*
G36*
G01X23951Y1083D02*
G01X23951Y3483D01*
G01X24251Y3483D01*
G01X24251Y1083D01*
G01X23951Y1083D01*
G37*
G36*
G01X24541Y1083D02*
G01X24541Y3483D01*
G01X24841Y3483D01*
G01X24841Y1083D01*
G01X24541Y1083D01*
G37*
G36*
G01X25131Y1083D02*
G01X25131Y3483D01*
G01X25431Y3483D01*
G01X25431Y1083D01*
G01X25131Y1083D01*
G37*
G36*
G01X25721Y1083D02*
G01X25721Y3483D01*
G01X26021Y3483D01*
G01X26021Y1083D01*
G01X25721Y1083D01*
G37*
G36*
G01X26311Y1083D02*
G01X26311Y3483D01*
G01X26611Y3483D01*
G01X26611Y1083D01*
G01X26311Y1083D01*
G37*
G36*
G01X26901Y1083D02*
G01X26901Y3483D01*
G01X27201Y3483D01*
G01X27201Y1083D01*
G01X26901Y1083D01*
G37*
G36*
G01X27491Y1083D02*
G01X27491Y3483D01*
G01X27791Y3483D01*
G01X27791Y1083D01*
G01X27491Y1083D01*
G37*
G36*
G01X28081Y1083D02*
G01X28081Y3483D01*
G01X28381Y3483D01*
G01X28381Y1083D01*
G01X28081Y1083D01*
G37*
G36*
G01X28671Y1083D02*
G01X28671Y3483D01*
G01X28971Y3483D01*
G01X28971Y1083D01*
G01X28671Y1083D01*
G37*
G36*
G01X29261Y1083D02*
G01X29261Y3483D01*
G01X29561Y3483D01*
G01X29561Y1083D01*
G01X29261Y1083D01*
G37*
G36*
G01X29851Y1083D02*
G01X29851Y3483D01*
G01X30151Y3483D01*
G01X30151Y1083D01*
G01X29851Y1083D01*
G37*
G36*
G01X30441Y1083D02*
G01X30441Y3483D01*
G01X30741Y3483D01*
G01X30741Y1083D01*
G01X30441Y1083D01*
G37*
G36*
G01X31031Y1083D02*
G01X31031Y3483D01*
G01X31331Y3483D01*
G01X31331Y1083D01*
G01X31031Y1083D01*
G37*
G36*
G01X31621Y1083D02*
G01X31621Y3483D01*
G01X31921Y3483D01*
G01X31921Y1083D01*
G01X31621Y1083D01*
G37*
G04 Draw part C11*
G36*
G01X24685Y11771D02*
G01X24685Y12244D01*
G01X25118Y12244D01*
G01X25118Y11771D01*
G01X24685Y11771D01*
G37*
G36*
G01X25354Y11771D02*
G01X25354Y12244D01*
G01X25787Y12244D01*
G01X25787Y11771D01*
G01X25354Y11771D01*
G37*
G04 Draw part C12*
G36*
G01X28523Y9409D02*
G01X28523Y9881D01*
G01X28956Y9881D01*
G01X28956Y9409D01*
G01X28523Y9409D01*
G37*
G36*
G01X29192Y9409D02*
G01X29192Y9881D01*
G01X29625Y9881D01*
G01X29625Y9409D01*
G01X29192Y9409D01*
G37*
G04 Draw part C13*
G36*
G01X28523Y8346D02*
G01X28523Y8818D01*
G01X28956Y8818D01*
G01X28956Y8346D01*
G01X28523Y8346D01*
G37*
G36*
G01X29192Y8346D02*
G01X29192Y8818D01*
G01X29625Y8818D01*
G01X29625Y8346D01*
G01X29192Y8346D01*
G37*
G04 Draw part C14*
G36*
G01X24980Y3937D02*
G01X24980Y4409D01*
G01X25413Y4409D01*
G01X25413Y3937D01*
G01X24980Y3937D01*
G37*
G36*
G01X25649Y3937D02*
G01X25649Y4409D01*
G01X26082Y4409D01*
G01X26082Y3937D01*
G01X25649Y3937D01*
G37*
G04 Draw part C15*
G36*
G01X20059Y7834D02*
G01X20059Y8307D01*
G01X20492Y8307D01*
G01X20492Y7834D01*
G01X20059Y7834D01*
G37*
G36*
G01X20728Y7834D02*
G01X20728Y8307D01*
G01X21161Y8307D01*
G01X21161Y7834D01*
G01X20728Y7834D01*
G37*
G04 Draw part C21*
G36*
G01X15846Y10472D02*
G01X15846Y10944D01*
G01X16279Y10944D01*
G01X16279Y10472D01*
G01X15846Y10472D01*
G37*
G36*
G01X16515Y10472D02*
G01X16515Y10944D01*
G01X16948Y10944D01*
G01X16948Y10472D01*
G01X16515Y10472D01*
G37*
G04 Draw part C22*
G36*
G01X19311Y5944D02*
G01X19311Y6417D01*
G01X19744Y6417D01*
G01X19744Y5944D01*
G01X19311Y5944D01*
G37*
G36*
G01X19980Y5944D02*
G01X19980Y6417D01*
G01X20413Y6417D01*
G01X20413Y5944D01*
G01X19980Y5944D01*
G37*
G04 Draw part C23*
G36*
G01X15137Y4094D02*
G01X15137Y4566D01*
G01X15570Y4566D01*
G01X15570Y4094D01*
G01X15137Y4094D01*
G37*
G36*
G01X15807Y4094D02*
G01X15807Y4566D01*
G01X16240Y4566D01*
G01X16240Y4094D01*
G01X15807Y4094D01*
G37*
G04 Draw part C24*
G36*
G01X12381Y8188D02*
G01X12381Y8661D01*
G01X12814Y8661D01*
G01X12814Y8188D01*
G01X12381Y8188D01*
G37*
G36*
G01X13051Y8188D02*
G01X13051Y8661D01*
G01X13484Y8661D01*
G01X13484Y8188D01*
G01X13051Y8188D01*
G37*
G04 Draw part C31*
G36*
G01X10885Y8425D02*
G01X10885Y8897D01*
G01X11318Y8897D01*
G01X11318Y8425D01*
G01X10885Y8425D01*
G37*
G36*
G01X11555Y8425D02*
G01X11555Y8897D01*
G01X11988Y8897D01*
G01X11988Y8425D01*
G01X11555Y8425D01*
G37*
G04 Draw part C32*
G36*
G01X10885Y6771D02*
G01X10885Y7244D01*
G01X11318Y7244D01*
G01X11318Y6771D01*
G01X10885Y6771D01*
G37*
G36*
G01X11555Y6771D02*
G01X11555Y7244D01*
G01X11988Y7244D01*
G01X11988Y6771D01*
G01X11555Y6771D01*
G37*
G04 Draw part U1*
G36*
G01X27519Y5650D02*
G01X27519Y5767D01*
G01X28149Y5767D01*
G01X28149Y5650D01*
G01X27519Y5650D01*
G37*
G36*
G01X27519Y5847D02*
G01X27519Y5963D01*
G01X28149Y5963D01*
G01X28149Y5847D01*
G01X27519Y5847D01*
G37*
G36*
G01X27519Y6043D02*
G01X27519Y6160D01*
G01X28149Y6160D01*
G01X28149Y6043D01*
G01X27519Y6043D01*
G37*
G36*
G01X27519Y6240D02*
G01X27519Y6357D01*
G01X28149Y6357D01*
G01X28149Y6240D01*
G01X27519Y6240D01*
G37*
G36*
G01X27519Y6437D02*
G01X27519Y6554D01*
G01X28149Y6554D01*
G01X28149Y6437D01*
G01X27519Y6437D01*
G37*
G36*
G01X27519Y6634D02*
G01X27519Y6751D01*
G01X28149Y6751D01*
G01X28149Y6634D01*
G01X27519Y6634D01*
G37*
G36*
G01X27519Y6831D02*
G01X27519Y6948D01*
G01X28149Y6948D01*
G01X28149Y6831D01*
G01X27519Y6831D01*
G37*
G36*
G01X27519Y7028D02*
G01X27519Y7145D01*
G01X28149Y7145D01*
G01X28149Y7028D01*
G01X27519Y7028D01*
G37*
G36*
G01X27519Y7225D02*
G01X27519Y7341D01*
G01X28149Y7341D01*
G01X28149Y7225D01*
G01X27519Y7225D01*
G37*
G36*
G01X27519Y7421D02*
G01X27519Y7538D01*
G01X28149Y7538D01*
G01X28149Y7421D01*
G01X27519Y7421D01*
G37*
G36*
G01X27519Y7618D02*
G01X27519Y7735D01*
G01X28149Y7735D01*
G01X28149Y7618D01*
G01X27519Y7618D01*
G37*
G36*
G01X27519Y7815D02*
G01X27519Y7932D01*
G01X28149Y7932D01*
G01X28149Y7815D01*
G01X27519Y7815D01*
G37*
G36*
G01X27519Y8012D02*
G01X27519Y8129D01*
G01X28149Y8129D01*
G01X28149Y8012D01*
G01X27519Y8012D01*
G37*
G36*
G01X27519Y8209D02*
G01X27519Y8326D01*
G01X28149Y8326D01*
G01X28149Y8209D01*
G01X27519Y8209D01*
G37*
G36*
G01X27519Y8406D02*
G01X27519Y8523D01*
G01X28149Y8523D01*
G01X28149Y8406D01*
G01X27519Y8406D01*
G37*
G36*
G01X27519Y8602D02*
G01X27519Y8719D01*
G01X28149Y8719D01*
G01X28149Y8602D01*
G01X27519Y8602D01*
G37*
G36*
G01X27519Y8799D02*
G01X27519Y8916D01*
G01X28149Y8916D01*
G01X28149Y8799D01*
G01X27519Y8799D01*
G37*
G36*
G01X27519Y8996D02*
G01X27519Y9113D01*
G01X28149Y9113D01*
G01X28149Y8996D01*
G01X27519Y8996D01*
G37*
G36*
G01X27519Y9193D02*
G01X27519Y9310D01*
G01X28149Y9310D01*
G01X28149Y9193D01*
G01X27519Y9193D01*
G37*
G36*
G01X27519Y9390D02*
G01X27519Y9507D01*
G01X28149Y9507D01*
G01X28149Y9390D01*
G01X27519Y9390D01*
G37*
G36*
G01X27519Y9587D02*
G01X27519Y9704D01*
G01X28149Y9704D01*
G01X28149Y9587D01*
G01X27519Y9587D01*
G37*
G36*
G01X27519Y9784D02*
G01X27519Y9900D01*
G01X28149Y9900D01*
G01X28149Y9784D01*
G01X27519Y9784D01*
G37*
G36*
G01X27519Y9980D02*
G01X27519Y10097D01*
G01X28149Y10097D01*
G01X28149Y9980D01*
G01X27519Y9980D01*
G37*
G36*
G01X27519Y10177D02*
G01X27519Y10294D01*
G01X28149Y10294D01*
G01X28149Y10177D01*
G01X27519Y10177D01*
G37*
G36*
G01X27519Y10374D02*
G01X27519Y10491D01*
G01X28149Y10491D01*
G01X28149Y10374D01*
G01X27519Y10374D01*
G37*
G36*
G01X27106Y10787D02*
G01X27106Y11417D01*
G01X27223Y11417D01*
G01X27223Y10787D01*
G01X27106Y10787D01*
G37*
G36*
G01X26910Y10787D02*
G01X26910Y11417D01*
G01X27026Y11417D01*
G01X27026Y10787D01*
G01X26910Y10787D01*
G37*
G36*
G01X26713Y10787D02*
G01X26713Y11417D01*
G01X26830Y11417D01*
G01X26830Y10787D01*
G01X26713Y10787D01*
G37*
G36*
G01X26516Y10787D02*
G01X26516Y11417D01*
G01X26633Y11417D01*
G01X26633Y10787D01*
G01X26516Y10787D01*
G37*
G36*
G01X26319Y10787D02*
G01X26319Y11417D01*
G01X26436Y11417D01*
G01X26436Y10787D01*
G01X26319Y10787D01*
G37*
G36*
G01X26122Y10787D02*
G01X26122Y11417D01*
G01X26239Y11417D01*
G01X26239Y10787D01*
G01X26122Y10787D01*
G37*
G36*
G01X25925Y10787D02*
G01X25925Y11417D01*
G01X26042Y11417D01*
G01X26042Y10787D01*
G01X25925Y10787D01*
G37*
G36*
G01X25728Y10787D02*
G01X25728Y11417D01*
G01X25845Y11417D01*
G01X25845Y10787D01*
G01X25728Y10787D01*
G37*
G36*
G01X25532Y10787D02*
G01X25532Y11417D01*
G01X25649Y11417D01*
G01X25649Y10787D01*
G01X25532Y10787D01*
G37*
G36*
G01X25335Y10787D02*
G01X25335Y11417D01*
G01X25452Y11417D01*
G01X25452Y10787D01*
G01X25335Y10787D01*
G37*
G36*
G01X25138Y10787D02*
G01X25138Y11417D01*
G01X25255Y11417D01*
G01X25255Y10787D01*
G01X25138Y10787D01*
G37*
G36*
G01X24941Y10787D02*
G01X24941Y11417D01*
G01X25058Y11417D01*
G01X25058Y10787D01*
G01X24941Y10787D01*
G37*
G36*
G01X24744Y10787D02*
G01X24744Y11417D01*
G01X24861Y11417D01*
G01X24861Y10787D01*
G01X24744Y10787D01*
G37*
G36*
G01X24547Y10787D02*
G01X24547Y11417D01*
G01X24664Y11417D01*
G01X24664Y10787D01*
G01X24547Y10787D01*
G37*
G36*
G01X24350Y10787D02*
G01X24350Y11417D01*
G01X24467Y11417D01*
G01X24467Y10787D01*
G01X24350Y10787D01*
G37*
G36*
G01X24154Y10787D02*
G01X24154Y11417D01*
G01X24271Y11417D01*
G01X24271Y10787D01*
G01X24154Y10787D01*
G37*
G36*
G01X23957Y10787D02*
G01X23957Y11417D01*
G01X24074Y11417D01*
G01X24074Y10787D01*
G01X23957Y10787D01*
G37*
G36*
G01X23760Y10787D02*
G01X23760Y11417D01*
G01X23877Y11417D01*
G01X23877Y10787D01*
G01X23760Y10787D01*
G37*
G36*
G01X23563Y10787D02*
G01X23563Y11417D01*
G01X23680Y11417D01*
G01X23680Y10787D01*
G01X23563Y10787D01*
G37*
G36*
G01X23366Y10787D02*
G01X23366Y11417D01*
G01X23483Y11417D01*
G01X23483Y10787D01*
G01X23366Y10787D01*
G37*
G36*
G01X23169Y10787D02*
G01X23169Y11417D01*
G01X23286Y11417D01*
G01X23286Y10787D01*
G01X23169Y10787D01*
G37*
G36*
G01X22973Y10787D02*
G01X22973Y11417D01*
G01X23089Y11417D01*
G01X23089Y10787D01*
G01X22973Y10787D01*
G37*
G36*
G01X22776Y10787D02*
G01X22776Y11417D01*
G01X22893Y11417D01*
G01X22893Y10787D01*
G01X22776Y10787D01*
G37*
G36*
G01X22579Y10787D02*
G01X22579Y11417D01*
G01X22696Y11417D01*
G01X22696Y10787D01*
G01X22579Y10787D01*
G37*
G36*
G01X22382Y10787D02*
G01X22382Y11417D01*
G01X22499Y11417D01*
G01X22499Y10787D01*
G01X22382Y10787D01*
G37*
G36*
G01X21456Y10374D02*
G01X21456Y10491D01*
G01X22086Y10491D01*
G01X22086Y10374D01*
G01X21456Y10374D01*
G37*
G36*
G01X21456Y10177D02*
G01X21456Y10294D01*
G01X22086Y10294D01*
G01X22086Y10177D01*
G01X21456Y10177D01*
G37*
G36*
G01X21456Y9980D02*
G01X21456Y10097D01*
G01X22086Y10097D01*
G01X22086Y9980D01*
G01X21456Y9980D01*
G37*
G36*
G01X21456Y9784D02*
G01X21456Y9900D01*
G01X22086Y9900D01*
G01X22086Y9784D01*
G01X21456Y9784D01*
G37*
G36*
G01X21456Y9587D02*
G01X21456Y9704D01*
G01X22086Y9704D01*
G01X22086Y9587D01*
G01X21456Y9587D01*
G37*
G36*
G01X21456Y9390D02*
G01X21456Y9507D01*
G01X22086Y9507D01*
G01X22086Y9390D01*
G01X21456Y9390D01*
G37*
G36*
G01X21456Y9193D02*
G01X21456Y9310D01*
G01X22086Y9310D01*
G01X22086Y9193D01*
G01X21456Y9193D01*
G37*
G36*
G01X21456Y8996D02*
G01X21456Y9113D01*
G01X22086Y9113D01*
G01X22086Y8996D01*
G01X21456Y8996D01*
G37*
G36*
G01X21456Y8799D02*
G01X21456Y8916D01*
G01X22086Y8916D01*
G01X22086Y8799D01*
G01X21456Y8799D01*
G37*
G36*
G01X21456Y8602D02*
G01X21456Y8719D01*
G01X22086Y8719D01*
G01X22086Y8602D01*
G01X21456Y8602D01*
G37*
G36*
G01X21456Y8406D02*
G01X21456Y8523D01*
G01X22086Y8523D01*
G01X22086Y8406D01*
G01X21456Y8406D01*
G37*
G36*
G01X21456Y8209D02*
G01X21456Y8326D01*
G01X22086Y8326D01*
G01X22086Y8209D01*
G01X21456Y8209D01*
G37*
G36*
G01X21456Y8012D02*
G01X21456Y8129D01*
G01X22086Y8129D01*
G01X22086Y8012D01*
G01X21456Y8012D01*
G37*
G36*
G01X21456Y7815D02*
G01X21456Y7932D01*
G01X22086Y7932D01*
G01X22086Y7815D01*
G01X21456Y7815D01*
G37*
G36*
G01X21456Y7618D02*
G01X21456Y7735D01*
G01X22086Y7735D01*
G01X22086Y7618D01*
G01X21456Y7618D01*
G37*
G36*
G01X21456Y7421D02*
G01X21456Y7538D01*
G01X22086Y7538D01*
G01X22086Y7421D01*
G01X21456Y7421D01*
G37*
G36*
G01X21456Y7225D02*
G01X21456Y7341D01*
G01X22086Y7341D01*
G01X22086Y7225D01*
G01X21456Y7225D01*
G37*
G36*
G01X21456Y7028D02*
G01X21456Y7145D01*
G01X22086Y7145D01*
G01X22086Y7028D01*
G01X21456Y7028D01*
G37*
G36*
G01X21456Y6831D02*
G01X21456Y6948D01*
G01X22086Y6948D01*
G01X22086Y6831D01*
G01X21456Y6831D01*
G37*
G36*
G01X21456Y6634D02*
G01X21456Y6751D01*
G01X22086Y6751D01*
G01X22086Y6634D01*
G01X21456Y6634D01*
G37*
G36*
G01X21456Y6437D02*
G01X21456Y6554D01*
G01X22086Y6554D01*
G01X22086Y6437D01*
G01X21456Y6437D01*
G37*
G36*
G01X21456Y6240D02*
G01X21456Y6357D01*
G01X22086Y6357D01*
G01X22086Y6240D01*
G01X21456Y6240D01*
G37*
G36*
G01X21456Y6043D02*
G01X21456Y6160D01*
G01X22086Y6160D01*
G01X22086Y6043D01*
G01X21456Y6043D01*
G37*
G36*
G01X21456Y5847D02*
G01X21456Y5963D01*
G01X22086Y5963D01*
G01X22086Y5847D01*
G01X21456Y5847D01*
G37*
G36*
G01X21456Y5650D02*
G01X21456Y5767D01*
G01X22086Y5767D01*
G01X22086Y5650D01*
G01X21456Y5650D01*
G37*
G36*
G01X22382Y4724D02*
G01X22382Y5354D01*
G01X22499Y5354D01*
G01X22499Y4724D01*
G01X22382Y4724D01*
G37*
G36*
G01X22579Y4724D02*
G01X22579Y5354D01*
G01X22696Y5354D01*
G01X22696Y4724D01*
G01X22579Y4724D01*
G37*
G36*
G01X22776Y4724D02*
G01X22776Y5354D01*
G01X22893Y5354D01*
G01X22893Y4724D01*
G01X22776Y4724D01*
G37*
G36*
G01X22973Y4724D02*
G01X22973Y5354D01*
G01X23089Y5354D01*
G01X23089Y4724D01*
G01X22973Y4724D01*
G37*
G36*
G01X23169Y4724D02*
G01X23169Y5354D01*
G01X23286Y5354D01*
G01X23286Y4724D01*
G01X23169Y4724D01*
G37*
G36*
G01X23366Y4724D02*
G01X23366Y5354D01*
G01X23483Y5354D01*
G01X23483Y4724D01*
G01X23366Y4724D01*
G37*
G36*
G01X23563Y4724D02*
G01X23563Y5354D01*
G01X23680Y5354D01*
G01X23680Y4724D01*
G01X23563Y4724D01*
G37*
G36*
G01X23760Y4724D02*
G01X23760Y5354D01*
G01X23877Y5354D01*
G01X23877Y4724D01*
G01X23760Y4724D01*
G37*
G36*
G01X23957Y4724D02*
G01X23957Y5354D01*
G01X24074Y5354D01*
G01X24074Y4724D01*
G01X23957Y4724D01*
G37*
G36*
G01X24154Y4724D02*
G01X24154Y5354D01*
G01X24271Y5354D01*
G01X24271Y4724D01*
G01X24154Y4724D01*
G37*
G36*
G01X24350Y4724D02*
G01X24350Y5354D01*
G01X24467Y5354D01*
G01X24467Y4724D01*
G01X24350Y4724D01*
G37*
G36*
G01X24547Y4724D02*
G01X24547Y5354D01*
G01X24664Y5354D01*
G01X24664Y4724D01*
G01X24547Y4724D01*
G37*
G36*
G01X24744Y4724D02*
G01X24744Y5354D01*
G01X24861Y5354D01*
G01X24861Y4724D01*
G01X24744Y4724D01*
G37*
G36*
G01X24941Y4724D02*
G01X24941Y5354D01*
G01X25058Y5354D01*
G01X25058Y4724D01*
G01X24941Y4724D01*
G37*
G36*
G01X25138Y4724D02*
G01X25138Y5354D01*
G01X25255Y5354D01*
G01X25255Y4724D01*
G01X25138Y4724D01*
G37*
G36*
G01X25335Y4724D02*
G01X25335Y5354D01*
G01X25452Y5354D01*
G01X25452Y4724D01*
G01X25335Y4724D01*
G37*
G36*
G01X25532Y4724D02*
G01X25532Y5354D01*
G01X25649Y5354D01*
G01X25649Y4724D01*
G01X25532Y4724D01*
G37*
G36*
G01X25728Y4724D02*
G01X25728Y5354D01*
G01X25845Y5354D01*
G01X25845Y4724D01*
G01X25728Y4724D01*
G37*
G36*
G01X25925Y4724D02*
G01X25925Y5354D01*
G01X26042Y5354D01*
G01X26042Y4724D01*
G01X25925Y4724D01*
G37*
G36*
G01X26122Y4724D02*
G01X26122Y5354D01*
G01X26239Y5354D01*
G01X26239Y4724D01*
G01X26122Y4724D01*
G37*
G36*
G01X26319Y4724D02*
G01X26319Y5354D01*
G01X26436Y5354D01*
G01X26436Y4724D01*
G01X26319Y4724D01*
G37*
G36*
G01X26516Y4724D02*
G01X26516Y5354D01*
G01X26633Y5354D01*
G01X26633Y4724D01*
G01X26516Y4724D01*
G37*
G36*
G01X26713Y4724D02*
G01X26713Y5354D01*
G01X26830Y5354D01*
G01X26830Y4724D01*
G01X26713Y4724D01*
G37*
G36*
G01X26910Y4724D02*
G01X26910Y5354D01*
G01X27026Y5354D01*
G01X27026Y4724D01*
G01X26910Y4724D01*
G37*
G36*
G01X27106Y4724D02*
G01X27106Y5354D01*
G01X27223Y5354D01*
G01X27223Y4724D01*
G01X27106Y4724D01*
G37*
G04 Draw part X8*
G36*
G01X30314Y8169D02*
G01X30314Y10334D01*
G01X31102Y10334D01*
G01X31102Y8169D01*
G01X30314Y8169D01*
G37*
G36*
G01X30314Y4822D02*
G01X30314Y6988D01*
G01X31102Y6988D01*
G01X31102Y4822D01*
G01X30314Y4822D01*
G37*
G04 Draw part C81*
G36*
G01X28720Y6811D02*
G01X28720Y7283D01*
G01X29153Y7283D01*
G01X29153Y6811D01*
G01X28720Y6811D01*
G37*
G36*
G01X29389Y6811D02*
G01X29389Y7283D01*
G01X29822Y7283D01*
G01X29822Y6811D01*
G01X29389Y6811D01*
G37*
G04 Draw part C82*
G36*
G01X28720Y5669D02*
G01X28720Y6141D01*
G01X29153Y6141D01*
G01X29153Y5669D01*
G01X28720Y5669D01*
G37*
G36*
G01X29389Y5669D02*
G01X29389Y6141D01*
G01X29822Y6141D01*
G01X29822Y5669D01*
G01X29389Y5669D01*
G37*
G04 Draw part R11*
G36*
G01X28523Y10393D02*
G01X28523Y10866D01*
G01X28956Y10866D01*
G01X28956Y10393D01*
G01X28523Y10393D01*
G37*
G36*
G01X29192Y10393D02*
G01X29192Y10866D01*
G01X29625Y10866D01*
G01X29625Y10393D01*
G01X29192Y10393D01*
G37*
G04 Draw part C41*
G36*
G01X5000Y11377D02*
G01X5000Y11850D01*
G01X5433Y11850D01*
G01X5433Y11377D01*
G01X5000Y11377D01*
G37*
G36*
G01X5669Y11377D02*
G01X5669Y11850D01*
G01X6102Y11850D01*
G01X6102Y11377D01*
G01X5669Y11377D01*
G37*
G04 Draw part C42*
G36*
G01X5000Y10492D02*
G01X5000Y10964D01*
G01X5433Y10964D01*
G01X5433Y10492D01*
G01X5000Y10492D01*
G37*
G36*
G01X5669Y10492D02*
G01X5669Y10964D01*
G01X6102Y10964D01*
G01X6102Y10492D01*
G01X5669Y10492D01*
G37*
G04 Draw part U2*
G36*
G01X18366Y6043D02*
G01X18366Y6160D01*
G01X18996Y6160D01*
G01X18996Y6043D01*
G01X18366Y6043D01*
G37*
G36*
G01X18366Y6240D02*
G01X18366Y6357D01*
G01X18996Y6357D01*
G01X18996Y6240D01*
G01X18366Y6240D01*
G37*
G36*
G01X18366Y6437D02*
G01X18366Y6554D01*
G01X18996Y6554D01*
G01X18996Y6437D01*
G01X18366Y6437D01*
G37*
G36*
G01X18366Y6634D02*
G01X18366Y6751D01*
G01X18996Y6751D01*
G01X18996Y6634D01*
G01X18366Y6634D01*
G37*
G36*
G01X18366Y6831D02*
G01X18366Y6948D01*
G01X18996Y6948D01*
G01X18996Y6831D01*
G01X18366Y6831D01*
G37*
G36*
G01X18366Y7028D02*
G01X18366Y7145D01*
G01X18996Y7145D01*
G01X18996Y7028D01*
G01X18366Y7028D01*
G37*
G36*
G01X18366Y7225D02*
G01X18366Y7341D01*
G01X18996Y7341D01*
G01X18996Y7225D01*
G01X18366Y7225D01*
G37*
G36*
G01X18366Y7421D02*
G01X18366Y7538D01*
G01X18996Y7538D01*
G01X18996Y7421D01*
G01X18366Y7421D01*
G37*
G36*
G01X18366Y7618D02*
G01X18366Y7735D01*
G01X18996Y7735D01*
G01X18996Y7618D01*
G01X18366Y7618D01*
G37*
G36*
G01X18366Y7815D02*
G01X18366Y7932D01*
G01X18996Y7932D01*
G01X18996Y7815D01*
G01X18366Y7815D01*
G37*
G36*
G01X18366Y8012D02*
G01X18366Y8129D01*
G01X18996Y8129D01*
G01X18996Y8012D01*
G01X18366Y8012D01*
G37*
G36*
G01X18366Y8209D02*
G01X18366Y8326D01*
G01X18996Y8326D01*
G01X18996Y8209D01*
G01X18366Y8209D01*
G37*
G36*
G01X18366Y8406D02*
G01X18366Y8523D01*
G01X18996Y8523D01*
G01X18996Y8406D01*
G01X18366Y8406D01*
G37*
G36*
G01X18366Y8602D02*
G01X18366Y8719D01*
G01X18996Y8719D01*
G01X18996Y8602D01*
G01X18366Y8602D01*
G37*
G36*
G01X18366Y8799D02*
G01X18366Y8916D01*
G01X18996Y8916D01*
G01X18996Y8799D01*
G01X18366Y8799D01*
G37*
G36*
G01X18366Y8996D02*
G01X18366Y9113D01*
G01X18996Y9113D01*
G01X18996Y8996D01*
G01X18366Y8996D01*
G37*
G36*
G01X17854Y9507D02*
G01X17854Y10137D01*
G01X17971Y10137D01*
G01X17971Y9507D01*
G01X17854Y9507D01*
G37*
G36*
G01X17658Y9507D02*
G01X17658Y10137D01*
G01X17775Y10137D01*
G01X17775Y9507D01*
G01X17658Y9507D01*
G37*
G36*
G01X17461Y9507D02*
G01X17461Y10137D01*
G01X17578Y10137D01*
G01X17578Y9507D01*
G01X17461Y9507D01*
G37*
G36*
G01X17264Y9507D02*
G01X17264Y10137D01*
G01X17381Y10137D01*
G01X17381Y9507D01*
G01X17264Y9507D01*
G37*
G36*
G01X17067Y9507D02*
G01X17067Y10137D01*
G01X17184Y10137D01*
G01X17184Y9507D01*
G01X17067Y9507D01*
G37*
G36*
G01X16870Y9507D02*
G01X16870Y10137D01*
G01X16987Y10137D01*
G01X16987Y9507D01*
G01X16870Y9507D01*
G37*
G36*
G01X16673Y9507D02*
G01X16673Y10137D01*
G01X16790Y10137D01*
G01X16790Y9507D01*
G01X16673Y9507D01*
G37*
G36*
G01X16476Y9507D02*
G01X16476Y10137D01*
G01X16593Y10137D01*
G01X16593Y9507D01*
G01X16476Y9507D01*
G37*
G36*
G01X16280Y9507D02*
G01X16280Y10137D01*
G01X16397Y10137D01*
G01X16397Y9507D01*
G01X16280Y9507D01*
G37*
G36*
G01X16083Y9507D02*
G01X16083Y10137D01*
G01X16200Y10137D01*
G01X16200Y9507D01*
G01X16083Y9507D01*
G37*
G36*
G01X15886Y9507D02*
G01X15886Y10137D01*
G01X16003Y10137D01*
G01X16003Y9507D01*
G01X15886Y9507D01*
G37*
G36*
G01X15689Y9507D02*
G01X15689Y10137D01*
G01X15806Y10137D01*
G01X15806Y9507D01*
G01X15689Y9507D01*
G37*
G36*
G01X15492Y9507D02*
G01X15492Y10137D01*
G01X15609Y10137D01*
G01X15609Y9507D01*
G01X15492Y9507D01*
G37*
G36*
G01X15295Y9507D02*
G01X15295Y10137D01*
G01X15412Y10137D01*
G01X15412Y9507D01*
G01X15295Y9507D01*
G37*
G36*
G01X15099Y9507D02*
G01X15099Y10137D01*
G01X15215Y10137D01*
G01X15215Y9507D01*
G01X15099Y9507D01*
G37*
G36*
G01X14902Y9507D02*
G01X14902Y10137D01*
G01X15019Y10137D01*
G01X15019Y9507D01*
G01X14902Y9507D01*
G37*
G36*
G01X13877Y8996D02*
G01X13877Y9113D01*
G01X14507Y9113D01*
G01X14507Y8996D01*
G01X13877Y8996D01*
G37*
G36*
G01X13877Y8799D02*
G01X13877Y8916D01*
G01X14507Y8916D01*
G01X14507Y8799D01*
G01X13877Y8799D01*
G37*
G36*
G01X13877Y8602D02*
G01X13877Y8719D01*
G01X14507Y8719D01*
G01X14507Y8602D01*
G01X13877Y8602D01*
G37*
G36*
G01X13877Y8406D02*
G01X13877Y8523D01*
G01X14507Y8523D01*
G01X14507Y8406D01*
G01X13877Y8406D01*
G37*
G36*
G01X13877Y8209D02*
G01X13877Y8326D01*
G01X14507Y8326D01*
G01X14507Y8209D01*
G01X13877Y8209D01*
G37*
G36*
G01X13877Y8012D02*
G01X13877Y8129D01*
G01X14507Y8129D01*
G01X14507Y8012D01*
G01X13877Y8012D01*
G37*
G36*
G01X13877Y7815D02*
G01X13877Y7932D01*
G01X14507Y7932D01*
G01X14507Y7815D01*
G01X13877Y7815D01*
G37*
G36*
G01X13877Y7618D02*
G01X13877Y7735D01*
G01X14507Y7735D01*
G01X14507Y7618D01*
G01X13877Y7618D01*
G37*
G36*
G01X13877Y7421D02*
G01X13877Y7538D01*
G01X14507Y7538D01*
G01X14507Y7421D01*
G01X13877Y7421D01*
G37*
G36*
G01X13877Y7225D02*
G01X13877Y7341D01*
G01X14507Y7341D01*
G01X14507Y7225D01*
G01X13877Y7225D01*
G37*
G36*
G01X13877Y7028D02*
G01X13877Y7145D01*
G01X14507Y7145D01*
G01X14507Y7028D01*
G01X13877Y7028D01*
G37*
G36*
G01X13877Y6831D02*
G01X13877Y6948D01*
G01X14507Y6948D01*
G01X14507Y6831D01*
G01X13877Y6831D01*
G37*
G36*
G01X13877Y6634D02*
G01X13877Y6751D01*
G01X14507Y6751D01*
G01X14507Y6634D01*
G01X13877Y6634D01*
G37*
G36*
G01X13877Y6437D02*
G01X13877Y6554D01*
G01X14507Y6554D01*
G01X14507Y6437D01*
G01X13877Y6437D01*
G37*
G36*
G01X13877Y6240D02*
G01X13877Y6357D01*
G01X14507Y6357D01*
G01X14507Y6240D01*
G01X13877Y6240D01*
G37*
G36*
G01X13877Y6043D02*
G01X13877Y6160D01*
G01X14507Y6160D01*
G01X14507Y6043D01*
G01X13877Y6043D01*
G37*
G36*
G01X14902Y5019D02*
G01X14902Y5649D01*
G01X15019Y5649D01*
G01X15019Y5019D01*
G01X14902Y5019D01*
G37*
G36*
G01X15099Y5019D02*
G01X15099Y5649D01*
G01X15215Y5649D01*
G01X15215Y5019D01*
G01X15099Y5019D01*
G37*
G36*
G01X15295Y5019D02*
G01X15295Y5649D01*
G01X15412Y5649D01*
G01X15412Y5019D01*
G01X15295Y5019D01*
G37*
G36*
G01X15492Y5019D02*
G01X15492Y5649D01*
G01X15609Y5649D01*
G01X15609Y5019D01*
G01X15492Y5019D01*
G37*
G36*
G01X15689Y5019D02*
G01X15689Y5649D01*
G01X15806Y5649D01*
G01X15806Y5019D01*
G01X15689Y5019D01*
G37*
G36*
G01X15886Y5019D02*
G01X15886Y5649D01*
G01X16003Y5649D01*
G01X16003Y5019D01*
G01X15886Y5019D01*
G37*
G36*
G01X16083Y5019D02*
G01X16083Y5649D01*
G01X16200Y5649D01*
G01X16200Y5019D01*
G01X16083Y5019D01*
G37*
G36*
G01X16280Y5019D02*
G01X16280Y5649D01*
G01X16397Y5649D01*
G01X16397Y5019D01*
G01X16280Y5019D01*
G37*
G36*
G01X16476Y5019D02*
G01X16476Y5649D01*
G01X16593Y5649D01*
G01X16593Y5019D01*
G01X16476Y5019D01*
G37*
G36*
G01X16673Y5019D02*
G01X16673Y5649D01*
G01X16790Y5649D01*
G01X16790Y5019D01*
G01X16673Y5019D01*
G37*
G36*
G01X16870Y5019D02*
G01X16870Y5649D01*
G01X16987Y5649D01*
G01X16987Y5019D01*
G01X16870Y5019D01*
G37*
G36*
G01X17067Y5019D02*
G01X17067Y5649D01*
G01X17184Y5649D01*
G01X17184Y5019D01*
G01X17067Y5019D01*
G37*
G36*
G01X17264Y5019D02*
G01X17264Y5649D01*
G01X17381Y5649D01*
G01X17381Y5019D01*
G01X17264Y5019D01*
G37*
G36*
G01X17461Y5019D02*
G01X17461Y5649D01*
G01X17578Y5649D01*
G01X17578Y5019D01*
G01X17461Y5019D01*
G37*
G36*
G01X17658Y5019D02*
G01X17658Y5649D01*
G01X17775Y5649D01*
G01X17775Y5019D01*
G01X17658Y5019D01*
G37*
G36*
G01X17854Y5019D02*
G01X17854Y5649D01*
G01X17971Y5649D01*
G01X17971Y5019D01*
G01X17854Y5019D01*
G37*
G04 Draw part U3*
G36*
G01X2076Y8996D02*
G01X2076Y9113D01*
G01X2647Y9113D01*
G01X2647Y8996D01*
G01X2076Y8996D01*
G37*
G36*
G01X2076Y8799D02*
G01X2076Y8916D01*
G01X2647Y8916D01*
G01X2647Y8799D01*
G01X2076Y8799D01*
G37*
G36*
G01X2076Y8602D02*
G01X2076Y8719D01*
G01X2647Y8719D01*
G01X2647Y8602D01*
G01X2076Y8602D01*
G37*
G36*
G01X2076Y8406D02*
G01X2076Y8523D01*
G01X2647Y8523D01*
G01X2647Y8406D01*
G01X2076Y8406D01*
G37*
G36*
G01X2076Y8209D02*
G01X2076Y8326D01*
G01X2647Y8326D01*
G01X2647Y8209D01*
G01X2076Y8209D01*
G37*
G36*
G01X2076Y8012D02*
G01X2076Y8129D01*
G01X2647Y8129D01*
G01X2647Y8012D01*
G01X2076Y8012D01*
G37*
G36*
G01X2076Y7815D02*
G01X2076Y7932D01*
G01X2647Y7932D01*
G01X2647Y7815D01*
G01X2076Y7815D01*
G37*
G36*
G01X2076Y7618D02*
G01X2076Y7735D01*
G01X2647Y7735D01*
G01X2647Y7618D01*
G01X2076Y7618D01*
G37*
G36*
G01X2076Y7421D02*
G01X2076Y7538D01*
G01X2647Y7538D01*
G01X2647Y7421D01*
G01X2076Y7421D01*
G37*
G36*
G01X2076Y7225D02*
G01X2076Y7341D01*
G01X2647Y7341D01*
G01X2647Y7225D01*
G01X2076Y7225D01*
G37*
G36*
G01X2076Y7028D02*
G01X2076Y7145D01*
G01X2647Y7145D01*
G01X2647Y7028D01*
G01X2076Y7028D01*
G37*
G36*
G01X2076Y6831D02*
G01X2076Y6948D01*
G01X2647Y6948D01*
G01X2647Y6831D01*
G01X2076Y6831D01*
G37*
G36*
G01X2076Y6634D02*
G01X2076Y6751D01*
G01X2647Y6751D01*
G01X2647Y6634D01*
G01X2076Y6634D01*
G37*
G36*
G01X2076Y6437D02*
G01X2076Y6554D01*
G01X2647Y6554D01*
G01X2647Y6437D01*
G01X2076Y6437D01*
G37*
G36*
G01X2076Y6240D02*
G01X2076Y6357D01*
G01X2647Y6357D01*
G01X2647Y6240D01*
G01X2076Y6240D01*
G37*
G36*
G01X2076Y6043D02*
G01X2076Y6160D01*
G01X2647Y6160D01*
G01X2647Y6043D01*
G01X2076Y6043D01*
G37*
G36*
G01X2076Y5847D02*
G01X2076Y5963D01*
G01X2647Y5963D01*
G01X2647Y5847D01*
G01X2076Y5847D01*
G37*
G36*
G01X2076Y5650D02*
G01X2076Y5767D01*
G01X2647Y5767D01*
G01X2647Y5650D01*
G01X2076Y5650D01*
G37*
G36*
G01X2076Y5453D02*
G01X2076Y5570D01*
G01X2647Y5570D01*
G01X2647Y5453D01*
G01X2076Y5453D01*
G37*
G36*
G01X2076Y5256D02*
G01X2076Y5373D01*
G01X2647Y5373D01*
G01X2647Y5256D01*
G01X2076Y5256D01*
G37*
G36*
G01X2076Y5059D02*
G01X2076Y5176D01*
G01X2647Y5176D01*
G01X2647Y5059D01*
G01X2076Y5059D01*
G37*
G36*
G01X2076Y4862D02*
G01X2076Y4979D01*
G01X2647Y4979D01*
G01X2647Y4862D01*
G01X2076Y4862D01*
G37*
G36*
G01X2076Y4665D02*
G01X2076Y4782D01*
G01X2647Y4782D01*
G01X2647Y4665D01*
G01X2076Y4665D01*
G37*
G36*
G01X2076Y4469D02*
G01X2076Y4586D01*
G01X2647Y4586D01*
G01X2647Y4469D01*
G01X2076Y4469D01*
G37*
G36*
G01X9911Y4469D02*
G01X9911Y4586D01*
G01X10482Y4586D01*
G01X10482Y4469D01*
G01X9911Y4469D01*
G37*
G36*
G01X9911Y4665D02*
G01X9911Y4782D01*
G01X10482Y4782D01*
G01X10482Y4665D01*
G01X9911Y4665D01*
G37*
G36*
G01X9911Y4862D02*
G01X9911Y4979D01*
G01X10482Y4979D01*
G01X10482Y4862D01*
G01X9911Y4862D01*
G37*
G36*
G01X9911Y5059D02*
G01X9911Y5176D01*
G01X10482Y5176D01*
G01X10482Y5059D01*
G01X9911Y5059D01*
G37*
G36*
G01X9911Y5256D02*
G01X9911Y5373D01*
G01X10482Y5373D01*
G01X10482Y5256D01*
G01X9911Y5256D01*
G37*
G36*
G01X9911Y5453D02*
G01X9911Y5570D01*
G01X10482Y5570D01*
G01X10482Y5453D01*
G01X9911Y5453D01*
G37*
G36*
G01X9911Y5650D02*
G01X9911Y5767D01*
G01X10482Y5767D01*
G01X10482Y5650D01*
G01X9911Y5650D01*
G37*
G36*
G01X9911Y5847D02*
G01X9911Y5963D01*
G01X10482Y5963D01*
G01X10482Y5847D01*
G01X9911Y5847D01*
G37*
G36*
G01X9911Y6043D02*
G01X9911Y6160D01*
G01X10482Y6160D01*
G01X10482Y6043D01*
G01X9911Y6043D01*
G37*
G36*
G01X9911Y6240D02*
G01X9911Y6357D01*
G01X10482Y6357D01*
G01X10482Y6240D01*
G01X9911Y6240D01*
G37*
G36*
G01X9911Y6437D02*
G01X9911Y6554D01*
G01X10482Y6554D01*
G01X10482Y6437D01*
G01X9911Y6437D01*
G37*
G36*
G01X9911Y6634D02*
G01X9911Y6751D01*
G01X10482Y6751D01*
G01X10482Y6634D01*
G01X9911Y6634D01*
G37*
G36*
G01X9911Y6831D02*
G01X9911Y6948D01*
G01X10482Y6948D01*
G01X10482Y6831D01*
G01X9911Y6831D01*
G37*
G36*
G01X9911Y7028D02*
G01X9911Y7145D01*
G01X10482Y7145D01*
G01X10482Y7028D01*
G01X9911Y7028D01*
G37*
G36*
G01X9911Y7225D02*
G01X9911Y7341D01*
G01X10482Y7341D01*
G01X10482Y7225D01*
G01X9911Y7225D01*
G37*
G36*
G01X9911Y7421D02*
G01X9911Y7538D01*
G01X10482Y7538D01*
G01X10482Y7421D01*
G01X9911Y7421D01*
G37*
G36*
G01X9911Y7618D02*
G01X9911Y7735D01*
G01X10482Y7735D01*
G01X10482Y7618D01*
G01X9911Y7618D01*
G37*
G36*
G01X9911Y7815D02*
G01X9911Y7932D01*
G01X10482Y7932D01*
G01X10482Y7815D01*
G01X9911Y7815D01*
G37*
G36*
G01X9911Y8012D02*
G01X9911Y8129D01*
G01X10482Y8129D01*
G01X10482Y8012D01*
G01X9911Y8012D01*
G37*
G36*
G01X9911Y8209D02*
G01X9911Y8326D01*
G01X10482Y8326D01*
G01X10482Y8209D01*
G01X9911Y8209D01*
G37*
G36*
G01X9911Y8406D02*
G01X9911Y8523D01*
G01X10482Y8523D01*
G01X10482Y8406D01*
G01X9911Y8406D01*
G37*
G36*
G01X9911Y8602D02*
G01X9911Y8719D01*
G01X10482Y8719D01*
G01X10482Y8602D01*
G01X9911Y8602D01*
G37*
G36*
G01X9911Y8799D02*
G01X9911Y8916D01*
G01X10482Y8916D01*
G01X10482Y8799D01*
G01X9911Y8799D01*
G37*
G36*
G01X9911Y8996D02*
G01X9911Y9113D01*
G01X10482Y9113D01*
G01X10482Y8996D01*
G01X9911Y8996D01*
G37*
G04 Draw part U4*
G36*
G01X6466Y11328D02*
G01X6466Y11505D01*
G01X6919Y11505D01*
G01X6919Y11328D01*
G01X6466Y11328D01*
G37*
G36*
G01X6466Y11073D02*
G01X6466Y11249D01*
G01X6919Y11249D01*
G01X6919Y11073D01*
G01X6466Y11073D01*
G37*
G36*
G01X6466Y10817D02*
G01X6466Y10993D01*
G01X6919Y10993D01*
G01X6919Y10817D01*
G01X6466Y10817D01*
G37*
G36*
G01X6466Y10561D02*
G01X6466Y10737D01*
G01X6919Y10737D01*
G01X6919Y10561D01*
G01X6466Y10561D01*
G37*
G36*
G01X8120Y10561D02*
G01X8120Y10737D01*
G01X8572Y10737D01*
G01X8572Y10561D01*
G01X8120Y10561D01*
G37*
G36*
G01X8120Y10817D02*
G01X8120Y10993D01*
G01X8572Y10993D01*
G01X8572Y10817D01*
G01X8120Y10817D01*
G37*
G36*
G01X8120Y11073D02*
G01X8120Y11249D01*
G01X8572Y11249D01*
G01X8572Y11073D01*
G01X8120Y11073D01*
G37*
G36*
G01X8120Y11329D02*
G01X8120Y11505D01*
G01X8572Y11505D01*
G01X8572Y11329D01*
G01X8120Y11329D01*
G37*
G36*
G01X7155Y10669D02*
G01X7155Y11397D01*
G01X7883Y11397D01*
G01X7883Y10669D01*
G01X7155Y10669D01*
G37*
G04 Draw part L5*
G36*
G01X7145Y12283D02*
G01X7145Y12913D01*
G01X7657Y12913D01*
G01X7657Y12283D01*
G01X7145Y12283D01*
G37*
G36*
G01X7893Y12283D02*
G01X7893Y12913D01*
G01X8405Y12913D01*
G01X8405Y12283D01*
G01X7893Y12283D01*
G37*
G04 Draw part J5*
G54D25*
G01X5118Y12598D03*
G54D26*
G01X4133Y12598D03*
G01X3346Y12598D03*
G01X2362Y12598D03*
G54D27*
G01X6326Y13665D03*
G01X1153Y13665D03*
G04 Draw part J6*
G54D25*
G01X29921Y12598D03*
G54D26*
G01X28937Y12598D03*
G01X28149Y12598D03*
G01X27165Y12598D03*
G54D27*
G01X31129Y13665D03*
G01X25956Y13665D03*
G04 Draw part J7*
G36*
G01X16673Y11564D02*
G01X16673Y12450D01*
G01X16870Y12450D01*
G01X16870Y11564D01*
G01X16673Y11564D01*
G37*
G36*
G01X16358Y11564D02*
G01X16358Y12450D01*
G01X16555Y12450D01*
G01X16555Y11564D01*
G01X16358Y11564D01*
G37*
G36*
G01X16043Y11564D02*
G01X16043Y12450D01*
G01X16240Y12450D01*
G01X16240Y11564D01*
G01X16043Y11564D01*
G37*
G36*
G01X15728Y11564D02*
G01X15728Y12450D01*
G01X15925Y12450D01*
G01X15925Y11564D01*
G01X15728Y11564D01*
G37*
G36*
G01X15413Y11564D02*
G01X15413Y12450D01*
G01X15610Y12450D01*
G01X15610Y11564D01*
G01X15413Y11564D01*
G37*
G36*
G01X17677Y11318D02*
G01X17677Y12696D01*
G01X18484Y12696D01*
G01X18484Y11318D01*
G01X17677Y11318D01*
G37*
G36*
G01X13799Y11318D02*
G01X13799Y12696D01*
G01X14606Y12696D01*
G01X14606Y11318D01*
G01X13799Y11318D01*
G37*
G36*
G01X17677Y12874D02*
G01X17677Y14291D01*
G01X18484Y14291D01*
G01X18484Y12874D01*
G01X17677Y12874D01*
G37*
G36*
G01X13799Y12874D02*
G01X13799Y14291D01*
G01X14606Y14291D01*
G01X14606Y12874D01*
G01X13799Y12874D01*
G37*
G04 Draw part J9*
G54D18*
G01X24251Y13464D03*
G01X23251Y13464D03*
G01X22251Y13464D03*
G01X21251Y13464D03*
G01X20251Y13464D03*
G01X19251Y13464D03*
G04 Draw part C51*
G36*
G01X10275Y11594D02*
G01X10275Y12185D01*
G01X11456Y12185D01*
G01X11456Y11594D01*
G01X10275Y11594D01*
G37*
G36*
G01X12322Y11594D02*
G01X12322Y12185D01*
G01X13503Y12185D01*
G01X13503Y11594D01*
G01X12322Y11594D01*
G37*
G04 Draw part M1*
G04 Draw part M2*
G04 Draw part C44*
G36*
G01X22328Y3660D02*
G01X22328Y4370D01*
G01X22868Y4370D01*
G01X22868Y3660D01*
G01X22328Y3660D01*
G37*
G36*
G01X23508Y3660D02*
G01X23508Y4370D01*
G01X24048Y4370D01*
G01X24048Y3660D01*
G01X23508Y3660D01*
G37*
G04 Draw part C43*
G36*
G01X5714Y9408D02*
G01X5714Y10118D01*
G01X6254Y10118D01*
G01X6254Y9408D01*
G01X5714Y9408D01*
G37*
G36*
G01X6894Y9408D02*
G01X6894Y10118D01*
G01X7434Y10118D01*
G01X7434Y9408D01*
G01X6894Y9408D01*
G37*
G04 Draw part C71*
G36*
G01X8818Y13405D02*
G01X8818Y13838D01*
G01X9291Y13838D01*
G01X9291Y13405D01*
G01X8818Y13405D01*
G37*
G36*
G01X8818Y12736D02*
G01X8818Y13169D01*
G01X9291Y13169D01*
G01X9291Y12736D01*
G01X8818Y12736D01*
G37*
G04 Draw part R71*
G36*
G01X9763Y13405D02*
G01X9763Y13838D01*
G01X10236Y13838D01*
G01X10236Y13405D01*
G01X9763Y13405D01*
G37*
G36*
G01X9763Y12736D02*
G01X9763Y13169D01*
G01X10236Y13169D01*
G01X10236Y12736D01*
G01X9763Y12736D01*
G37*
G04 Draw part C33*
G36*
G01X1023Y5728D02*
G01X1023Y6240D01*
G01X1653Y6240D01*
G01X1653Y5728D01*
G01X1023Y5728D01*
G37*
G36*
G01X1023Y6476D02*
G01X1023Y6988D01*
G01X1653Y6988D01*
G01X1653Y6476D01*
G01X1023Y6476D01*
G37*
G04 Draw part R12*
G36*
G01X2224Y10157D02*
G01X2224Y10629D01*
G01X2657Y10629D01*
G01X2657Y10157D01*
G01X2224Y10157D01*
G37*
G36*
G01X2893Y10157D02*
G01X2893Y10629D01*
G01X3326Y10629D01*
G01X3326Y10157D01*
G01X2893Y10157D01*
G37*

G04 Draw traces*
G54D28*
G01X23425Y11102D02*
G01X23425Y10590D01*
G01X23425Y10590D02*
G01X24566Y9448D01*
G01X24566Y9448D02*
G01X24566Y7480D01*
G01X24566Y7480D02*
G01X24724Y7322D01*
G01X24724Y7322D02*
G01X25984Y7322D01*
G01X25984Y7322D02*
G01X27322Y5984D01*
G01X27322Y5984D02*
G01X27322Y5590D01*
G01X27322Y5590D02*
G01X27716Y5196D01*
G01X27716Y5196D02*
G01X27716Y4645D01*
G01X27716Y4645D02*
G01X27165Y4094D01*
G54D29*
G01X27165Y4094D03*
G54D28*
G01X2362Y6299D02*
G01X2283Y6299D01*
G01X2283Y6299D02*
G01X2755Y6299D01*
G01X2755Y6299D02*
G01X4645Y4409D01*
G01X4645Y4409D02*
G01X6141Y4409D01*
G01X6141Y4409D02*
G01X6456Y4094D01*
G01X6456Y4094D02*
G01X6456Y3543D01*
G01X6456Y3543D02*
G01X6377Y3464D01*
G01X6377Y3464D02*
G01X6377Y3070D01*
G01X6377Y3070D02*
G01X6401Y2283D01*
G01X17322Y5334D02*
G01X17322Y4960D01*
G01X17322Y4960D02*
G01X17322Y5039D01*
G01X17322Y5039D02*
G01X17322Y4881D01*
G01X17322Y4881D02*
G01X17874Y4330D01*
G01X17874Y4330D02*
G01X19291Y4330D01*
G01X19291Y4330D02*
G01X19971Y3650D01*
G01X19971Y3650D02*
G01X19971Y2283D01*
G01X16732Y5334D02*
G01X16732Y4763D01*
G01X16732Y4763D02*
G01X18110Y3385D01*
G01X18110Y3385D02*
G01X18228Y3385D01*
G01X18228Y3385D02*
G01X18201Y2283D01*
G01X21771Y8661D02*
G01X20000Y8661D01*
G01X20000Y8661D02*
G01X19212Y7874D01*
G01X19212Y7874D02*
G01X18681Y7874D01*
G01X21771Y8661D02*
G01X22283Y8661D01*
G01X22283Y8661D02*
G01X22519Y8425D01*
G01X22519Y8425D02*
G01X23149Y8425D01*
G54D29*
G01X23149Y8425D03*
G01X7480Y8346D03*
G54D28*
G01X7480Y8346D02*
G01X7480Y7244D01*
G01X7480Y7244D02*
G01X8031Y6692D01*
G01X8031Y6692D02*
G01X10236Y6692D01*
G01X10236Y6692D02*
G01X10196Y6692D01*
G01X10196Y5511D02*
G01X12362Y5511D01*
G01X12362Y5511D02*
G01X12598Y5748D01*
G01X12598Y5748D02*
G01X12598Y7480D01*
G01X12598Y7480D02*
G01X12992Y7874D01*
G01X12992Y7874D02*
G01X14192Y7874D01*
G01X25393Y5039D02*
G01X25393Y5708D01*
G01X25393Y5708D02*
G01X25196Y5905D01*
G01X25196Y5905D02*
G01X25196Y6771D01*
G54D29*
G01X25196Y6771D03*
G01X12834Y7716D03*
G54D28*
G01X12834Y7716D02*
G01X12834Y7716D01*
G01X12834Y7716D02*
G01X12992Y7874D01*
G01X12992Y7874D02*
G01X14192Y7874D01*
G01X10196Y9055D02*
G01X12125Y9055D01*
G01X12125Y9055D02*
G01X12204Y8976D01*
G01X12204Y8976D02*
G01X12204Y6141D01*
G01X12204Y6141D02*
G01X12125Y6062D01*
G01X12125Y6062D02*
G01X11102Y6062D01*
G54D29*
G01X11102Y6062D03*
G01X8503Y4015D03*
G54D28*
G01X8503Y4015D02*
G01X8761Y3758D01*
G01X8761Y3758D02*
G01X8761Y2283D01*
G01X17519Y5334D02*
G01X17519Y4921D01*
G01X17519Y4921D02*
G01X17952Y4488D01*
G01X17952Y4488D02*
G01X19370Y4488D01*
G01X19370Y4488D02*
G01X20236Y3622D01*
G01X20236Y3622D02*
G01X20393Y3622D01*
G01X20393Y3622D02*
G01X20629Y3385D01*
G01X20629Y3385D02*
G01X20551Y3070D01*
G01X20551Y3070D02*
G01X20561Y2283D01*
G01X16535Y5334D02*
G01X16535Y4724D01*
G01X16535Y4724D02*
G01X17559Y3700D01*
G01X17559Y3700D02*
G01X17559Y3228D01*
G01X17559Y3228D02*
G01X17611Y2283D01*
G54D30*
G01X22331Y1973D02*
G01X22331Y3630D01*
G54D29*
G01X22331Y3630D02*
G01X22440Y3740D01*
G01X22440Y3740D02*
G01X22331Y3652D01*
G01X22331Y3652D02*
G01X22047Y3937D01*
G01X22047Y3937D03*
G01X4488Y9842D03*
G54D31*
G01X4488Y9842D02*
G01X4803Y10157D01*
G01X4803Y10157D02*
G01X5393Y10157D01*
G01X5393Y10157D02*
G01X5866Y10629D01*
G01X5866Y10629D02*
G01X5885Y10728D01*
G01X6692Y11161D02*
G01X6141Y11161D01*
G01X6141Y11161D02*
G01X5807Y10826D01*
G01X5807Y10826D02*
G01X5885Y10728D01*
G54D29*
G01X22598Y4015D02*
G01X22677Y4015D01*
G01X22677Y4015D02*
G01X22331Y3670D01*
G54D30*
G01X22331Y3670D02*
G01X22331Y1973D01*
G54D28*
G01X8346Y11161D02*
G01X9153Y11161D01*
G01X9153Y11161D02*
G01X9370Y10944D01*
G01X9370Y10944D02*
G01X9370Y10590D01*
G01X9370Y10590D02*
G01X9173Y10393D01*
G01X9173Y10393D02*
G01X8661Y10393D01*
G01X8661Y10393D02*
G01X7480Y9212D01*
G01X7480Y9212D02*
G01X5118Y9212D01*
G01X5118Y9212D02*
G01X4488Y9842D01*
G01X15944Y9822D02*
G01X15944Y10275D01*
G01X15944Y10275D02*
G01X15905Y10314D01*
G01X15905Y10314D02*
G01X15826Y10314D01*
G01X15826Y10314D02*
G01X15748Y10236D01*
G01X15748Y10236D02*
G01X15748Y9822D01*
G01X15748Y9822D02*
G01X15748Y10236D01*
G01X15748Y10236D02*
G01X15669Y10314D01*
G01X15669Y10314D02*
G01X15511Y10314D01*
G01X15511Y10314D02*
G01X15196Y10629D01*
G01X15196Y10629D02*
G01X15196Y10944D01*
G01X15196Y10944D02*
G01X15354Y11102D01*
G01X15354Y11102D02*
G01X17322Y11102D01*
G01X17322Y11102D02*
G01X17637Y10787D01*
G01X17637Y10787D02*
G01X18425Y10787D01*
G01X18425Y10787D02*
G01X19685Y12047D01*
G01X19685Y12047D02*
G01X23622Y12047D01*
G01X23622Y12047D02*
G01X23818Y11850D01*
G01X23818Y11850D02*
G01X23818Y11102D01*
G01X24409Y11102D02*
G01X24409Y10708D01*
G01X24409Y10708D02*
G01X24330Y10629D01*
G01X24330Y10629D02*
G01X23858Y10629D01*
G01X23858Y10629D02*
G01X23818Y10669D01*
G01X23818Y10669D02*
G01X23818Y11102D01*
G01X23251Y13464D02*
G01X23251Y12968D01*
G01X23251Y12968D02*
G01X24173Y12047D01*
G01X24173Y12047D02*
G01X24173Y11811D01*
G01X24173Y11811D02*
G01X24409Y11574D01*
G01X24409Y11574D02*
G01X24409Y11102D01*
G01X21771Y8858D02*
G01X19960Y8858D01*
G01X19960Y8858D02*
G01X19173Y8070D01*
G01X19173Y8070D02*
G01X18681Y8070D01*
G01X21771Y8858D02*
G01X22322Y8858D01*
G01X22322Y8858D02*
G01X22440Y8740D01*
G01X22440Y8740D02*
G01X23622Y8740D01*
G54D29*
G01X23622Y8740D03*
G01X7165Y7559D03*
G54D28*
G01X7165Y7559D02*
G01X7165Y7244D01*
G01X7165Y7244D02*
G01X7913Y6496D01*
G01X7913Y6496D02*
G01X10196Y6496D01*
G01X10196Y5314D02*
G01X12401Y5314D01*
G01X12401Y5314D02*
G01X12755Y5669D01*
G01X12755Y5669D02*
G01X12755Y6929D01*
G01X12755Y6929D02*
G01X13503Y7677D01*
G01X13503Y7677D02*
G01X14192Y7677D01*
G01X25196Y5039D02*
G01X25196Y5669D01*
G01X25196Y5669D02*
G01X24881Y5984D01*
G01X24881Y5984D02*
G01X24881Y6062D01*
G54D29*
G01X24881Y6062D03*
G01X13307Y7480D03*
G54D28*
G01X13307Y7480D02*
G01X13307Y7480D01*
G01X13307Y7480D02*
G01X13503Y7677D01*
G01X13503Y7677D02*
G01X14192Y7677D01*
G01X10196Y5708D02*
G01X12322Y5708D01*
G01X12322Y5708D02*
G01X12440Y5826D01*
G01X12440Y5826D02*
G01X12440Y7795D01*
G01X12440Y7795D02*
G01X12716Y8070D01*
G01X12716Y8070D02*
G01X14192Y8070D01*
G01X25000Y5039D02*
G01X25000Y5472D01*
G01X25000Y5472D02*
G01X24566Y5905D01*
G01X24566Y5905D02*
G01X24566Y6771D01*
G54D29*
G01X24566Y6771D03*
G01X15354Y7716D03*
G54D28*
G01X15354Y7716D02*
G01X15354Y7716D01*
G01X15354Y7716D02*
G01X15000Y8070D01*
G01X15000Y8070D02*
G01X14192Y8070D01*
G01X2362Y9055D02*
G01X3385Y9055D01*
G01X3385Y9055D02*
G01X4251Y8188D01*
G01X4251Y8188D02*
G01X4251Y6692D01*
G01X4251Y6692D02*
G01X6062Y4881D01*
G01X6062Y4881D02*
G01X8346Y4881D01*
G01X8346Y4881D02*
G01X9921Y3307D01*
G01X9921Y3307D02*
G01X9941Y2283D01*
G01X17716Y5334D02*
G01X17716Y4960D01*
G01X17716Y4960D02*
G01X18031Y4645D01*
G01X18031Y4645D02*
G01X19448Y4645D01*
G01X19448Y4645D02*
G01X20314Y3779D01*
G01X20314Y3779D02*
G01X20866Y3779D01*
G01X20866Y3779D02*
G01X21181Y3464D01*
G01X21181Y3464D02*
G01X21151Y2283D01*
G01X15354Y5334D02*
G01X15354Y5748D01*
G01X15354Y5748D02*
G01X15275Y5826D01*
G01X15275Y5826D02*
G01X14803Y5826D01*
G01X14803Y5826D02*
G01X14251Y5275D01*
G01X14251Y5275D02*
G01X14251Y4015D01*
G01X14251Y4015D02*
G01X14645Y3622D01*
G01X14645Y3622D02*
G01X15196Y3622D01*
G01X15196Y3622D02*
G01X15251Y3567D01*
G01X15251Y3567D02*
G01X15251Y2283D01*
G01X21771Y9055D02*
G01X19921Y9055D01*
G01X19921Y9055D02*
G01X19133Y8267D01*
G01X19133Y8267D02*
G01X18681Y8267D01*
G01X21771Y9055D02*
G01X21732Y9055D01*
G01X21732Y9055D02*
G01X22755Y9055D01*
G54D29*
G01X22755Y9055D03*
G01X6850Y8346D03*
G54D28*
G01X6850Y8346D02*
G01X6850Y7244D01*
G01X6850Y7244D02*
G01X7795Y6299D01*
G01X7795Y6299D02*
G01X10236Y6299D01*
G01X10236Y6299D02*
G01X10196Y6299D01*
G01X10196Y4527D02*
G01X10669Y4527D01*
G01X10669Y4527D02*
G01X10787Y4409D01*
G54D29*
G01X10787Y4409D03*
G54D28*
G01X2362Y7283D02*
G01X2007Y7283D01*
G01X2007Y7283D02*
G01X1929Y7362D01*
G01X1929Y7362D02*
G01X1929Y8110D01*
G01X1929Y8110D02*
G01X1771Y8267D01*
G01X1771Y8267D02*
G01X1771Y9251D01*
G01X1771Y9251D02*
G01X1968Y9448D01*
G01X1968Y9448D02*
G01X3464Y9448D01*
G01X3464Y9448D02*
G01X4566Y8346D01*
G01X4566Y8346D02*
G01X4566Y6850D01*
G01X4566Y6850D02*
G01X6220Y5196D01*
G01X6220Y5196D02*
G01X8503Y5196D01*
G01X8503Y5196D02*
G01X9921Y3779D01*
G01X9921Y3779D02*
G01X10944Y3779D01*
G01X10944Y3779D02*
G01X11121Y3602D01*
G01X11121Y3602D02*
G01X11121Y2283D01*
G01X2362Y8267D02*
G01X2401Y8267D01*
G01X2401Y8267D02*
G01X2007Y8267D01*
G01X2007Y8267D02*
G01X1929Y8346D01*
G01X1929Y8346D02*
G01X1929Y9173D01*
G01X1929Y9173D02*
G01X2047Y9291D01*
G01X2047Y9291D02*
G01X3385Y9291D01*
G01X3385Y9291D02*
G01X4409Y8267D01*
G01X4409Y8267D02*
G01X4409Y6771D01*
G01X4409Y6771D02*
G01X6141Y5039D01*
G01X6141Y5039D02*
G01X8425Y5039D01*
G01X8425Y5039D02*
G01X9842Y3622D01*
G01X9842Y3622D02*
G01X10236Y3622D01*
G01X10236Y3622D02*
G01X10531Y3326D01*
G01X10531Y3326D02*
G01X10531Y2283D01*
G01X16929Y5334D02*
G01X16929Y4803D01*
G01X16929Y4803D02*
G01X18031Y3700D01*
G01X18031Y3700D02*
G01X18582Y3700D01*
G01X18582Y3700D02*
G01X18897Y3385D01*
G01X18897Y3385D02*
G01X18791Y2283D01*
G01X14192Y6496D02*
G01X13740Y6496D01*
G01X13740Y6496D02*
G01X13543Y6299D01*
G01X13543Y6299D02*
G01X13543Y4645D01*
G01X13543Y4645D02*
G01X12891Y3994D01*
G01X12891Y3994D02*
G01X12891Y2283D01*
G01X14192Y6692D02*
G01X13700Y6692D01*
G01X13700Y6692D02*
G01X13385Y6377D01*
G01X13385Y6377D02*
G01X13385Y4724D01*
G01X13385Y4724D02*
G01X12913Y4251D01*
G01X12913Y4251D02*
G01X11732Y4251D01*
G01X11732Y4251D02*
G01X11574Y4094D01*
G01X11574Y4094D02*
G01X11574Y3700D01*
G01X11574Y3700D02*
G01X11732Y3543D01*
G01X11732Y3543D02*
G01X11732Y2913D01*
G01X11732Y2913D02*
G01X11711Y2283D01*
G01X27834Y7677D02*
G01X27440Y7677D01*
G01X27440Y7677D02*
G01X27165Y7952D01*
G54D29*
G01X27165Y7952D03*
G01X17244Y12755D03*
G54D28*
G01X17244Y12755D02*
G01X17165Y12755D01*
G01X17165Y12755D02*
G01X16771Y12362D01*
G01X16771Y12362D02*
G01X16771Y12007D01*
G54D32*
G01X7401Y12598D02*
G01X7401Y12519D01*
G01X7401Y12519D02*
G01X5216Y12500D01*
G01X5216Y12500D02*
G01X5118Y12598D01*
G54D28*
G01X10196Y7283D02*
G01X8622Y7283D01*
G01X8622Y7283D02*
G01X7795Y8110D01*
G01X7795Y8110D02*
G01X7795Y9291D01*
G01X7795Y9291D02*
G01X8740Y10236D01*
G01X8740Y10236D02*
G01X14645Y10236D01*
G01X14645Y10236D02*
G01X14724Y10314D01*
G01X14724Y10314D02*
G01X15039Y10314D01*
G01X15039Y10314D02*
G01X15157Y10196D01*
G01X15157Y10196D02*
G01X15157Y9822D01*
G01X24606Y5039D02*
G01X24606Y5629D01*
G01X24606Y5629D02*
G01X24251Y5984D01*
G01X24251Y5984D02*
G01X24251Y9291D01*
G01X24251Y9291D02*
G01X23228Y10314D01*
G01X23228Y10314D02*
G01X22677Y10314D01*
G01X22677Y10314D02*
G01X21732Y11259D01*
G01X21732Y11259D02*
G01X20078Y11259D01*
G01X20078Y11259D02*
G01X18188Y9370D01*
G01X18188Y9370D02*
G01X17716Y9370D01*
G01X17716Y9370D02*
G01X17559Y9212D01*
G01X17559Y9212D02*
G01X17559Y8267D01*
G01X17559Y8267D02*
G01X18031Y7795D01*
G01X18031Y7795D02*
G01X18031Y7165D01*
G01X18031Y7165D02*
G01X17795Y6929D01*
G01X17795Y6929D02*
G01X16771Y6929D01*
G01X16771Y6929D02*
G01X16299Y7401D01*
G01X16299Y7401D02*
G01X16299Y8818D01*
G01X16299Y8818D02*
G01X15905Y9212D01*
G01X15905Y9212D02*
G01X15354Y9212D01*
G01X15354Y9212D02*
G01X15157Y9409D01*
G01X15157Y9409D02*
G01X15157Y9822D01*
G01X21771Y9251D02*
G01X19881Y9251D01*
G01X19881Y9251D02*
G01X19094Y8464D01*
G01X19094Y8464D02*
G01X18681Y8464D01*
G01X21771Y9251D02*
G01X22322Y9251D01*
G01X22322Y9251D02*
G01X22440Y9370D01*
G01X22440Y9370D02*
G01X23228Y9370D01*
G54D29*
G01X23228Y9370D03*
G01X6535Y7559D03*
G54D28*
G01X6535Y7559D02*
G01X6535Y7244D01*
G01X6535Y7244D02*
G01X7677Y6102D01*
G01X7677Y6102D02*
G01X10196Y6102D01*
G01X16338Y9822D02*
G01X16338Y9409D01*
G01X16338Y9409D02*
G01X16299Y9370D01*
G01X16299Y9370D02*
G01X15590Y9370D01*
G01X15590Y9370D02*
G01X15551Y9409D01*
G01X15551Y9409D02*
G01X15551Y9822D01*
G01X24606Y11102D02*
G01X24606Y10669D01*
G01X24606Y10669D02*
G01X24409Y10472D01*
G01X24409Y10472D02*
G01X23779Y10472D01*
G01X23779Y10472D02*
G01X23622Y10629D01*
G01X23622Y10629D02*
G01X23622Y11102D01*
G01X23622Y11102D02*
G01X23622Y11653D01*
G01X23622Y11653D02*
G01X23385Y11889D01*
G01X23385Y11889D02*
G01X19763Y11889D01*
G01X19763Y11889D02*
G01X18503Y10629D01*
G01X18503Y10629D02*
G01X17637Y10629D01*
G01X17637Y10629D02*
G01X17322Y10314D01*
G01X17322Y10314D02*
G01X16456Y10314D01*
G01X16456Y10314D02*
G01X16338Y10196D01*
G01X16338Y10196D02*
G01X16338Y9822D01*
G01X24251Y13464D02*
G01X24330Y13385D01*
G01X24330Y13385D02*
G01X24330Y11889D01*
G01X24330Y11889D02*
G01X24566Y11653D01*
G01X24566Y11653D02*
G01X24606Y11614D01*
G01X24606Y11614D02*
G01X24606Y11102D01*
G01X2362Y8070D02*
G01X3425Y8070D01*
G01X3425Y8070D02*
G01X3622Y7874D01*
G01X3622Y7874D02*
G01X3622Y5905D01*
G01X3622Y5905D02*
G01X4803Y4724D01*
G01X4803Y4724D02*
G01X8267Y4724D01*
G01X8267Y4724D02*
G01X9351Y3640D01*
G01X9351Y3640D02*
G01X9351Y2283D01*
G01X15157Y5334D02*
G01X15157Y4921D01*
G01X15157Y4921D02*
G01X15118Y4881D01*
G01X15118Y4881D02*
G01X14960Y4881D01*
G01X14960Y4881D02*
G01X14566Y4488D01*
G01X14566Y4488D02*
G01X14566Y4173D01*
G01X14566Y4173D02*
G01X14803Y3937D01*
G01X14803Y3937D02*
G01X15905Y3937D01*
G01X15905Y3937D02*
G01X16431Y3410D01*
G01X16431Y3410D02*
G01X16431Y2283D01*
G01X18681Y6102D02*
G01X18228Y6102D01*
G01X18228Y6102D02*
G01X18188Y6141D01*
G01X18188Y6141D02*
G01X16141Y6141D01*
G01X16141Y6141D02*
G01X15984Y6299D01*
G54D29*
G01X15984Y6299D03*
G54D28*
G01X21771Y9842D02*
G01X22125Y9842D01*
G01X22125Y9842D02*
G01X22283Y10000D01*
G01X22283Y10000D02*
G01X23070Y10000D01*
G01X23070Y10000D02*
G01X23937Y9133D01*
G01X23937Y9133D02*
G01X23937Y7637D01*
G01X23937Y7637D02*
G01X23149Y6850D01*
G01X23149Y6850D02*
G01X23149Y6535D01*
G01X23149Y6535D02*
G01X22047Y5433D01*
G01X22047Y5433D02*
G01X22047Y4881D01*
G01X22047Y4881D02*
G01X21889Y4724D01*
G01X21889Y4724D02*
G01X21653Y4724D01*
G54D29*
G01X21653Y4724D03*
G54D28*
G01X10196Y7480D02*
G01X10236Y7480D01*
G01X10236Y7480D02*
G01X8661Y7480D01*
G01X8661Y7480D02*
G01X7952Y8188D01*
G01X7952Y8188D02*
G01X7952Y9212D01*
G01X7952Y9212D02*
G01X8818Y10078D01*
G01X8818Y10078D02*
G01X14803Y10078D01*
G01X14803Y10078D02*
G01X14960Y9921D01*
G01X14960Y9921D02*
G01X14960Y9822D01*
G01X24409Y5039D02*
G01X24409Y5511D01*
G01X24409Y5511D02*
G01X24094Y5826D01*
G01X24094Y5826D02*
G01X24094Y9212D01*
G01X24094Y9212D02*
G01X23149Y10157D01*
G01X23149Y10157D02*
G01X22598Y10157D01*
G01X22598Y10157D02*
G01X21653Y11102D01*
G01X21653Y11102D02*
G01X20157Y11102D01*
G01X20157Y11102D02*
G01X18267Y9212D01*
G01X18267Y9212D02*
G01X17795Y9212D01*
G01X17795Y9212D02*
G01X17716Y9133D01*
G01X17716Y9133D02*
G01X17716Y8346D01*
G01X17716Y8346D02*
G01X18188Y7874D01*
G01X18188Y7874D02*
G01X18188Y7086D01*
G01X18188Y7086D02*
G01X17874Y6771D01*
G01X17874Y6771D02*
G01X16692Y6771D01*
G01X16692Y6771D02*
G01X16141Y7322D01*
G01X16141Y7322D02*
G01X16141Y8740D01*
G01X16141Y8740D02*
G01X15826Y9055D01*
G01X15826Y9055D02*
G01X15275Y9055D01*
G01X15275Y9055D02*
G01X14960Y9370D01*
G01X14960Y9370D02*
G01X14960Y9822D01*
G01X21771Y10236D02*
G01X21338Y10236D01*
G01X21338Y10236D02*
G01X20708Y9606D01*
G01X20708Y9606D02*
G01X19763Y9606D01*
G01X19763Y9606D02*
G01X19212Y9055D01*
G01X19212Y9055D02*
G01X18661Y9055D01*
G01X18661Y9055D02*
G01X18681Y9055D01*
G01X21771Y9448D02*
G01X19842Y9448D01*
G01X19842Y9448D02*
G01X19251Y8858D01*
G01X19251Y8858D02*
G01X18681Y8858D01*
G01X10196Y5905D02*
G01X7559Y5905D01*
G01X7559Y5905D02*
G01X6220Y7244D01*
G01X6220Y7244D02*
G01X6220Y8346D01*
G54D29*
G01X6220Y8346D03*
G01X22755Y9685D03*
G54D28*
G01X22755Y9685D02*
G01X22440Y9685D01*
G01X22440Y9685D02*
G01X22204Y9448D01*
G01X22204Y9448D02*
G01X21771Y9448D01*
G01X2362Y8858D02*
G01X3346Y8858D01*
G01X3346Y8858D02*
G01X4094Y8110D01*
G01X4094Y8110D02*
G01X4094Y6614D01*
G01X4094Y6614D02*
G01X4724Y5984D01*
G01X4724Y5984D02*
G01X4724Y5275D01*
G54D29*
G01X4724Y5275D03*
G54D28*
G01X2362Y7874D02*
G01X3385Y7874D01*
G01X3385Y7874D02*
G01X3464Y7795D01*
G01X3464Y7795D02*
G01X3464Y5826D01*
G01X3464Y5826D02*
G01X4724Y4566D01*
G01X4724Y4566D02*
G01X6220Y4566D01*
G01X6220Y4566D02*
G01X6991Y3795D01*
G01X6991Y3795D02*
G01X6991Y2283D01*
G01X14192Y6889D02*
G01X13661Y6889D01*
G01X13661Y6889D02*
G01X13228Y6456D01*
G01X13228Y6456D02*
G01X13228Y4803D01*
G01X13228Y4803D02*
G01X12834Y4409D01*
G01X12834Y4409D02*
G01X11653Y4409D01*
G01X11653Y4409D02*
G01X11181Y3937D01*
G01X11181Y3937D02*
G01X10000Y3937D01*
G01X10000Y3937D02*
G01X8582Y5354D01*
G01X8582Y5354D02*
G01X6299Y5354D01*
G01X6299Y5354D02*
G01X4724Y6929D01*
G01X4724Y6929D02*
G01X4724Y8425D01*
G01X4724Y8425D02*
G01X3543Y9606D01*
G01X3543Y9606D02*
G01X1889Y9606D01*
G01X1889Y9606D02*
G01X1614Y9330D01*
G01X1614Y9330D02*
G01X1614Y8188D01*
G01X1614Y8188D02*
G01X1771Y8031D01*
G01X1771Y8031D02*
G01X1771Y7283D01*
G01X1771Y7283D02*
G01X1968Y7086D01*
G01X1968Y7086D02*
G01X2559Y7086D01*
G01X2559Y7086D02*
G01X2362Y7086D01*
G01X14192Y6102D02*
G01X14094Y6062D01*
G01X14094Y6062D02*
G01X13937Y5905D01*
G01X13937Y5905D02*
G01X13937Y4566D01*
G01X13937Y4566D02*
G01X13464Y4094D01*
G01X13464Y4094D02*
G01X13464Y3779D01*
G01X13464Y3779D02*
G01X13622Y3622D01*
G01X13622Y3622D02*
G01X13937Y3622D01*
G01X13937Y3622D02*
G01X14094Y3464D01*
G01X14094Y3464D02*
G01X14071Y3251D01*
G01X14071Y3251D02*
G01X14071Y2283D01*
G54D32*
G01X1338Y6732D02*
G01X1338Y6771D01*
G01X1338Y6771D02*
G01X1259Y6850D01*
G54D29*
G01X1259Y6850D02*
G01X1259Y7322D01*
G01X1259Y7322D03*
G54D33*
G01X1338Y6732D02*
G01X1338Y6692D01*
G01X1338Y6692D02*
G01X2362Y6692D01*
G54D28*
G01X22440Y11102D02*
G01X22440Y11338D01*
G01X22440Y11338D02*
G01X22362Y11417D01*
G01X22362Y11417D02*
G01X20000Y11417D01*
G01X20000Y11417D02*
G01X18661Y10078D01*
G01X18661Y10078D02*
G01X18031Y10078D01*
G01X18031Y10078D02*
G01X17913Y9960D01*
G01X17913Y9960D02*
G01X17913Y9822D01*
G01X10196Y7874D02*
G01X8740Y7874D01*
G01X8740Y7874D02*
G01X8267Y8346D01*
G01X8267Y8346D02*
G01X8267Y9055D01*
G01X8267Y9055D02*
G01X8976Y9763D01*
G01X8976Y9763D02*
G01X14094Y9763D01*
G01X14094Y9763D02*
G01X15118Y8740D01*
G01X15118Y8740D02*
G01X15669Y8740D01*
G01X15669Y8740D02*
G01X15826Y8582D01*
G01X15826Y8582D02*
G01X15826Y7165D01*
G01X15826Y7165D02*
G01X16535Y6456D01*
G01X16535Y6456D02*
G01X18031Y6456D01*
G01X18031Y6456D02*
G01X18267Y6692D01*
G01X18267Y6692D02*
G01X18681Y6692D01*
G01X18681Y6692D02*
G01X19291Y6692D01*
G01X19291Y6692D02*
G01X19448Y6535D01*
G01X19448Y6535D02*
G01X20866Y6535D01*
G01X20866Y6535D02*
G01X21338Y7007D01*
G01X21338Y7007D02*
G01X21338Y7401D01*
G01X21338Y7401D02*
G01X21417Y7480D01*
G01X21417Y7480D02*
G01X21771Y7480D01*
G01X2362Y7677D02*
G01X2795Y7677D01*
G01X2795Y7677D02*
G01X2992Y7480D01*
G01X2992Y7480D02*
G01X2992Y7165D01*
G54D29*
G01X2992Y7165D03*
G01X5590Y4015D03*
G54D28*
G01X5590Y4015D02*
G01X5811Y3794D01*
G01X5811Y3794D02*
G01X5811Y2283D01*
G01X15551Y5334D02*
G01X15551Y5787D01*
G01X15551Y5787D02*
G01X15354Y5984D01*
G01X15354Y5984D02*
G01X14724Y5984D01*
G01X14724Y5984D02*
G01X14094Y5354D01*
G01X14094Y5354D02*
G01X14094Y3937D01*
G01X14094Y3937D02*
G01X14645Y3385D01*
G01X14645Y3385D02*
G01X14661Y2283D01*
G01X18681Y6299D02*
G01X16456Y6299D01*
G01X16456Y6299D02*
G01X16141Y6614D01*
G01X16141Y6614D02*
G01X15748Y6614D01*
G01X15748Y6614D02*
G01X15669Y6535D01*
G01X15669Y6535D02*
G01X15511Y6456D01*
G54D29*
G01X15511Y6456D03*
G54D28*
G01X21771Y6692D02*
G01X21259Y6692D01*
G01X21259Y6692D02*
G01X20629Y6062D01*
G01X20629Y6062D02*
G01X20629Y4960D01*
G01X20629Y4960D02*
G01X20551Y4881D01*
G01X20551Y4881D02*
G01X20551Y4724D01*
G54D29*
G01X20551Y4724D03*
G54D28*
G01X18681Y6889D02*
G01X19330Y6889D01*
G01X19330Y6889D02*
G01X19527Y6692D01*
G01X19527Y6692D02*
G01X20787Y6692D01*
G01X20787Y6692D02*
G01X21181Y7086D01*
G01X21181Y7086D02*
G01X21181Y7480D01*
G01X21181Y7480D02*
G01X21377Y7677D01*
G01X21377Y7677D02*
G01X21771Y7677D01*
G01X10196Y7677D02*
G01X8700Y7677D01*
G01X8700Y7677D02*
G01X8110Y8267D01*
G01X8110Y8267D02*
G01X8110Y9133D01*
G01X8110Y9133D02*
G01X8897Y9921D01*
G01X8897Y9921D02*
G01X14173Y9921D01*
G01X14173Y9921D02*
G01X15196Y8897D01*
G01X15196Y8897D02*
G01X15748Y8897D01*
G01X15748Y8897D02*
G01X15984Y8661D01*
G01X15984Y8661D02*
G01X15984Y7244D01*
G01X15984Y7244D02*
G01X16614Y6614D01*
G01X16614Y6614D02*
G01X17952Y6614D01*
G01X17952Y6614D02*
G01X18228Y6889D01*
G01X18228Y6889D02*
G01X18681Y6889D01*
G01X17322Y9822D02*
G01X17322Y9448D01*
G01X17322Y9448D02*
G01X17401Y9370D01*
G01X17401Y9370D02*
G01X17401Y8188D01*
G01X17401Y8188D02*
G01X17874Y7716D01*
G01X17874Y7716D02*
G01X17874Y7480D01*
G01X17874Y7480D02*
G01X17637Y7244D01*
G01X17637Y7244D02*
G01X17637Y7244D01*
G01X17637Y7244D02*
G01X17637Y7244D01*
G54D29*
G01X17637Y7244D03*
G54D28*
G01X2362Y4527D02*
G01X4055Y4527D01*
G01X4055Y4527D02*
G01X4631Y3951D01*
G01X4631Y3951D02*
G01X4631Y2283D01*
G01X16338Y5334D02*
G01X16338Y4685D01*
G01X16338Y4685D02*
G01X17007Y4015D01*
G01X17007Y4015D02*
G01X17007Y3228D01*
G01X17007Y3228D02*
G01X17021Y2283D01*
G01X24803Y11102D02*
G01X24803Y10708D01*
G01X24803Y10708D02*
G01X24881Y10629D01*
G01X24881Y10629D02*
G01X27322Y10629D01*
G01X27322Y10629D02*
G01X27637Y10944D01*
G01X27637Y10944D02*
G01X28425Y10944D01*
G01X28425Y10944D02*
G01X28740Y10629D01*
G01X16456Y12007D02*
G01X16456Y12755D01*
G01X16456Y12755D02*
G01X16535Y12755D01*
G54D29*
G01X16535Y12755D03*
G01X25826Y8818D03*
G54D28*
G01X25826Y8818D02*
G01X25826Y8346D01*
G01X25826Y8346D02*
G01X26850Y7322D01*
G01X26850Y7322D02*
G01X27401Y7322D01*
G01X27401Y7322D02*
G01X27440Y7283D01*
G01X27440Y7283D02*
G01X27834Y7283D01*
G01X24212Y11102D02*
G01X24212Y11535D01*
G01X24212Y11535D02*
G01X24015Y11732D01*
G01X24015Y11732D02*
G01X24015Y11968D01*
G01X24015Y11968D02*
G01X23779Y12204D01*
G01X23779Y12204D02*
G01X19606Y12204D01*
G01X19606Y12204D02*
G01X18346Y10944D01*
G01X18346Y10944D02*
G01X17716Y10944D01*
G01X17716Y10944D02*
G01X17401Y11259D01*
G01X17401Y11259D02*
G01X15275Y11259D01*
G01X15275Y11259D02*
G01X15039Y11023D01*
G01X15039Y11023D02*
G01X15039Y10551D01*
G01X15039Y10551D02*
G01X15354Y10236D01*
G01X15354Y10236D02*
G01X15354Y9822D01*
G01X21251Y13464D02*
G01X21259Y13464D01*
G01X21259Y13464D02*
G01X21259Y12598D01*
G01X21259Y12598D02*
G01X21653Y12204D01*
G01X21653Y12204D02*
G01X23779Y12204D01*
G01X23779Y12204D02*
G01X24015Y11968D01*
G01X24015Y11968D02*
G01X24015Y11732D01*
G01X24015Y11732D02*
G01X24212Y11535D01*
G01X24212Y11535D02*
G01X24212Y11102D01*
G01X23031Y11102D02*
G01X23031Y11614D01*
G01X23031Y11614D02*
G01X22913Y11732D01*
G01X22913Y11732D02*
G01X19842Y11732D01*
G01X19842Y11732D02*
G01X18582Y10472D01*
G01X18582Y10472D02*
G01X17716Y10472D01*
G01X17716Y10472D02*
G01X17519Y10275D01*
G01X17519Y10275D02*
G01X17519Y9822D01*
G01X2362Y4724D02*
G01X2007Y4724D01*
G01X2007Y4724D02*
G01X1929Y4645D01*
G01X1929Y4645D02*
G01X1929Y4094D01*
G01X1929Y4094D02*
G01X2086Y3937D01*
G01X2086Y3937D02*
G01X2992Y3937D01*
G01X2992Y3937D02*
G01X3451Y3477D01*
G01X3451Y3477D02*
G01X3451Y2283D01*
G54D29*
G01X27244Y9685D03*
G54D28*
G01X27244Y9685D02*
G01X27401Y9842D01*
G01X27401Y9842D02*
G01X27834Y9842D01*
G01X2362Y5118D02*
G01X1929Y5118D01*
G01X1929Y5118D02*
G01X1614Y4803D01*
G01X1614Y4803D02*
G01X1614Y3897D01*
G01X1614Y3897D02*
G01X1889Y3622D01*
G01X1889Y3622D02*
G01X2125Y3622D01*
G01X2125Y3622D02*
G01X2271Y3476D01*
G01X2271Y3476D02*
G01X2271Y2283D01*
G01X14192Y7086D02*
G01X13622Y7086D01*
G01X13622Y7086D02*
G01X13070Y6535D01*
G01X13070Y6535D02*
G01X13070Y4881D01*
G01X13070Y4881D02*
G01X12755Y4566D01*
G01X12755Y4566D02*
G01X11574Y4566D01*
G01X11574Y4566D02*
G01X11102Y4094D01*
G01X11102Y4094D02*
G01X10078Y4094D01*
G01X10078Y4094D02*
G01X8661Y5511D01*
G01X8661Y5511D02*
G01X6377Y5511D01*
G01X6377Y5511D02*
G01X4881Y7007D01*
G01X4881Y7007D02*
G01X4881Y8503D01*
G01X4881Y8503D02*
G01X3622Y9763D01*
G01X3622Y9763D02*
G01X1811Y9763D01*
G01X1811Y9763D02*
G01X1456Y9409D01*
G01X1456Y9409D02*
G01X1456Y8110D01*
G01X1456Y8110D02*
G01X1614Y7952D01*
G01X1614Y7952D02*
G01X1614Y7204D01*
G01X1614Y7204D02*
G01X1929Y6889D01*
G01X1929Y6889D02*
G01X2362Y6889D01*
G01X24212Y5039D02*
G01X24212Y5472D01*
G01X24212Y5472D02*
G01X23937Y5748D01*
G01X23937Y5748D02*
G01X23937Y6771D01*
G01X23937Y6771D02*
G01X23779Y6929D01*
G01X23779Y6929D02*
G01X23464Y6929D01*
G01X23464Y6929D02*
G01X23307Y6771D01*
G01X23307Y6771D02*
G01X23307Y6456D01*
G01X23307Y6456D02*
G01X22204Y5354D01*
G01X22204Y5354D02*
G01X22204Y4803D01*
G01X22204Y4803D02*
G01X21811Y4409D01*
G01X21811Y4409D02*
G01X20393Y4409D01*
G01X20393Y4409D02*
G01X19685Y5118D01*
G01X19685Y5118D02*
G01X18976Y5118D01*
G01X18976Y5118D02*
G01X18110Y5984D01*
G01X18110Y5984D02*
G01X15590Y5984D01*
G01X15590Y5984D02*
G01X15433Y6141D01*
G01X15433Y6141D02*
G01X14724Y6141D01*
G01X14724Y6141D02*
G01X14645Y6220D01*
G01X14645Y6220D02*
G01X14645Y7007D01*
G01X14645Y7007D02*
G01X14566Y7086D01*
G01X14566Y7086D02*
G01X14192Y7086D01*
G01X2440Y10393D02*
G01X2440Y10078D01*
G01X2440Y10078D02*
G01X2125Y9763D01*
G01X2125Y9763D02*
G01X1811Y9763D01*
G01X1811Y9763D02*
G01X1456Y9409D01*
G01X1456Y9409D02*
G01X1456Y8110D01*
G01X1456Y8110D02*
G01X1614Y7952D01*
G01X1614Y7952D02*
G01X1614Y7204D01*
G01X1614Y7204D02*
G01X1929Y6889D01*
G01X1929Y6889D02*
G01X2362Y6889D01*
G54D29*
G01X25826Y10314D03*
G54D28*
G01X25826Y10314D02*
G01X25826Y9842D01*
G01X25826Y9842D02*
G01X26614Y9055D01*
G01X26614Y9055D02*
G01X27834Y9055D01*
G01X18681Y7086D02*
G01X19370Y7086D01*
G01X19370Y7086D02*
G01X19606Y6850D01*
G01X19606Y6850D02*
G01X20236Y6850D01*
G01X20236Y6850D02*
G01X20551Y7165D01*
G01X20551Y7165D02*
G01X20551Y7086D01*
G54D29*
G01X20551Y7086D03*
G54D28*
G01X2362Y5511D02*
G01X1850Y5511D01*
G01X1850Y5511D02*
G01X1299Y4960D01*
G01X1299Y4960D02*
G01X1299Y3818D01*
G01X1299Y3818D02*
G01X1102Y3622D01*
G01X1102Y3622D02*
G01X1102Y2677D01*
G01X1102Y2677D02*
G01X1091Y2283D01*
G54D29*
G01X787Y3937D03*
G01X4960Y3937D03*
G01X6102Y3937D03*
G54D30*
G01X12301Y1973D02*
G01X12301Y3643D01*
G01X12301Y3643D02*
G01X12007Y3937D01*
G54D29*
G01X12007Y3937D03*
G01X13779Y3937D03*
G01X19040Y3840D03*
G01X29724Y3937D03*
G54D33*
G01X29409Y9645D02*
G01X29409Y9133D01*
G54D29*
G01X29409Y9133D03*
G54D33*
G01X27165Y5039D02*
G01X27165Y5413D01*
G01X27165Y5413D02*
G01X26870Y5708D01*
G54D29*
G01X26870Y5708D03*
G54D33*
G01X28937Y7047D02*
G01X28937Y6555D01*
G01X28937Y6555D02*
G01X28937Y6653D01*
G54D29*
G01X28937Y7047D02*
G01X28937Y6555D01*
G01X28937Y6555D03*
G54D33*
G01X28937Y5905D02*
G01X28937Y5708D01*
G54D29*
G01X28937Y5905D02*
G01X28937Y5413D01*
G01X28937Y5413D03*
G54D33*
G01X27165Y11102D02*
G01X27401Y11338D01*
G01X27401Y11338D02*
G01X27440Y11338D01*
G01X27440Y11338D02*
G01X27480Y11299D01*
G54D29*
G01X27480Y11299D03*
G01X16732Y10708D02*
G01X17165Y10708D01*
G01X17165Y10708D03*
G54D33*
G01X25570Y12007D02*
G01X25590Y12007D01*
G01X8346Y11417D02*
G01X8366Y11417D01*
G01X8366Y11417D02*
G01X7874Y11417D01*
G01X7874Y11417D02*
G01X7775Y11318D01*
G01X7775Y11318D02*
G01X7519Y11033D01*
G01X7519Y11033D02*
G01X7519Y11377D01*
G01X7519Y11377D02*
G01X7283Y11614D01*
G54D29*
G01X7283Y11614D03*
G54D33*
G01X7519Y11033D02*
G01X7519Y11358D01*
G01X7519Y11358D02*
G01X7775Y11614D01*
G54D29*
G01X7775Y11614D03*
G54D33*
G01X7519Y11033D02*
G01X7519Y10669D01*
G01X7519Y10669D02*
G01X7283Y10472D01*
G54D29*
G01X7283Y10472D03*
G54D33*
G01X7519Y11033D02*
G01X7519Y10688D01*
G01X7519Y10688D02*
G01X7755Y10472D01*
G54D29*
G01X7755Y10472D03*
G01X7519Y11033D02*
G01X7519Y11377D01*
G01X7519Y11377D02*
G01X7283Y11614D01*
G01X7283Y11614D02*
G01X7775Y11614D01*
G01X7775Y11614D02*
G01X7775Y10472D01*
G01X7775Y10472D02*
G01X7283Y10472D01*
G01X7283Y10472D02*
G01X7283Y11614D01*
G01X31496Y3937D03*
G01X23778Y4015D02*
G01X23976Y3937D01*
G01X23976Y3937D02*
G01X24330Y3937D01*
G01X24330Y3937D03*
G54D33*
G01X25866Y4173D02*
G01X25866Y4212D01*
G54D29*
G01X25866Y4212D02*
G01X26377Y4212D01*
G01X26377Y4212D03*
G01X5216Y10728D02*
G01X4724Y10728D01*
G01X4724Y10728D03*
G01X5216Y11614D02*
G01X4724Y11614D01*
G01X4724Y11614D03*
G01X15354Y4330D02*
G01X14881Y4330D01*
G01X14881Y4330D03*
G54D33*
G01X15354Y4330D02*
G01X15944Y4921D01*
G01X15944Y4921D02*
G01X15944Y5334D01*
G54D29*
G01X12598Y8425D02*
G01X12598Y8976D01*
G01X12598Y8976D03*
G54D33*
G01X10196Y4921D02*
G01X9803Y4921D01*
G01X9803Y4921D02*
G01X9606Y5118D01*
G54D29*
G01X9606Y5118D03*
G54D33*
G01X10196Y4724D02*
G01X9842Y4724D01*
G01X9842Y4724D02*
G01X9763Y4803D01*
G01X9763Y4803D02*
G01X9763Y4881D01*
G01X9763Y4881D02*
G01X9803Y4921D01*
G01X9803Y4921D02*
G01X10196Y4921D01*
G01X2362Y6496D02*
G01X2874Y6496D01*
G01X2874Y6496D02*
G01X2992Y6614D01*
G54D29*
G01X2992Y6614D03*
G01X20275Y8070D02*
G01X20275Y7598D01*
G01X20275Y7598D03*
G01X20196Y6181D02*
G01X20196Y5669D01*
G01X20196Y5669D03*
G54D28*
G01X23778Y4015D02*
G01X23858Y3937D01*
G01X23858Y3937D02*
G01X24330Y3937D01*
G01X24330Y3937D02*
G01X24330Y4330D01*
G01X24330Y4330D02*
G01X24015Y4645D01*
G01X24015Y4645D02*
G01X24015Y5039D01*
G54D33*
G01X17125Y9822D02*
G01X17125Y9173D01*
G01X17125Y9173D02*
G01X17086Y8976D01*
G54D29*
G01X17086Y8976D03*
G54D33*
G01X18681Y8661D02*
G01X18110Y8661D01*
G01X18110Y8661D02*
G01X18031Y8740D01*
G01X18031Y8740D02*
G01X18031Y8897D01*
G54D29*
G01X18031Y8897D03*
G54D33*
G01X14192Y7480D02*
G01X14645Y7480D01*
G01X14645Y7480D02*
G01X14881Y7716D01*
G54D29*
G01X14881Y7716D03*
G54D33*
G01X21771Y5708D02*
G01X21220Y5708D01*
G01X21220Y5708D02*
G01X21181Y5669D01*
G54D29*
G01X21181Y5669D03*
G01X11771Y7007D02*
G01X11771Y7519D01*
G01X11771Y7519D03*
G01X11771Y8661D02*
G01X11771Y8110D01*
G01X11771Y8110D03*
G54D32*
G01X10000Y12952D02*
G01X9055Y12952D01*
G54D28*
G01X22637Y11102D02*
G01X22637Y10669D01*
G01X22637Y10669D02*
G01X22834Y10472D01*
G01X22834Y10472D02*
G01X23307Y10472D01*
G01X23307Y10472D02*
G01X24409Y9370D01*
G01X24409Y9370D02*
G01X24409Y7322D01*
G01X24409Y7322D02*
G01X24566Y7165D01*
G01X24566Y7165D02*
G01X25905Y7165D01*
G01X25905Y7165D02*
G01X26771Y6299D01*
G01X26771Y6299D02*
G01X26771Y5826D01*
G01X26771Y5826D02*
G01X27165Y5433D01*
G01X27165Y5433D02*
G01X27165Y5039D01*
G54D29*
G01X29409Y8582D02*
G01X29409Y9645D01*
G54D33*
G01X27834Y8464D02*
G01X27244Y8464D01*
G54D29*
G01X27244Y8464D03*
G54D33*
G01X10196Y8661D02*
G01X9842Y8661D01*
G01X9842Y8661D02*
G01X9606Y8897D01*
G01X9606Y8897D02*
G01X9606Y8976D01*
G54D29*
G01X9606Y8976D03*
G01X1338Y5984D02*
G01X748Y5984D01*
G01X748Y5984D03*
G01X25570Y12007D02*
G01X26023Y12007D01*
G01X26023Y12007D03*
G54D33*
G01X27834Y6692D02*
G01X27401Y6692D01*
G01X27401Y6692D02*
G01X27244Y6850D01*
G54D29*
G01X27244Y6850D03*
G54D33*
G01X21771Y10433D02*
G01X21692Y10433D01*
G01X21692Y10433D02*
G01X21496Y10629D01*
G01X21496Y10629D02*
G01X21496Y10787D01*
G54D29*
G01X21496Y10787D03*
G54D33*
G01X15511Y12007D02*
G01X15511Y12362D01*
G54D32*
G01X15511Y12362D02*
G01X15118Y12755D01*
G54D29*
G01X15118Y12755D03*
G54D33*
G01X12913Y11889D02*
G01X13307Y11889D01*
G54D29*
G01X13307Y11889D02*
G01X13307Y11259D01*
G01X13307Y11259D03*
G54D32*
G01X9055Y12952D02*
G01X9488Y12952D01*
G01X9488Y12952D02*
G01X9527Y12913D01*
G01X9527Y12913D02*
G01X9527Y12440D01*
G54D29*
G01X9527Y12440D03*
G54D34*
G01X3110Y10393D02*
G01X4409Y10393D01*
G01X4409Y10393D02*
G01X4724Y10708D01*
G01X4724Y10708D02*
G01X5196Y10708D01*
G01X5196Y10708D02*
G01X5216Y10728D01*
G54D33*
G01X8346Y10649D02*
G01X7539Y10649D01*
G01X7539Y10649D02*
G01X7480Y10708D01*
G01X7480Y10708D02*
G01X7519Y11033D01*
G01X7164Y9763D02*
G01X7242Y10077D01*
G54D29*
G01X7242Y10077D02*
G01X7480Y10314D01*
G01X7480Y10314D02*
G01X7480Y11023D01*
G01X7480Y11023D02*
G01X7519Y11033D01*
G54D28*
G01X30708Y9251D02*
G01X30610Y10137D01*
G01X30610Y10137D02*
G01X30610Y10334D01*
G01X30610Y10334D02*
G01X29330Y11614D01*
G01X29330Y11614D02*
G01X26870Y11614D01*
G01X26870Y11614D02*
G01X26771Y11515D01*
G01X26771Y11515D02*
G01X26771Y11102D01*
G01X29606Y7047D02*
G01X29685Y7007D01*
G01X29685Y7007D02*
G01X30118Y7440D01*
G01X30118Y7440D02*
G01X30118Y8169D01*
G01X30118Y8169D02*
G01X30511Y8562D01*
G01X30511Y8562D02*
G01X30708Y9251D01*
G01X16141Y12007D02*
G01X16141Y12755D01*
G01X16141Y12755D02*
G01X16062Y12755D01*
G54D29*
G01X16062Y12755D03*
G01X26220Y8582D03*
G54D28*
G01X26220Y8582D02*
G01X26062Y8582D01*
G01X26062Y8582D02*
G01X25984Y8503D01*
G01X25984Y8503D02*
G01X25984Y8425D01*
G01X25984Y8425D02*
G01X26929Y7480D01*
G01X26929Y7480D02*
G01X27834Y7480D01*
G01X22637Y5039D02*
G01X22637Y4685D01*
G01X22637Y4685D02*
G01X22519Y4566D01*
G01X22519Y4566D02*
G01X22204Y4566D01*
G01X22204Y4566D02*
G01X21889Y4251D01*
G01X21889Y4251D02*
G01X20314Y4251D01*
G01X20314Y4251D02*
G01X19606Y4960D01*
G01X19606Y4960D02*
G01X18897Y4960D01*
G01X18897Y4960D02*
G01X18031Y5826D01*
G01X18031Y5826D02*
G01X15826Y5826D01*
G01X15826Y5826D02*
G01X15748Y5748D01*
G01X15748Y5748D02*
G01X15748Y5334D01*
G54D29*
G01X23622Y6614D03*
G54D28*
G01X23622Y6614D02*
G01X23622Y5590D01*
G01X23622Y5590D02*
G01X23543Y5511D01*
G01X23543Y5511D02*
G01X22755Y5511D01*
G01X22755Y5511D02*
G01X22637Y5393D01*
G01X22637Y5393D02*
G01X22637Y5039D01*
G01X16535Y9822D02*
G01X16535Y9370D01*
G01X16535Y9370D02*
G01X16456Y9291D01*
G01X16456Y9291D02*
G01X16456Y8582D01*
G01X16456Y8582D02*
G01X16614Y8425D01*
G01X16614Y8425D02*
G01X16614Y7637D01*
G54D29*
G01X16614Y7637D03*
G01X27244Y10157D03*
G54D28*
G01X27244Y10157D02*
G01X27362Y10039D01*
G01X27362Y10039D02*
G01X27834Y10039D01*
G54D35*
G01X14202Y13582D02*
G01X14173Y13681D01*
G01X14173Y13681D02*
G01X14763Y13681D01*
G01X14763Y13681D02*
G01X13681Y13681D01*
G01X18080Y13582D02*
G01X18011Y13090D01*
G01X18011Y13090D02*
G01X18080Y13021D01*
G01X18080Y13021D02*
G01X18080Y12007D01*
G01X14202Y13582D02*
G01X14202Y12007D01*
G01X18080Y13582D02*
G01X18011Y13681D01*
G01X18011Y13681D02*
G01X17519Y13681D01*
G01X17519Y13681D02*
G01X18602Y13681D01*
G01X9055Y13622D02*
G01X9055Y13976D01*
G01X10000Y13622D02*
G01X10000Y13976D01*
G54D28*
G01X18080Y13582D02*
G01X18080Y14438D01*
G01X14202Y13582D02*
G01X14202Y14438D01*
G01X2362Y8464D02*
G01X3267Y8464D01*
G01X3267Y8464D02*
G01X3779Y7952D01*
G01X3779Y7952D02*
G01X3779Y6220D01*
G01X3779Y6220D02*
G01X3937Y6062D01*
G54D29*
G01X3937Y6062D03*
G54D28*
G01X2362Y5708D02*
G01X1811Y5708D01*
G01X1811Y5708D02*
G01X472Y4370D01*
G01X472Y4370D02*
G01X472Y2795D01*
G01X472Y2795D02*
G01X472Y2834D01*
G01X472Y2834D02*
G01X501Y2283D01*
G01X21771Y6496D02*
G01X21299Y6496D01*
G01X21299Y6496D02*
G01X20787Y5984D01*
G01X20787Y5984D02*
G01X20787Y5039D01*
G01X20787Y5039D02*
G01X21102Y4724D01*
G54D29*
G01X21102Y4724D03*
G54D28*
G01X30708Y5905D02*
G01X30708Y6397D01*
G01X30708Y6397D02*
G01X31397Y7086D01*
G01X31397Y7086D02*
G01X31397Y10334D01*
G01X31397Y10334D02*
G01X31102Y10629D01*
G01X31102Y10629D02*
G01X30708Y10629D01*
G01X30708Y10629D02*
G01X29527Y11811D01*
G01X29527Y11811D02*
G01X26771Y11811D01*
G01X26771Y11811D02*
G01X26574Y11614D01*
G01X26574Y11614D02*
G01X26574Y11102D01*
G01X29606Y5905D02*
G01X30708Y5905D01*
G54D29*
G01X26220Y10078D03*
G54D28*
G01X26220Y10078D02*
G01X26062Y10078D01*
G01X26062Y10078D02*
G01X25984Y10000D01*
G01X25984Y10000D02*
G01X25984Y9921D01*
G01X25984Y9921D02*
G01X26692Y9212D01*
G01X26692Y9212D02*
G01X27401Y9212D01*
G01X27401Y9212D02*
G01X27440Y9251D01*
G01X27440Y9251D02*
G01X27834Y9251D01*
G54D31*
G01X5885Y11614D02*
G01X6200Y11614D01*
G01X6200Y11614D02*
G01X6397Y11417D01*
G01X6397Y11417D02*
G01X6692Y11417D01*
G01X6692Y11417D02*
G01X6692Y11712D01*
G01X6692Y11712D02*
G01X6988Y12007D01*
G01X6988Y12007D02*
G01X8070Y12007D01*
G01X8070Y12007D02*
G01X8188Y12125D01*
G01X8188Y12125D02*
G01X8188Y12598D01*
G01X8188Y12598D02*
G01X8149Y12598D01*
G54D30*
G01X10866Y11889D02*
G01X10866Y11811D01*
G01X10866Y11811D02*
G01X8503Y11811D01*
G01X8503Y11811D02*
G01X8149Y12165D01*
G01X8149Y12165D02*
G01X8149Y12598D01*
G54D28*
G01X27834Y6496D02*
G01X27047Y6496D01*
G01X27047Y6496D02*
G01X26062Y7480D01*
G01X26062Y7480D02*
G01X25039Y7480D01*
G01X25039Y7480D02*
G01X24881Y7637D01*
G01X24881Y7637D02*
G01X24881Y8110D01*
G54D29*
G01X24881Y8110D03*
G01X8976Y10787D03*
G54D28*
G01X8976Y10787D02*
G01X8858Y10905D01*
G01X8858Y10905D02*
G01X8346Y10905D01*
G01X2362Y6102D02*
G01X2716Y6102D01*
G01X2716Y6102D02*
G01X3149Y5669D01*
G01X3149Y5669D02*
G01X3149Y5118D01*
G54D29*
G01X3149Y5118D03*
G54D28*
G01X18681Y7283D02*
G01X19881Y7283D01*
G01X19881Y7283D02*
G01X19921Y7244D01*
G01X19921Y7244D02*
G01X19921Y7165D01*
G54D29*
G01X19921Y7165D03*
G54D28*
G01X2362Y5314D02*
G01X1889Y5314D01*
G01X1889Y5314D02*
G01X1456Y4881D01*
G01X1456Y4881D02*
G01X1456Y3818D01*
G01X1456Y3818D02*
G01X1653Y3622D01*
G01X1653Y3622D02*
G01X1653Y3385D01*
G01X1653Y3385D02*
G01X1681Y3357D01*
G01X1681Y3357D02*
G01X1681Y2283D01*
G01X14192Y7283D02*
G01X13582Y7283D01*
G01X13582Y7283D02*
G01X12913Y6614D01*
G01X12913Y6614D02*
G01X12913Y5590D01*
G01X12913Y5590D02*
G01X12440Y5118D01*
G01X12440Y5118D02*
G01X10196Y5118D01*
G01X14192Y8464D02*
G01X15472Y8464D01*
G01X15472Y8464D02*
G01X15669Y8267D01*
G01X15669Y8267D02*
G01X15669Y7086D01*
G01X15669Y7086D02*
G01X15039Y6456D01*
G54D29*
G01X15039Y6456D03*
G54D28*
G01X16929Y9822D02*
G01X16929Y9291D01*
G01X16929Y9291D02*
G01X16850Y9212D01*
G01X16850Y9212D02*
G01X16771Y9133D01*
G01X16771Y9133D02*
G01X16771Y8740D01*
G01X16771Y8740D02*
G01X17165Y8346D01*
G01X17165Y8346D02*
G01X17244Y8267D01*
G01X17244Y8267D02*
G01X17244Y7795D01*
G01X17244Y7795D02*
G01X17401Y7637D01*
G54D29*
G01X17401Y7637D03*
G54D28*
G01X2362Y4921D02*
G01X1968Y4921D01*
G01X1968Y4921D02*
G01X1771Y4724D01*
G01X1771Y4724D02*
G01X1771Y4015D01*
G01X1771Y4015D02*
G01X2007Y3779D01*
G01X2007Y3779D02*
G01X2755Y3779D01*
G01X2755Y3779D02*
G01X2861Y3673D01*
G01X2861Y3673D02*
G01X2861Y2283D01*
G01X10196Y8070D02*
G01X8779Y8070D01*
G01X8779Y8070D02*
G01X8582Y8267D01*
G01X8582Y8267D02*
G01X8582Y9133D01*
G01X8582Y9133D02*
G01X9055Y9606D01*
G01X9055Y9606D02*
G01X13622Y9606D01*
G01X13622Y9606D02*
G01X14173Y9055D01*
G01X14173Y9055D02*
G01X14192Y9055D01*
G01X25984Y5039D02*
G01X25984Y5905D01*
G01X25984Y5905D02*
G01X26141Y6062D01*
G54D29*
G01X26141Y6062D03*
G01X8582Y8582D03*
G54D28*
G01X8582Y8582D02*
G01X8582Y8267D01*
G01X8582Y8267D02*
G01X8779Y8070D01*
G01X8779Y8070D02*
G01X10196Y8070D01*
G01X18681Y7480D02*
G01X18661Y7480D01*
G01X18661Y7480D02*
G01X19488Y7480D01*
G01X19488Y7480D02*
G01X19645Y7637D01*
G01X19645Y7637D02*
G01X19685Y7637D01*
G54D29*
G01X19685Y7637D03*
G54D28*
G01X2362Y8661D02*
G01X3307Y8661D01*
G01X3307Y8661D02*
G01X3937Y8031D01*
G01X3937Y8031D02*
G01X3937Y6535D01*
G01X3937Y6535D02*
G01X4330Y6141D01*
G01X4330Y6141D02*
G01X4330Y5669D01*
G54D29*
G01X4330Y5669D03*
G01X4015Y3937D03*
G54D28*
G01X4015Y3937D02*
G01X4041Y3911D01*
G01X4041Y3911D02*
G01X4041Y2283D01*
G01X17125Y5334D02*
G01X17125Y4842D01*
G01X17125Y4842D02*
G01X17795Y4173D01*
G01X17795Y4173D02*
G01X19212Y4173D01*
G01X19212Y4173D02*
G01X19370Y4015D01*
G01X19370Y4015D02*
G01X19370Y2519D01*
G01X19370Y2519D02*
G01X19381Y2283D01*
G01X14192Y6299D02*
G01X13779Y6299D01*
G01X13779Y6299D02*
G01X13700Y6220D01*
G01X13700Y6220D02*
G01X13700Y4566D01*
G01X13700Y4566D02*
G01X13307Y4173D01*
G01X13307Y4173D02*
G01X13307Y3700D01*
G01X13307Y3700D02*
G01X13481Y3526D01*
G01X13481Y3526D02*
G01X13481Y2283D01*
G01X10196Y8464D02*
G01X9330Y8464D01*
G01X9330Y8464D02*
G01X9212Y8582D01*
G01X9212Y8582D02*
G01X9212Y9133D01*
G01X9212Y9133D02*
G01X9370Y9291D01*
G01X9370Y9291D02*
G01X13464Y9291D01*
G01X13464Y9291D02*
G01X13582Y9173D01*
G01X13582Y9173D02*
G01X13582Y8858D01*
G01X13582Y8858D02*
G01X13779Y8661D01*
G01X13779Y8661D02*
G01X14192Y8661D01*
G01X25787Y5039D02*
G01X25787Y5708D01*
G01X25787Y5708D02*
G01X25826Y5748D01*
G01X25826Y5748D02*
G01X25826Y6771D01*
G54D29*
G01X25826Y6771D03*
G01X9212Y8582D03*
G54D28*
G01X9212Y8582D02*
G01X9291Y8661D01*
G01X9291Y8661D02*
G01X9251Y8661D01*
G01X9251Y8661D02*
G01X9212Y8661D01*
G01X9212Y8661D02*
G01X9212Y8582D01*
G01X9212Y8582D02*
G01X9330Y8464D01*
G01X9330Y8464D02*
G01X10196Y8464D01*
G01X10196Y8267D02*
G01X9055Y8267D01*
G01X9055Y8267D02*
G01X8897Y8425D01*
G01X8897Y8425D02*
G01X8897Y9133D01*
G01X8897Y9133D02*
G01X9212Y9448D01*
G01X9212Y9448D02*
G01X13543Y9448D01*
G01X13543Y9448D02*
G01X13740Y9251D01*
G01X13740Y9251D02*
G01X13740Y8937D01*
G01X13740Y8937D02*
G01X13818Y8858D01*
G01X13818Y8858D02*
G01X14192Y8858D01*
G01X25590Y5039D02*
G01X25590Y5748D01*
G01X25590Y5748D02*
G01X25511Y5826D01*
G01X25511Y5826D02*
G01X25511Y6062D01*
G54D29*
G01X25511Y6062D03*
G01X8897Y8976D03*
G54D28*
G01X8897Y8976D02*
G01X8897Y8425D01*
G01X8897Y8425D02*
G01X9055Y8267D01*
G01X9055Y8267D02*
G01X10236Y8267D01*
G01X10236Y8267D02*
G01X10196Y8267D01*
G01X2362Y5905D02*
G01X2677Y5905D01*
G01X2677Y5905D02*
G01X2834Y5748D01*
G01X2834Y5748D02*
G01X2834Y4881D01*
G01X2834Y4881D02*
G01X2992Y4724D01*
G01X2992Y4724D02*
G01X4094Y4724D01*
G01X4094Y4724D02*
G01X4566Y4251D01*
G01X4566Y4251D02*
G01X5118Y4251D01*
G01X5118Y4251D02*
G01X5275Y4094D01*
G01X5275Y4094D02*
G01X5275Y3543D01*
G01X5275Y3543D02*
G01X5196Y3464D01*
G01X5196Y3464D02*
G01X5196Y2992D01*
G01X5196Y2992D02*
G01X5221Y2283D01*
G01X17913Y5334D02*
G01X17913Y5000D01*
G01X17913Y5000D02*
G01X18110Y4803D01*
G01X18110Y4803D02*
G01X19527Y4803D01*
G01X19527Y4803D02*
G01X20393Y3937D01*
G01X20393Y3937D02*
G01X21259Y3937D01*
G01X21259Y3937D02*
G01X21732Y3464D01*
G01X21732Y3464D02*
G01X21741Y2283D01*
G01X14960Y5334D02*
G01X14960Y5118D01*
G01X14960Y5118D02*
G01X14409Y4566D01*
G01X14409Y4566D02*
G01X14409Y4094D01*
G01X14409Y4094D02*
G01X14724Y3779D01*
G01X14724Y3779D02*
G01X15748Y3779D01*
G01X15748Y3779D02*
G01X15841Y3685D01*
G01X15841Y3685D02*
G01X15841Y2283D01*
G54D33*
G01X25196Y4173D02*
G01X25157Y4212D01*
G54D29*
G01X25157Y4212D02*
G01X24724Y4212D01*
G01X24724Y4212D03*
G54D36*
G01X20944Y8070D02*
G01X20905Y8070D01*
G54D33*
G01X20905Y8070D02*
G01X21771Y8070D01*
G01X16062Y10708D02*
G01X16003Y10708D01*
G54D29*
G01X16003Y10708D02*
G01X15590Y10708D01*
G01X15590Y10708D03*
G54D33*
G01X16062Y10708D02*
G01X16141Y10629D01*
G01X16141Y10629D02*
G01X16141Y9822D01*
G01X24901Y12007D02*
G01X25000Y12007D01*
G01X25000Y12007D02*
G01X25000Y11102D01*
G01X13267Y8425D02*
G01X13188Y8267D01*
G01X13188Y8267D02*
G01X14192Y8267D01*
G54D30*
G01X28740Y9645D02*
G01X28740Y9153D01*
G54D29*
G01X28740Y9153D03*
G54D33*
G01X28740Y9645D02*
G01X27834Y9645D01*
G01X16023Y4330D02*
G01X16141Y4409D01*
G01X16141Y4409D02*
G01X16141Y5334D01*
G54D29*
G01X13267Y8425D02*
G01X13267Y8976D01*
G01X13267Y8976D03*
G01X19527Y6181D02*
G01X19527Y5669D01*
G01X19527Y5669D03*
G54D33*
G01X25196Y4173D02*
G01X25196Y4251D01*
G01X25196Y4251D02*
G01X24803Y4645D01*
G01X24803Y4645D02*
G01X24803Y5039D01*
G54D22*
G01X20944Y8070D02*
G01X20866Y8070D01*
G01X20866Y8070D02*
G01X20866Y7598D01*
G54D29*
G01X20866Y7598D03*
G54D33*
G01X18681Y6496D02*
G01X19055Y6496D01*
G01X19055Y6496D02*
G01X19409Y6141D01*
G01X19409Y6141D02*
G01X19527Y6181D01*
G54D29*
G01X11102Y7007D02*
G01X11102Y7519D01*
G01X11102Y7519D03*
G54D33*
G01X11102Y7007D02*
G01X11102Y6889D01*
G01X11102Y6889D02*
G01X10196Y6889D01*
G54D29*
G01X11102Y8661D02*
G01X11102Y8110D01*
G01X11102Y8110D03*
G54D33*
G01X11102Y8661D02*
G01X11102Y8582D01*
G01X11102Y8582D02*
G01X10826Y8858D01*
G01X10826Y8858D02*
G01X10196Y8858D01*
G01X28740Y8582D02*
G01X28740Y8661D01*
G01X28740Y8661D02*
G01X27834Y8661D01*
G54D29*
G01X28740Y8582D02*
G01X28740Y9645D01*
G54D33*
G01X29409Y10629D02*
G01X29409Y10275D01*
G01X29409Y10275D02*
G01X29291Y10157D01*
G01X29291Y10157D02*
G01X28897Y10157D01*
G01X28897Y10157D02*
G01X28740Y10000D01*
G01X28740Y10000D02*
G01X28740Y9606D01*
G01X28740Y9606D02*
G01X28740Y9645D01*
G01X24901Y12007D02*
G01X24881Y12047D01*
G54D29*
G01X24881Y12047D02*
G01X24881Y12480D01*
G01X24881Y12480D03*
G01X16023Y4330D02*
G01X16220Y4330D01*
G01X16220Y4330D02*
G01X16535Y4015D01*
G01X16535Y4015D03*
G54D33*
G01X5984Y9763D02*
G01X5944Y9645D01*
G54D29*
G01X5944Y9645D02*
G01X5354Y9645D01*
G01X5354Y9645D03*
G54D31*
G01X6692Y10905D02*
G01X6377Y10905D01*
G01X6377Y10905D02*
G01X6299Y10826D01*
G01X6299Y10826D02*
G01X6299Y10551D01*
G01X6299Y10551D02*
G01X6299Y10590D01*
G01X6299Y10590D02*
G01X6299Y10393D01*
G01X6299Y10393D02*
G01X5984Y10078D01*
G01X5984Y10078D02*
G01X5984Y9763D01*
G54D28*
G01X22834Y11102D02*
G01X22834Y11023D01*
G01X22834Y11023D02*
G01X22834Y11496D01*
G01X22834Y11496D02*
G01X22755Y11574D01*
G01X22755Y11574D02*
G01X19921Y11574D01*
G01X19921Y11574D02*
G01X18661Y10314D01*
G01X18661Y10314D02*
G01X17795Y10314D01*
G01X17795Y10314D02*
G01X17716Y10236D01*
G01X17716Y10236D02*
G01X17716Y9822D01*
G01X21771Y8464D02*
G01X20039Y8464D01*
G01X20039Y8464D02*
G01X19251Y7677D01*
G01X19251Y7677D02*
G01X18681Y7677D01*
G01X21771Y8464D02*
G01X22165Y8464D01*
G01X22165Y8464D02*
G01X22519Y8110D01*
G01X22519Y8110D02*
G01X23622Y8110D01*
G54D29*
G01X23622Y8110D03*
G01X7795Y7559D03*
G54D28*
G01X7795Y7559D02*
G01X7795Y7244D01*
G01X7795Y7244D02*
G01X7952Y7086D01*
G01X7952Y7086D02*
G01X10236Y7086D01*
G01X10236Y7086D02*
G01X10196Y7086D01*
G01X16732Y9822D02*
G01X16732Y9330D01*
G01X16732Y9330D02*
G01X16614Y9212D01*
G01X16614Y9212D02*
G01X16614Y8661D01*
G01X16614Y8661D02*
G01X17007Y8267D01*
G01X17007Y8267D02*
G01X17007Y7401D01*
G01X17007Y7401D02*
G01X17165Y7244D01*
G54D29*
G01X17165Y7244D03*

G04 Draw Text*
M00*
M02*
