G04 FreePCB version 1.332*
G04 C:\jag\pcb\jagwave\CAM\inner_copper_2.grb*
G04 inner 2 layer *
G04 Scale: 100 percent, Rotated: No, Reflected: No *
%FSLAX24Y24*%
%MOIN*%
%LNTop*%
%ADD10C,0.066220*%
%ADD11C,0.120551*%
%ADD12C,0.058000*%
%AMTHERM13*7,0,0,0.062000,0.042000,0.010000,0.0*%
%ADD13THERM13*%
%ADD14C,0.001000*%
%ADD15C,0.130000*%
%ADD16C,0.050000*%
%AMTHERM17*7,0,0,0.050000,0.030000,0.010000,0.0*%
%ADD17THERM17*%
%ADD18C,0.042000*%
%ADD19C,0.030000*%
G90*
G70D02*

G04 Step and Repeat for panelization *

G04 ----------------------- Draw copper area (positive)*
G36*
G01X31889Y393D02*
G01X8562Y393D01*
G01X8562Y3641D01*
G01X8070Y4133D01*
G01X7677Y4133D01*
G01X7185Y3641D01*
G01X7185Y393D01*
G01X393Y393D01*
G01X393Y14370D01*
G01X31889Y14370D01*
G01X31889Y393D01*
G37*

G04 -------------------- Draw copper area clearances (negative)*
%LPC*%

G04 Draw clearances for pads*
G54D10*
G01X5118Y12598D03*
G01X4133Y12598D03*
G01X3346Y12598D03*
G01X2362Y12598D03*
G54D11*
G01X6326Y13665D03*
G01X1153Y13665D03*
G54D10*
G01X29921Y12598D03*
G01X28937Y12598D03*
G01X28149Y12598D03*
G01X27165Y12598D03*
G54D11*
G01X31129Y13665D03*
G01X25956Y13665D03*
G54D12*
G01X24251Y13464D03*
G01X23251Y13464D03*
G01X22251Y13464D03*
G01X21251Y13464D03*
G01X20251Y13464D03*
G54D13*
G01X19251Y13464D03*
G54D14*
G54D15*
G01X1181Y11417D03*
G01X31102Y11417D03*

G04 Draw clearances for traces*
G54D16*
G01X27165Y4094D03*
G01X23149Y8425D03*
G01X7480Y8346D03*
G01X25196Y6771D03*
G01X12834Y7716D03*
G01X11102Y6062D03*
G01X8503Y4015D03*
G01X22047Y3937D03*
G01X4488Y9842D03*
G01X23622Y8740D03*
G01X7165Y7559D03*
G01X24881Y6062D03*
G01X13307Y7480D03*
G01X24566Y6771D03*
G01X15354Y7716D03*
G01X22755Y9055D03*
G01X6850Y8346D03*
G01X10787Y4409D03*
G01X27165Y7952D03*
G01X17244Y12755D03*
G01X23228Y9370D03*
G01X6535Y7559D03*
G01X15984Y6299D03*
G01X21653Y4724D03*
G01X6220Y8346D03*
G01X22755Y9685D03*
G01X4724Y5275D03*
G01X1259Y7322D03*
G01X2992Y7165D03*
G01X5590Y4015D03*
G01X15511Y6456D03*
G01X20551Y4724D03*
G01X17637Y7244D03*
G01X16535Y12755D03*
G01X25826Y8818D03*
G01X27244Y9685D03*
G01X25826Y10314D03*
G01X20551Y7086D03*
G01X787Y3937D03*
G01X4960Y3937D03*
G01X6102Y3937D03*
G01X12007Y3937D03*
G01X13779Y3937D03*
G01X19040Y3840D03*
G01X29724Y3937D03*
G01X29409Y9133D03*
G01X26870Y5708D03*
G01X28937Y6555D03*
G01X28937Y5413D03*
G01X27480Y11299D03*
G01X17165Y10708D03*
G01X7283Y11614D03*
G01X7775Y11614D03*
G01X7283Y10472D03*
G01X7755Y10472D03*
G01X31496Y3937D03*
G01X24330Y3937D03*
G01X26377Y4212D03*
G01X4724Y10728D03*
G01X4724Y11614D03*
G01X14881Y4330D03*
G01X12598Y8976D03*
G01X9606Y5118D03*
G01X2992Y6614D03*
G01X20275Y7598D03*
G01X20196Y5669D03*
G01X17086Y8976D03*
G01X18031Y8897D03*
G01X14881Y7716D03*
G01X21181Y5669D03*
G01X11771Y7519D03*
G01X11771Y8110D03*
G01X27244Y8464D03*
G01X9606Y8976D03*
G01X748Y5984D03*
G01X26023Y12007D03*
G01X27244Y6850D03*
G01X21496Y10787D03*
G01X15118Y12755D03*
G01X13307Y11259D03*
G01X9527Y12440D03*
G01X16062Y12755D03*
G01X26220Y8582D03*
G01X23622Y6614D03*
G01X16614Y7637D03*
G01X27244Y10157D03*
G01X3937Y6062D03*
G01X21102Y4724D03*
G01X26220Y10078D03*
G01X24881Y8110D03*
G01X8976Y10787D03*
G01X3149Y5118D03*
G01X19921Y7165D03*
G01X15039Y6456D03*
G01X17401Y7637D03*
G01X26141Y6062D03*
G01X8582Y8582D03*
G01X19685Y7637D03*
G01X4330Y5669D03*
G01X4015Y3937D03*
G01X25826Y6771D03*
G01X9212Y8582D03*
G01X25511Y6062D03*
G01X8897Y8976D03*
G54D17*
G01X24724Y4212D03*
G01X15590Y10708D03*
G01X28740Y9153D03*
G01X13267Y8976D03*
G01X19527Y5669D03*
G01X20866Y7598D03*
G01X11102Y7519D03*
G01X11102Y8110D03*
G01X24881Y12480D03*
G01X16535Y4015D03*
G01X5354Y9645D03*
G54D16*
G01X23622Y8110D03*
G01X7795Y7559D03*
G01X17165Y7244D03*

G04 Draw clearances for text*

G04 -------------- Draw Parts, Pads, Traces, Vias and Text (positive)*
%LPD*%
G04 Draw part J1*
G04 Draw part C11*
G04 Draw part C12*
G04 Draw part C13*
G04 Draw part C14*
G04 Draw part C15*
G04 Draw part C21*
G04 Draw part C22*
G04 Draw part C23*
G04 Draw part C24*
G04 Draw part C31*
G04 Draw part C32*
G04 Draw part U1*
G04 Draw part X8*
G04 Draw part C81*
G04 Draw part C82*
G04 Draw part R11*
G04 Draw part C41*
G04 Draw part C42*
G04 Draw part U2*
G04 Draw part U3*
G04 Draw part U4*
G04 Draw part L5*
G04 Draw part J5*
G04 Draw part J6*
G04 Draw part J7*
G04 Draw part J9*
G54D18*
G01X19251Y13464D03*
G04 Draw part C51*
G04 Draw part M1*
G04 Draw part M2*
G04 Draw part C44*
G04 Draw part C43*
G04 Draw part C71*
G04 Draw part R71*
G04 Draw part C33*
G04 Draw part R12*

G04 Draw traces*
G54D19*
G01X24724Y4212D03*
G01X15590Y10708D03*
G01X28740Y9153D03*
G01X13267Y8976D03*
G01X19527Y5669D03*
G01X20866Y7598D03*
G01X11102Y7519D03*
G01X11102Y8110D03*
G01X24881Y12480D03*
G01X16535Y4015D03*
G01X5354Y9645D03*

G04 Draw Text*
M00*
M02*
