G04 FreePCB version 1.332*
G04 C:\jag\pcb\jagwave\CAM\top_solder_mask.grb*
G04  layer *
G04 Scale: 100 percent, Rotated: No, Reflected: No *
%FSLAX24Y24*%
%MOIN*%
%LNTop*%
%ADD10R,0.074803X0.074803*%
%ADD11C,0.074803*%
%ADD12C,0.145669*%
%ADD13C,0.065748*%
%ADD14C,0.115748*%
%ADD15C,0.015748*%
G90*
G70D02*

G04 Step and Repeat for panelization *

G04 -------------- Draw Parts, Pads, Traces, Vias and Text (positive)*
%LPD*%
G04 Draw part J1*
G36*
G01X272Y1004D02*
G01X272Y3562D01*
G01X730Y3562D01*
G01X730Y1004D01*
G01X272Y1004D01*
G37*
G36*
G01X862Y1004D02*
G01X862Y3562D01*
G01X1320Y3562D01*
G01X1320Y1004D01*
G01X862Y1004D01*
G37*
G36*
G01X1452Y1004D02*
G01X1452Y3562D01*
G01X1910Y3562D01*
G01X1910Y1004D01*
G01X1452Y1004D01*
G37*
G36*
G01X2042Y1004D02*
G01X2042Y3562D01*
G01X2500Y3562D01*
G01X2500Y1004D01*
G01X2042Y1004D01*
G37*
G36*
G01X2632Y1004D02*
G01X2632Y3562D01*
G01X3090Y3562D01*
G01X3090Y1004D01*
G01X2632Y1004D01*
G37*
G36*
G01X3222Y1004D02*
G01X3222Y3562D01*
G01X3680Y3562D01*
G01X3680Y1004D01*
G01X3222Y1004D01*
G37*
G36*
G01X3812Y1004D02*
G01X3812Y3562D01*
G01X4270Y3562D01*
G01X4270Y1004D01*
G01X3812Y1004D01*
G37*
G36*
G01X4402Y1004D02*
G01X4402Y3562D01*
G01X4860Y3562D01*
G01X4860Y1004D01*
G01X4402Y1004D01*
G37*
G36*
G01X4992Y1004D02*
G01X4992Y3562D01*
G01X5450Y3562D01*
G01X5450Y1004D01*
G01X4992Y1004D01*
G37*
G36*
G01X5582Y1004D02*
G01X5582Y3562D01*
G01X6040Y3562D01*
G01X6040Y1004D01*
G01X5582Y1004D01*
G37*
G36*
G01X6172Y1004D02*
G01X6172Y3562D01*
G01X6630Y3562D01*
G01X6630Y1004D01*
G01X6172Y1004D01*
G37*
G36*
G01X6762Y1004D02*
G01X6762Y3562D01*
G01X7220Y3562D01*
G01X7220Y1004D01*
G01X6762Y1004D01*
G37*
G36*
G01X8532Y1004D02*
G01X8532Y3562D01*
G01X8990Y3562D01*
G01X8990Y1004D01*
G01X8532Y1004D01*
G37*
G36*
G01X9122Y1004D02*
G01X9122Y3562D01*
G01X9580Y3562D01*
G01X9580Y1004D01*
G01X9122Y1004D01*
G37*
G36*
G01X9712Y1004D02*
G01X9712Y3562D01*
G01X10170Y3562D01*
G01X10170Y1004D01*
G01X9712Y1004D01*
G37*
G36*
G01X10302Y1004D02*
G01X10302Y3562D01*
G01X10760Y3562D01*
G01X10760Y1004D01*
G01X10302Y1004D01*
G37*
G36*
G01X10892Y1004D02*
G01X10892Y3562D01*
G01X11350Y3562D01*
G01X11350Y1004D01*
G01X10892Y1004D01*
G37*
G36*
G01X11482Y1004D02*
G01X11482Y3562D01*
G01X11940Y3562D01*
G01X11940Y1004D01*
G01X11482Y1004D01*
G37*
G36*
G01X12072Y384D02*
G01X12072Y3562D01*
G01X12530Y3562D01*
G01X12530Y384D01*
G01X12072Y384D01*
G37*
G36*
G01X12662Y1004D02*
G01X12662Y3562D01*
G01X13120Y3562D01*
G01X13120Y1004D01*
G01X12662Y1004D01*
G37*
G36*
G01X13252Y1004D02*
G01X13252Y3562D01*
G01X13710Y3562D01*
G01X13710Y1004D01*
G01X13252Y1004D01*
G37*
G36*
G01X13842Y1004D02*
G01X13842Y3562D01*
G01X14300Y3562D01*
G01X14300Y1004D01*
G01X13842Y1004D01*
G37*
G36*
G01X14432Y1004D02*
G01X14432Y3562D01*
G01X14890Y3562D01*
G01X14890Y1004D01*
G01X14432Y1004D01*
G37*
G36*
G01X15022Y1004D02*
G01X15022Y3562D01*
G01X15480Y3562D01*
G01X15480Y1004D01*
G01X15022Y1004D01*
G37*
G36*
G01X15612Y1004D02*
G01X15612Y3562D01*
G01X16070Y3562D01*
G01X16070Y1004D01*
G01X15612Y1004D01*
G37*
G36*
G01X16202Y1004D02*
G01X16202Y3562D01*
G01X16660Y3562D01*
G01X16660Y1004D01*
G01X16202Y1004D01*
G37*
G36*
G01X16792Y1004D02*
G01X16792Y3562D01*
G01X17250Y3562D01*
G01X17250Y1004D01*
G01X16792Y1004D01*
G37*
G36*
G01X17382Y1004D02*
G01X17382Y3562D01*
G01X17840Y3562D01*
G01X17840Y1004D01*
G01X17382Y1004D01*
G37*
G36*
G01X17972Y1004D02*
G01X17972Y3562D01*
G01X18430Y3562D01*
G01X18430Y1004D01*
G01X17972Y1004D01*
G37*
G36*
G01X18562Y1004D02*
G01X18562Y3562D01*
G01X19020Y3562D01*
G01X19020Y1004D01*
G01X18562Y1004D01*
G37*
G36*
G01X19152Y1004D02*
G01X19152Y3562D01*
G01X19610Y3562D01*
G01X19610Y1004D01*
G01X19152Y1004D01*
G37*
G36*
G01X19742Y1004D02*
G01X19742Y3562D01*
G01X20200Y3562D01*
G01X20200Y1004D01*
G01X19742Y1004D01*
G37*
G36*
G01X20332Y1004D02*
G01X20332Y3562D01*
G01X20790Y3562D01*
G01X20790Y1004D01*
G01X20332Y1004D01*
G37*
G36*
G01X20922Y1004D02*
G01X20922Y3562D01*
G01X21380Y3562D01*
G01X21380Y1004D01*
G01X20922Y1004D01*
G37*
G36*
G01X21512Y1004D02*
G01X21512Y3562D01*
G01X21970Y3562D01*
G01X21970Y1004D01*
G01X21512Y1004D01*
G37*
G36*
G01X22102Y384D02*
G01X22102Y3562D01*
G01X22560Y3562D01*
G01X22560Y384D01*
G01X22102Y384D01*
G37*
G36*
G01X22692Y1004D02*
G01X22692Y3562D01*
G01X23150Y3562D01*
G01X23150Y1004D01*
G01X22692Y1004D01*
G37*
G36*
G01X23282Y1004D02*
G01X23282Y3562D01*
G01X23740Y3562D01*
G01X23740Y1004D01*
G01X23282Y1004D01*
G37*
G36*
G01X23872Y1004D02*
G01X23872Y3562D01*
G01X24330Y3562D01*
G01X24330Y1004D01*
G01X23872Y1004D01*
G37*
G36*
G01X24462Y1004D02*
G01X24462Y3562D01*
G01X24920Y3562D01*
G01X24920Y1004D01*
G01X24462Y1004D01*
G37*
G36*
G01X25052Y1004D02*
G01X25052Y3562D01*
G01X25510Y3562D01*
G01X25510Y1004D01*
G01X25052Y1004D01*
G37*
G36*
G01X25642Y1004D02*
G01X25642Y3562D01*
G01X26100Y3562D01*
G01X26100Y1004D01*
G01X25642Y1004D01*
G37*
G36*
G01X26232Y1004D02*
G01X26232Y3562D01*
G01X26690Y3562D01*
G01X26690Y1004D01*
G01X26232Y1004D01*
G37*
G36*
G01X26822Y1004D02*
G01X26822Y3562D01*
G01X27280Y3562D01*
G01X27280Y1004D01*
G01X26822Y1004D01*
G37*
G36*
G01X27412Y1004D02*
G01X27412Y3562D01*
G01X27870Y3562D01*
G01X27870Y1004D01*
G01X27412Y1004D01*
G37*
G36*
G01X28002Y1004D02*
G01X28002Y3562D01*
G01X28460Y3562D01*
G01X28460Y1004D01*
G01X28002Y1004D01*
G37*
G36*
G01X28592Y1004D02*
G01X28592Y3562D01*
G01X29050Y3562D01*
G01X29050Y1004D01*
G01X28592Y1004D01*
G37*
G36*
G01X29182Y1004D02*
G01X29182Y3562D01*
G01X29640Y3562D01*
G01X29640Y1004D01*
G01X29182Y1004D01*
G37*
G36*
G01X29772Y1004D02*
G01X29772Y3562D01*
G01X30230Y3562D01*
G01X30230Y1004D01*
G01X29772Y1004D01*
G37*
G36*
G01X30362Y1004D02*
G01X30362Y3562D01*
G01X30820Y3562D01*
G01X30820Y1004D01*
G01X30362Y1004D01*
G37*
G36*
G01X30952Y1004D02*
G01X30952Y3562D01*
G01X31410Y3562D01*
G01X31410Y1004D01*
G01X30952Y1004D01*
G37*
G36*
G01X31542Y1004D02*
G01X31542Y3562D01*
G01X32000Y3562D01*
G01X32000Y1004D01*
G01X31542Y1004D01*
G37*
G04 Draw part C11*
G36*
G01X24606Y11692D02*
G01X24606Y12322D01*
G01X25196Y12322D01*
G01X25196Y11692D01*
G01X24606Y11692D01*
G37*
G36*
G01X25275Y11692D02*
G01X25275Y12322D01*
G01X25866Y12322D01*
G01X25866Y11692D01*
G01X25275Y11692D01*
G37*
G04 Draw part C12*
G36*
G01X28444Y9330D02*
G01X28444Y9960D01*
G01X29035Y9960D01*
G01X29035Y9330D01*
G01X28444Y9330D01*
G37*
G36*
G01X29114Y9330D02*
G01X29114Y9960D01*
G01X29704Y9960D01*
G01X29704Y9330D01*
G01X29114Y9330D01*
G37*
G04 Draw part C13*
G36*
G01X28444Y8267D02*
G01X28444Y8897D01*
G01X29035Y8897D01*
G01X29035Y8267D01*
G01X28444Y8267D01*
G37*
G36*
G01X29114Y8267D02*
G01X29114Y8897D01*
G01X29704Y8897D01*
G01X29704Y8267D01*
G01X29114Y8267D01*
G37*
G04 Draw part C14*
G36*
G01X24901Y3858D02*
G01X24901Y4488D01*
G01X25492Y4488D01*
G01X25492Y3858D01*
G01X24901Y3858D01*
G37*
G36*
G01X25570Y3858D02*
G01X25570Y4488D01*
G01X26161Y4488D01*
G01X26161Y3858D01*
G01X25570Y3858D01*
G37*
G04 Draw part C15*
G36*
G01X19980Y7755D02*
G01X19980Y8385D01*
G01X20570Y8385D01*
G01X20570Y7755D01*
G01X19980Y7755D01*
G37*
G36*
G01X20649Y7755D02*
G01X20649Y8385D01*
G01X21240Y8385D01*
G01X21240Y7755D01*
G01X20649Y7755D01*
G37*
G04 Draw part C21*
G36*
G01X15767Y10393D02*
G01X15767Y11023D01*
G01X16358Y11023D01*
G01X16358Y10393D01*
G01X15767Y10393D01*
G37*
G36*
G01X16437Y10393D02*
G01X16437Y11023D01*
G01X17027Y11023D01*
G01X17027Y10393D01*
G01X16437Y10393D01*
G37*
G04 Draw part C22*
G36*
G01X19232Y5866D02*
G01X19232Y6496D01*
G01X19822Y6496D01*
G01X19822Y5866D01*
G01X19232Y5866D01*
G37*
G36*
G01X19901Y5866D02*
G01X19901Y6496D01*
G01X20492Y6496D01*
G01X20492Y5866D01*
G01X19901Y5866D01*
G37*
G04 Draw part C23*
G36*
G01X15059Y4015D02*
G01X15059Y4645D01*
G01X15649Y4645D01*
G01X15649Y4015D01*
G01X15059Y4015D01*
G37*
G36*
G01X15728Y4015D02*
G01X15728Y4645D01*
G01X16318Y4645D01*
G01X16318Y4015D01*
G01X15728Y4015D01*
G37*
G04 Draw part C24*
G36*
G01X12303Y8110D02*
G01X12303Y8740D01*
G01X12893Y8740D01*
G01X12893Y8110D01*
G01X12303Y8110D01*
G37*
G36*
G01X12972Y8110D02*
G01X12972Y8740D01*
G01X13562Y8740D01*
G01X13562Y8110D01*
G01X12972Y8110D01*
G37*
G04 Draw part C31*
G36*
G01X10807Y8346D02*
G01X10807Y8976D01*
G01X11397Y8976D01*
G01X11397Y8346D01*
G01X10807Y8346D01*
G37*
G36*
G01X11476Y8346D02*
G01X11476Y8976D01*
G01X12066Y8976D01*
G01X12066Y8346D01*
G01X11476Y8346D01*
G37*
G04 Draw part C32*
G36*
G01X10807Y6692D02*
G01X10807Y7322D01*
G01X11397Y7322D01*
G01X11397Y6692D01*
G01X10807Y6692D01*
G37*
G36*
G01X11476Y6692D02*
G01X11476Y7322D01*
G01X12066Y7322D01*
G01X12066Y6692D01*
G01X11476Y6692D01*
G37*
G04 Draw part U1*
G36*
G01X27440Y5571D02*
G01X27440Y5845D01*
G01X28228Y5845D01*
G01X28228Y5571D01*
G01X27440Y5571D01*
G37*
G36*
G01X27440Y5768D02*
G01X27440Y6042D01*
G01X28228Y6042D01*
G01X28228Y5768D01*
G01X27440Y5768D01*
G37*
G36*
G01X27440Y5965D02*
G01X27440Y6239D01*
G01X28228Y6239D01*
G01X28228Y5965D01*
G01X27440Y5965D01*
G37*
G36*
G01X27440Y6162D02*
G01X27440Y6436D01*
G01X28228Y6436D01*
G01X28228Y6162D01*
G01X27440Y6162D01*
G37*
G36*
G01X27440Y6358D02*
G01X27440Y6633D01*
G01X28228Y6633D01*
G01X28228Y6358D01*
G01X27440Y6358D01*
G37*
G36*
G01X27440Y6555D02*
G01X27440Y6830D01*
G01X28228Y6830D01*
G01X28228Y6555D01*
G01X27440Y6555D01*
G37*
G36*
G01X27440Y6752D02*
G01X27440Y7026D01*
G01X28228Y7026D01*
G01X28228Y6752D01*
G01X27440Y6752D01*
G37*
G36*
G01X27440Y6949D02*
G01X27440Y7223D01*
G01X28228Y7223D01*
G01X28228Y6949D01*
G01X27440Y6949D01*
G37*
G36*
G01X27440Y7146D02*
G01X27440Y7420D01*
G01X28228Y7420D01*
G01X28228Y7146D01*
G01X27440Y7146D01*
G37*
G36*
G01X27440Y7343D02*
G01X27440Y7617D01*
G01X28228Y7617D01*
G01X28228Y7343D01*
G01X27440Y7343D01*
G37*
G36*
G01X27440Y7539D02*
G01X27440Y7814D01*
G01X28228Y7814D01*
G01X28228Y7539D01*
G01X27440Y7539D01*
G37*
G36*
G01X27440Y7736D02*
G01X27440Y8011D01*
G01X28228Y8011D01*
G01X28228Y7736D01*
G01X27440Y7736D01*
G37*
G36*
G01X27440Y7933D02*
G01X27440Y8208D01*
G01X28228Y8208D01*
G01X28228Y7933D01*
G01X27440Y7933D01*
G37*
G36*
G01X27440Y8130D02*
G01X27440Y8404D01*
G01X28228Y8404D01*
G01X28228Y8130D01*
G01X27440Y8130D01*
G37*
G36*
G01X27440Y8327D02*
G01X27440Y8601D01*
G01X28228Y8601D01*
G01X28228Y8327D01*
G01X27440Y8327D01*
G37*
G36*
G01X27440Y8524D02*
G01X27440Y8798D01*
G01X28228Y8798D01*
G01X28228Y8524D01*
G01X27440Y8524D01*
G37*
G36*
G01X27440Y8721D02*
G01X27440Y8995D01*
G01X28228Y8995D01*
G01X28228Y8721D01*
G01X27440Y8721D01*
G37*
G36*
G01X27440Y8917D02*
G01X27440Y9192D01*
G01X28228Y9192D01*
G01X28228Y8917D01*
G01X27440Y8917D01*
G37*
G36*
G01X27440Y9114D02*
G01X27440Y9389D01*
G01X28228Y9389D01*
G01X28228Y9114D01*
G01X27440Y9114D01*
G37*
G36*
G01X27440Y9311D02*
G01X27440Y9586D01*
G01X28228Y9586D01*
G01X28228Y9311D01*
G01X27440Y9311D01*
G37*
G36*
G01X27440Y9508D02*
G01X27440Y9782D01*
G01X28228Y9782D01*
G01X28228Y9508D01*
G01X27440Y9508D01*
G37*
G36*
G01X27440Y9705D02*
G01X27440Y9979D01*
G01X28228Y9979D01*
G01X28228Y9705D01*
G01X27440Y9705D01*
G37*
G36*
G01X27440Y9902D02*
G01X27440Y10176D01*
G01X28228Y10176D01*
G01X28228Y9902D01*
G01X27440Y9902D01*
G37*
G36*
G01X27440Y10099D02*
G01X27440Y10373D01*
G01X28228Y10373D01*
G01X28228Y10099D01*
G01X27440Y10099D01*
G37*
G36*
G01X27440Y10295D02*
G01X27440Y10570D01*
G01X28228Y10570D01*
G01X28228Y10295D01*
G01X27440Y10295D01*
G37*
G36*
G01X27028Y10708D02*
G01X27028Y11496D01*
G01X27302Y11496D01*
G01X27302Y10708D01*
G01X27028Y10708D01*
G37*
G36*
G01X26831Y10708D02*
G01X26831Y11496D01*
G01X27105Y11496D01*
G01X27105Y10708D01*
G01X26831Y10708D01*
G37*
G36*
G01X26634Y10708D02*
G01X26634Y11496D01*
G01X26908Y11496D01*
G01X26908Y10708D01*
G01X26634Y10708D01*
G37*
G36*
G01X26437Y10708D02*
G01X26437Y11496D01*
G01X26712Y11496D01*
G01X26712Y10708D01*
G01X26437Y10708D01*
G37*
G36*
G01X26240Y10708D02*
G01X26240Y11496D01*
G01X26515Y11496D01*
G01X26515Y10708D01*
G01X26240Y10708D01*
G37*
G36*
G01X26043Y10708D02*
G01X26043Y11496D01*
G01X26318Y11496D01*
G01X26318Y10708D01*
G01X26043Y10708D01*
G37*
G36*
G01X25847Y10708D02*
G01X25847Y11496D01*
G01X26121Y11496D01*
G01X26121Y10708D01*
G01X25847Y10708D01*
G37*
G36*
G01X25650Y10708D02*
G01X25650Y11496D01*
G01X25924Y11496D01*
G01X25924Y10708D01*
G01X25650Y10708D01*
G37*
G36*
G01X25453Y10708D02*
G01X25453Y11496D01*
G01X25727Y11496D01*
G01X25727Y10708D01*
G01X25453Y10708D01*
G37*
G36*
G01X25256Y10708D02*
G01X25256Y11496D01*
G01X25530Y11496D01*
G01X25530Y10708D01*
G01X25256Y10708D01*
G37*
G36*
G01X25059Y10708D02*
G01X25059Y11496D01*
G01X25334Y11496D01*
G01X25334Y10708D01*
G01X25059Y10708D01*
G37*
G36*
G01X24862Y10708D02*
G01X24862Y11496D01*
G01X25137Y11496D01*
G01X25137Y10708D01*
G01X24862Y10708D01*
G37*
G36*
G01X24665Y10708D02*
G01X24665Y11496D01*
G01X24940Y11496D01*
G01X24940Y10708D01*
G01X24665Y10708D01*
G37*
G36*
G01X24469Y10708D02*
G01X24469Y11496D01*
G01X24743Y11496D01*
G01X24743Y10708D01*
G01X24469Y10708D01*
G37*
G36*
G01X24272Y10708D02*
G01X24272Y11496D01*
G01X24546Y11496D01*
G01X24546Y10708D01*
G01X24272Y10708D01*
G37*
G36*
G01X24075Y10708D02*
G01X24075Y11496D01*
G01X24349Y11496D01*
G01X24349Y10708D01*
G01X24075Y10708D01*
G37*
G36*
G01X23878Y10708D02*
G01X23878Y11496D01*
G01X24152Y11496D01*
G01X24152Y10708D01*
G01X23878Y10708D01*
G37*
G36*
G01X23681Y10708D02*
G01X23681Y11496D01*
G01X23956Y11496D01*
G01X23956Y10708D01*
G01X23681Y10708D01*
G37*
G36*
G01X23484Y10708D02*
G01X23484Y11496D01*
G01X23759Y11496D01*
G01X23759Y10708D01*
G01X23484Y10708D01*
G37*
G36*
G01X23287Y10708D02*
G01X23287Y11496D01*
G01X23562Y11496D01*
G01X23562Y10708D01*
G01X23287Y10708D01*
G37*
G36*
G01X23091Y10708D02*
G01X23091Y11496D01*
G01X23365Y11496D01*
G01X23365Y10708D01*
G01X23091Y10708D01*
G37*
G36*
G01X22894Y10708D02*
G01X22894Y11496D01*
G01X23168Y11496D01*
G01X23168Y10708D01*
G01X22894Y10708D01*
G37*
G36*
G01X22697Y10708D02*
G01X22697Y11496D01*
G01X22971Y11496D01*
G01X22971Y10708D01*
G01X22697Y10708D01*
G37*
G36*
G01X22500Y10708D02*
G01X22500Y11496D01*
G01X22774Y11496D01*
G01X22774Y10708D01*
G01X22500Y10708D01*
G37*
G36*
G01X22303Y10708D02*
G01X22303Y11496D01*
G01X22578Y11496D01*
G01X22578Y10708D01*
G01X22303Y10708D01*
G37*
G36*
G01X21377Y10295D02*
G01X21377Y10570D01*
G01X22165Y10570D01*
G01X22165Y10295D01*
G01X21377Y10295D01*
G37*
G36*
G01X21377Y10099D02*
G01X21377Y10373D01*
G01X22165Y10373D01*
G01X22165Y10099D01*
G01X21377Y10099D01*
G37*
G36*
G01X21377Y9902D02*
G01X21377Y10176D01*
G01X22165Y10176D01*
G01X22165Y9902D01*
G01X21377Y9902D01*
G37*
G36*
G01X21377Y9705D02*
G01X21377Y9979D01*
G01X22165Y9979D01*
G01X22165Y9705D01*
G01X21377Y9705D01*
G37*
G36*
G01X21377Y9508D02*
G01X21377Y9782D01*
G01X22165Y9782D01*
G01X22165Y9508D01*
G01X21377Y9508D01*
G37*
G36*
G01X21377Y9311D02*
G01X21377Y9586D01*
G01X22165Y9586D01*
G01X22165Y9311D01*
G01X21377Y9311D01*
G37*
G36*
G01X21377Y9114D02*
G01X21377Y9389D01*
G01X22165Y9389D01*
G01X22165Y9114D01*
G01X21377Y9114D01*
G37*
G36*
G01X21377Y8917D02*
G01X21377Y9192D01*
G01X22165Y9192D01*
G01X22165Y8917D01*
G01X21377Y8917D01*
G37*
G36*
G01X21377Y8721D02*
G01X21377Y8995D01*
G01X22165Y8995D01*
G01X22165Y8721D01*
G01X21377Y8721D01*
G37*
G36*
G01X21377Y8524D02*
G01X21377Y8798D01*
G01X22165Y8798D01*
G01X22165Y8524D01*
G01X21377Y8524D01*
G37*
G36*
G01X21377Y8327D02*
G01X21377Y8601D01*
G01X22165Y8601D01*
G01X22165Y8327D01*
G01X21377Y8327D01*
G37*
G36*
G01X21377Y8130D02*
G01X21377Y8404D01*
G01X22165Y8404D01*
G01X22165Y8130D01*
G01X21377Y8130D01*
G37*
G36*
G01X21377Y7933D02*
G01X21377Y8208D01*
G01X22165Y8208D01*
G01X22165Y7933D01*
G01X21377Y7933D01*
G37*
G36*
G01X21377Y7736D02*
G01X21377Y8011D01*
G01X22165Y8011D01*
G01X22165Y7736D01*
G01X21377Y7736D01*
G37*
G36*
G01X21377Y7539D02*
G01X21377Y7814D01*
G01X22165Y7814D01*
G01X22165Y7539D01*
G01X21377Y7539D01*
G37*
G36*
G01X21377Y7343D02*
G01X21377Y7617D01*
G01X22165Y7617D01*
G01X22165Y7343D01*
G01X21377Y7343D01*
G37*
G36*
G01X21377Y7146D02*
G01X21377Y7420D01*
G01X22165Y7420D01*
G01X22165Y7146D01*
G01X21377Y7146D01*
G37*
G36*
G01X21377Y6949D02*
G01X21377Y7223D01*
G01X22165Y7223D01*
G01X22165Y6949D01*
G01X21377Y6949D01*
G37*
G36*
G01X21377Y6752D02*
G01X21377Y7026D01*
G01X22165Y7026D01*
G01X22165Y6752D01*
G01X21377Y6752D01*
G37*
G36*
G01X21377Y6555D02*
G01X21377Y6830D01*
G01X22165Y6830D01*
G01X22165Y6555D01*
G01X21377Y6555D01*
G37*
G36*
G01X21377Y6358D02*
G01X21377Y6633D01*
G01X22165Y6633D01*
G01X22165Y6358D01*
G01X21377Y6358D01*
G37*
G36*
G01X21377Y6162D02*
G01X21377Y6436D01*
G01X22165Y6436D01*
G01X22165Y6162D01*
G01X21377Y6162D01*
G37*
G36*
G01X21377Y5965D02*
G01X21377Y6239D01*
G01X22165Y6239D01*
G01X22165Y5965D01*
G01X21377Y5965D01*
G37*
G36*
G01X21377Y5768D02*
G01X21377Y6042D01*
G01X22165Y6042D01*
G01X22165Y5768D01*
G01X21377Y5768D01*
G37*
G36*
G01X21377Y5571D02*
G01X21377Y5845D01*
G01X22165Y5845D01*
G01X22165Y5571D01*
G01X21377Y5571D01*
G37*
G36*
G01X22303Y4645D02*
G01X22303Y5433D01*
G01X22578Y5433D01*
G01X22578Y4645D01*
G01X22303Y4645D01*
G37*
G36*
G01X22500Y4645D02*
G01X22500Y5433D01*
G01X22774Y5433D01*
G01X22774Y4645D01*
G01X22500Y4645D01*
G37*
G36*
G01X22697Y4645D02*
G01X22697Y5433D01*
G01X22971Y5433D01*
G01X22971Y4645D01*
G01X22697Y4645D01*
G37*
G36*
G01X22894Y4645D02*
G01X22894Y5433D01*
G01X23168Y5433D01*
G01X23168Y4645D01*
G01X22894Y4645D01*
G37*
G36*
G01X23091Y4645D02*
G01X23091Y5433D01*
G01X23365Y5433D01*
G01X23365Y4645D01*
G01X23091Y4645D01*
G37*
G36*
G01X23287Y4645D02*
G01X23287Y5433D01*
G01X23562Y5433D01*
G01X23562Y4645D01*
G01X23287Y4645D01*
G37*
G36*
G01X23484Y4645D02*
G01X23484Y5433D01*
G01X23759Y5433D01*
G01X23759Y4645D01*
G01X23484Y4645D01*
G37*
G36*
G01X23681Y4645D02*
G01X23681Y5433D01*
G01X23956Y5433D01*
G01X23956Y4645D01*
G01X23681Y4645D01*
G37*
G36*
G01X23878Y4645D02*
G01X23878Y5433D01*
G01X24152Y5433D01*
G01X24152Y4645D01*
G01X23878Y4645D01*
G37*
G36*
G01X24075Y4645D02*
G01X24075Y5433D01*
G01X24349Y5433D01*
G01X24349Y4645D01*
G01X24075Y4645D01*
G37*
G36*
G01X24272Y4645D02*
G01X24272Y5433D01*
G01X24546Y5433D01*
G01X24546Y4645D01*
G01X24272Y4645D01*
G37*
G36*
G01X24469Y4645D02*
G01X24469Y5433D01*
G01X24743Y5433D01*
G01X24743Y4645D01*
G01X24469Y4645D01*
G37*
G36*
G01X24665Y4645D02*
G01X24665Y5433D01*
G01X24940Y5433D01*
G01X24940Y4645D01*
G01X24665Y4645D01*
G37*
G36*
G01X24862Y4645D02*
G01X24862Y5433D01*
G01X25137Y5433D01*
G01X25137Y4645D01*
G01X24862Y4645D01*
G37*
G36*
G01X25059Y4645D02*
G01X25059Y5433D01*
G01X25334Y5433D01*
G01X25334Y4645D01*
G01X25059Y4645D01*
G37*
G36*
G01X25256Y4645D02*
G01X25256Y5433D01*
G01X25530Y5433D01*
G01X25530Y4645D01*
G01X25256Y4645D01*
G37*
G36*
G01X25453Y4645D02*
G01X25453Y5433D01*
G01X25727Y5433D01*
G01X25727Y4645D01*
G01X25453Y4645D01*
G37*
G36*
G01X25650Y4645D02*
G01X25650Y5433D01*
G01X25924Y5433D01*
G01X25924Y4645D01*
G01X25650Y4645D01*
G37*
G36*
G01X25847Y4645D02*
G01X25847Y5433D01*
G01X26121Y5433D01*
G01X26121Y4645D01*
G01X25847Y4645D01*
G37*
G36*
G01X26043Y4645D02*
G01X26043Y5433D01*
G01X26318Y5433D01*
G01X26318Y4645D01*
G01X26043Y4645D01*
G37*
G36*
G01X26240Y4645D02*
G01X26240Y5433D01*
G01X26515Y5433D01*
G01X26515Y4645D01*
G01X26240Y4645D01*
G37*
G36*
G01X26437Y4645D02*
G01X26437Y5433D01*
G01X26712Y5433D01*
G01X26712Y4645D01*
G01X26437Y4645D01*
G37*
G36*
G01X26634Y4645D02*
G01X26634Y5433D01*
G01X26908Y5433D01*
G01X26908Y4645D01*
G01X26634Y4645D01*
G37*
G36*
G01X26831Y4645D02*
G01X26831Y5433D01*
G01X27105Y5433D01*
G01X27105Y4645D01*
G01X26831Y4645D01*
G37*
G36*
G01X27028Y4645D02*
G01X27028Y5433D01*
G01X27302Y5433D01*
G01X27302Y4645D01*
G01X27028Y4645D01*
G37*
G04 Draw part X8*
G36*
G01X30236Y8090D02*
G01X30236Y10413D01*
G01X31181Y10413D01*
G01X31181Y8090D01*
G01X30236Y8090D01*
G37*
G36*
G01X30236Y4744D02*
G01X30236Y7066D01*
G01X31181Y7066D01*
G01X31181Y4744D01*
G01X30236Y4744D01*
G37*
G04 Draw part C81*
G36*
G01X28641Y6732D02*
G01X28641Y7362D01*
G01X29232Y7362D01*
G01X29232Y6732D01*
G01X28641Y6732D01*
G37*
G36*
G01X29311Y6732D02*
G01X29311Y7362D01*
G01X29901Y7362D01*
G01X29901Y6732D01*
G01X29311Y6732D01*
G37*
G04 Draw part C82*
G36*
G01X28641Y5590D02*
G01X28641Y6220D01*
G01X29232Y6220D01*
G01X29232Y5590D01*
G01X28641Y5590D01*
G37*
G36*
G01X29311Y5590D02*
G01X29311Y6220D01*
G01X29901Y6220D01*
G01X29901Y5590D01*
G01X29311Y5590D01*
G37*
G04 Draw part R11*
G36*
G01X28444Y10314D02*
G01X28444Y10944D01*
G01X29035Y10944D01*
G01X29035Y10314D01*
G01X28444Y10314D01*
G37*
G36*
G01X29114Y10314D02*
G01X29114Y10944D01*
G01X29704Y10944D01*
G01X29704Y10314D01*
G01X29114Y10314D01*
G37*
G04 Draw part C41*
G36*
G01X4921Y11299D02*
G01X4921Y11929D01*
G01X5511Y11929D01*
G01X5511Y11299D01*
G01X4921Y11299D01*
G37*
G36*
G01X5590Y11299D02*
G01X5590Y11929D01*
G01X6181Y11929D01*
G01X6181Y11299D01*
G01X5590Y11299D01*
G37*
G04 Draw part C42*
G36*
G01X4921Y10413D02*
G01X4921Y11043D01*
G01X5511Y11043D01*
G01X5511Y10413D01*
G01X4921Y10413D01*
G37*
G36*
G01X5590Y10413D02*
G01X5590Y11043D01*
G01X6181Y11043D01*
G01X6181Y10413D01*
G01X5590Y10413D01*
G37*
G04 Draw part U2*
G36*
G01X18287Y5965D02*
G01X18287Y6239D01*
G01X19074Y6239D01*
G01X19074Y5965D01*
G01X18287Y5965D01*
G37*
G36*
G01X18287Y6162D02*
G01X18287Y6436D01*
G01X19074Y6436D01*
G01X19074Y6162D01*
G01X18287Y6162D01*
G37*
G36*
G01X18287Y6358D02*
G01X18287Y6633D01*
G01X19074Y6633D01*
G01X19074Y6358D01*
G01X18287Y6358D01*
G37*
G36*
G01X18287Y6555D02*
G01X18287Y6830D01*
G01X19074Y6830D01*
G01X19074Y6555D01*
G01X18287Y6555D01*
G37*
G36*
G01X18287Y6752D02*
G01X18287Y7026D01*
G01X19074Y7026D01*
G01X19074Y6752D01*
G01X18287Y6752D01*
G37*
G36*
G01X18287Y6949D02*
G01X18287Y7223D01*
G01X19074Y7223D01*
G01X19074Y6949D01*
G01X18287Y6949D01*
G37*
G36*
G01X18287Y7146D02*
G01X18287Y7420D01*
G01X19074Y7420D01*
G01X19074Y7146D01*
G01X18287Y7146D01*
G37*
G36*
G01X18287Y7343D02*
G01X18287Y7617D01*
G01X19074Y7617D01*
G01X19074Y7343D01*
G01X18287Y7343D01*
G37*
G36*
G01X18287Y7539D02*
G01X18287Y7814D01*
G01X19074Y7814D01*
G01X19074Y7539D01*
G01X18287Y7539D01*
G37*
G36*
G01X18287Y7736D02*
G01X18287Y8011D01*
G01X19074Y8011D01*
G01X19074Y7736D01*
G01X18287Y7736D01*
G37*
G36*
G01X18287Y7933D02*
G01X18287Y8208D01*
G01X19074Y8208D01*
G01X19074Y7933D01*
G01X18287Y7933D01*
G37*
G36*
G01X18287Y8130D02*
G01X18287Y8404D01*
G01X19074Y8404D01*
G01X19074Y8130D01*
G01X18287Y8130D01*
G37*
G36*
G01X18287Y8327D02*
G01X18287Y8601D01*
G01X19074Y8601D01*
G01X19074Y8327D01*
G01X18287Y8327D01*
G37*
G36*
G01X18287Y8524D02*
G01X18287Y8798D01*
G01X19074Y8798D01*
G01X19074Y8524D01*
G01X18287Y8524D01*
G37*
G36*
G01X18287Y8721D02*
G01X18287Y8995D01*
G01X19074Y8995D01*
G01X19074Y8721D01*
G01X18287Y8721D01*
G37*
G36*
G01X18287Y8917D02*
G01X18287Y9192D01*
G01X19074Y9192D01*
G01X19074Y8917D01*
G01X18287Y8917D01*
G37*
G36*
G01X17776Y9429D02*
G01X17776Y10216D01*
G01X18050Y10216D01*
G01X18050Y9429D01*
G01X17776Y9429D01*
G37*
G36*
G01X17579Y9429D02*
G01X17579Y10216D01*
G01X17853Y10216D01*
G01X17853Y9429D01*
G01X17579Y9429D01*
G37*
G36*
G01X17382Y9429D02*
G01X17382Y10216D01*
G01X17656Y10216D01*
G01X17656Y9429D01*
G01X17382Y9429D01*
G37*
G36*
G01X17185Y9429D02*
G01X17185Y10216D01*
G01X17460Y10216D01*
G01X17460Y9429D01*
G01X17185Y9429D01*
G37*
G36*
G01X16988Y9429D02*
G01X16988Y10216D01*
G01X17263Y10216D01*
G01X17263Y9429D01*
G01X16988Y9429D01*
G37*
G36*
G01X16791Y9429D02*
G01X16791Y10216D01*
G01X17066Y10216D01*
G01X17066Y9429D01*
G01X16791Y9429D01*
G37*
G36*
G01X16595Y9429D02*
G01X16595Y10216D01*
G01X16869Y10216D01*
G01X16869Y9429D01*
G01X16595Y9429D01*
G37*
G36*
G01X16398Y9429D02*
G01X16398Y10216D01*
G01X16672Y10216D01*
G01X16672Y9429D01*
G01X16398Y9429D01*
G37*
G36*
G01X16201Y9429D02*
G01X16201Y10216D01*
G01X16475Y10216D01*
G01X16475Y9429D01*
G01X16201Y9429D01*
G37*
G36*
G01X16004Y9429D02*
G01X16004Y10216D01*
G01X16278Y10216D01*
G01X16278Y9429D01*
G01X16004Y9429D01*
G37*
G36*
G01X15807Y9429D02*
G01X15807Y10216D01*
G01X16082Y10216D01*
G01X16082Y9429D01*
G01X15807Y9429D01*
G37*
G36*
G01X15610Y9429D02*
G01X15610Y10216D01*
G01X15885Y10216D01*
G01X15885Y9429D01*
G01X15610Y9429D01*
G37*
G36*
G01X15413Y9429D02*
G01X15413Y10216D01*
G01X15688Y10216D01*
G01X15688Y9429D01*
G01X15413Y9429D01*
G37*
G36*
G01X15217Y9429D02*
G01X15217Y10216D01*
G01X15491Y10216D01*
G01X15491Y9429D01*
G01X15217Y9429D01*
G37*
G36*
G01X15020Y9429D02*
G01X15020Y10216D01*
G01X15294Y10216D01*
G01X15294Y9429D01*
G01X15020Y9429D01*
G37*
G36*
G01X14823Y9429D02*
G01X14823Y10216D01*
G01X15097Y10216D01*
G01X15097Y9429D01*
G01X14823Y9429D01*
G37*
G36*
G01X13799Y8917D02*
G01X13799Y9192D01*
G01X14586Y9192D01*
G01X14586Y8917D01*
G01X13799Y8917D01*
G37*
G36*
G01X13799Y8721D02*
G01X13799Y8995D01*
G01X14586Y8995D01*
G01X14586Y8721D01*
G01X13799Y8721D01*
G37*
G36*
G01X13799Y8524D02*
G01X13799Y8798D01*
G01X14586Y8798D01*
G01X14586Y8524D01*
G01X13799Y8524D01*
G37*
G36*
G01X13799Y8327D02*
G01X13799Y8601D01*
G01X14586Y8601D01*
G01X14586Y8327D01*
G01X13799Y8327D01*
G37*
G36*
G01X13799Y8130D02*
G01X13799Y8404D01*
G01X14586Y8404D01*
G01X14586Y8130D01*
G01X13799Y8130D01*
G37*
G36*
G01X13799Y7933D02*
G01X13799Y8208D01*
G01X14586Y8208D01*
G01X14586Y7933D01*
G01X13799Y7933D01*
G37*
G36*
G01X13799Y7736D02*
G01X13799Y8011D01*
G01X14586Y8011D01*
G01X14586Y7736D01*
G01X13799Y7736D01*
G37*
G36*
G01X13799Y7539D02*
G01X13799Y7814D01*
G01X14586Y7814D01*
G01X14586Y7539D01*
G01X13799Y7539D01*
G37*
G36*
G01X13799Y7343D02*
G01X13799Y7617D01*
G01X14586Y7617D01*
G01X14586Y7343D01*
G01X13799Y7343D01*
G37*
G36*
G01X13799Y7146D02*
G01X13799Y7420D01*
G01X14586Y7420D01*
G01X14586Y7146D01*
G01X13799Y7146D01*
G37*
G36*
G01X13799Y6949D02*
G01X13799Y7223D01*
G01X14586Y7223D01*
G01X14586Y6949D01*
G01X13799Y6949D01*
G37*
G36*
G01X13799Y6752D02*
G01X13799Y7026D01*
G01X14586Y7026D01*
G01X14586Y6752D01*
G01X13799Y6752D01*
G37*
G36*
G01X13799Y6555D02*
G01X13799Y6830D01*
G01X14586Y6830D01*
G01X14586Y6555D01*
G01X13799Y6555D01*
G37*
G36*
G01X13799Y6358D02*
G01X13799Y6633D01*
G01X14586Y6633D01*
G01X14586Y6358D01*
G01X13799Y6358D01*
G37*
G36*
G01X13799Y6162D02*
G01X13799Y6436D01*
G01X14586Y6436D01*
G01X14586Y6162D01*
G01X13799Y6162D01*
G37*
G36*
G01X13799Y5965D02*
G01X13799Y6239D01*
G01X14586Y6239D01*
G01X14586Y5965D01*
G01X13799Y5965D01*
G37*
G36*
G01X14823Y4940D02*
G01X14823Y5728D01*
G01X15097Y5728D01*
G01X15097Y4940D01*
G01X14823Y4940D01*
G37*
G36*
G01X15020Y4940D02*
G01X15020Y5728D01*
G01X15294Y5728D01*
G01X15294Y4940D01*
G01X15020Y4940D01*
G37*
G36*
G01X15217Y4940D02*
G01X15217Y5728D01*
G01X15491Y5728D01*
G01X15491Y4940D01*
G01X15217Y4940D01*
G37*
G36*
G01X15413Y4940D02*
G01X15413Y5728D01*
G01X15688Y5728D01*
G01X15688Y4940D01*
G01X15413Y4940D01*
G37*
G36*
G01X15610Y4940D02*
G01X15610Y5728D01*
G01X15885Y5728D01*
G01X15885Y4940D01*
G01X15610Y4940D01*
G37*
G36*
G01X15807Y4940D02*
G01X15807Y5728D01*
G01X16082Y5728D01*
G01X16082Y4940D01*
G01X15807Y4940D01*
G37*
G36*
G01X16004Y4940D02*
G01X16004Y5728D01*
G01X16278Y5728D01*
G01X16278Y4940D01*
G01X16004Y4940D01*
G37*
G36*
G01X16201Y4940D02*
G01X16201Y5728D01*
G01X16475Y5728D01*
G01X16475Y4940D01*
G01X16201Y4940D01*
G37*
G36*
G01X16398Y4940D02*
G01X16398Y5728D01*
G01X16672Y5728D01*
G01X16672Y4940D01*
G01X16398Y4940D01*
G37*
G36*
G01X16595Y4940D02*
G01X16595Y5728D01*
G01X16869Y5728D01*
G01X16869Y4940D01*
G01X16595Y4940D01*
G37*
G36*
G01X16791Y4940D02*
G01X16791Y5728D01*
G01X17066Y5728D01*
G01X17066Y4940D01*
G01X16791Y4940D01*
G37*
G36*
G01X16988Y4940D02*
G01X16988Y5728D01*
G01X17263Y5728D01*
G01X17263Y4940D01*
G01X16988Y4940D01*
G37*
G36*
G01X17185Y4940D02*
G01X17185Y5728D01*
G01X17460Y5728D01*
G01X17460Y4940D01*
G01X17185Y4940D01*
G37*
G36*
G01X17382Y4940D02*
G01X17382Y5728D01*
G01X17656Y5728D01*
G01X17656Y4940D01*
G01X17382Y4940D01*
G37*
G36*
G01X17579Y4940D02*
G01X17579Y5728D01*
G01X17853Y5728D01*
G01X17853Y4940D01*
G01X17579Y4940D01*
G37*
G36*
G01X17776Y4940D02*
G01X17776Y5728D01*
G01X18050Y5728D01*
G01X18050Y4940D01*
G01X17776Y4940D01*
G37*
G04 Draw part U3*
G36*
G01X1998Y8917D02*
G01X1998Y9192D01*
G01X2726Y9192D01*
G01X2726Y8917D01*
G01X1998Y8917D01*
G37*
G36*
G01X1998Y8721D02*
G01X1998Y8995D01*
G01X2726Y8995D01*
G01X2726Y8721D01*
G01X1998Y8721D01*
G37*
G36*
G01X1998Y8524D02*
G01X1998Y8798D01*
G01X2726Y8798D01*
G01X2726Y8524D01*
G01X1998Y8524D01*
G37*
G36*
G01X1998Y8327D02*
G01X1998Y8601D01*
G01X2726Y8601D01*
G01X2726Y8327D01*
G01X1998Y8327D01*
G37*
G36*
G01X1998Y8130D02*
G01X1998Y8404D01*
G01X2726Y8404D01*
G01X2726Y8130D01*
G01X1998Y8130D01*
G37*
G36*
G01X1998Y7933D02*
G01X1998Y8208D01*
G01X2726Y8208D01*
G01X2726Y7933D01*
G01X1998Y7933D01*
G37*
G36*
G01X1998Y7736D02*
G01X1998Y8011D01*
G01X2726Y8011D01*
G01X2726Y7736D01*
G01X1998Y7736D01*
G37*
G36*
G01X1998Y7539D02*
G01X1998Y7814D01*
G01X2726Y7814D01*
G01X2726Y7539D01*
G01X1998Y7539D01*
G37*
G36*
G01X1998Y7343D02*
G01X1998Y7617D01*
G01X2726Y7617D01*
G01X2726Y7343D01*
G01X1998Y7343D01*
G37*
G36*
G01X1998Y7146D02*
G01X1998Y7420D01*
G01X2726Y7420D01*
G01X2726Y7146D01*
G01X1998Y7146D01*
G37*
G36*
G01X1998Y6949D02*
G01X1998Y7223D01*
G01X2726Y7223D01*
G01X2726Y6949D01*
G01X1998Y6949D01*
G37*
G36*
G01X1998Y6752D02*
G01X1998Y7026D01*
G01X2726Y7026D01*
G01X2726Y6752D01*
G01X1998Y6752D01*
G37*
G36*
G01X1998Y6555D02*
G01X1998Y6830D01*
G01X2726Y6830D01*
G01X2726Y6555D01*
G01X1998Y6555D01*
G37*
G36*
G01X1998Y6358D02*
G01X1998Y6633D01*
G01X2726Y6633D01*
G01X2726Y6358D01*
G01X1998Y6358D01*
G37*
G36*
G01X1998Y6162D02*
G01X1998Y6436D01*
G01X2726Y6436D01*
G01X2726Y6162D01*
G01X1998Y6162D01*
G37*
G36*
G01X1998Y5965D02*
G01X1998Y6239D01*
G01X2726Y6239D01*
G01X2726Y5965D01*
G01X1998Y5965D01*
G37*
G36*
G01X1998Y5768D02*
G01X1998Y6042D01*
G01X2726Y6042D01*
G01X2726Y5768D01*
G01X1998Y5768D01*
G37*
G36*
G01X1998Y5571D02*
G01X1998Y5845D01*
G01X2726Y5845D01*
G01X2726Y5571D01*
G01X1998Y5571D01*
G37*
G36*
G01X1998Y5374D02*
G01X1998Y5649D01*
G01X2726Y5649D01*
G01X2726Y5374D01*
G01X1998Y5374D01*
G37*
G36*
G01X1998Y5177D02*
G01X1998Y5452D01*
G01X2726Y5452D01*
G01X2726Y5177D01*
G01X1998Y5177D01*
G37*
G36*
G01X1998Y4980D02*
G01X1998Y5255D01*
G01X2726Y5255D01*
G01X2726Y4980D01*
G01X1998Y4980D01*
G37*
G36*
G01X1998Y4784D02*
G01X1998Y5058D01*
G01X2726Y5058D01*
G01X2726Y4784D01*
G01X1998Y4784D01*
G37*
G36*
G01X1998Y4587D02*
G01X1998Y4861D01*
G01X2726Y4861D01*
G01X2726Y4587D01*
G01X1998Y4587D01*
G37*
G36*
G01X1998Y4390D02*
G01X1998Y4664D01*
G01X2726Y4664D01*
G01X2726Y4390D01*
G01X1998Y4390D01*
G37*
G36*
G01X9832Y4390D02*
G01X9832Y4664D01*
G01X10561Y4664D01*
G01X10561Y4390D01*
G01X9832Y4390D01*
G37*
G36*
G01X9832Y4587D02*
G01X9832Y4861D01*
G01X10561Y4861D01*
G01X10561Y4587D01*
G01X9832Y4587D01*
G37*
G36*
G01X9832Y4784D02*
G01X9832Y5058D01*
G01X10561Y5058D01*
G01X10561Y4784D01*
G01X9832Y4784D01*
G37*
G36*
G01X9832Y4980D02*
G01X9832Y5255D01*
G01X10561Y5255D01*
G01X10561Y4980D01*
G01X9832Y4980D01*
G37*
G36*
G01X9832Y5177D02*
G01X9832Y5452D01*
G01X10561Y5452D01*
G01X10561Y5177D01*
G01X9832Y5177D01*
G37*
G36*
G01X9832Y5374D02*
G01X9832Y5649D01*
G01X10561Y5649D01*
G01X10561Y5374D01*
G01X9832Y5374D01*
G37*
G36*
G01X9832Y5571D02*
G01X9832Y5845D01*
G01X10561Y5845D01*
G01X10561Y5571D01*
G01X9832Y5571D01*
G37*
G36*
G01X9832Y5768D02*
G01X9832Y6042D01*
G01X10561Y6042D01*
G01X10561Y5768D01*
G01X9832Y5768D01*
G37*
G36*
G01X9832Y5965D02*
G01X9832Y6239D01*
G01X10561Y6239D01*
G01X10561Y5965D01*
G01X9832Y5965D01*
G37*
G36*
G01X9832Y6162D02*
G01X9832Y6436D01*
G01X10561Y6436D01*
G01X10561Y6162D01*
G01X9832Y6162D01*
G37*
G36*
G01X9832Y6358D02*
G01X9832Y6633D01*
G01X10561Y6633D01*
G01X10561Y6358D01*
G01X9832Y6358D01*
G37*
G36*
G01X9832Y6555D02*
G01X9832Y6830D01*
G01X10561Y6830D01*
G01X10561Y6555D01*
G01X9832Y6555D01*
G37*
G36*
G01X9832Y6752D02*
G01X9832Y7026D01*
G01X10561Y7026D01*
G01X10561Y6752D01*
G01X9832Y6752D01*
G37*
G36*
G01X9832Y6949D02*
G01X9832Y7223D01*
G01X10561Y7223D01*
G01X10561Y6949D01*
G01X9832Y6949D01*
G37*
G36*
G01X9832Y7146D02*
G01X9832Y7420D01*
G01X10561Y7420D01*
G01X10561Y7146D01*
G01X9832Y7146D01*
G37*
G36*
G01X9832Y7343D02*
G01X9832Y7617D01*
G01X10561Y7617D01*
G01X10561Y7343D01*
G01X9832Y7343D01*
G37*
G36*
G01X9832Y7539D02*
G01X9832Y7814D01*
G01X10561Y7814D01*
G01X10561Y7539D01*
G01X9832Y7539D01*
G37*
G36*
G01X9832Y7736D02*
G01X9832Y8011D01*
G01X10561Y8011D01*
G01X10561Y7736D01*
G01X9832Y7736D01*
G37*
G36*
G01X9832Y7933D02*
G01X9832Y8208D01*
G01X10561Y8208D01*
G01X10561Y7933D01*
G01X9832Y7933D01*
G37*
G36*
G01X9832Y8130D02*
G01X9832Y8404D01*
G01X10561Y8404D01*
G01X10561Y8130D01*
G01X9832Y8130D01*
G37*
G36*
G01X9832Y8327D02*
G01X9832Y8601D01*
G01X10561Y8601D01*
G01X10561Y8327D01*
G01X9832Y8327D01*
G37*
G36*
G01X9832Y8524D02*
G01X9832Y8798D01*
G01X10561Y8798D01*
G01X10561Y8524D01*
G01X9832Y8524D01*
G37*
G36*
G01X9832Y8721D02*
G01X9832Y8995D01*
G01X10561Y8995D01*
G01X10561Y8721D01*
G01X9832Y8721D01*
G37*
G36*
G01X9832Y8917D02*
G01X9832Y9192D01*
G01X10561Y9192D01*
G01X10561Y8917D01*
G01X9832Y8917D01*
G37*
G04 Draw part U4*
G36*
G01X6387Y11250D02*
G01X6387Y11584D01*
G01X6998Y11584D01*
G01X6998Y11250D01*
G01X6387Y11250D01*
G37*
G36*
G01X6387Y10994D02*
G01X6387Y11328D01*
G01X6998Y11328D01*
G01X6998Y10994D01*
G01X6387Y10994D01*
G37*
G36*
G01X6387Y10738D02*
G01X6387Y11072D01*
G01X6998Y11072D01*
G01X6998Y10738D01*
G01X6387Y10738D01*
G37*
G36*
G01X6387Y10482D02*
G01X6387Y10816D01*
G01X6998Y10816D01*
G01X6998Y10482D01*
G01X6387Y10482D01*
G37*
G36*
G01X8041Y10482D02*
G01X8041Y10816D01*
G01X8651Y10816D01*
G01X8651Y10482D01*
G01X8041Y10482D01*
G37*
G36*
G01X8041Y10738D02*
G01X8041Y11072D01*
G01X8651Y11072D01*
G01X8651Y10738D01*
G01X8041Y10738D01*
G37*
G36*
G01X8041Y10994D02*
G01X8041Y11328D01*
G01X8651Y11328D01*
G01X8651Y10994D01*
G01X8041Y10994D01*
G37*
G36*
G01X8041Y11250D02*
G01X8041Y11584D01*
G01X8651Y11584D01*
G01X8651Y11250D01*
G01X8041Y11250D01*
G37*
G36*
G01X7076Y10590D02*
G01X7076Y11476D01*
G01X7962Y11476D01*
G01X7962Y10590D01*
G01X7076Y10590D01*
G37*
G04 Draw part L5*
G36*
G01X7066Y12204D02*
G01X7066Y12992D01*
G01X7736Y12992D01*
G01X7736Y12204D01*
G01X7066Y12204D01*
G37*
G36*
G01X7814Y12204D02*
G01X7814Y12992D01*
G01X8484Y12992D01*
G01X8484Y12204D01*
G01X7814Y12204D01*
G37*
G04 Draw part J5*
G54D10*
G01X5118Y12598D03*
G54D11*
G01X4133Y12598D03*
G01X3346Y12598D03*
G01X2362Y12598D03*
G54D12*
G01X6326Y13665D03*
G01X1153Y13665D03*
G04 Draw part J6*
G54D10*
G01X29921Y12598D03*
G54D11*
G01X28937Y12598D03*
G01X28149Y12598D03*
G01X27165Y12598D03*
G54D12*
G01X31129Y13665D03*
G01X25956Y13665D03*
G04 Draw part J7*
G36*
G01X16594Y11486D02*
G01X16594Y12529D01*
G01X16948Y12529D01*
G01X16948Y11486D01*
G01X16594Y11486D01*
G37*
G36*
G01X16279Y11486D02*
G01X16279Y12529D01*
G01X16633Y12529D01*
G01X16633Y11486D01*
G01X16279Y11486D01*
G37*
G36*
G01X15964Y11486D02*
G01X15964Y12529D01*
G01X16318Y12529D01*
G01X16318Y11486D01*
G01X15964Y11486D01*
G37*
G36*
G01X15649Y11486D02*
G01X15649Y12529D01*
G01X16003Y12529D01*
G01X16003Y11486D01*
G01X15649Y11486D01*
G37*
G36*
G01X15334Y11486D02*
G01X15334Y12529D01*
G01X15688Y12529D01*
G01X15688Y11486D01*
G01X15334Y11486D01*
G37*
G36*
G01X17598Y11240D02*
G01X17598Y12775D01*
G01X18562Y12775D01*
G01X18562Y11240D01*
G01X17598Y11240D01*
G37*
G36*
G01X13720Y11240D02*
G01X13720Y12775D01*
G01X14685Y12775D01*
G01X14685Y11240D01*
G01X13720Y11240D01*
G37*
G36*
G01X17598Y12795D02*
G01X17598Y14370D01*
G01X18562Y14370D01*
G01X18562Y12795D01*
G01X17598Y12795D01*
G37*
G36*
G01X13720Y12795D02*
G01X13720Y14370D01*
G01X14685Y14370D01*
G01X14685Y12795D01*
G01X13720Y12795D01*
G37*
G04 Draw part J9*
G54D13*
G01X24251Y13464D03*
G01X23251Y13464D03*
G01X22251Y13464D03*
G01X21251Y13464D03*
G01X20251Y13464D03*
G01X19251Y13464D03*
G04 Draw part C51*
G36*
G01X10196Y11515D02*
G01X10196Y12263D01*
G01X11535Y12263D01*
G01X11535Y11515D01*
G01X10196Y11515D01*
G37*
G36*
G01X12244Y11515D02*
G01X12244Y12263D01*
G01X13582Y12263D01*
G01X13582Y11515D01*
G01X12244Y11515D01*
G37*
G04 Draw part M1*
G54D14*
G01X1181Y11417D03*
G04 Draw part M2*
G01X31102Y11417D03*
G04 Draw part C44*
G36*
G01X22249Y3582D02*
G01X22249Y4449D01*
G01X22947Y4449D01*
G01X22947Y3582D01*
G01X22249Y3582D01*
G37*
G36*
G01X23429Y3582D02*
G01X23429Y4449D01*
G01X24127Y4449D01*
G01X24127Y3582D01*
G01X23429Y3582D01*
G37*
G04 Draw part C43*
G36*
G01X5635Y9330D02*
G01X5635Y10197D01*
G01X6332Y10197D01*
G01X6332Y9330D01*
G01X5635Y9330D01*
G37*
G36*
G01X6815Y9330D02*
G01X6815Y10197D01*
G01X7512Y10197D01*
G01X7512Y9330D01*
G01X6815Y9330D01*
G37*
G04 Draw part C71*
G36*
G01X8740Y13326D02*
G01X8740Y13917D01*
G01X9370Y13917D01*
G01X9370Y13326D01*
G01X8740Y13326D01*
G37*
G36*
G01X8740Y12657D02*
G01X8740Y13248D01*
G01X9370Y13248D01*
G01X9370Y12657D01*
G01X8740Y12657D01*
G37*
G04 Draw part R71*
G36*
G01X9685Y13326D02*
G01X9685Y13917D01*
G01X10314Y13917D01*
G01X10314Y13326D01*
G01X9685Y13326D01*
G37*
G36*
G01X9685Y12657D02*
G01X9685Y13248D01*
G01X10314Y13248D01*
G01X10314Y12657D01*
G01X9685Y12657D01*
G37*
G04 Draw part C33*
G36*
G01X944Y5649D02*
G01X944Y6318D01*
G01X1732Y6318D01*
G01X1732Y5649D01*
G01X944Y5649D01*
G37*
G36*
G01X944Y6397D02*
G01X944Y7066D01*
G01X1732Y7066D01*
G01X1732Y6397D01*
G01X944Y6397D01*
G37*
G04 Draw part R12*
G36*
G01X2145Y10078D02*
G01X2145Y10708D01*
G01X2736Y10708D01*
G01X2736Y10078D01*
G01X2145Y10078D01*
G37*
G36*
G01X2814Y10078D02*
G01X2814Y10708D01*
G01X3405Y10708D01*
G01X3405Y10078D01*
G01X2814Y10078D01*
G37*

G04 Draw traces*

G04 Draw Text*
G54D15*

G04 Draw solder mask cutouts*
G36*
G01X0Y3444D02*
G01X32283Y3444D01*
G01X32283Y0D01*
G01X0Y0D01*
G01X0Y3444D01*
G37*
G01X0Y3444D02*
G01X32283Y3444D01*
G01X32283Y0D01*
G01X0Y0D01*
G01X0Y3444D01*
M00*
M02*
