G04 FreePCB version 1.332*
G04 C:\jag\pcb\jagwave\CAM\bottom_solder_mask.grb*
G04  layer *
G04 Scale: 100 percent, Rotated: No, Reflected: No *
%FSLAX24Y24*%
%MOIN*%
%LNTop*%
%ADD10R,0.074803X0.074803*%
%ADD11C,0.074803*%
%ADD12C,0.145669*%
%ADD13C,0.065748*%
%ADD14C,0.115748*%
%ADD15C,0.015748*%
G90*
G70D02*

G04 Step and Repeat for panelization *

G04 -------------- Draw Parts, Pads, Traces, Vias and Text (positive)*
%LPD*%
G04 Draw part J1*
G36*
G01X31542Y384D02*
G01X31542Y3562D01*
G01X32000Y3562D01*
G01X32000Y384D01*
G01X31542Y384D01*
G37*
G36*
G01X30952Y384D02*
G01X30952Y3562D01*
G01X31410Y3562D01*
G01X31410Y384D01*
G01X30952Y384D01*
G37*
G36*
G01X30362Y1004D02*
G01X30362Y3562D01*
G01X30820Y3562D01*
G01X30820Y1004D01*
G01X30362Y1004D01*
G37*
G36*
G01X29772Y384D02*
G01X29772Y3562D01*
G01X30230Y3562D01*
G01X30230Y384D01*
G01X29772Y384D01*
G37*
G36*
G01X29182Y1004D02*
G01X29182Y3562D01*
G01X29640Y3562D01*
G01X29640Y1004D01*
G01X29182Y1004D01*
G37*
G36*
G01X28592Y1004D02*
G01X28592Y3562D01*
G01X29050Y3562D01*
G01X29050Y1004D01*
G01X28592Y1004D01*
G37*
G36*
G01X28002Y1004D02*
G01X28002Y3562D01*
G01X28460Y3562D01*
G01X28460Y1004D01*
G01X28002Y1004D01*
G37*
G36*
G01X27412Y1004D02*
G01X27412Y3562D01*
G01X27870Y3562D01*
G01X27870Y1004D01*
G01X27412Y1004D01*
G37*
G36*
G01X26822Y1004D02*
G01X26822Y3562D01*
G01X27280Y3562D01*
G01X27280Y1004D01*
G01X26822Y1004D01*
G37*
G36*
G01X26232Y1004D02*
G01X26232Y3562D01*
G01X26690Y3562D01*
G01X26690Y1004D01*
G01X26232Y1004D01*
G37*
G36*
G01X25642Y1004D02*
G01X25642Y3562D01*
G01X26100Y3562D01*
G01X26100Y1004D01*
G01X25642Y1004D01*
G37*
G36*
G01X25052Y1004D02*
G01X25052Y3562D01*
G01X25510Y3562D01*
G01X25510Y1004D01*
G01X25052Y1004D01*
G37*
G36*
G01X24462Y1004D02*
G01X24462Y3562D01*
G01X24920Y3562D01*
G01X24920Y1004D01*
G01X24462Y1004D01*
G37*
G36*
G01X23872Y1004D02*
G01X23872Y3562D01*
G01X24330Y3562D01*
G01X24330Y1004D01*
G01X23872Y1004D01*
G37*
G36*
G01X23282Y1004D02*
G01X23282Y3562D01*
G01X23740Y3562D01*
G01X23740Y1004D01*
G01X23282Y1004D01*
G37*
G36*
G01X22692Y1004D02*
G01X22692Y3562D01*
G01X23150Y3562D01*
G01X23150Y1004D01*
G01X22692Y1004D01*
G37*
G36*
G01X22102Y1004D02*
G01X22102Y3562D01*
G01X22560Y3562D01*
G01X22560Y1004D01*
G01X22102Y1004D01*
G37*
G36*
G01X21512Y384D02*
G01X21512Y3562D01*
G01X21970Y3562D01*
G01X21970Y384D01*
G01X21512Y384D01*
G37*
G36*
G01X20922Y384D02*
G01X20922Y3562D01*
G01X21380Y3562D01*
G01X21380Y384D01*
G01X20922Y384D01*
G37*
G36*
G01X20332Y384D02*
G01X20332Y3562D01*
G01X20790Y3562D01*
G01X20790Y384D01*
G01X20332Y384D01*
G37*
G36*
G01X19742Y384D02*
G01X19742Y3562D01*
G01X20200Y3562D01*
G01X20200Y384D01*
G01X19742Y384D01*
G37*
G36*
G01X19152Y1004D02*
G01X19152Y3562D01*
G01X19610Y3562D01*
G01X19610Y1004D01*
G01X19152Y1004D01*
G37*
G36*
G01X18562Y384D02*
G01X18562Y3562D01*
G01X19020Y3562D01*
G01X19020Y384D01*
G01X18562Y384D01*
G37*
G36*
G01X17972Y1004D02*
G01X17972Y3562D01*
G01X18430Y3562D01*
G01X18430Y1004D01*
G01X17972Y1004D01*
G37*
G36*
G01X17382Y1004D02*
G01X17382Y3562D01*
G01X17840Y3562D01*
G01X17840Y1004D01*
G01X17382Y1004D01*
G37*
G36*
G01X16792Y384D02*
G01X16792Y3562D01*
G01X17250Y3562D01*
G01X17250Y384D01*
G01X16792Y384D01*
G37*
G36*
G01X16202Y1004D02*
G01X16202Y3562D01*
G01X16660Y3562D01*
G01X16660Y1004D01*
G01X16202Y1004D01*
G37*
G36*
G01X15612Y1004D02*
G01X15612Y3562D01*
G01X16070Y3562D01*
G01X16070Y1004D01*
G01X15612Y1004D01*
G37*
G36*
G01X15022Y1004D02*
G01X15022Y3562D01*
G01X15480Y3562D01*
G01X15480Y1004D01*
G01X15022Y1004D01*
G37*
G36*
G01X14432Y1004D02*
G01X14432Y3562D01*
G01X14890Y3562D01*
G01X14890Y1004D01*
G01X14432Y1004D01*
G37*
G36*
G01X13842Y384D02*
G01X13842Y3562D01*
G01X14300Y3562D01*
G01X14300Y384D01*
G01X13842Y384D01*
G37*
G36*
G01X13252Y1004D02*
G01X13252Y3562D01*
G01X13710Y3562D01*
G01X13710Y1004D01*
G01X13252Y1004D01*
G37*
G36*
G01X12662Y1004D02*
G01X12662Y3562D01*
G01X13120Y3562D01*
G01X13120Y1004D01*
G01X12662Y1004D01*
G37*
G36*
G01X12072Y1004D02*
G01X12072Y3562D01*
G01X12530Y3562D01*
G01X12530Y1004D01*
G01X12072Y1004D01*
G37*
G36*
G01X11482Y1004D02*
G01X11482Y3562D01*
G01X11940Y3562D01*
G01X11940Y1004D01*
G01X11482Y1004D01*
G37*
G36*
G01X10892Y1004D02*
G01X10892Y3562D01*
G01X11350Y3562D01*
G01X11350Y1004D01*
G01X10892Y1004D01*
G37*
G36*
G01X10302Y1004D02*
G01X10302Y3562D01*
G01X10760Y3562D01*
G01X10760Y1004D01*
G01X10302Y1004D01*
G37*
G36*
G01X9712Y1004D02*
G01X9712Y3562D01*
G01X10170Y3562D01*
G01X10170Y1004D01*
G01X9712Y1004D01*
G37*
G36*
G01X9122Y1004D02*
G01X9122Y3562D01*
G01X9580Y3562D01*
G01X9580Y1004D01*
G01X9122Y1004D01*
G37*
G36*
G01X8532Y1004D02*
G01X8532Y3562D01*
G01X8990Y3562D01*
G01X8990Y1004D01*
G01X8532Y1004D01*
G37*
G36*
G01X6762Y384D02*
G01X6762Y3562D01*
G01X7220Y3562D01*
G01X7220Y384D01*
G01X6762Y384D01*
G37*
G36*
G01X6172Y1004D02*
G01X6172Y3562D01*
G01X6630Y3562D01*
G01X6630Y1004D01*
G01X6172Y1004D01*
G37*
G36*
G01X5582Y384D02*
G01X5582Y3562D01*
G01X6040Y3562D01*
G01X6040Y384D01*
G01X5582Y384D01*
G37*
G36*
G01X4992Y1004D02*
G01X4992Y3562D01*
G01X5450Y3562D01*
G01X5450Y1004D01*
G01X4992Y1004D01*
G37*
G36*
G01X4402Y384D02*
G01X4402Y3562D01*
G01X4860Y3562D01*
G01X4860Y384D01*
G01X4402Y384D01*
G37*
G36*
G01X3812Y1004D02*
G01X3812Y3562D01*
G01X4270Y3562D01*
G01X4270Y1004D01*
G01X3812Y1004D01*
G37*
G36*
G01X3222Y1004D02*
G01X3222Y3562D01*
G01X3680Y3562D01*
G01X3680Y1004D01*
G01X3222Y1004D01*
G37*
G36*
G01X2632Y1004D02*
G01X2632Y3562D01*
G01X3090Y3562D01*
G01X3090Y1004D01*
G01X2632Y1004D01*
G37*
G36*
G01X2042Y1004D02*
G01X2042Y3562D01*
G01X2500Y3562D01*
G01X2500Y1004D01*
G01X2042Y1004D01*
G37*
G36*
G01X1452Y1004D02*
G01X1452Y3562D01*
G01X1910Y3562D01*
G01X1910Y1004D01*
G01X1452Y1004D01*
G37*
G36*
G01X862Y384D02*
G01X862Y3562D01*
G01X1320Y3562D01*
G01X1320Y384D01*
G01X862Y384D01*
G37*
G36*
G01X272Y384D02*
G01X272Y3562D01*
G01X730Y3562D01*
G01X730Y384D01*
G01X272Y384D01*
G37*
G04 Draw part C11*
G04 Draw part C12*
G04 Draw part C13*
G04 Draw part C14*
G04 Draw part C15*
G04 Draw part C21*
G04 Draw part C22*
G04 Draw part C23*
G04 Draw part C24*
G04 Draw part C31*
G04 Draw part C32*
G04 Draw part U1*
G04 Draw part X8*
G04 Draw part C81*
G04 Draw part C82*
G04 Draw part R11*
G04 Draw part C41*
G04 Draw part C42*
G04 Draw part U2*
G04 Draw part U3*
G04 Draw part U4*
G04 Draw part L5*
G04 Draw part J5*
G54D10*
G01X5118Y12598D03*
G54D11*
G01X4133Y12598D03*
G01X3346Y12598D03*
G01X2362Y12598D03*
G54D12*
G01X6326Y13665D03*
G01X1153Y13665D03*
G04 Draw part J6*
G54D10*
G01X29921Y12598D03*
G54D11*
G01X28937Y12598D03*
G01X28149Y12598D03*
G01X27165Y12598D03*
G54D12*
G01X31129Y13665D03*
G01X25956Y13665D03*
G04 Draw part J7*
G04 Draw part J9*
G54D13*
G01X24251Y13464D03*
G01X23251Y13464D03*
G01X22251Y13464D03*
G01X21251Y13464D03*
G01X20251Y13464D03*
G01X19251Y13464D03*
G04 Draw part C51*
G04 Draw part M1*
G54D14*
G01X1181Y11417D03*
G04 Draw part M2*
G01X31102Y11417D03*
G04 Draw part C44*
G04 Draw part C43*
G04 Draw part C71*
G04 Draw part R71*
G04 Draw part C33*
G04 Draw part R12*

G04 Draw traces*

G04 Draw Text*
G54D15*

G04 Draw solder mask cutouts*
G36*
G01X0Y3444D02*
G01X0Y0D01*
G01X32283Y0D01*
G01X32283Y3444D01*
G01X0Y3444D01*
G37*
G01X0Y3444D02*
G01X0Y0D01*
G01X32283Y0D01*
G01X32283Y3444D01*
G01X0Y3444D01*
M00*
M02*
