G04 FreePCB version 1.332*
G04 C:\jag\pcb\jagwave\CAM\top_silk.grb*
G04 top silk layer *
G04 Scale: 100 percent, Rotated: No, Reflected: No *
%FSLAX24Y24*%
%MOIN*%
%LNTop*%
%ADD10C,0.007000*%
%ADD11C,0.005000*%
%ADD12C,0.010000*%
%ADD13C,0.007874*%
G90*
G70D02*

G04 Step and Repeat for panelization *

G04 -------------- Draw Parts, Pads, Traces, Vias and Text (positive)*
%LPD*%
G04 Draw part J1*
G04 Draw part C11*
G04 draw part outline for part C11*
G54D10*
G01X24566Y12362D02*
G01X25905Y12362D01*
G01X25905Y12362D02*
G01X25905Y11653D01*
G01X25905Y11653D02*
G01X24566Y11653D01*
G01X24566Y11653D02*
G01X24566Y12362D01*
G04 draw reference designator for part C11*
G54D11*
G01X23872Y11936D02*
G01X23890Y11900D01*
G01X23836Y11972D02*
G01X23872Y11936D01*
G01X23801Y11989D02*
G01X23836Y11972D01*
G01X23729Y11989D02*
G01X23801Y11989D01*
G01X23729Y11989D02*
G01X23693Y11972D01*
G01X23693Y11972D02*
G01X23657Y11936D01*
G01X23657Y11936D02*
G01X23639Y11900D01*
G01X23639Y11900D02*
G01X23622Y11846D01*
G01X23622Y11846D02*
G01X23622Y11757D01*
G01X23622Y11757D02*
G01X23639Y11703D01*
G01X23639Y11703D02*
G01X23657Y11667D01*
G01X23657Y11667D02*
G01X23693Y11632D01*
G01X23693Y11632D02*
G01X23729Y11614D01*
G01X23801Y11614D02*
G01X23729Y11614D01*
G01X23836Y11632D02*
G01X23801Y11614D01*
G01X23872Y11667D02*
G01X23836Y11632D01*
G01X23890Y11703D02*
G01X23872Y11667D01*
G01X24069Y11936D02*
G01X24033Y11918D01*
G01X24123Y11989D02*
G01X24069Y11936D01*
G01X24123Y11989D02*
G01X24123Y11614D01*
G01X24302Y11936D02*
G01X24266Y11918D01*
G01X24355Y11989D02*
G01X24302Y11936D01*
G01X24355Y11989D02*
G01X24355Y11614D01*
G04 Draw part C12*
G04 draw part outline for part C12*
G54D10*
G01X28405Y10000D02*
G01X29744Y10000D01*
G01X29744Y10000D02*
G01X29744Y9291D01*
G01X29744Y9291D02*
G01X28405Y9291D01*
G01X28405Y9291D02*
G01X28405Y10000D01*
G04 draw reference designator for part C12*
G54D11*
G01X27612Y9770D02*
G01X27630Y9735D01*
G01X27576Y9806D02*
G01X27612Y9770D01*
G01X27541Y9824D02*
G01X27576Y9806D01*
G01X27469Y9824D02*
G01X27541Y9824D01*
G01X27469Y9824D02*
G01X27433Y9806D01*
G01X27433Y9806D02*
G01X27397Y9770D01*
G01X27397Y9770D02*
G01X27380Y9735D01*
G01X27380Y9735D02*
G01X27362Y9681D01*
G01X27362Y9681D02*
G01X27362Y9591D01*
G01X27362Y9591D02*
G01X27380Y9538D01*
G01X27380Y9538D02*
G01X27397Y9502D01*
G01X27397Y9502D02*
G01X27433Y9466D01*
G01X27433Y9466D02*
G01X27469Y9448D01*
G01X27541Y9448D02*
G01X27469Y9448D01*
G01X27576Y9466D02*
G01X27541Y9448D01*
G01X27612Y9502D02*
G01X27576Y9466D01*
G01X27630Y9538D02*
G01X27612Y9502D01*
G01X27809Y9770D02*
G01X27773Y9753D01*
G01X27863Y9824D02*
G01X27809Y9770D01*
G01X27863Y9824D02*
G01X27863Y9448D01*
G01X28024Y9753D02*
G01X28024Y9735D01*
G01X28042Y9788D02*
G01X28024Y9753D01*
G01X28060Y9806D02*
G01X28042Y9788D01*
G01X28095Y9824D02*
G01X28060Y9806D01*
G01X28167Y9824D02*
G01X28095Y9824D01*
G01X28167Y9824D02*
G01X28203Y9806D01*
G01X28203Y9806D02*
G01X28221Y9788D01*
G01X28221Y9788D02*
G01X28239Y9753D01*
G01X28239Y9753D02*
G01X28239Y9717D01*
G01X28239Y9717D02*
G01X28221Y9681D01*
G01X28221Y9681D02*
G01X28185Y9627D01*
G01X28185Y9627D02*
G01X28006Y9448D01*
G01X28256Y9448D02*
G01X28006Y9448D01*
G04 Draw part C13*
G04 draw part outline for part C13*
G54D10*
G01X28405Y8937D02*
G01X29744Y8937D01*
G01X29744Y8937D02*
G01X29744Y8228D01*
G01X29744Y8228D02*
G01X28405Y8228D01*
G01X28405Y8228D02*
G01X28405Y8937D01*
G04 draw reference designator for part C13*
G54D11*
G01X27612Y8707D02*
G01X27630Y8672D01*
G01X27576Y8743D02*
G01X27612Y8707D01*
G01X27541Y8761D02*
G01X27576Y8743D01*
G01X27469Y8761D02*
G01X27541Y8761D01*
G01X27469Y8761D02*
G01X27433Y8743D01*
G01X27433Y8743D02*
G01X27397Y8707D01*
G01X27397Y8707D02*
G01X27380Y8672D01*
G01X27380Y8672D02*
G01X27362Y8618D01*
G01X27362Y8618D02*
G01X27362Y8528D01*
G01X27362Y8528D02*
G01X27380Y8475D01*
G01X27380Y8475D02*
G01X27397Y8439D01*
G01X27397Y8439D02*
G01X27433Y8403D01*
G01X27433Y8403D02*
G01X27469Y8385D01*
G01X27541Y8385D02*
G01X27469Y8385D01*
G01X27576Y8403D02*
G01X27541Y8385D01*
G01X27612Y8439D02*
G01X27576Y8403D01*
G01X27630Y8475D02*
G01X27612Y8439D01*
G01X27809Y8707D02*
G01X27773Y8690D01*
G01X27863Y8761D02*
G01X27809Y8707D01*
G01X27863Y8761D02*
G01X27863Y8385D01*
G01X28239Y8761D02*
G01X28042Y8761D01*
G01X28239Y8761D02*
G01X28131Y8618D01*
G01X28185Y8618D02*
G01X28131Y8618D01*
G01X28185Y8618D02*
G01X28221Y8600D01*
G01X28221Y8600D02*
G01X28239Y8582D01*
G01X28239Y8582D02*
G01X28256Y8528D01*
G01X28256Y8528D02*
G01X28256Y8493D01*
G01X28256Y8493D02*
G01X28239Y8439D01*
G01X28239Y8439D02*
G01X28203Y8403D01*
G01X28203Y8403D02*
G01X28149Y8385D01*
G01X28095Y8385D02*
G01X28149Y8385D01*
G01X28042Y8403D02*
G01X28095Y8385D01*
G01X28024Y8421D02*
G01X28042Y8403D01*
G01X28006Y8457D02*
G01X28024Y8421D01*
G04 Draw part C14*
G04 draw part outline for part C14*
G54D10*
G01X24862Y4527D02*
G01X26200Y4527D01*
G01X26200Y4527D02*
G01X26200Y3818D01*
G01X26200Y3818D02*
G01X24862Y3818D01*
G01X24862Y3818D02*
G01X24862Y4527D01*
G04 draw reference designator for part C14*
G54D11*
G01X26628Y4298D02*
G01X26646Y4262D01*
G01X26592Y4334D02*
G01X26628Y4298D01*
G01X26556Y4352D02*
G01X26592Y4334D01*
G01X26485Y4352D02*
G01X26556Y4352D01*
G01X26485Y4352D02*
G01X26449Y4334D01*
G01X26449Y4334D02*
G01X26413Y4298D01*
G01X26413Y4298D02*
G01X26395Y4262D01*
G01X26395Y4262D02*
G01X26377Y4209D01*
G01X26377Y4209D02*
G01X26377Y4119D01*
G01X26377Y4119D02*
G01X26395Y4065D01*
G01X26395Y4065D02*
G01X26413Y4030D01*
G01X26413Y4030D02*
G01X26449Y3994D01*
G01X26449Y3994D02*
G01X26485Y3976D01*
G01X26556Y3976D02*
G01X26485Y3976D01*
G01X26592Y3994D02*
G01X26556Y3976D01*
G01X26628Y4030D02*
G01X26592Y3994D01*
G01X26646Y4065D02*
G01X26628Y4030D01*
G01X26825Y4298D02*
G01X26789Y4280D01*
G01X26879Y4352D02*
G01X26825Y4298D01*
G01X26879Y4352D02*
G01X26879Y3976D01*
G01X27201Y4352D02*
G01X27022Y4101D01*
G01X27290Y4101D02*
G01X27022Y4101D01*
G01X27201Y4352D02*
G01X27201Y3976D01*
G04 Draw part C15*
G04 draw part outline for part C15*
G54D10*
G01X19940Y8425D02*
G01X21279Y8425D01*
G01X21279Y8425D02*
G01X21279Y7716D01*
G01X21279Y7716D02*
G01X19940Y7716D01*
G01X19940Y7716D02*
G01X19940Y8425D01*
G04 draw reference designator for part C15*
G54D11*
G01X19148Y8196D02*
G01X19166Y8160D01*
G01X19112Y8231D02*
G01X19148Y8196D01*
G01X19076Y8249D02*
G01X19112Y8231D01*
G01X19005Y8249D02*
G01X19076Y8249D01*
G01X19005Y8249D02*
G01X18969Y8231D01*
G01X18969Y8231D02*
G01X18933Y8196D01*
G01X18933Y8196D02*
G01X18915Y8160D01*
G01X18915Y8160D02*
G01X18897Y8106D01*
G01X18897Y8106D02*
G01X18897Y8017D01*
G01X18897Y8017D02*
G01X18915Y7963D01*
G01X18915Y7963D02*
G01X18933Y7927D01*
G01X18933Y7927D02*
G01X18969Y7891D01*
G01X18969Y7891D02*
G01X19005Y7874D01*
G01X19076Y7874D02*
G01X19005Y7874D01*
G01X19112Y7891D02*
G01X19076Y7874D01*
G01X19148Y7927D02*
G01X19112Y7891D01*
G01X19166Y7963D02*
G01X19148Y7927D01*
G01X19345Y8196D02*
G01X19309Y8178D01*
G01X19398Y8249D02*
G01X19345Y8196D01*
G01X19398Y8249D02*
G01X19398Y7874D01*
G01X19577Y8249D02*
G01X19756Y8249D01*
G01X19577Y8249D02*
G01X19559Y8088D01*
G01X19577Y8106D02*
G01X19559Y8088D01*
G01X19631Y8124D02*
G01X19577Y8106D01*
G01X19685Y8124D02*
G01X19631Y8124D01*
G01X19685Y8124D02*
G01X19738Y8106D01*
G01X19738Y8106D02*
G01X19774Y8070D01*
G01X19774Y8070D02*
G01X19792Y8017D01*
G01X19792Y8017D02*
G01X19792Y7981D01*
G01X19792Y7981D02*
G01X19774Y7927D01*
G01X19774Y7927D02*
G01X19738Y7891D01*
G01X19738Y7891D02*
G01X19685Y7874D01*
G01X19631Y7874D02*
G01X19685Y7874D01*
G01X19577Y7891D02*
G01X19631Y7874D01*
G01X19559Y7909D02*
G01X19577Y7891D01*
G01X19541Y7945D02*
G01X19559Y7909D01*
G04 Draw part C21*
G04 draw part outline for part C21*
G54D10*
G01X15728Y11062D02*
G01X17066Y11062D01*
G01X17066Y11062D02*
G01X17066Y10354D01*
G01X17066Y10354D02*
G01X15728Y10354D01*
G01X15728Y10354D02*
G01X15728Y11062D01*
G04 draw reference designator for part C21*
G54D11*
G01X14837Y10833D02*
G01X14855Y10798D01*
G01X14801Y10869D02*
G01X14837Y10833D01*
G01X14765Y10887D02*
G01X14801Y10869D01*
G01X14693Y10887D02*
G01X14765Y10887D01*
G01X14693Y10887D02*
G01X14658Y10869D01*
G01X14658Y10869D02*
G01X14622Y10833D01*
G01X14622Y10833D02*
G01X14604Y10798D01*
G01X14604Y10798D02*
G01X14586Y10744D01*
G01X14586Y10744D02*
G01X14586Y10654D01*
G01X14586Y10654D02*
G01X14604Y10601D01*
G01X14604Y10601D02*
G01X14622Y10565D01*
G01X14622Y10565D02*
G01X14658Y10529D01*
G01X14658Y10529D02*
G01X14693Y10511D01*
G01X14765Y10511D02*
G01X14693Y10511D01*
G01X14801Y10529D02*
G01X14765Y10511D01*
G01X14837Y10565D02*
G01X14801Y10529D01*
G01X14855Y10601D02*
G01X14837Y10565D01*
G01X15016Y10816D02*
G01X15016Y10798D01*
G01X15034Y10851D02*
G01X15016Y10816D01*
G01X15051Y10869D02*
G01X15034Y10851D01*
G01X15087Y10887D02*
G01X15051Y10869D01*
G01X15159Y10887D02*
G01X15087Y10887D01*
G01X15159Y10887D02*
G01X15195Y10869D01*
G01X15195Y10869D02*
G01X15212Y10851D01*
G01X15212Y10851D02*
G01X15230Y10816D01*
G01X15230Y10816D02*
G01X15230Y10780D01*
G01X15230Y10780D02*
G01X15212Y10744D01*
G01X15212Y10744D02*
G01X15177Y10690D01*
G01X15177Y10690D02*
G01X14998Y10511D01*
G01X15248Y10511D02*
G01X14998Y10511D01*
G01X15427Y10833D02*
G01X15391Y10816D01*
G01X15481Y10887D02*
G01X15427Y10833D01*
G01X15481Y10887D02*
G01X15481Y10511D01*
G04 Draw part C22*
G04 draw part outline for part C22*
G54D10*
G01X19192Y6535D02*
G01X20531Y6535D01*
G01X20531Y6535D02*
G01X20531Y5826D01*
G01X20531Y5826D02*
G01X19192Y5826D01*
G01X19192Y5826D02*
G01X19192Y6535D01*
G04 draw reference designator for part C22*
G54D11*
G01X20959Y6306D02*
G01X20977Y6270D01*
G01X20923Y6342D02*
G01X20959Y6306D01*
G01X20887Y6360D02*
G01X20923Y6342D01*
G01X20816Y6360D02*
G01X20887Y6360D01*
G01X20816Y6360D02*
G01X20780Y6342D01*
G01X20780Y6342D02*
G01X20744Y6306D01*
G01X20744Y6306D02*
G01X20726Y6270D01*
G01X20726Y6270D02*
G01X20708Y6216D01*
G01X20708Y6216D02*
G01X20708Y6127D01*
G01X20708Y6127D02*
G01X20726Y6073D01*
G01X20726Y6073D02*
G01X20744Y6037D01*
G01X20744Y6037D02*
G01X20780Y6002D01*
G01X20780Y6002D02*
G01X20816Y5984D01*
G01X20887Y5984D02*
G01X20816Y5984D01*
G01X20923Y6002D02*
G01X20887Y5984D01*
G01X20959Y6037D02*
G01X20923Y6002D01*
G01X20977Y6073D02*
G01X20959Y6037D01*
G01X21138Y6288D02*
G01X21138Y6270D01*
G01X21156Y6324D02*
G01X21138Y6288D01*
G01X21173Y6342D02*
G01X21156Y6324D01*
G01X21209Y6360D02*
G01X21173Y6342D01*
G01X21281Y6360D02*
G01X21209Y6360D01*
G01X21281Y6360D02*
G01X21317Y6342D01*
G01X21317Y6342D02*
G01X21335Y6324D01*
G01X21335Y6324D02*
G01X21352Y6288D01*
G01X21352Y6288D02*
G01X21352Y6252D01*
G01X21352Y6252D02*
G01X21335Y6216D01*
G01X21335Y6216D02*
G01X21299Y6163D01*
G01X21299Y6163D02*
G01X21120Y5984D01*
G01X21370Y5984D02*
G01X21120Y5984D01*
G01X21531Y6288D02*
G01X21531Y6270D01*
G01X21549Y6324D02*
G01X21531Y6288D01*
G01X21567Y6342D02*
G01X21549Y6324D01*
G01X21603Y6360D02*
G01X21567Y6342D01*
G01X21675Y6360D02*
G01X21603Y6360D01*
G01X21675Y6360D02*
G01X21710Y6342D01*
G01X21710Y6342D02*
G01X21728Y6324D01*
G01X21728Y6324D02*
G01X21746Y6288D01*
G01X21746Y6288D02*
G01X21746Y6252D01*
G01X21746Y6252D02*
G01X21728Y6216D01*
G01X21728Y6216D02*
G01X21692Y6163D01*
G01X21692Y6163D02*
G01X21513Y5984D01*
G01X21764Y5984D02*
G01X21513Y5984D01*
G04 Draw part C23*
G04 draw part outline for part C23*
G54D10*
G01X15019Y4685D02*
G01X16358Y4685D01*
G01X16358Y4685D02*
G01X16358Y3976D01*
G01X16358Y3976D02*
G01X15019Y3976D01*
G01X15019Y3976D02*
G01X15019Y4685D01*
G04 draw reference designator for part C23*
G54D11*
G01X13872Y4455D02*
G01X13890Y4420D01*
G01X13836Y4491D02*
G01X13872Y4455D01*
G01X13801Y4509D02*
G01X13836Y4491D01*
G01X13729Y4509D02*
G01X13801Y4509D01*
G01X13729Y4509D02*
G01X13693Y4491D01*
G01X13693Y4491D02*
G01X13657Y4455D01*
G01X13657Y4455D02*
G01X13639Y4420D01*
G01X13639Y4420D02*
G01X13622Y4366D01*
G01X13622Y4366D02*
G01X13622Y4277D01*
G01X13622Y4277D02*
G01X13639Y4223D01*
G01X13639Y4223D02*
G01X13657Y4187D01*
G01X13657Y4187D02*
G01X13693Y4151D01*
G01X13693Y4151D02*
G01X13729Y4133D01*
G01X13801Y4133D02*
G01X13729Y4133D01*
G01X13836Y4151D02*
G01X13801Y4133D01*
G01X13872Y4187D02*
G01X13836Y4151D01*
G01X13890Y4223D02*
G01X13872Y4187D01*
G01X14051Y4438D02*
G01X14051Y4420D01*
G01X14069Y4473D02*
G01X14051Y4438D01*
G01X14087Y4491D02*
G01X14069Y4473D01*
G01X14123Y4509D02*
G01X14087Y4491D01*
G01X14194Y4509D02*
G01X14123Y4509D01*
G01X14194Y4509D02*
G01X14230Y4491D01*
G01X14230Y4491D02*
G01X14248Y4473D01*
G01X14248Y4473D02*
G01X14266Y4438D01*
G01X14266Y4438D02*
G01X14266Y4402D01*
G01X14266Y4402D02*
G01X14248Y4366D01*
G01X14248Y4366D02*
G01X14212Y4312D01*
G01X14212Y4312D02*
G01X14033Y4133D01*
G01X14284Y4133D02*
G01X14033Y4133D01*
G01X14659Y4509D02*
G01X14463Y4509D01*
G01X14659Y4509D02*
G01X14552Y4366D01*
G01X14606Y4366D02*
G01X14552Y4366D01*
G01X14606Y4366D02*
G01X14642Y4348D01*
G01X14642Y4348D02*
G01X14659Y4330D01*
G01X14659Y4330D02*
G01X14677Y4277D01*
G01X14677Y4277D02*
G01X14677Y4241D01*
G01X14677Y4241D02*
G01X14659Y4187D01*
G01X14659Y4187D02*
G01X14624Y4151D01*
G01X14624Y4151D02*
G01X14570Y4133D01*
G01X14516Y4133D02*
G01X14570Y4133D01*
G01X14463Y4151D02*
G01X14516Y4133D01*
G01X14445Y4169D02*
G01X14463Y4151D01*
G01X14427Y4205D02*
G01X14445Y4169D01*
G04 Draw part C24*
G04 draw part outline for part C24*
G54D10*
G01X12263Y8779D02*
G01X13602Y8779D01*
G01X13602Y8779D02*
G01X13602Y8070D01*
G01X13602Y8070D02*
G01X12263Y8070D01*
G01X12263Y8070D02*
G01X12263Y8779D01*
G04 draw reference designator for part C24*
G54D11*
G01X11274Y8550D02*
G01X11292Y8514D01*
G01X11238Y8586D02*
G01X11274Y8550D01*
G01X11202Y8604D02*
G01X11238Y8586D01*
G01X11130Y8604D02*
G01X11202Y8604D01*
G01X11130Y8604D02*
G01X11095Y8586D01*
G01X11095Y8586D02*
G01X11059Y8550D01*
G01X11059Y8550D02*
G01X11041Y8514D01*
G01X11041Y8514D02*
G01X11023Y8460D01*
G01X11023Y8460D02*
G01X11023Y8371D01*
G01X11023Y8371D02*
G01X11041Y8317D01*
G01X11041Y8317D02*
G01X11059Y8282D01*
G01X11059Y8282D02*
G01X11095Y8246D01*
G01X11095Y8246D02*
G01X11130Y8228D01*
G01X11202Y8228D02*
G01X11130Y8228D01*
G01X11238Y8246D02*
G01X11202Y8228D01*
G01X11274Y8282D02*
G01X11238Y8246D01*
G01X11292Y8317D02*
G01X11274Y8282D01*
G01X11453Y8532D02*
G01X11453Y8514D01*
G01X11471Y8568D02*
G01X11453Y8532D01*
G01X11488Y8586D02*
G01X11471Y8568D01*
G01X11524Y8604D02*
G01X11488Y8586D01*
G01X11596Y8604D02*
G01X11524Y8604D01*
G01X11596Y8604D02*
G01X11632Y8586D01*
G01X11632Y8586D02*
G01X11649Y8568D01*
G01X11649Y8568D02*
G01X11667Y8532D01*
G01X11667Y8532D02*
G01X11667Y8496D01*
G01X11667Y8496D02*
G01X11649Y8460D01*
G01X11649Y8460D02*
G01X11614Y8407D01*
G01X11614Y8407D02*
G01X11435Y8228D01*
G01X11685Y8228D02*
G01X11435Y8228D01*
G01X12007Y8604D02*
G01X11828Y8353D01*
G01X12097Y8353D02*
G01X11828Y8353D01*
G01X12007Y8604D02*
G01X12007Y8228D01*
G04 Draw part C31*
G04 draw part outline for part C31*
G54D10*
G01X10767Y9015D02*
G01X12106Y9015D01*
G01X12106Y9015D02*
G01X12106Y8307D01*
G01X12106Y8307D02*
G01X10767Y8307D01*
G01X10767Y8307D02*
G01X10767Y9015D01*
G04 draw reference designator for part C31*
G54D11*
G01X12534Y8786D02*
G01X12551Y8750D01*
G01X12498Y8822D02*
G01X12534Y8786D01*
G01X12462Y8840D02*
G01X12498Y8822D01*
G01X12390Y8840D02*
G01X12462Y8840D01*
G01X12390Y8840D02*
G01X12355Y8822D01*
G01X12355Y8822D02*
G01X12319Y8786D01*
G01X12319Y8786D02*
G01X12301Y8750D01*
G01X12301Y8750D02*
G01X12283Y8697D01*
G01X12283Y8697D02*
G01X12283Y8607D01*
G01X12283Y8607D02*
G01X12301Y8554D01*
G01X12301Y8554D02*
G01X12319Y8518D01*
G01X12319Y8518D02*
G01X12355Y8482D01*
G01X12355Y8482D02*
G01X12390Y8464D01*
G01X12462Y8464D02*
G01X12390Y8464D01*
G01X12498Y8482D02*
G01X12462Y8464D01*
G01X12534Y8518D02*
G01X12498Y8482D01*
G01X12551Y8554D02*
G01X12534Y8518D01*
G01X12927Y8840D02*
G01X12730Y8840D01*
G01X12927Y8840D02*
G01X12820Y8697D01*
G01X12874Y8697D02*
G01X12820Y8697D01*
G01X12874Y8697D02*
G01X12909Y8679D01*
G01X12909Y8679D02*
G01X12927Y8661D01*
G01X12927Y8661D02*
G01X12945Y8607D01*
G01X12945Y8607D02*
G01X12945Y8571D01*
G01X12945Y8571D02*
G01X12927Y8518D01*
G01X12927Y8518D02*
G01X12891Y8482D01*
G01X12891Y8482D02*
G01X12838Y8464D01*
G01X12784Y8464D02*
G01X12838Y8464D01*
G01X12730Y8482D02*
G01X12784Y8464D01*
G01X12712Y8500D02*
G01X12730Y8482D01*
G01X12695Y8536D02*
G01X12712Y8500D01*
G01X13124Y8786D02*
G01X13088Y8768D01*
G01X13178Y8840D02*
G01X13124Y8786D01*
G01X13178Y8840D02*
G01X13178Y8464D01*
G04 Draw part C32*
G04 draw part outline for part C32*
G54D10*
G01X10767Y7362D02*
G01X12106Y7362D01*
G01X12106Y7362D02*
G01X12106Y6653D01*
G01X12106Y6653D02*
G01X10767Y6653D01*
G01X10767Y6653D02*
G01X10767Y7362D01*
G04 draw reference designator for part C32*
G54D11*
G01X9778Y7133D02*
G01X9795Y7097D01*
G01X9742Y7168D02*
G01X9778Y7133D01*
G01X9706Y7186D02*
G01X9742Y7168D01*
G01X9634Y7186D02*
G01X9706Y7186D01*
G01X9634Y7186D02*
G01X9599Y7168D01*
G01X9599Y7168D02*
G01X9563Y7133D01*
G01X9563Y7133D02*
G01X9545Y7097D01*
G01X9545Y7097D02*
G01X9527Y7043D01*
G01X9527Y7043D02*
G01X9527Y6954D01*
G01X9527Y6954D02*
G01X9545Y6900D01*
G01X9545Y6900D02*
G01X9563Y6864D01*
G01X9563Y6864D02*
G01X9599Y6828D01*
G01X9599Y6828D02*
G01X9634Y6811D01*
G01X9706Y6811D02*
G01X9634Y6811D01*
G01X9742Y6828D02*
G01X9706Y6811D01*
G01X9778Y6864D02*
G01X9742Y6828D01*
G01X9795Y6900D02*
G01X9778Y6864D01*
G01X10171Y7186D02*
G01X9974Y7186D01*
G01X10171Y7186D02*
G01X10064Y7043D01*
G01X10118Y7043D02*
G01X10064Y7043D01*
G01X10118Y7043D02*
G01X10153Y7025D01*
G01X10153Y7025D02*
G01X10171Y7007D01*
G01X10171Y7007D02*
G01X10189Y6954D01*
G01X10189Y6954D02*
G01X10189Y6918D01*
G01X10189Y6918D02*
G01X10171Y6864D01*
G01X10171Y6864D02*
G01X10136Y6828D01*
G01X10136Y6828D02*
G01X10082Y6811D01*
G01X10028Y6811D02*
G01X10082Y6811D01*
G01X9974Y6828D02*
G01X10028Y6811D01*
G01X9957Y6846D02*
G01X9974Y6828D01*
G01X9939Y6882D02*
G01X9957Y6846D01*
G01X10350Y7115D02*
G01X10350Y7097D01*
G01X10368Y7151D02*
G01X10350Y7115D01*
G01X10386Y7168D02*
G01X10368Y7151D01*
G01X10422Y7186D02*
G01X10386Y7168D01*
G01X10493Y7186D02*
G01X10422Y7186D01*
G01X10493Y7186D02*
G01X10529Y7168D01*
G01X10529Y7168D02*
G01X10547Y7151D01*
G01X10547Y7151D02*
G01X10565Y7115D01*
G01X10565Y7115D02*
G01X10565Y7079D01*
G01X10565Y7079D02*
G01X10547Y7043D01*
G01X10547Y7043D02*
G01X10511Y6989D01*
G01X10511Y6989D02*
G01X10332Y6811D01*
G01X10583Y6811D02*
G01X10332Y6811D01*
G04 Draw part U1*
G04 draw part outline for part U1*
G54D10*
G01X26968Y5708D02*
G01X27165Y5905D01*
G01X27165Y5905D02*
G01X27165Y10433D01*
G01X27165Y10433D02*
G01X22440Y10433D01*
G01X22440Y10433D02*
G01X22440Y5708D01*
G01X22440Y5708D02*
G01X26968Y5708D01*
G04 draw reference designator for part U1*
G54D11*
G01X24606Y8351D02*
G01X24606Y8010D01*
G01X24606Y8010D02*
G01X24629Y7942D01*
G01X24629Y7942D02*
G01X24674Y7896D01*
G01X24674Y7896D02*
G01X24742Y7874D01*
G01X24788Y7874D02*
G01X24742Y7874D01*
G01X24856Y7896D02*
G01X24788Y7874D01*
G01X24901Y7942D02*
G01X24856Y7896D01*
G01X24924Y8010D02*
G01X24901Y7942D01*
G01X24924Y8351D02*
G01X24924Y8010D01*
G01X25151Y8283D02*
G01X25106Y8260D01*
G01X25219Y8351D02*
G01X25151Y8283D01*
G01X25219Y8351D02*
G01X25219Y7874D01*
G04 Draw part X8*
G04 draw part outline for part X8*
G54D10*
G01X30708Y7890D02*
G01X30708Y7890D01*
G01X30708Y7890D02*
G01X30708Y7267D01*
G01X30708Y7267D02*
G01X30708Y7267D01*
G01X30708Y7267D02*
G01X30708Y7299D01*
G01X30708Y7299D02*
G01X30708Y7299D01*
G01X30708Y7299D02*
G01X30708Y7857D01*
G01X30708Y7857D02*
G01X30708Y7857D01*
G01X30708Y7857D02*
G01X30708Y7890D01*
G04 draw reference designator for part X8*
G54D11*
G01X30314Y7760D02*
G01X30633Y7283D01*
G01X30633Y7760D02*
G01X30314Y7283D01*
G01X30928Y7760D02*
G01X30860Y7738D01*
G01X30860Y7738D02*
G01X30837Y7692D01*
G01X30837Y7692D02*
G01X30837Y7647D01*
G01X30837Y7647D02*
G01X30860Y7601D01*
G01X30860Y7601D02*
G01X30905Y7578D01*
G01X30905Y7578D02*
G01X30996Y7556D01*
G01X30996Y7556D02*
G01X31064Y7533D01*
G01X31064Y7533D02*
G01X31110Y7488D01*
G01X31110Y7488D02*
G01X31133Y7442D01*
G01X31133Y7442D02*
G01X31133Y7374D01*
G01X31133Y7374D02*
G01X31110Y7328D01*
G01X31110Y7328D02*
G01X31087Y7306D01*
G01X31087Y7306D02*
G01X31019Y7283D01*
G01X30928Y7283D02*
G01X31019Y7283D01*
G01X30860Y7306D02*
G01X30928Y7283D01*
G01X30837Y7328D02*
G01X30860Y7306D01*
G01X30814Y7374D02*
G01X30837Y7328D01*
G01X30814Y7442D02*
G01X30814Y7374D01*
G01X30837Y7488D02*
G01X30814Y7442D01*
G01X30883Y7533D02*
G01X30837Y7488D01*
G01X30951Y7556D02*
G01X30883Y7533D01*
G01X31042Y7578D02*
G01X30951Y7556D01*
G01X31087Y7601D02*
G01X31042Y7578D01*
G01X31110Y7647D02*
G01X31087Y7601D01*
G01X31110Y7692D02*
G01X31110Y7647D01*
G01X31087Y7738D02*
G01X31110Y7692D01*
G01X31019Y7760D02*
G01X31087Y7738D01*
G01X30928Y7760D02*
G01X31019Y7760D01*
G04 Draw part C81*
G04 draw part outline for part C81*
G54D10*
G01X28602Y7401D02*
G01X29940Y7401D01*
G01X29940Y7401D02*
G01X29940Y6692D01*
G01X29940Y6692D02*
G01X28602Y6692D01*
G01X28602Y6692D02*
G01X28602Y7401D01*
G04 draw reference designator for part C81*
G54D11*
G01X27809Y7172D02*
G01X27827Y7136D01*
G01X27773Y7208D02*
G01X27809Y7172D01*
G01X27738Y7226D02*
G01X27773Y7208D01*
G01X27666Y7226D02*
G01X27738Y7226D01*
G01X27666Y7226D02*
G01X27630Y7208D01*
G01X27630Y7208D02*
G01X27594Y7172D01*
G01X27594Y7172D02*
G01X27576Y7136D01*
G01X27576Y7136D02*
G01X27559Y7083D01*
G01X27559Y7083D02*
G01X27559Y6993D01*
G01X27559Y6993D02*
G01X27576Y6939D01*
G01X27576Y6939D02*
G01X27594Y6904D01*
G01X27594Y6904D02*
G01X27630Y6868D01*
G01X27630Y6868D02*
G01X27666Y6850D01*
G01X27738Y6850D02*
G01X27666Y6850D01*
G01X27773Y6868D02*
G01X27738Y6850D01*
G01X27809Y6904D02*
G01X27773Y6868D01*
G01X27827Y6939D02*
G01X27809Y6904D01*
G01X28060Y7226D02*
G01X28006Y7208D01*
G01X28006Y7208D02*
G01X27988Y7172D01*
G01X27988Y7172D02*
G01X27988Y7136D01*
G01X27988Y7136D02*
G01X28006Y7100D01*
G01X28006Y7100D02*
G01X28042Y7083D01*
G01X28042Y7083D02*
G01X28113Y7065D01*
G01X28113Y7065D02*
G01X28167Y7047D01*
G01X28167Y7047D02*
G01X28203Y7011D01*
G01X28203Y7011D02*
G01X28221Y6975D01*
G01X28221Y6975D02*
G01X28221Y6921D01*
G01X28221Y6921D02*
G01X28203Y6886D01*
G01X28203Y6886D02*
G01X28185Y6868D01*
G01X28185Y6868D02*
G01X28131Y6850D01*
G01X28060Y6850D02*
G01X28131Y6850D01*
G01X28006Y6868D02*
G01X28060Y6850D01*
G01X27988Y6886D02*
G01X28006Y6868D01*
G01X27970Y6921D02*
G01X27988Y6886D01*
G01X27970Y6975D02*
G01X27970Y6921D01*
G01X27988Y7011D02*
G01X27970Y6975D01*
G01X28024Y7047D02*
G01X27988Y7011D01*
G01X28078Y7065D02*
G01X28024Y7047D01*
G01X28149Y7083D02*
G01X28078Y7065D01*
G01X28185Y7100D02*
G01X28149Y7083D01*
G01X28203Y7136D02*
G01X28185Y7100D01*
G01X28203Y7172D02*
G01X28203Y7136D01*
G01X28185Y7208D02*
G01X28203Y7172D01*
G01X28131Y7226D02*
G01X28185Y7208D01*
G01X28060Y7226D02*
G01X28131Y7226D01*
G01X28400Y7172D02*
G01X28364Y7154D01*
G01X28453Y7226D02*
G01X28400Y7172D01*
G01X28453Y7226D02*
G01X28453Y6850D01*
G04 Draw part C82*
G04 draw part outline for part C82*
G54D10*
G01X28602Y6259D02*
G01X29940Y6259D01*
G01X29940Y6259D02*
G01X29940Y5551D01*
G01X29940Y5551D02*
G01X28602Y5551D01*
G01X28602Y5551D02*
G01X28602Y6259D01*
G04 draw reference designator for part C82*
G54D11*
G01X27809Y6030D02*
G01X27827Y5994D01*
G01X27773Y6066D02*
G01X27809Y6030D01*
G01X27738Y6084D02*
G01X27773Y6066D01*
G01X27666Y6084D02*
G01X27738Y6084D01*
G01X27666Y6084D02*
G01X27630Y6066D01*
G01X27630Y6066D02*
G01X27594Y6030D01*
G01X27594Y6030D02*
G01X27576Y5994D01*
G01X27576Y5994D02*
G01X27559Y5941D01*
G01X27559Y5941D02*
G01X27559Y5851D01*
G01X27559Y5851D02*
G01X27576Y5798D01*
G01X27576Y5798D02*
G01X27594Y5762D01*
G01X27594Y5762D02*
G01X27630Y5726D01*
G01X27630Y5726D02*
G01X27666Y5708D01*
G01X27738Y5708D02*
G01X27666Y5708D01*
G01X27773Y5726D02*
G01X27738Y5708D01*
G01X27809Y5762D02*
G01X27773Y5726D01*
G01X27827Y5798D02*
G01X27809Y5762D01*
G01X28060Y6084D02*
G01X28006Y6066D01*
G01X28006Y6066D02*
G01X27988Y6030D01*
G01X27988Y6030D02*
G01X27988Y5994D01*
G01X27988Y5994D02*
G01X28006Y5959D01*
G01X28006Y5959D02*
G01X28042Y5941D01*
G01X28042Y5941D02*
G01X28113Y5923D01*
G01X28113Y5923D02*
G01X28167Y5905D01*
G01X28167Y5905D02*
G01X28203Y5869D01*
G01X28203Y5869D02*
G01X28221Y5833D01*
G01X28221Y5833D02*
G01X28221Y5780D01*
G01X28221Y5780D02*
G01X28203Y5744D01*
G01X28203Y5744D02*
G01X28185Y5726D01*
G01X28185Y5726D02*
G01X28131Y5708D01*
G01X28060Y5708D02*
G01X28131Y5708D01*
G01X28006Y5726D02*
G01X28060Y5708D01*
G01X27988Y5744D02*
G01X28006Y5726D01*
G01X27970Y5780D02*
G01X27988Y5744D01*
G01X27970Y5833D02*
G01X27970Y5780D01*
G01X27988Y5869D02*
G01X27970Y5833D01*
G01X28024Y5905D02*
G01X27988Y5869D01*
G01X28078Y5923D02*
G01X28024Y5905D01*
G01X28149Y5941D02*
G01X28078Y5923D01*
G01X28185Y5959D02*
G01X28149Y5941D01*
G01X28203Y5994D02*
G01X28185Y5959D01*
G01X28203Y6030D02*
G01X28203Y5994D01*
G01X28185Y6066D02*
G01X28203Y6030D01*
G01X28131Y6084D02*
G01X28185Y6066D01*
G01X28060Y6084D02*
G01X28131Y6084D01*
G01X28382Y6012D02*
G01X28382Y5994D01*
G01X28400Y6048D02*
G01X28382Y6012D01*
G01X28418Y6066D02*
G01X28400Y6048D01*
G01X28453Y6084D02*
G01X28418Y6066D01*
G01X28525Y6084D02*
G01X28453Y6084D01*
G01X28525Y6084D02*
G01X28561Y6066D01*
G01X28561Y6066D02*
G01X28579Y6048D01*
G01X28579Y6048D02*
G01X28596Y6012D01*
G01X28596Y6012D02*
G01X28596Y5977D01*
G01X28596Y5977D02*
G01X28579Y5941D01*
G01X28579Y5941D02*
G01X28543Y5887D01*
G01X28543Y5887D02*
G01X28364Y5708D01*
G01X28614Y5708D02*
G01X28364Y5708D01*
G04 Draw part R11*
G04 draw part outline for part R11*
G54D10*
G01X28405Y10984D02*
G01X29744Y10984D01*
G01X29744Y10984D02*
G01X29744Y10275D01*
G01X29744Y10275D02*
G01X28405Y10275D01*
G01X28405Y10275D02*
G01X28405Y10984D01*
G04 draw reference designator for part R11*
G54D11*
G01X27559Y10808D02*
G01X27559Y10433D01*
G01X27720Y10808D02*
G01X27559Y10808D01*
G01X27720Y10808D02*
G01X27773Y10790D01*
G01X27773Y10790D02*
G01X27791Y10773D01*
G01X27791Y10773D02*
G01X27809Y10737D01*
G01X27809Y10737D02*
G01X27809Y10701D01*
G01X27809Y10701D02*
G01X27791Y10665D01*
G01X27791Y10665D02*
G01X27773Y10647D01*
G01X27773Y10647D02*
G01X27720Y10629D01*
G01X27559Y10629D02*
G01X27720Y10629D01*
G01X27684Y10629D02*
G01X27809Y10433D01*
G01X27988Y10755D02*
G01X27952Y10737D01*
G01X28042Y10808D02*
G01X27988Y10755D01*
G01X28042Y10808D02*
G01X28042Y10433D01*
G01X28221Y10755D02*
G01X28185Y10737D01*
G01X28274Y10808D02*
G01X28221Y10755D01*
G01X28274Y10808D02*
G01X28274Y10433D01*
G04 Draw part C41*
G04 draw part outline for part C41*
G54D10*
G01X4881Y11968D02*
G01X6220Y11968D01*
G01X6220Y11968D02*
G01X6220Y11259D01*
G01X6220Y11259D02*
G01X4881Y11259D01*
G01X4881Y11259D02*
G01X4881Y11968D01*
G04 draw reference designator for part C41*
G54D11*
G01X3892Y11739D02*
G01X3910Y11703D01*
G01X3856Y11775D02*
G01X3892Y11739D01*
G01X3820Y11793D02*
G01X3856Y11775D01*
G01X3749Y11793D02*
G01X3820Y11793D01*
G01X3749Y11793D02*
G01X3713Y11775D01*
G01X3713Y11775D02*
G01X3677Y11739D01*
G01X3677Y11739D02*
G01X3659Y11703D01*
G01X3659Y11703D02*
G01X3641Y11649D01*
G01X3641Y11649D02*
G01X3641Y11560D01*
G01X3641Y11560D02*
G01X3659Y11506D01*
G01X3659Y11506D02*
G01X3677Y11471D01*
G01X3677Y11471D02*
G01X3713Y11435D01*
G01X3713Y11435D02*
G01X3749Y11417D01*
G01X3820Y11417D02*
G01X3749Y11417D01*
G01X3856Y11435D02*
G01X3820Y11417D01*
G01X3892Y11471D02*
G01X3856Y11435D01*
G01X3910Y11506D02*
G01X3892Y11471D01*
G01X4232Y11793D02*
G01X4053Y11542D01*
G01X4321Y11542D02*
G01X4053Y11542D01*
G01X4232Y11793D02*
G01X4232Y11417D01*
G01X4500Y11739D02*
G01X4464Y11721D01*
G01X4554Y11793D02*
G01X4500Y11739D01*
G01X4554Y11793D02*
G01X4554Y11417D01*
G04 Draw part C42*
G04 draw part outline for part C42*
G54D10*
G01X4881Y11082D02*
G01X6220Y11082D01*
G01X6220Y11082D02*
G01X6220Y10374D01*
G01X6220Y10374D02*
G01X4881Y10374D01*
G01X4881Y10374D02*
G01X4881Y11082D01*
G04 draw reference designator for part C42*
G54D11*
G01X3892Y11050D02*
G01X3910Y11014D01*
G01X3856Y11086D02*
G01X3892Y11050D01*
G01X3820Y11104D02*
G01X3856Y11086D01*
G01X3749Y11104D02*
G01X3820Y11104D01*
G01X3749Y11104D02*
G01X3713Y11086D01*
G01X3713Y11086D02*
G01X3677Y11050D01*
G01X3677Y11050D02*
G01X3659Y11014D01*
G01X3659Y11014D02*
G01X3641Y10960D01*
G01X3641Y10960D02*
G01X3641Y10871D01*
G01X3641Y10871D02*
G01X3659Y10817D01*
G01X3659Y10817D02*
G01X3677Y10782D01*
G01X3677Y10782D02*
G01X3713Y10746D01*
G01X3713Y10746D02*
G01X3749Y10728D01*
G01X3820Y10728D02*
G01X3749Y10728D01*
G01X3856Y10746D02*
G01X3820Y10728D01*
G01X3892Y10782D02*
G01X3856Y10746D01*
G01X3910Y10817D02*
G01X3892Y10782D01*
G01X4232Y11104D02*
G01X4053Y10853D01*
G01X4321Y10853D02*
G01X4053Y10853D01*
G01X4232Y11104D02*
G01X4232Y10728D01*
G01X4482Y11032D02*
G01X4482Y11014D01*
G01X4500Y11068D02*
G01X4482Y11032D01*
G01X4518Y11086D02*
G01X4500Y11068D01*
G01X4554Y11104D02*
G01X4518Y11086D01*
G01X4625Y11104D02*
G01X4554Y11104D01*
G01X4625Y11104D02*
G01X4661Y11086D01*
G01X4661Y11086D02*
G01X4679Y11068D01*
G01X4679Y11068D02*
G01X4697Y11032D01*
G01X4697Y11032D02*
G01X4697Y10996D01*
G01X4697Y10996D02*
G01X4679Y10960D01*
G01X4679Y10960D02*
G01X4643Y10907D01*
G01X4643Y10907D02*
G01X4464Y10728D01*
G01X4715Y10728D02*
G01X4464Y10728D01*
G04 Draw part U2*
G04 draw part outline for part U2*
G54D10*
G01X17716Y6102D02*
G01X17913Y6299D01*
G01X17913Y6299D02*
G01X17913Y9055D01*
G01X17913Y9055D02*
G01X14960Y9055D01*
G01X14960Y9055D02*
G01X14960Y6102D01*
G01X14960Y6102D02*
G01X17716Y6102D01*
G04 draw reference designator for part U2*
G54D11*
G01X15944Y7760D02*
G01X15944Y7419D01*
G01X15944Y7419D02*
G01X15967Y7351D01*
G01X15967Y7351D02*
G01X16013Y7306D01*
G01X16013Y7306D02*
G01X16081Y7283D01*
G01X16126Y7283D02*
G01X16081Y7283D01*
G01X16194Y7306D02*
G01X16126Y7283D01*
G01X16240Y7351D02*
G01X16194Y7306D01*
G01X16263Y7419D02*
G01X16240Y7351D01*
G01X16263Y7760D02*
G01X16263Y7419D01*
G01X16467Y7669D02*
G01X16467Y7647D01*
G01X16490Y7715D02*
G01X16467Y7669D01*
G01X16513Y7738D02*
G01X16490Y7715D01*
G01X16558Y7760D02*
G01X16513Y7738D01*
G01X16649Y7760D02*
G01X16558Y7760D01*
G01X16649Y7760D02*
G01X16694Y7738D01*
G01X16694Y7738D02*
G01X16717Y7715D01*
G01X16717Y7715D02*
G01X16740Y7669D01*
G01X16740Y7669D02*
G01X16740Y7624D01*
G01X16740Y7624D02*
G01X16717Y7578D01*
G01X16717Y7578D02*
G01X16672Y7510D01*
G01X16672Y7510D02*
G01X16444Y7283D01*
G01X16763Y7283D02*
G01X16444Y7283D01*
G04 Draw part U3*
G04 draw part outline for part U3*
G54D10*
G01X3300Y9055D02*
G01X3300Y4527D01*
G01X3300Y4527D02*
G01X9258Y4527D01*
G01X9258Y4527D02*
G01X9258Y9055D01*
G01X9258Y9055D02*
G01X6932Y9055D01*
G01X6932Y9055D02*
G01X6932Y9005D01*
G01X6932Y9005D02*
G01X5626Y9005D01*
G01X5626Y9005D02*
G01X5626Y9055D01*
G01X5626Y9055D02*
G01X3300Y9055D01*
G04 draw reference designator for part U3*
G54D11*
G01X5708Y7170D02*
G01X5708Y6829D01*
G01X5708Y6829D02*
G01X5731Y6761D01*
G01X5731Y6761D02*
G01X5776Y6715D01*
G01X5776Y6715D02*
G01X5845Y6692D01*
G01X5890Y6692D02*
G01X5845Y6692D01*
G01X5958Y6715D02*
G01X5890Y6692D01*
G01X6004Y6761D02*
G01X5958Y6715D01*
G01X6026Y6829D02*
G01X6004Y6761D01*
G01X6026Y7170D02*
G01X6026Y6829D01*
G01X6504Y7170D02*
G01X6254Y7170D01*
G01X6504Y7170D02*
G01X6367Y6988D01*
G01X6435Y6988D02*
G01X6367Y6988D01*
G01X6435Y6988D02*
G01X6481Y6965D01*
G01X6481Y6965D02*
G01X6504Y6942D01*
G01X6504Y6942D02*
G01X6526Y6874D01*
G01X6526Y6874D02*
G01X6526Y6829D01*
G01X6526Y6829D02*
G01X6504Y6761D01*
G01X6504Y6761D02*
G01X6458Y6715D01*
G01X6458Y6715D02*
G01X6390Y6692D01*
G01X6322Y6692D02*
G01X6390Y6692D01*
G01X6254Y6715D02*
G01X6322Y6692D01*
G01X6231Y6738D02*
G01X6254Y6715D01*
G01X6208Y6783D02*
G01X6231Y6738D01*
G04 Draw part U4*
G04 draw part outline for part U4*
G54D10*
G01X7057Y11417D02*
G01X7057Y10649D01*
G01X7057Y10649D02*
G01X7982Y10649D01*
G01X7982Y10649D02*
G01X7982Y11417D01*
G01X7982Y11417D02*
G01X7657Y11417D01*
G01X7657Y11417D02*
G01X7657Y11353D01*
G01X7657Y11353D02*
G01X7381Y11353D01*
G01X7381Y11353D02*
G01X7381Y11417D01*
G01X7381Y11417D02*
G01X7057Y11417D01*
G04 draw reference designator for part U4*
G54D11*
G01X7185Y12088D02*
G01X7185Y11819D01*
G01X7185Y11819D02*
G01X7202Y11766D01*
G01X7202Y11766D02*
G01X7238Y11730D01*
G01X7238Y11730D02*
G01X7292Y11712D01*
G01X7328Y11712D02*
G01X7292Y11712D01*
G01X7381Y11730D02*
G01X7328Y11712D01*
G01X7417Y11766D02*
G01X7381Y11730D01*
G01X7435Y11819D02*
G01X7417Y11766D01*
G01X7435Y12088D02*
G01X7435Y11819D01*
G01X7757Y12088D02*
G01X7578Y11837D01*
G01X7847Y11837D02*
G01X7578Y11837D01*
G01X7757Y12088D02*
G01X7757Y11712D01*
G04 Draw part L5*
G04 draw part outline for part L5*
G54D10*
G01X7027Y13031D02*
G01X8523Y13031D01*
G01X8523Y13031D02*
G01X8523Y12165D01*
G01X8523Y12165D02*
G01X7027Y12165D01*
G01X7027Y12165D02*
G01X7027Y13031D01*
G04 draw reference designator for part L5*
G54D11*
G01X6220Y12974D02*
G01X6220Y12598D01*
G01X6435Y12598D02*
G01X6220Y12598D01*
G01X6614Y12974D02*
G01X6793Y12974D01*
G01X6614Y12974D02*
G01X6596Y12813D01*
G01X6614Y12831D02*
G01X6596Y12813D01*
G01X6667Y12848D02*
G01X6614Y12831D01*
G01X6721Y12848D02*
G01X6667Y12848D01*
G01X6721Y12848D02*
G01X6775Y12831D01*
G01X6775Y12831D02*
G01X6811Y12795D01*
G01X6811Y12795D02*
G01X6828Y12741D01*
G01X6828Y12741D02*
G01X6828Y12705D01*
G01X6828Y12705D02*
G01X6811Y12652D01*
G01X6811Y12652D02*
G01X6775Y12616D01*
G01X6775Y12616D02*
G01X6721Y12598D01*
G01X6667Y12598D02*
G01X6721Y12598D01*
G01X6614Y12616D02*
G01X6667Y12598D01*
G01X6596Y12634D02*
G01X6614Y12616D01*
G01X6578Y12670D02*
G01X6596Y12634D01*
G04 Draw part J5*
G04 draw part outline for part J5*
G54D12*
G01X6338Y12165D02*
G01X1141Y12165D01*
G01X1141Y12165D02*
G01X1141Y17755D01*
G01X1141Y17755D02*
G01X6338Y17755D01*
G01X6338Y17755D02*
G01X6338Y12165D01*
G04 draw reference designator for part J5*
G54D13*
G01X3310Y14334D02*
G01X3310Y13761D01*
G01X3310Y13761D02*
G01X3274Y13654D01*
G01X3274Y13654D02*
G01X3239Y13618D01*
G01X3239Y13618D02*
G01X3167Y13582D01*
G01X3095Y13582D02*
G01X3167Y13582D01*
G01X3024Y13618D02*
G01X3095Y13582D01*
G01X2988Y13654D02*
G01X3024Y13618D01*
G01X2952Y13761D02*
G01X2988Y13654D01*
G01X2952Y13833D02*
G01X2952Y13761D01*
G01X3668Y14334D02*
G01X4026Y14334D01*
G01X3668Y14334D02*
G01X3632Y14012D01*
G01X3668Y14047D02*
G01X3632Y14012D01*
G01X3775Y14083D02*
G01X3668Y14047D01*
G01X3883Y14083D02*
G01X3775Y14083D01*
G01X3883Y14083D02*
G01X3990Y14047D01*
G01X3990Y14047D02*
G01X4062Y13976D01*
G01X4062Y13976D02*
G01X4098Y13869D01*
G01X4098Y13869D02*
G01X4098Y13797D01*
G01X4098Y13797D02*
G01X4062Y13690D01*
G01X4062Y13690D02*
G01X3990Y13618D01*
G01X3990Y13618D02*
G01X3883Y13582D01*
G01X3775Y13582D02*
G01X3883Y13582D01*
G01X3668Y13618D02*
G01X3775Y13582D01*
G01X3632Y13654D02*
G01X3668Y13618D01*
G01X3596Y13725D02*
G01X3632Y13654D01*
G04 Draw part J6*
G04 draw part outline for part J6*
G54D12*
G01X31141Y12165D02*
G01X25944Y12165D01*
G01X25944Y12165D02*
G01X25944Y17755D01*
G01X25944Y17755D02*
G01X31141Y17755D01*
G01X31141Y17755D02*
G01X31141Y12165D01*
G04 draw reference designator for part J6*
G54D13*
G01X28507Y14334D02*
G01X28507Y13761D01*
G01X28507Y13761D02*
G01X28471Y13654D01*
G01X28471Y13654D02*
G01X28435Y13618D01*
G01X28435Y13618D02*
G01X28364Y13582D01*
G01X28292Y13582D02*
G01X28364Y13582D01*
G01X28221Y13618D02*
G01X28292Y13582D01*
G01X28185Y13654D02*
G01X28221Y13618D01*
G01X28149Y13761D02*
G01X28185Y13654D01*
G01X28149Y13833D02*
G01X28149Y13761D01*
G01X29187Y14298D02*
G01X29223Y14226D01*
G01X29080Y14334D02*
G01X29187Y14298D01*
G01X29008Y14334D02*
G01X29080Y14334D01*
G01X29008Y14334D02*
G01X28901Y14298D01*
G01X28901Y14298D02*
G01X28829Y14191D01*
G01X28829Y14191D02*
G01X28793Y14012D01*
G01X28793Y14012D02*
G01X28793Y13833D01*
G01X28793Y13833D02*
G01X28829Y13690D01*
G01X28829Y13690D02*
G01X28901Y13618D01*
G01X28901Y13618D02*
G01X29008Y13582D01*
G01X29044Y13582D02*
G01X29008Y13582D01*
G01X29151Y13618D02*
G01X29044Y13582D01*
G01X29223Y13690D02*
G01X29151Y13618D01*
G01X29259Y13797D02*
G01X29223Y13690D01*
G01X29259Y13833D02*
G01X29259Y13797D01*
G01X29223Y13940D02*
G01X29259Y13833D01*
G01X29151Y14012D02*
G01X29223Y13940D01*
G01X29044Y14047D02*
G01X29151Y14012D01*
G01X29008Y14047D02*
G01X29044Y14047D01*
G01X29008Y14047D02*
G01X28901Y14012D01*
G01X28901Y14012D02*
G01X28829Y13940D01*
G01X28829Y13940D02*
G01X28793Y13833D01*
G04 Draw part J7*
G04 draw part outline for part J7*
G54D12*
G01X18110Y11692D02*
G01X14173Y11692D01*
G01X14173Y11692D02*
G01X14173Y15275D01*
G01X14173Y15275D02*
G01X18110Y15275D01*
G01X18110Y15275D02*
G01X18110Y11692D01*
G04 draw reference designator for part J7*
G54D13*
G01X16105Y14334D02*
G01X16105Y13761D01*
G01X16105Y13761D02*
G01X16070Y13654D01*
G01X16070Y13654D02*
G01X16034Y13618D01*
G01X16034Y13618D02*
G01X15962Y13582D01*
G01X15891Y13582D02*
G01X15962Y13582D01*
G01X15819Y13618D02*
G01X15891Y13582D01*
G01X15783Y13654D02*
G01X15819Y13618D01*
G01X15748Y13761D02*
G01X15783Y13654D01*
G01X15748Y13833D02*
G01X15748Y13761D01*
G01X16893Y14334D02*
G01X16535Y13582D01*
G01X16893Y14334D02*
G01X16392Y14334D01*
G04 Draw part J9*
G04 draw part outline for part J9*
G04 draw reference designator for part J9*
G54D11*
G01X18525Y13643D02*
G01X18525Y13357D01*
G01X18525Y13357D02*
G01X18507Y13303D01*
G01X18507Y13303D02*
G01X18489Y13285D01*
G01X18489Y13285D02*
G01X18453Y13267D01*
G01X18418Y13267D02*
G01X18453Y13267D01*
G01X18382Y13285D02*
G01X18418Y13267D01*
G01X18364Y13303D02*
G01X18382Y13285D01*
G01X18346Y13357D02*
G01X18364Y13303D01*
G01X18346Y13392D02*
G01X18346Y13357D01*
G01X18901Y13518D02*
G01X18883Y13464D01*
G01X18883Y13464D02*
G01X18847Y13428D01*
G01X18847Y13428D02*
G01X18793Y13410D01*
G01X18775Y13410D02*
G01X18793Y13410D01*
G01X18722Y13428D02*
G01X18775Y13410D01*
G01X18686Y13464D02*
G01X18722Y13428D01*
G01X18668Y13518D02*
G01X18686Y13464D01*
G01X18668Y13536D02*
G01X18668Y13518D01*
G01X18686Y13589D02*
G01X18668Y13536D01*
G01X18722Y13625D02*
G01X18686Y13589D01*
G01X18775Y13643D02*
G01X18722Y13625D01*
G01X18793Y13643D02*
G01X18775Y13643D01*
G01X18793Y13643D02*
G01X18847Y13625D01*
G01X18847Y13625D02*
G01X18883Y13589D01*
G01X18883Y13589D02*
G01X18901Y13518D01*
G01X18901Y13518D02*
G01X18901Y13428D01*
G01X18901Y13428D02*
G01X18883Y13339D01*
G01X18883Y13339D02*
G01X18847Y13285D01*
G01X18847Y13285D02*
G01X18793Y13267D01*
G01X18758Y13267D02*
G01X18793Y13267D01*
G01X18704Y13285D02*
G01X18758Y13267D01*
G01X18686Y13321D02*
G01X18704Y13285D01*
G04 Draw part C51*
G04 draw part outline for part C51*
G54D12*
G01X13188Y13188D02*
G01X13188Y10590D01*
G01X13188Y10590D02*
G01X10984Y10590D01*
G01X10984Y10590D02*
G01X10590Y10984D01*
G01X10590Y10984D02*
G01X10590Y12795D01*
G01X10590Y12795D02*
G01X10984Y13188D01*
G01X10984Y13188D02*
G01X13188Y13188D01*
G01X10236Y10551D02*
G01X10236Y10944D01*
G01X10433Y10748D02*
G01X10039Y10748D01*
G04 draw reference designator for part C51*
G54D10*
G01X11648Y11326D02*
G01X11666Y11290D01*
G01X11612Y11361D02*
G01X11648Y11326D01*
G01X11576Y11379D02*
G01X11612Y11361D01*
G01X11505Y11379D02*
G01X11576Y11379D01*
G01X11505Y11379D02*
G01X11469Y11361D01*
G01X11469Y11361D02*
G01X11433Y11326D01*
G01X11433Y11326D02*
G01X11415Y11290D01*
G01X11415Y11290D02*
G01X11397Y11236D01*
G01X11397Y11236D02*
G01X11397Y11147D01*
G01X11397Y11147D02*
G01X11415Y11093D01*
G01X11415Y11093D02*
G01X11433Y11057D01*
G01X11433Y11057D02*
G01X11469Y11021D01*
G01X11469Y11021D02*
G01X11505Y11003D01*
G01X11576Y11003D02*
G01X11505Y11003D01*
G01X11612Y11021D02*
G01X11576Y11003D01*
G01X11648Y11057D02*
G01X11612Y11021D01*
G01X11666Y11093D02*
G01X11648Y11057D01*
G01X11845Y11379D02*
G01X12023Y11379D01*
G01X11845Y11379D02*
G01X11827Y11218D01*
G01X11845Y11236D02*
G01X11827Y11218D01*
G01X11898Y11254D02*
G01X11845Y11236D01*
G01X11952Y11254D02*
G01X11898Y11254D01*
G01X11952Y11254D02*
G01X12006Y11236D01*
G01X12006Y11236D02*
G01X12041Y11200D01*
G01X12041Y11200D02*
G01X12059Y11147D01*
G01X12059Y11147D02*
G01X12059Y11111D01*
G01X12059Y11111D02*
G01X12041Y11057D01*
G01X12041Y11057D02*
G01X12006Y11021D01*
G01X12006Y11021D02*
G01X11952Y11003D01*
G01X11898Y11003D02*
G01X11952Y11003D01*
G01X11845Y11021D02*
G01X11898Y11003D01*
G01X11827Y11039D02*
G01X11845Y11021D01*
G01X11809Y11075D02*
G01X11827Y11039D01*
G01X12238Y11326D02*
G01X12202Y11308D01*
G01X12292Y11379D02*
G01X12238Y11326D01*
G01X12292Y11379D02*
G01X12292Y11003D01*
G04 Draw part M1*
G04 draw part outline for part M1*
G04 draw reference designator for part M1*
G54D11*
G01X787Y11596D02*
G01X787Y11220D01*
G01X787Y11596D02*
G01X930Y11220D01*
G01X1073Y11596D02*
G01X930Y11220D01*
G01X1073Y11596D02*
G01X1073Y11220D01*
G01X1252Y11542D02*
G01X1216Y11524D01*
G01X1306Y11596D02*
G01X1252Y11542D01*
G01X1306Y11596D02*
G01X1306Y11220D01*
G04 Draw part M2*
G04 draw part outline for part M2*
G04 draw reference designator for part M2*
G01X30708Y11596D02*
G01X30708Y11220D01*
G01X30708Y11596D02*
G01X30851Y11220D01*
G01X30994Y11596D02*
G01X30851Y11220D01*
G01X30994Y11596D02*
G01X30994Y11220D01*
G01X31156Y11524D02*
G01X31156Y11506D01*
G01X31173Y11560D02*
G01X31156Y11524D01*
G01X31191Y11578D02*
G01X31173Y11560D01*
G01X31227Y11596D02*
G01X31191Y11578D01*
G01X31299Y11596D02*
G01X31227Y11596D01*
G01X31299Y11596D02*
G01X31335Y11578D01*
G01X31335Y11578D02*
G01X31352Y11560D01*
G01X31352Y11560D02*
G01X31370Y11524D01*
G01X31370Y11524D02*
G01X31370Y11488D01*
G01X31370Y11488D02*
G01X31352Y11453D01*
G01X31352Y11453D02*
G01X31317Y11399D01*
G01X31317Y11399D02*
G01X31138Y11220D01*
G01X31388Y11220D02*
G01X31138Y11220D01*
G04 Draw part C44*
G04 draw part outline for part C44*
G54D10*
G01X22148Y4415D02*
G01X24228Y4415D01*
G01X24228Y4415D02*
G01X24228Y3615D01*
G01X24228Y3615D02*
G01X22148Y3615D01*
G01X22148Y3615D02*
G01X22148Y4415D01*
G54D12*
G01X21598Y4215D02*
G01X21998Y4215D01*
G01X21798Y4415D02*
G01X21798Y4015D01*
G04 draw reference designator for part C44*
G54D10*
G01X20782Y3944D02*
G01X20799Y3908D01*
G01X20746Y3979D02*
G01X20782Y3944D01*
G01X20710Y3997D02*
G01X20746Y3979D01*
G01X20638Y3997D02*
G01X20710Y3997D01*
G01X20638Y3997D02*
G01X20603Y3979D01*
G01X20603Y3979D02*
G01X20567Y3944D01*
G01X20567Y3944D02*
G01X20549Y3908D01*
G01X20549Y3908D02*
G01X20531Y3854D01*
G01X20531Y3854D02*
G01X20531Y3765D01*
G01X20531Y3765D02*
G01X20549Y3711D01*
G01X20549Y3711D02*
G01X20567Y3675D01*
G01X20567Y3675D02*
G01X20603Y3639D01*
G01X20603Y3639D02*
G01X20638Y3622D01*
G01X20710Y3622D02*
G01X20638Y3622D01*
G01X20746Y3639D02*
G01X20710Y3622D01*
G01X20782Y3675D02*
G01X20746Y3639D01*
G01X20799Y3711D02*
G01X20782Y3675D01*
G01X21122Y3997D02*
G01X20943Y3747D01*
G01X21211Y3747D02*
G01X20943Y3747D01*
G01X21122Y3997D02*
G01X21122Y3622D01*
G01X21533Y3997D02*
G01X21354Y3747D01*
G01X21623Y3747D02*
G01X21354Y3747D01*
G01X21533Y3997D02*
G01X21533Y3622D01*
G04 Draw part C43*
G04 draw part outline for part C43*
G01X5534Y10163D02*
G01X7614Y10163D01*
G01X7614Y10163D02*
G01X7614Y9363D01*
G01X7614Y9363D02*
G01X5534Y9363D01*
G01X5534Y9363D02*
G01X5534Y10163D01*
G54D12*
G01X4984Y9963D02*
G01X5384Y9963D01*
G01X5184Y10163D02*
G01X5184Y9763D01*
G04 draw reference designator for part C43*
G54D10*
G01X4167Y9692D02*
G01X4185Y9656D01*
G01X4132Y9727D02*
G01X4167Y9692D01*
G01X4096Y9745D02*
G01X4132Y9727D01*
G01X4024Y9745D02*
G01X4096Y9745D01*
G01X4024Y9745D02*
G01X3988Y9727D01*
G01X3988Y9727D02*
G01X3953Y9692D01*
G01X3953Y9692D02*
G01X3935Y9656D01*
G01X3935Y9656D02*
G01X3917Y9602D01*
G01X3917Y9602D02*
G01X3917Y9513D01*
G01X3917Y9513D02*
G01X3935Y9459D01*
G01X3935Y9459D02*
G01X3953Y9423D01*
G01X3953Y9423D02*
G01X3988Y9387D01*
G01X3988Y9387D02*
G01X4024Y9370D01*
G01X4096Y9370D02*
G01X4024Y9370D01*
G01X4132Y9387D02*
G01X4096Y9370D01*
G01X4167Y9423D02*
G01X4132Y9387D01*
G01X4185Y9459D02*
G01X4167Y9423D01*
G01X4507Y9745D02*
G01X4328Y9495D01*
G01X4597Y9495D02*
G01X4328Y9495D01*
G01X4507Y9745D02*
G01X4507Y9370D01*
G01X4973Y9745D02*
G01X4776Y9745D01*
G01X4973Y9745D02*
G01X4865Y9602D01*
G01X4919Y9602D02*
G01X4865Y9602D01*
G01X4919Y9602D02*
G01X4955Y9584D01*
G01X4955Y9584D02*
G01X4973Y9566D01*
G01X4973Y9566D02*
G01X4991Y9513D01*
G01X4991Y9513D02*
G01X4991Y9477D01*
G01X4991Y9477D02*
G01X4973Y9423D01*
G01X4973Y9423D02*
G01X4937Y9387D01*
G01X4937Y9387D02*
G01X4883Y9370D01*
G01X4829Y9370D02*
G01X4883Y9370D01*
G01X4776Y9387D02*
G01X4829Y9370D01*
G01X4758Y9405D02*
G01X4776Y9387D01*
G01X4740Y9441D02*
G01X4758Y9405D01*
G04 Draw part C71*
G04 draw part outline for part C71*
G01X9409Y13956D02*
G01X9409Y12618D01*
G01X9409Y12618D02*
G01X8700Y12618D01*
G01X8700Y12618D02*
G01X8700Y13956D01*
G01X8700Y13956D02*
G01X9409Y13956D01*
G04 draw reference designator for part C71*
G54D11*
G01X7927Y13353D02*
G01X7945Y13317D01*
G01X7891Y13389D02*
G01X7927Y13353D01*
G01X7856Y13407D02*
G01X7891Y13389D01*
G01X7784Y13407D02*
G01X7856Y13407D01*
G01X7784Y13407D02*
G01X7748Y13389D01*
G01X7748Y13389D02*
G01X7712Y13353D01*
G01X7712Y13353D02*
G01X7695Y13317D01*
G01X7695Y13317D02*
G01X7677Y13264D01*
G01X7677Y13264D02*
G01X7677Y13174D01*
G01X7677Y13174D02*
G01X7695Y13120D01*
G01X7695Y13120D02*
G01X7712Y13085D01*
G01X7712Y13085D02*
G01X7748Y13049D01*
G01X7748Y13049D02*
G01X7784Y13031D01*
G01X7856Y13031D02*
G01X7784Y13031D01*
G01X7891Y13049D02*
G01X7856Y13031D01*
G01X7927Y13085D02*
G01X7891Y13049D01*
G01X7945Y13120D02*
G01X7927Y13085D01*
G01X8339Y13407D02*
G01X8160Y13031D01*
G01X8339Y13407D02*
G01X8088Y13407D01*
G01X8518Y13353D02*
G01X8482Y13335D01*
G01X8571Y13407D02*
G01X8518Y13353D01*
G01X8571Y13407D02*
G01X8571Y13031D01*
G04 Draw part R71*
G04 draw part outline for part R71*
G54D10*
G01X10354Y13956D02*
G01X10354Y12618D01*
G01X10354Y12618D02*
G01X9645Y12618D01*
G01X9645Y12618D02*
G01X9645Y13956D01*
G01X9645Y13956D02*
G01X10354Y13956D01*
G04 draw reference designator for part R71*
G54D11*
G01X10492Y13407D02*
G01X10492Y13031D01*
G01X10653Y13407D02*
G01X10492Y13407D01*
G01X10653Y13407D02*
G01X10706Y13389D01*
G01X10706Y13389D02*
G01X10724Y13371D01*
G01X10724Y13371D02*
G01X10742Y13335D01*
G01X10742Y13335D02*
G01X10742Y13299D01*
G01X10742Y13299D02*
G01X10724Y13264D01*
G01X10724Y13264D02*
G01X10706Y13246D01*
G01X10706Y13246D02*
G01X10653Y13228D01*
G01X10492Y13228D02*
G01X10653Y13228D01*
G01X10617Y13228D02*
G01X10742Y13031D01*
G01X11136Y13407D02*
G01X10957Y13031D01*
G01X11136Y13407D02*
G01X10885Y13407D01*
G01X11315Y13353D02*
G01X11279Y13335D01*
G01X11369Y13407D02*
G01X11315Y13353D01*
G01X11369Y13407D02*
G01X11369Y13031D01*
G04 Draw part C33*
G04 draw part outline for part C33*
G54D10*
G01X905Y5610D02*
G01X905Y7106D01*
G01X905Y7106D02*
G01X1771Y7106D01*
G01X1771Y7106D02*
G01X1771Y5610D01*
G01X1771Y5610D02*
G01X905Y5610D01*
G04 draw reference designator for part C33*
G54D11*
G01X1301Y7788D02*
G01X1319Y7752D01*
G01X1266Y7824D02*
G01X1301Y7788D01*
G01X1230Y7841D02*
G01X1266Y7824D01*
G01X1158Y7841D02*
G01X1230Y7841D01*
G01X1158Y7841D02*
G01X1122Y7824D01*
G01X1122Y7824D02*
G01X1087Y7788D01*
G01X1087Y7788D02*
G01X1069Y7752D01*
G01X1069Y7752D02*
G01X1051Y7698D01*
G01X1051Y7698D02*
G01X1051Y7609D01*
G01X1051Y7609D02*
G01X1069Y7555D01*
G01X1069Y7555D02*
G01X1087Y7519D01*
G01X1087Y7519D02*
G01X1122Y7484D01*
G01X1122Y7484D02*
G01X1158Y7466D01*
G01X1230Y7466D02*
G01X1158Y7466D01*
G01X1266Y7484D02*
G01X1230Y7466D01*
G01X1301Y7519D02*
G01X1266Y7484D01*
G01X1319Y7555D02*
G01X1301Y7519D01*
G01X1695Y7841D02*
G01X1498Y7841D01*
G01X1695Y7841D02*
G01X1588Y7698D01*
G01X1641Y7698D02*
G01X1588Y7698D01*
G01X1641Y7698D02*
G01X1677Y7680D01*
G01X1677Y7680D02*
G01X1695Y7662D01*
G01X1695Y7662D02*
G01X1713Y7609D01*
G01X1713Y7609D02*
G01X1713Y7573D01*
G01X1713Y7573D02*
G01X1695Y7519D01*
G01X1695Y7519D02*
G01X1659Y7484D01*
G01X1659Y7484D02*
G01X1606Y7466D01*
G01X1552Y7466D02*
G01X1606Y7466D01*
G01X1498Y7484D02*
G01X1552Y7466D01*
G01X1480Y7501D02*
G01X1498Y7484D01*
G01X1462Y7537D02*
G01X1480Y7501D01*
G01X2089Y7841D02*
G01X1892Y7841D01*
G01X2089Y7841D02*
G01X1981Y7698D01*
G01X2035Y7698D02*
G01X1981Y7698D01*
G01X2035Y7698D02*
G01X2071Y7680D01*
G01X2071Y7680D02*
G01X2089Y7662D01*
G01X2089Y7662D02*
G01X2107Y7609D01*
G01X2107Y7609D02*
G01X2107Y7573D01*
G01X2107Y7573D02*
G01X2089Y7519D01*
G01X2089Y7519D02*
G01X2053Y7484D01*
G01X2053Y7484D02*
G01X1999Y7466D01*
G01X1946Y7466D02*
G01X1999Y7466D01*
G01X1892Y7484D02*
G01X1946Y7466D01*
G01X1874Y7501D02*
G01X1892Y7484D01*
G01X1856Y7537D02*
G01X1874Y7501D01*
G04 Draw part R12*
G04 draw part outline for part R12*
G54D10*
G01X2106Y10748D02*
G01X3444Y10748D01*
G01X3444Y10748D02*
G01X3444Y10039D01*
G01X3444Y10039D02*
G01X2106Y10039D01*
G01X2106Y10039D02*
G01X2106Y10748D01*
G04 draw reference designator for part R12*
G54D11*
G01X1102Y10612D02*
G01X1102Y10236D01*
G01X1263Y10612D02*
G01X1102Y10612D01*
G01X1263Y10612D02*
G01X1317Y10594D01*
G01X1317Y10594D02*
G01X1335Y10576D01*
G01X1335Y10576D02*
G01X1352Y10540D01*
G01X1352Y10540D02*
G01X1352Y10504D01*
G01X1352Y10504D02*
G01X1335Y10468D01*
G01X1335Y10468D02*
G01X1317Y10450D01*
G01X1317Y10450D02*
G01X1263Y10433D01*
G01X1102Y10433D02*
G01X1263Y10433D01*
G01X1227Y10433D02*
G01X1352Y10236D01*
G01X1531Y10558D02*
G01X1496Y10540D01*
G01X1585Y10612D02*
G01X1531Y10558D01*
G01X1585Y10612D02*
G01X1585Y10236D01*
G01X1746Y10540D02*
G01X1746Y10522D01*
G01X1764Y10576D02*
G01X1746Y10540D01*
G01X1782Y10594D02*
G01X1764Y10576D01*
G01X1818Y10612D02*
G01X1782Y10594D01*
G01X1889Y10612D02*
G01X1818Y10612D01*
G01X1889Y10612D02*
G01X1925Y10594D01*
G01X1925Y10594D02*
G01X1943Y10576D01*
G01X1943Y10576D02*
G01X1961Y10540D01*
G01X1961Y10540D02*
G01X1961Y10504D01*
G01X1961Y10504D02*
G01X1943Y10468D01*
G01X1943Y10468D02*
G01X1907Y10415D01*
G01X1907Y10415D02*
G01X1728Y10236D01*
G01X1979Y10236D02*
G01X1728Y10236D01*

G04 Draw traces*

G04 Draw Text*
G54D10*
G01X24645Y13611D02*
G01X24681Y13629D01*
G01X24681Y13629D02*
G01X24735Y13682D01*
G01X24735Y13682D02*
G01X24735Y13307D01*
M00*
M02*
