;Holesize 1 =   36.0 PLATED MILS
;Holesize 2 =   90.0 PLATED MILS
;Holesize 3 =   28.0 PLATED MILS
;Holesize 4 =  100.0 PLATED MILS
;Holesize 5 =   20.0 PLATED MILS
M48
INCH
T01C0.036
T02C0.090
T03C0.028
T04C0.100
T05C0.020
%
G05
G90
T01
X005118Y012598
X004133Y012598
X003346Y012598
X002362Y012598
X029921Y012598
X028937Y012598
X028149Y012598
X027165Y012598
T02
X006326Y013665
X001153Y013665
X031129Y013665
X025956Y013665
T03
X024251Y013464
X023251Y013464
X022251Y013464
X021251Y013464
X020251Y013464
X019251Y013464
T04
X001181Y011417
X031102Y011417
T05
X027165Y004094
X023149Y008425
X007480Y008346
X025196Y006771
X012834Y007716
X011102Y006062
X008503Y004015
X022047Y003937
X004488Y009842
X023622Y008740
X007165Y007559
X024881Y006062
X013307Y007480
X024566Y006771
X015354Y007716
X022755Y009055
X006850Y008346
X010787Y004409
X027165Y007952
X017244Y012755
X023228Y009370
X006535Y007559
X015984Y006299
X021653Y004724
X006220Y008346
X022755Y009685
X004724Y005275
X001259Y007322
X002992Y007165
X005590Y004015
X015511Y006456
X020551Y004724
X017637Y007244
X016535Y012755
X025826Y008818
X027244Y009685
X025826Y010314
X020551Y007086
X000787Y003937
X004960Y003937
X006102Y003937
X012007Y003937
X013779Y003937
X019040Y003840
X029724Y003937
X029409Y009133
X026870Y005708
X028937Y006555
X028937Y005413
X027480Y011299
X017165Y010708
X007283Y011614
X007775Y011614
X007283Y010472
X007755Y010472
X031496Y003937
X024330Y003937
X026377Y004212
X004724Y010728
X004724Y011614
X014881Y004330
X012598Y008976
X009606Y005118
X002992Y006614
X020275Y007598
X020196Y005669
X017086Y008976
X018031Y008897
X014881Y007716
X021181Y005669
X011771Y007519
X011771Y008110
X027244Y008464
X009606Y008976
X000748Y005984
X026023Y012007
X027244Y006850
X021496Y010787
X015118Y012755
X013307Y011259
X009527Y012440
X016062Y012755
X026220Y008582
X023622Y006614
X016614Y007637
X027244Y010157
X003937Y006062
X021102Y004724
X026220Y010078
X024881Y008110
X008976Y010787
X003149Y005118
X019921Y007165
X015039Y006456
X017401Y007637
X026141Y006062
X008582Y008582
X019685Y007637
X004330Y005669
X004015Y003937
X025826Y006771
X009212Y008582
X025511Y006062
X008897Y008976
X024724Y004212
X015590Y010708
X028740Y009153
X013267Y008976
X019527Y005669
X020866Y007598
X011102Y007519
X011102Y008110
X024881Y012480
X016535Y004015
X005354Y009645
X023622Y008110
X007795Y007559
X017165Y007244
M30
