G04 FreePCB version 1.334*
G04 c:\jag\pcb\jagwave\CAM\inner_copper_1.grb*
G04 inner 1 layer *
G04 Scale: 100 percent, Rotated: No, Reflected: No *
%FSLAX24Y24*%
%MOIN*%
%LNTop*%
%ADD10C,0.074000*%
%AMTHERM11*7,0,0,0.074000,0.053000,0.012000,0.0*%
%ADD11THERM11*%
%ADD12C,0.001000*%
%ADD13C,0.125551*%
%ADD14C,0.125000*%
%ADD15C,0.055000*%
%ADD16C,0.008000*%
%ADD17C,0.053000*%
%ADD18C,0.030000*%
G90*
G70D02*

G04 Step and Repeat for panelization *

G04 ----------------------- Draw copper area (positive)*
G36*
G01X32007Y393D02*
G01X8562Y393D01*
G01X8562Y3641D01*
G01X8070Y4133D01*
G01X7677Y4133D01*
G01X7185Y3641D01*
G01X7185Y393D01*
G01X275Y393D01*
G01X275Y14527D01*
G01X32007Y14527D01*
G01X32007Y393D01*
G37*

G04 -------------------- Draw copper area clearances (negative)*
%LPC*%

G04 Draw clearances for pads*
G54D10*
G01X5118Y12598D03*
G01X4133Y12598D03*
G01X3346Y12598D03*
G54D11*
G01X2362Y12598D03*
G54D12*
G54D13*
G01X6326Y13665D03*
G01X1153Y13665D03*
G54D10*
G01X29921Y12598D03*
G01X28937Y12598D03*
G01X28149Y12598D03*
G54D11*
G01X27165Y12598D03*
G54D12*
G54D13*
G01X31129Y13665D03*
G01X25956Y13665D03*
G54D10*
G01X24330Y13385D03*
G01X23330Y13385D03*
G01X22330Y13385D03*
G01X21330Y13385D03*
G54D11*
G01X20330Y13385D03*
G54D12*
G54D10*
G01X19330Y13385D03*
G54D14*
G01X1181Y11338D03*
G01X31102Y11338D03*

G04 Draw clearances for traces*
G54D15*
G01X22440Y8267D03*
G01X7165Y8346D03*
G01X24960Y6929D03*
G01X8582Y8976D03*
G01X24645Y5984D03*
G01X12204Y7322D03*
G01X10787Y6062D03*
G01X7795Y4409D03*
G01X4527Y10905D03*
G01X21811Y3779D03*
G01X23149Y8582D03*
G01X6850Y7559D03*
G01X22440Y8897D03*
G01X6535Y8346D03*
G01X10472Y4566D03*
G01X24330Y6929D03*
G01X8897Y8582D03*
G01X26929Y7952D03*
G01X17244Y12362D03*
G01X7401Y12913D03*
G01X23149Y9212D03*
G01X6220Y7559D03*
G01X15118Y6456D03*
G01X21496Y4724D03*
G01X5905Y8346D03*
G01X22440Y9527D03*
G01X4566Y5118D03*
G01X944Y7322D03*
G01X2677Y7165D03*
G01X5433Y4015D03*
G01X14645Y6456D03*
G01X20393Y4724D03*
G01X16850Y7559D03*
G01X16535Y13070D03*
G01X25590Y8818D03*
G01X27007Y9685D03*
G01X25590Y10314D03*
G01X20078Y11102D03*
G01X16062Y13070D03*
G01X25984Y8582D03*
G01X29133Y4960D03*
G01X28031Y4488D03*
G01X23385Y5669D03*
G01X16141Y7401D03*
G01X27007Y10157D03*
G01X3622Y6062D03*
G01X20866Y4724D03*
G01X25984Y10078D03*
G01X24409Y7795D03*
G01X7716Y10866D03*
G01X2834Y5118D03*
G01X15748Y7716D03*
G01X15590Y9133D03*
G01X17716Y7244D03*
G01X25905Y5984D03*
G01X12834Y7322D03*
G01X19212Y7244D03*
G01X4094Y5590D03*
G01X3779Y3858D03*
G01X25590Y6929D03*
G01X8267Y8582D03*
G01X25275Y5984D03*
G01X12519Y7716D03*
G01X25314Y12007D03*
G01X15433Y10787D03*
G01X16141Y4094D03*
G01X10787Y8110D03*
G01X10787Y7440D03*
G01X20629Y7401D03*
G01X19212Y5748D03*
G01X28503Y9153D03*
G01X24488Y4212D03*
G01X12952Y8976D03*
G01X5039Y10157D03*
G01X23149Y7952D03*
G01X7480Y7559D03*
G01X16850Y7086D03*

G04 Draw clearances for text*
G54D16*
G01X12165Y11292D02*
G01X12165Y11062D01*
G01X12252Y11292D02*
G01X12252Y11062D01*
G01X12252Y11292D02*
G01X12405Y11062D01*
G01X12405Y11292D02*
G01X12405Y11062D01*
G01X12492Y11292D02*
G01X12492Y11062D01*
G01X12492Y11292D02*
G01X12645Y11062D01*
G01X12645Y11292D02*
G01X12645Y11062D01*
G01X12732Y11292D02*
G01X12732Y11062D01*
G01X12732Y11292D02*
G01X12874Y11292D01*
G01X12732Y11182D02*
G01X12819Y11182D01*
G01X12732Y11062D02*
G01X12874Y11062D01*
G01X12961Y11292D02*
G01X12961Y11062D01*
G01X12961Y11292D02*
G01X13059Y11292D01*
G01X13059Y11292D02*
G01X13092Y11281D01*
G01X13092Y11281D02*
G01X13103Y11270D01*
G01X13103Y11270D02*
G01X13114Y11248D01*
G01X13114Y11248D02*
G01X13114Y11226D01*
G01X13114Y11226D02*
G01X13103Y11204D01*
G01X13103Y11204D02*
G01X13092Y11193D01*
G01X13092Y11193D02*
G01X13059Y11182D01*
G01X13059Y11182D02*
G01X12961Y11182D01*
G01X13038Y11182D02*
G01X13114Y11062D01*
G01X13376Y11248D02*
G01X13398Y11259D01*
G01X13398Y11259D02*
G01X13430Y11292D01*
G01X13430Y11292D02*
G01X13430Y11062D01*
G01X13856Y11237D02*
G01X13845Y11259D01*
G01X13845Y11259D02*
G01X13823Y11281D01*
G01X13823Y11281D02*
G01X13801Y11292D01*
G01X13801Y11292D02*
G01X13758Y11292D01*
G01X13758Y11292D02*
G01X13736Y11281D01*
G01X13736Y11281D02*
G01X13714Y11259D01*
G01X13714Y11259D02*
G01X13703Y11237D01*
G01X13703Y11237D02*
G01X13692Y11204D01*
G01X13692Y11204D02*
G01X13692Y11150D01*
G01X13692Y11150D02*
G01X13703Y11117D01*
G01X13703Y11117D02*
G01X13714Y11095D01*
G01X13714Y11095D02*
G01X13736Y11073D01*
G01X13736Y11073D02*
G01X13758Y11062D01*
G01X13758Y11062D02*
G01X13801Y11062D01*
G01X13801Y11062D02*
G01X13823Y11073D01*
G01X13823Y11073D02*
G01X13845Y11095D01*
G01X13845Y11095D02*
G01X13856Y11117D01*
G01X13856Y11117D02*
G01X13856Y11150D01*
G01X13801Y11150D02*
G01X13856Y11150D01*
G01X13943Y11292D02*
G01X13943Y11062D01*
G01X13943Y11292D02*
G01X14096Y11062D01*
G01X14096Y11292D02*
G01X14096Y11062D01*
G01X14183Y11292D02*
G01X14183Y11062D01*
G01X14183Y11292D02*
G01X14259Y11292D01*
G01X14259Y11292D02*
G01X14292Y11281D01*
G01X14292Y11281D02*
G01X14314Y11259D01*
G01X14314Y11259D02*
G01X14325Y11237D01*
G01X14325Y11237D02*
G01X14336Y11204D01*
G01X14336Y11204D02*
G01X14336Y11150D01*
G01X14336Y11150D02*
G01X14325Y11117D01*
G01X14325Y11117D02*
G01X14314Y11095D01*
G01X14314Y11095D02*
G01X14292Y11073D01*
G01X14292Y11073D02*
G01X14259Y11062D01*
G01X14259Y11062D02*
G01X14183Y11062D01*

G04 -------------- Draw Parts, Pads, Traces, Vias and Text (positive)*
%LPD*%
G04 Draw part J0*
G04 Draw part C1*
G04 Draw part C2*
G04 Draw part C3*
G04 Draw part C4*
G04 Draw part C5*
G04 Draw part C6*
G04 Draw part C7*
G04 Draw part C8*
G04 Draw part C9*
G04 Draw part C10*
G04 Draw part C11*
G04 Draw part U1*
G04 Draw part X1*
G04 Draw part C18*
G04 Draw part C19*
G04 Draw part R1*
G04 Draw part C12*
G04 Draw part C13*
G04 Draw part U2*
G04 Draw part U3*
G04 Draw part U4*
G04 Draw part L1*
G04 Draw part J1*
G54D17*
G01X2362Y12598D03*
G04 Draw part J2*
G01X27165Y12598D03*
G04 Draw part J3*
G04 Draw part J4*
G01X20330Y13385D03*
G04 Draw part C17*
G04 Draw part M1*
G04 Draw part M2*
G04 Draw part C16*
G04 Draw part C15*
G04 Draw part C20*
G04 Draw part R2*
G04 Draw part C14*
G04 Draw part TP1*

G04 Draw traces*
G54D18*
G01X24133Y12519D03*
G01X17086Y10787D03*
G01X21259Y10708D03*
G01X27007Y6929D03*
G01X551Y5511D03*
G01X9291Y8976D03*
G01X27007Y8464D03*
G01X11456Y8110D03*
G01X11456Y7440D03*
G01X20944Y5669D03*
G01X14488Y7716D03*
G01X20000Y7401D03*
G01X2677Y6614D03*
G01X9291Y5118D03*
G01X14566Y4488D03*
G01X26062Y4212D03*
G01X24094Y3937D03*
G01X31496Y3937D03*
G01X6496Y10551D03*
G01X6496Y11692D03*
G01X27244Y11299D03*
G01X26633Y5708D03*
G01X29173Y9133D03*
G01X29724Y3937D03*
G01X6102Y3937D03*
G01X787Y3937D03*
G01X28503Y6771D03*
G01X28503Y5511D03*
G01X19881Y5748D03*
G01X17637Y8818D03*
G01X12598Y3858D03*
G01X12283Y8976D03*
G01X15039Y12362D03*
G01X5944Y11692D03*
G01X5944Y10551D03*
G01X3858Y9842D03*
G01X3385Y11417D03*
G01X12755Y12125D03*

G04 Draw Text*
M00*
M02*
